<svg viewBox="0 0 16 16" xmlns="http://www.w3.org/2000/svg">
  <path d="M15.5721 6.37512L8.67669 8.50261a2.39991 2.39991 0 0 1-1.35335 0L2.30997 6.95579c-.2141.28595-.27545.57625-.29795.95837.23245.13995.388.3947.388.68583 0 .2988-.16393.55915-.40663.69652l.40493 3.07739c.01575.1197-.0775.2261-.1983.2261h-1.2c-.120701 0-.214051-.1063-.198301-.2261l.404921-3.07741c-.242696-.13735-.406621-.3977-.406621-.6965 0-.30085.16615-.56278.411621-.6994.02368-.44877.09935-.83077.3038-1.18992L.427894 6.37512c-.5719-.17003-.56915-.98103 0-1.15025l6.895416-2.1275a2.39991 2.39991 0 0 1 1.35335 0l6.89544 2.1275c.5719.17002.5692.98102 0 1.15025zM8.91259 9.26704l-.00518.0016-.00517.00152a3.19987 3.19987 0 0 1-1.80443 0l-.00517-.00152-.00518-.0016-3.77284-1.16425L3.00002 10.2c0 .8836 2.23857 1.6 4.99999 1.6C10.7614 11.8 13 11.0836 13 10.2l-.3146-2.09721-3.77281 1.16425z" fill="#000"/>
</svg>
