<svg viewBox="0 0 15 15" xmlns="http://www.w3.org/2000/svg">
  <path d="M14.0031 9.75v3.5c0 .4156-.3343.75-.75.75H9.75313c-.66875 0-1.00313-.8094-.53125-1.2812l1.13122-1.1313L7 8.2375l-3.35 3.3531 1.13125 1.1282C5.25313 13.1906 4.91875 14 4.25 14H.75c-.415625 0-.75-.3344-.75-.75v-3.5c0-.66875.809375-1.00312 1.28125-.53125L2.4125 10.35 5.76563 7 2.4125 3.64688 1.28125 4.78125C.809375 5.25313 0 4.91875 0 4.25V.75C0 .334375.334375 0 .75 0h3.5c.66875 0 1.00313.809375.53125 1.28125L3.65 2.4125 7 5.7625l3.3531-3.35312-1.13122-1.12813C8.75.809375 9.08438 0 9.75313 0h3.49997c.4157 0 .75.334375.75.75v3.5c0 .66875-.8093 1.00313-1.2812.53125L11.5906 3.65 8.2375 7l3.3531 3.3531 1.1313-1.13122c.4719-.475 1.2812-.14063 1.2812.52812z" fill="#000"/>
</svg>
