<svg viewBox="0 0 16 16" fill="none" xmlns="http://www.w3.org/2000/svg">
  <path d="M10.1653 6.63479c1.4937 1.49522 1.4732 3.89241.009 5.36471-.0027.003-.006.0063-.009.0093l-1.67999 1.68c-1.48175 1.4817-3.89247 1.4815-5.374 0-1.48175-1.4815-1.48175-3.89251 0-5.37401l.92765-.92765c.246-.246.66965-.0825.68235.26515.0162.44305.09565.88817.24225 1.31802.04965.14555.01418.30655-.09457.4153l-.32718.32718c-.70065.70061-.72262 1.84151-.02887 2.54901.7006.7145 1.85215.7187 2.55812.0127l1.68-1.6797c.70478-.70479.70183-1.84394 0-2.54576-.09252-.09235-.18572-.1641-.25852-.21423a.400893.400893 0 0 1-.12418-.13699.400855.400855 0 0 1-.0495-.17816c-.0099-.26417.0837-.5364.29245-.74515l.52635-.52637c.13803-.13803.35455-.15498.5146-.04328.18329.12799.35494.27185.51304.42993zm3.5234-3.52355c-1.4815-1.48155-3.89226-1.48175-5.37401 0l-1.68 1.68c-.003.003-.00625.00625-.009.00925-1.46415 1.4723-1.48468 3.86952.009 5.36471.15807.1581.32974.302.51302.4299.16005.1117.3766.0948.5146-.0432l.52635-.5264c.20875-.20876.30235-.48099.29245-.74516a.400974.400974 0 0 0-.04949-.17816.400993.400993 0 0 0-.12418-.13699c-.0728-.05013-.166-.12188-.25853-.21423-.70182-.70182-.70477-1.84097 0-2.54575l1.68-1.67975c.70599-.70597 1.85749-.70172 2.55809.01275.6938.7075.6718 1.84835-.0288 2.549l-.3272.32718c-.1088.10875-.1442.26975-.0946.4153.1466.42985.2261.87497.2423 1.31802.0127.34765.4363.51115.6823.26515l.9277-.92765c1.4817-1.48147 1.4817-3.89247 0-5.37397z" fill="#000"/>
</svg>
