<svg viewBox="0 0 16 16" xmlns="http://www.w3.org/2000/svg">
  <path d="M12.7489 7.99813l1.0778-1.0548c.3213-.30415.1715-.84467-.2499-.94545l-1.4684-.37476.4139-1.45348c.117-.41808-.2772-.81241-.6951-.69541l-1.453.41407-.37464-1.46885c-.09914-.41482-.6457-.56653-.94512-.25003L7.99999 3.25556 6.94556 2.16944c-.29601-.31291-.84485-.16955-.94511.25003l-.37463 1.46885-1.453-.41407c-.41806-.11705-.81213.27743-.69518.69541l.41393 1.45348-1.46836.37476c-.42159.10081-.5711.64142-.24996.94543l1.07777 1.0548-1.07777 1.05478c-.32128.30415-.17147.84466.24994.94544l1.46835.37475-.41393 1.4535c-.11697.4181.27725.8124.69518.6954l1.45299-.4141.37462 1.4689c.10404.4353.64913.5629.94512.25l1.05447-1.0781 1.05443 1.0781c.29297.3161.84345.1755.94512-.25l.37466-1.4689 1.4529.4141c.4181.1171.8122-.2774.6952-.6954l-.4139-1.4535 1.4684-.37475c.4215-.10082.571-.64141.2499-.94544l-1.0778-1.05478z" fill="#000"/>
</svg>
