<svg viewBox="0 0 16 16" xmlns="http://www.w3.org/2000/svg">
  <path d="M2.95267 11.1515c-.75372.7537-.21955 2.0485.84853 2.0485H6.6c0 .8837.71635 1.6 1.6 1.6s1.6-.7163 1.6-1.6h.8171L4.1962 7.53447c-.05495 2.42696-.71098 3.08443-1.24353 3.61703zM7.6 13.2c0 .3309.26915.6.6.6.05304 0 .10391.0211.14142.0586A.200003.200003 0 0 1 8.4 14c0 .053-.02107.1039-.05858.1414-.03751.0375-.08838.0586-.14142.0586-.5514 0-1-.4486-1-1h.4zm7.6474 1.0933l-.2691.3022c-.2228.2503-.6083.2741-.8609.0533L1.2064 3.35983c-.252602-.22088-.276677-.60283-.0538-.85315l.26902-.30216c.2229-.2503.60835-.27417.86095-.05329l2.84525 2.48779c.60043-.71945 1.44865-1.22489 2.41375-1.38474A.796216.796216 0 0 1 7.4 2.8c0-.44182.35817-.8.8-.8.44182 0 .8.35818.8.8 0 .16875-.05238.3252-.14158.45425C10.7542 3.56827 12.2 5.21515 12.2 7.2c0 2.70295.6908 3.3952 1.2471 3.9515.3037.3037.3981.6944.3332 1.053l1.4133 1.2357c.2526.2208.2767.6028.0538.8531z" fill="#000"/>
</svg>
