<svg viewBox="0 0 16 16" fill="none" xmlns="http://www.w3.org/2000/svg">
  <path d="M14.4469 5.55063l-1.1525 1.15249c-.1175.1175-.3075.1175-.425 0l-2.775-2.775c-.11749-.1175-.11749-.3075 0-.425l1.1525-1.1525c.4675-.4675 1.2275-.4675 1.6975 0l1.5025 1.5025c.47.4675.47 1.22751 0 1.69751zM9.10441 4.49312l-6.565 6.56498-.53 3.0375c-.0725.41.285.765.695.695l3.0375-.5325 6.56499-6.56498c.1175-.1175.1175-.3075 0-.42499L9.53191 4.49312c-.12-.11749-.31-.11749-.4275 0zm-4.0025 6.00248c-.1375-.1375-.1375-.3575 0-.495l3.85-3.84998c.1375-.1375.3575-.1375.495 0 .1375.13751.1375.3575 0 .495l-3.85 3.84998c-.1375.1375-.3575.1375-.495 0zm-.9025 2.1025h1.2v.9075l-1.6125.2825-.7775-.7775.2825-1.6125h.9075v1.2z" fill="#000"/>
</svg>
