<svg viewBox="0 0 19 19" xmlns="http://www.w3.org/2000/svg">
  <path d="M18.6 9.3a9.3 9.3 0 0 1-9.3 9.3A9.3 9.3 0 0 1 0 9.3C0 4.166 4.164 0 9.3 0c5.136 0 9.3 4.166 9.3 9.3zM9.55 3.075c-2.044 0-3.348.86-4.371 2.39a.45.45 0 0 0 .102.61l1.301.987a.45.45 0 0 0 .625-.08c.67-.849 1.13-1.342 2.149-1.342.766 0 1.713.493 1.713 1.236 0 .562-.463.85-1.22 1.274C8.967 8.645 7.8 9.26 7.8 10.8v.15c0 .248.201.45.45.45h2.1a.45.45 0 0 0 .45-.45v-.05c0-1.067 3.12-1.112 3.12-4 0-2.175-2.257-3.825-4.37-3.825zm-.25 9.3c-.951 0-1.725.774-1.725 1.725 0 .951.774 1.725 1.725 1.725.951 0 1.725-.774 1.725-1.725 0-.951-.774-1.725-1.725-1.725z" fill="#000"/>
</svg>
