<svg viewBox="0 0 16 16" fill="none" xmlns="http://www.w3.org/2000/svg">
  <path d="M13.2771 6.6875c.218 0 .3544.23801.242.42478C12.9288 8.09356 11.8536 8.75 10.625 8.75c-1.85677 0-3.36331-1.49939-3.37494-3.35341C7.23839 3.53443 8.76284 1.99998 10.625 2c1.2273.00002 2.3015.65505 2.8922 1.6346.1134.18804-.0206.4279-.2402.4279h-2.4645L9.87499 5.375l.93751 1.3125h2.4646zM9.25406 8.86726l-4.6934 4.69344c-.5858.5857-1.53551.5858-2.12133 0-.58577-.5858-.58577-1.5356 0-2.1214l4.69326-4.69321c.37875.96556 1.15554 1.74223 2.12147 2.12117zM4.43749 12.125c0-.3107-.25183-.5625-.5625-.5625-.31066 0-.5625.2518-.5625.5625s.25184.5625.5625.5625c.31067 0 .5625-.2518.5625-.5625z" fill="#000"/>
</svg>
