<svg viewBox="0 0 16 16" xmlns="http://www.w3.org/2000/svg">
  <path d="M12.8471 11.1515C12.2908 10.5952 11.6 9.90295 11.6 7.2c0-1.98485-1.4458-3.63173-3.34158-3.94575A.796109.796109 0 0 0 8.4 2.8c0-.44182-.35818-.8-.8-.8-.44183 0-.8.35818-.8.8 0 .16875.05237.3252.14157.45425C5.04577 3.56827 3.6 5.21515 3.6 7.2c0 2.70295-.69108 3.3952-1.24733 3.9515-.75372.7537-.21955 2.0485.84853 2.0485H6c0 .8837.71635 1.6 1.6 1.6s1.6-.7163 1.6-1.6h2.7986c1.0659 0 1.6037-1.2933.8485-2.0485zM7.6 13.8c.05304 0 .10391.0211.14142.0586A.200003.200003 0 0 1 7.8 14c0 .053-.02107.1039-.05858.1414-.03751.0375-.08838.0586-.14142.0586-.5514 0-1-.4486-1-1H7c0 .3309.26915.6.6.6z" fill="#000"/>
</svg>
