<svg xmlns="http://www.w3.org/2000/svg" width="153.38" height="88.986" viewBox="0 0 153.38 88.986">
  <path d="M148.93 62.356l-20.847-16.384c-1.276-1-1.276-2.642 0-3.645l20.848-16.38c1.28-1.002 1.82-2.695 1.19-3.76-.62-1.062-2.37-1.44-3.88-.84l-24.79 9.874c-1.5.61-2.92-.22-3.15-1.83l-3.73-26.46c-.23-1.61-1.44-2.93-2.69-2.93-1.24 0-2.45 1.32-2.68 2.93l-3.73 26.47c-.23 1.61-1.64 2.44-3.15 1.83l-24.38-9.71c-1.51-.6-3.97-.6-5.48 0l-24.39 9.71c-1.51.61-2.93-.22-3.15-1.83L41.19 2.93C40.957 1.32 39.747 0 38.5 0c-1.252 0-2.463 1.317-2.688 2.925l-3.73 26.467c-.226 1.61-1.645 2.434-3.153 1.83L4.14 21.35c-1.507-.603-3.252-.223-3.878.838-.625 1.066-.092 2.76 1.184 3.76l20.85 16.38c1.277 1.003 1.277 2.645 0 3.646L1.446 62.356C.166 63.358-.364 65.152.26 66.34c.627 1.19 2.372 1.668 3.877 1.064l24.567-9.866c1.51-.603 2.914.218 3.125 1.828l3.54 26.696c.21 1.607 1.62 2.923 3.12 2.923s2.9-1.315 3.12-2.923l3.55-26.696c.21-1.61 1.62-2.43 3.12-1.828l24.16 9.698c1.5.606 3.97.606 5.47 0l24.16-9.698c1.5-.603 2.91.218 3.12 1.828l3.55 26.696c.212 1.607 1.617 2.923 3.115 2.923 1.504 0 2.91-1.315 3.12-2.923l3.55-26.696c.22-1.61 1.62-2.43 3.126-1.828l24.57 9.866c1.5.604 3.25.125 3.876-1.063.63-1.18.096-2.98-1.183-3.98zM95.89 46.18L77.53 60.315c-1.285.99-3.393.99-4.674 0L54.49 46.18c-1.284-.99-1.294-2.62-.02-3.625l18.4-14.493c1.274-1.005 3.363-1.005 4.638 0l18.4 14.493c1.277 1.004 1.267 2.634-.02 3.626z"/>
</svg>
