<?xml version="1.0" encoding="utf-8"?>
<!-- Generator: Adobe Illustrator 15.1.0, SVG Export Plug-In . SVG Version: 6.00 Build 0)  -->
<!DOCTYPE svg PUBLIC "-//W3C//DTD SVG 1.1//EN" "http://www.w3.org/Graphics/SVG/1.1/DTD/svg11.dtd">
<svg version="1.1" id="Layer_1" xmlns="http://www.w3.org/2000/svg" xmlns:xlink="http://www.w3.org/1999/xlink" x="0px" y="0px"
	 width="252.016px" height="68.938px" viewBox="0 0 252.016 68.938" enable-background="new 0 0 252.016 68.938"
	 xml:space="preserve">
<g>
	<g>
		<path d="M55.875,67.751c-5.242,0-13.354,0.297-13.354,0.297v-1.977l2.077-0.199c3.462-0.297,5.242-0.791,5.242-2.67
			c0-1.582-2.474-7.021-3.957-10.484c-2.176-5.242-4.846-11.77-4.846-11.77s-3.463-0.101-11.374-0.101
			c-6.43,0-10.287,0.101-10.287,0.101s-3.461,8.108-4.056,9.594c-1.779,4.551-3.759,9.297-3.759,11.67
			c0,2.178,1.88,3.363,5.241,3.66l2.275,0.196v1.979c0,0-6.925-0.297-11.078-0.297c-3.363,0-9,0.297-9,0.297v-1.977l2.075-0.3
			c2.474-0.395,4.354-1.58,6.134-5.537c1.879-4.153,5.935-13.944,9.692-22.946C22.937,22.749,31.937,1.088,32.333,0h2.273
			c1.387,3.66,10.583,25.813,13.849,33.728c12.265,29.87,12.957,31.452,17.309,32.046l2.275,0.298v1.979
			C68.041,68.048,60.623,67.751,55.875,67.751z M30.06,14.74l-9.396,23.239h19.188L30.06,14.74z"/>
		<path d="M99.491,35.509c-1.879,0-1.979-1.979-3.164-3.066c-0.596-0.493-1.188-0.891-2.178-0.891c-2.473,0-4.55,3.857-6.822,10.683
			c0,6.031,0,15.23,0.099,18.793c0.099,3.759,1.78,4.152,7.021,4.646l3.857,0.396v1.979c0,0-11.177-0.199-15.133-0.199
			c-3.957,0-11.474,0.199-11.474,0.199V66.07l3.362-0.396c3.066-0.395,3.659-1.088,3.758-4.646
			c0.101-5.047,0.101-7.911,0.101-12.856c0-4.947,0-8.012-0.101-12.859c-0.099-4.252-1.187-5.835-4.846-6.132l-2.473-0.198v-1.778
			c0,0,5.539-0.892,8.704-1.583c2.866-0.594,7.22-1.683,7.22-1.683s-0.1,7.022-0.1,12.859c0.692-2.177,2.867-6.924,5.935-9.891
			c2.374-2.374,4.847-2.969,7.122-2.969c3.264,0,5.439,2.572,5.439,4.354C105.821,30.761,102.556,35.509,99.491,35.509z"/>
	</g>
	<g>
		<path d="M129.262,68.938c-9,0-18.792-8.012-18.792-21.166c0-16.021,9.99-23.836,19.386-23.836
			c13.451,0,17.902,9.297,18.596,18.397c0,0-12.463-0.199-20.572-0.199c-3.66,0-9.396,0.102-9.396,0.102v0.789
			c0,12.761,7.222,20.078,16.616,20.078c6.429,0,11.475-4.055,13.057-5.438l1.089,1.78
			C144.692,63.598,137.967,68.938,129.262,68.938z M129.065,26.607c-8.209,0-10.287,9.791-10.386,12.76h20.671
			C139.351,33.728,136.78,26.607,129.065,26.607z"/>
		<path d="M193.453,67.85c-3.956,0-11.475,0.199-11.475,0.199V66.07l3.362-0.396c3.065-0.395,3.561-0.988,3.759-4.646
			c0.198-3.659,0.198-5.538,0.198-10.483s-0.1-9.791-0.297-12.562c-0.297-5.438-4.057-8.604-9-8.604
			c-5.343,0-9.298,2.67-10.484,3.659c0,0-0.1,3.56-0.1,14.046c0,4.944,0,10.481,0.1,13.944c0.1,3.162,0.891,4.353,4.056,4.646
			l3.856,0.396v1.979c0,0-8.209-0.199-12.166-0.199c-3.956,0-11.473,0.199-11.473,0.199V66.07l3.361-0.396
			c3.066-0.395,3.659-1.088,3.76-4.646c0.1-5.047,0.1-7.911,0.1-12.856c0-4.947,0-8.012-0.1-12.859
			c-0.1-4.252-1.188-5.835-4.848-6.132l-2.473-0.198v-1.778c0,0,5.539-0.892,8.704-1.583c2.868-0.594,7.22-1.683,7.22-1.683
			l-0.099,6.924c3.462-2.57,9.495-6.924,16.615-6.924c5.736,0,11.672,4.057,11.672,13.451c0,10.188-0.101,11.969-0.101,13.354
			c0,3.659,0,7.221,0.101,10.287c0.099,3.063,0.89,4.352,4.056,4.647l3.856,0.396v1.979C205.617,68.048,197.408,67.85,193.453,67.85
			z"/>
	</g>
	<g>
		<path d="M239.544,68.741c-4.451,0-6.33-5.439-6.33-5.439s-6.529,5.637-12.562,5.637c-5.341,0-10.979-4.942-10.979-10.682
			c0-6.627,6.727-10.781,12.76-12.561c5.439-1.585,10.484-1.685,10.484-1.685s0.196-5.637,0.196-9.198
			c0-5.638-3.164-8.405-6.726-8.405c-3.856,0-5.242,2.176-6.231,4.055c-1.778,3.462-3.164,4.749-5.735,4.749
			c-2.176,0-2.967-1.98-2.967-3.365c0-1.681,0.986-2.967,4.055-4.748c3.264-1.879,8.209-3.064,12.561-3.064
			c9.496,0,13.155,3.361,13.155,9.197c0,6.824-0.396,8.703-0.396,24.529c0,4.252,1.979,5.439,4.055,5.439
			c2.374,0,5.242-2.076,5.242-2.076l0.891,1.385C251.016,62.51,244.489,68.741,239.544,68.741z M224.509,47.673
			c-3.461,0.99-7.021,3.363-7.021,6.924c0,6.33,4.945,9.103,9.197,9.103c2.374,0,4.748-1.188,6.133-2.476l0.102-14.936
			C232.917,46.288,228.466,46.488,224.509,47.673z"/>
	</g>
</g>
</svg>
