<svg xmlns="http://www.w3.org/2000/svg" xmlns:xlink="http://www.w3.org/1999/xlink" version="1.1" id="Ebene_1" x="0px" y="0px" width="100.0px" height="100px" viewBox="0 0 512 512" enable-background="new 0 0 512 512" xml:space="preserve">
<g>
	<path d="M128,328c-39.701,0-72-32.299-72-72s32.299-72,72-72s72,32.299,72,72S167.701,328,128,328z M128,200   c-30.878,0-56,25.122-56,56s25.122,56,56,56s56-25.122,56-56S158.878,200,128,200z"/>
</g>
<g>
	<path d="M384,456c-39.701,0-72-32.299-72-72s32.299-72,72-72s72,32.299,72,72S423.701,456,384,456z M384,328   c-30.878,0-56,25.122-56,56s25.122,56,56,56s56-25.122,56-56S414.878,328,384,328z"/>
</g>
<g>
	<path d="M384,200c-39.701,0-72-32.299-72-72s32.299-72,72-72s72,32.299,72,72S423.701,200,384,200z M384,72   c-30.878,0-56,25.122-56,56s25.122,56,56,56s56-25.122,56-56S414.878,72,384,72z"/>
</g>
<g>
	<g>
		<path d="M217.163,220.363l84.838-42.419c-2.768-4.535-5.168-9.318-7.164-14.306L210,206.057    C212.767,210.591,215.167,215.374,217.163,220.363z"/>
	</g>
	<g>
		<path d="M302.001,334.056l-84.838-42.419c-1.996,4.989-4.396,9.771-7.164,14.306l84.838,42.419    C296.833,343.374,299.233,338.591,302.001,334.056z"/>
	</g>
</g>
</svg>