<?xml version="1.0" encoding="utf-8"?>
<!-- Generator: Adobe Illustrator 15.1.0, SVG Export Plug-In . SVG Version: 6.00 Build 0)  -->
<!DOCTYPE svg PUBLIC "-//W3C//DTD SVG 1.1//EN" "http://www.w3.org/Graphics/SVG/1.1/DTD/svg11.dtd">
<svg version="1.1" id="Layer_1" xmlns="http://www.w3.org/2000/svg" xmlns:xlink="http://www.w3.org/1999/xlink" x="0px" y="0px"
	 width="452px" height="315px" viewBox="0 0 452 315" enable-background="new 0 0 452 315" xml:space="preserve">
<path fill-rule="evenodd" clip-rule="evenodd" d="M107,153c2.102,1.525,0.944,8.211-2,8C105.246,157.913,106.014,155.347,107,153z"
	/>
<path fill-rule="evenodd" clip-rule="evenodd" d="M184,165c-1.096,3.57-3.429,5.904-7,7C178.621,168.954,180.079,165.746,184,165z"
	/>
<path fill-rule="evenodd" clip-rule="evenodd" d="M103,181c2.725,0.941,2.289,5.045,3,8C102.646,188.687,103.198,184.469,103,181z"
	/>
<path fill-rule="evenodd" clip-rule="evenodd" fill="none" stroke="#000000" stroke-width="1.6637" stroke-linecap="round" d="
	M3.5,81.5c7.452,50.858,26.26,92.074,55.776,133.218c29.963,41.767,70.85,79.145,122.715,92.429
	c45.1,11.552,91.995,5.096,136.655-8.5c44.386-13.513,89.86-34.088,118.621-70.356c18.836-23.751,13.598-50.514,3.594-77.29
	c-19.014-50.887-62.68-114.314-107.833-138.029c-21.377-11.228-62.323-13.07-99.369-9.969
	c-28.572,2.392-65.347,9.314-101.013,14.645c-36.469,5.451-69.679,6.85-99.126,15.318C16.832,37.764-3.107,54.102,3.5,81.5"/>
<path fill-rule="evenodd" clip-rule="evenodd" fill="none" stroke="#000000" stroke-width="2.6986" stroke-linecap="round" d="
	M196.357,73.214c-12.802,6.167-22.783,16.374-34.857,24.72"/>
<path fill-rule="evenodd" clip-rule="evenodd" fill="none" stroke="#000000" stroke-width="1.5055" stroke-linecap="round" d="
	M130.5,97.5c0.429,3.043-1.941,5.437-3,8"/>
<path fill-rule="evenodd" clip-rule="evenodd" fill="none" stroke="#000000" stroke-width="2.9777" stroke-linecap="round" d="
	M92.75,92.75c32.213-14.22,73.17-18.372,109.469-24.749"/>
<path fill-rule="evenodd" clip-rule="evenodd" fill="none" stroke="#000000" stroke-width="2.9604" stroke-linecap="round" d="
	M96.75,90.5c18.853,6.792,41.037,3.588,61,7.435"/>
<path fill-rule="evenodd" clip-rule="evenodd" fill="none" stroke="#000000" stroke-width="2" stroke-linecap="round" d="
	M198.5,84.5c0.417,0.916,1.048,1.618,2,2"/>
<path fill-rule="evenodd" clip-rule="evenodd" fill="none" stroke="#000000" stroke-width="2" stroke-linecap="round" d="M183,74.25
	c0.417,0.916,1.048,1.618,2,2"/>
<path fill-rule="evenodd" clip-rule="evenodd" fill="none" stroke="#000000" stroke-width="2.553" stroke-linecap="round" d="
	M302.5,117.5c-16.454,9.629-32.855,20.746-49.891,30.564"/>
<path fill-rule="evenodd" clip-rule="evenodd" fill="none" stroke="#000000" stroke-width="1.7889" stroke-linecap="round" d="
	M214,125.333c0.007-1.789,0.378-2.569,0.5-3.833"/>
<path fill-rule="evenodd" clip-rule="evenodd" fill="none" stroke="#000000" stroke-width="2.9004" stroke-linecap="round" d="
	M193.75,129c37.242-4.315,74.669-10.368,111.75-16.25"/>
<path fill-rule="evenodd" clip-rule="evenodd" fill="none" stroke="#000000" stroke-width="1.5374" stroke-linecap="round" d="
	M205.5,139.5c0.938-1.65,1.063-4.27,3-5"/>
<path fill-rule="evenodd" clip-rule="evenodd" fill="none" stroke="#000000" stroke-width="2.8386" stroke-linecap="round" d="
	M193.75,129c15.757,9.181,33.826,12.793,50.25,20.5"/>
<path fill-rule="evenodd" clip-rule="evenodd" fill="none" stroke="#000000" stroke-width="2" stroke-linecap="round" d="
	M209.5,97.5c-0.357-0.643-0.78-1.22-1-2"/>
<path fill-rule="evenodd" clip-rule="evenodd" fill="none" stroke="#000000" stroke-width="2" stroke-linecap="round" d="
	M214.5,107.5c-0.072,1.405,0.463,2.204,1,3"/>
<path fill-rule="evenodd" clip-rule="evenodd" fill="none" stroke="#000000" stroke-width="1.4142" stroke-linecap="round" d="
	M122,115c-0.351,0.649-0.382,1.618-0.5,2.5"/>
<path fill-rule="evenodd" clip-rule="evenodd" fill="none" stroke="#000000" stroke-width="1.5119" stroke-linecap="round" d="
	M115,131c0.496-1.171,1.249-2.084,1.5-3.5"/>
<path fill-rule="evenodd" clip-rule="evenodd" fill="none" stroke="#000000" stroke-width="1.5119" stroke-linecap="round" d="
	M134.25,92.25c0.496-1.171,1.249-2.084,1.5-3.5"/>
<path fill-rule="evenodd" clip-rule="evenodd" fill="none" stroke="#000000" stroke-width="1.5119" stroke-linecap="round" d="
	M138.5,84.5c0.496-1.171,1.249-2.084,1.5-3.5"/>
<path fill-rule="evenodd" clip-rule="evenodd" fill="none" stroke="#000000" stroke-width="1.7321" stroke-linecap="round" d="
	M111.5,141.5c-0.426,0.792-0.76,1.601-1,3"/>
<path fill-rule="evenodd" clip-rule="evenodd" fill="none" stroke="#000000" stroke-width="1.4907" stroke-linecap="round" d="
	M200.5,145.5c-1.289,1.137-1.771,2.529-3,3"/>
<path fill-rule="evenodd" clip-rule="evenodd" fill="none" stroke="#000000" stroke-width="2.8603" stroke-linecap="round" d="
	M134,169c42.65,17.842,88.387,31.846,132.5,47.75"/>
<path fill-rule="evenodd" clip-rule="evenodd" fill="none" stroke="#000000" stroke-width="1.6583" stroke-linecap="round" d="
	M151,196c-1.358,1.066-2.261,2.04-3.5,2.5"/>
<path fill-rule="evenodd" clip-rule="evenodd" fill="none" stroke="#000000" stroke-width="2.4576" stroke-linecap="round" d="
	M135,171.167c19.911,19.315,31.192,45.695,50.029,65.666"/>
<path fill-rule="evenodd" clip-rule="evenodd" fill="none" stroke="#000000" stroke-width="2.7964" stroke-linecap="round" d="
	M186.75,238.402c26.568-7.641,53.05-15.944,79.75-22.891"/>
<path fill-rule="evenodd" clip-rule="evenodd" fill="none" stroke="#000000" stroke-width="1.3693" stroke-linecap="round" d="
	M188.5,160.5c0.497-0.837,0.963-1.703,1.5-2.5"/>
<path fill-rule="evenodd" clip-rule="evenodd" fill="none" stroke="#000000" stroke-width="2.1044" stroke-linecap="round" d="
	M104,172c0-0.962,0-2.15,0-3"/>
<path fill-rule="evenodd" clip-rule="evenodd" fill="none" stroke="#000000" stroke-width="1.3693" stroke-linecap="round" d="
	M159,189c0.868-0.466,1.479-1.187,2.5-1.5"/>
<path fill-rule="evenodd" clip-rule="evenodd" fill="none" stroke="#000000" stroke-width="1.3416" stroke-linecap="round" d="
	M110,196c0.465,0.868,1.187,1.479,1.5,2.5"/>
<path fill-rule="evenodd" clip-rule="evenodd" fill="none" stroke="#000000" stroke-width="1.8708" stroke-linecap="round" d="
	M121.5,204c1.038,0.008,1.85,0.378,3,0.5"/>
<path fill-rule="evenodd" clip-rule="evenodd" fill="none" stroke="#000000" stroke-width="1.6475" stroke-linecap="round" d="
	M135,205c0.674-0.07,1.914-0.489,3.5-0.5"/>
<g>
	<path d="M312.314,60.431l-5.75-4.426c-0.401-0.311-0.405-0.821-0.006-1.135l5.761-4.538l-0.132-2.051l-7.634,3.041
		c-0.473,0.189-0.917-0.069-0.989-0.573l-1.166-8.287c-0.07-0.503-0.449-0.916-0.841-0.916c-0.393,0-0.771,0.412-0.841,0.916
		l-1.168,8.287c-0.071,0.503-0.516,0.762-0.987,0.573L290.8,48.23c-0.472-0.189-1.018-0.07-1.215,0.262
		c-0.195,0.334-0.028,0.864,0.371,1.178l6.527,5.128c0.4,0.314,0.4,0.828,0,1.141l-6.527,5.13c-0.399,0.314-0.566,0.875-0.371,1.248
		c0.197,0.372,0.743,0.522,1.214,0.333l7.691-3.089c0.473-0.189,0.913,0.068,0.979,0.573l1.11,8.358
		c0.066,0.503,0.507,0.915,0.978,0.915c0.47,0,0.909-0.412,0.977-0.915l1.111-8.358c0.065-0.504,0.508-0.762,0.978-0.573
		l7.566,3.037 M290.812,62.598l7.563-3.037c0.472-0.189,0.912,0.068,0.979,0.573l1.111,8.358c0.065,0.503,0.506,0.915,0.976,0.915
		c0.469,0,0.91-0.412,0.976-0.915l1.111-8.358c0.068-0.504,0.508-0.762,0.979-0.573l7.691,3.089c0.471,0.189,1.018,0.04,1.214-0.333
		c0.195-0.373,0.029-0.934-0.371-1.248l0,0l-6.528-5.13c-0.399-0.313-0.399-0.827,0-1.141l6.528-5.128
		c0.4-0.313,0.566-0.844,0.371-1.178c-0.196-0.332-0.743-0.451-1.215-0.262l-7.762,3.091c-0.472,0.189-0.916-0.069-0.987-0.573
		l-1.167-8.287c-0.071-0.503-0.449-0.916-0.841-0.916s-0.771,0.412-0.841,0.916l-1.167,8.287c-0.071,0.503-0.516,0.762-0.988,0.573
		l-7.633-3.041l-0.133,2.051l5.761,4.538c0.398,0.314,0.396,0.825-0.007,1.135l0,0l-5.748,4.426"/>
</g>
<g>
	<path d="M105.354,95.454l-5.75-4.426c-0.401-0.311-0.405-0.821-0.006-1.135l5.761-4.538l-0.132-2.051l-7.634,3.041
		c-0.473,0.189-0.917-0.069-0.989-0.573l-1.166-8.287c-0.07-0.503-0.449-0.916-0.841-0.916c-0.393,0-0.771,0.412-0.841,0.916
		l-1.168,8.287c-0.071,0.503-0.516,0.762-0.987,0.573l-7.762-3.091c-0.472-0.189-1.018-0.07-1.215,0.262
		c-0.195,0.334-0.028,0.864,0.371,1.178l6.527,5.128c0.4,0.314,0.4,0.828,0,1.141l-6.527,5.13c-0.399,0.314-0.566,0.875-0.371,1.248
		c0.197,0.372,0.743,0.522,1.214,0.333l7.691-3.089c0.473-0.189,0.913,0.068,0.979,0.573l1.11,8.358
		c0.066,0.503,0.507,0.915,0.978,0.915c0.47,0,0.909-0.412,0.977-0.915l1.111-8.358c0.065-0.504,0.508-0.762,0.978-0.573
		l7.566,3.037 M83.853,97.621l7.563-3.037c0.472-0.189,0.912,0.068,0.979,0.573l1.111,8.358c0.065,0.503,0.506,0.915,0.976,0.915
		c0.469,0,0.91-0.412,0.976-0.915l1.111-8.358c0.068-0.504,0.508-0.762,0.979-0.573l7.691,3.089c0.471,0.189,1.018,0.04,1.214-0.333
		c0.195-0.373,0.029-0.934-0.371-1.248l0,0l-6.528-5.13c-0.399-0.313-0.399-0.827,0-1.141l6.528-5.128
		c0.4-0.313,0.566-0.844,0.371-1.178c-0.196-0.332-0.743-0.451-1.215-0.262l-7.762,3.091c-0.472,0.189-0.916-0.069-0.987-0.573
		l-1.167-8.287c-0.071-0.503-0.449-0.916-0.841-0.916s-0.771,0.412-0.841,0.916l-1.167,8.287c-0.071,0.503-0.516,0.762-0.988,0.573
		l-7.633-3.041l-0.133,2.051l5.761,4.538c0.398,0.314,0.396,0.825-0.007,1.135l0,0l-5.748,4.426"/>
</g>
<g>
	<path d="M212.25,71.262l-6.73-2.711c-0.47-0.191-0.612-0.682-0.312-1.092l4.324-5.923l-0.68-1.939l-6.532,4.986
		c-0.404,0.309-0.902,0.18-1.107-0.285l-3.357-7.666c-0.204-0.466-0.679-0.761-1.057-0.655c-0.378,0.106-0.632,0.605-0.563,1.108
		l1.109,8.295c0.067,0.504-0.291,0.873-0.796,0.818l-8.308-0.884c-0.505-0.055-0.999,0.207-1.1,0.58
		c-0.098,0.374,0.206,0.84,0.675,1.034l7.668,3.179c0.47,0.195,0.609,0.689,0.308,1.099l-4.903,6.7
		c-0.3,0.41-0.31,0.996-0.021,1.302c0.291,0.305,0.856,0.302,1.259-0.007l6.574-5.048c0.404-0.31,0.898-0.181,1.098,0.288
		l3.323,7.75c0.2,0.467,0.735,0.745,1.188,0.618c0.452-0.127,0.765-0.642,0.693-1.145l-1.183-8.349
		c-0.073-0.503,0.283-0.871,0.787-0.815l8.105,0.884 M192.128,79.146l6.465-4.963c0.403-0.309,0.897-0.18,1.098,0.288l3.323,7.749
		c0.199,0.467,0.734,0.745,1.186,0.618c0.452-0.126,0.766-0.642,0.693-1.144l-1.183-8.349c-0.07-0.504,0.284-0.87,0.789-0.815
		l8.239,0.901c0.504,0.056,0.991-0.236,1.079-0.647c0.088-0.412-0.224-0.907-0.693-1.102l0,0l-7.67-3.18
		c-0.469-0.194-0.607-0.688-0.308-1.099l4.904-6.699c0.301-0.41,0.318-0.965,0.04-1.234c-0.278-0.267-0.837-0.233-1.24,0.076
		l-6.641,5.069c-0.403,0.309-0.901,0.18-1.105-0.286l-3.358-7.666c-0.205-0.465-0.68-0.76-1.057-0.655s-0.631,0.604-0.563,1.108
		l1.11,8.295c0.067,0.504-0.291,0.872-0.797,0.818l-8.17-0.871l0.425,2.011l6.771,2.817c0.468,0.195,0.604,0.688,0.3,1.095l0,0
		l-4.342,5.812"/>
</g>
<g>
	<path d="M172.021,98.351l-6.73-2.711c-0.47-0.191-0.612-0.682-0.312-1.092l4.324-5.923l-0.68-1.939l-6.532,4.986
		c-0.404,0.309-0.902,0.18-1.107-0.285l-3.357-7.666c-0.204-0.466-0.679-0.761-1.057-0.655c-0.378,0.106-0.632,0.605-0.563,1.108
		l1.109,8.295c0.067,0.504-0.291,0.873-0.796,0.818l-8.308-0.884c-0.505-0.055-0.999,0.207-1.1,0.58
		c-0.098,0.374,0.206,0.84,0.675,1.034l7.668,3.179c0.47,0.195,0.609,0.689,0.308,1.099l-4.903,6.7
		c-0.3,0.41-0.31,0.996-0.021,1.302c0.291,0.305,0.856,0.302,1.259-0.007l6.574-5.048c0.404-0.31,0.898-0.181,1.098,0.288
		l3.323,7.75c0.2,0.467,0.735,0.745,1.188,0.618c0.452-0.127,0.765-0.642,0.693-1.145l-1.183-8.349
		c-0.073-0.503,0.283-0.871,0.787-0.815l8.105,0.884 M151.9,106.234l6.465-4.963c0.403-0.309,0.897-0.18,1.098,0.288l3.323,7.749
		c0.199,0.467,0.734,0.745,1.186,0.618c0.452-0.126,0.766-0.642,0.693-1.144l-1.183-8.349c-0.07-0.504,0.284-0.87,0.789-0.815
		l8.239,0.901c0.504,0.056,0.991-0.236,1.079-0.647c0.088-0.412-0.224-0.907-0.693-1.102l0,0l-7.67-3.18
		c-0.469-0.194-0.607-0.688-0.308-1.099l4.904-6.699c0.301-0.41,0.318-0.965,0.04-1.234c-0.278-0.267-0.837-0.233-1.24,0.076
		l-6.641,5.069c-0.403,0.309-0.901,0.18-1.105-0.286l-3.358-7.666c-0.205-0.465-0.68-0.76-1.057-0.655s-0.631,0.604-0.563,1.108
		l1.11,8.295c0.067,0.504-0.291,0.872-0.797,0.818l-8.17-0.871l0.425,2.011l6.771,2.817c0.468,0.195,0.604,0.688,0.3,1.095l0,0
		l-4.342,5.812"/>
</g>
<g>
	<path d="M362.165,132.269l-4.795-5.446c-0.334-0.382-0.24-0.884,0.212-1.116l6.524-3.349l0.264-2.038l-8.075,1.521
		c-0.5,0.095-0.887-0.244-0.861-0.752l0.444-8.357c0.027-0.507-0.266-0.984-0.649-1.06c-0.386-0.075-0.837,0.256-1.001,0.737
		l-2.735,7.91c-0.166,0.48-0.652,0.648-1.078,0.373l-7.025-4.521c-0.427-0.276-0.985-0.264-1.243,0.024
		c-0.255,0.291-0.193,0.843,0.139,1.227l5.423,6.285c0.333,0.386,0.234,0.89-0.219,1.12l-7.39,3.783
		c-0.452,0.232-0.724,0.751-0.604,1.154c0.123,0.403,0.63,0.655,1.128,0.559l8.141-1.557c0.5-0.095,0.884,0.242,0.852,0.75
		l-0.513,8.417c-0.031,0.507,0.322,0.995,0.784,1.085c0.461,0.09,0.972-0.23,1.134-0.711l2.693-7.99
		c0.161-0.483,0.645-0.65,1.069-0.375l6.844,4.431 M340.646,130.274l8.006-1.531c0.499-0.095,0.882,0.242,0.851,0.75l-0.511,8.417
		c-0.033,0.507,0.32,0.995,0.781,1.085s0.973-0.229,1.133-0.711l2.693-7.99c0.164-0.482,0.645-0.65,1.071-0.375l6.957,4.506
		c0.425,0.276,0.991,0.234,1.255-0.094c0.263-0.328,0.208-0.911-0.125-1.296l0,0l-5.424-6.287c-0.332-0.384-0.233-0.888,0.219-1.12
		l7.391-3.782c0.453-0.231,0.718-0.72,0.59-1.085c-0.129-0.363-0.644-0.585-1.143-0.49l-8.21,1.545
		c-0.499,0.095-0.886-0.244-0.859-0.751l0.443-8.357c0.026-0.508-0.266-0.985-0.649-1.06c-0.385-0.075-0.836,0.257-1.001,0.737
		l-2.734,7.91c-0.166,0.48-0.651,0.648-1.079,0.373l-6.908-4.447l-0.523,1.987l4.783,5.558c0.331,0.385,0.23,0.885-0.225,1.113l0,0
		l-6.489,3.242"/>
</g>
<g>
	<path d="M372.198,205.433l-4.795-5.446c-0.334-0.381-0.24-0.883,0.212-1.115l6.524-3.35l0.264-2.037l-8.075,1.52
		c-0.5,0.096-0.887-0.243-0.861-0.752l0.444-8.356c0.027-0.507-0.266-0.984-0.649-1.06c-0.386-0.075-0.837,0.256-1.001,0.737
		l-2.735,7.909c-0.166,0.48-0.652,0.648-1.078,0.373l-7.025-4.521c-0.427-0.275-0.985-0.264-1.243,0.023
		c-0.255,0.291-0.193,0.844,0.139,1.228l5.423,6.284c0.333,0.387,0.234,0.891-0.219,1.121l-7.39,3.783
		c-0.452,0.231-0.724,0.75-0.604,1.153c0.123,0.403,0.63,0.655,1.128,0.56l8.141-1.558c0.5-0.095,0.884,0.242,0.852,0.75
		l-0.513,8.417c-0.031,0.506,0.322,0.994,0.784,1.085c0.461,0.09,0.972-0.229,1.134-0.711l2.693-7.99
		c0.161-0.483,0.645-0.65,1.069-0.375l6.844,4.431 M350.68,203.438l8.006-1.531c0.499-0.094,0.882,0.242,0.851,0.75l-0.511,8.417
		c-0.033,0.507,0.32,0.995,0.781,1.085s0.973-0.229,1.133-0.711l2.693-7.99c0.164-0.482,0.645-0.65,1.071-0.375l6.957,4.507
		c0.425,0.276,0.991,0.233,1.255-0.094c0.263-0.328,0.208-0.911-0.125-1.296l0,0l-5.424-6.287c-0.332-0.383-0.233-0.887,0.219-1.119
		l7.391-3.781c0.453-0.231,0.718-0.721,0.59-1.086c-0.129-0.363-0.644-0.584-1.143-0.489l-8.21,1.546
		c-0.499,0.095-0.886-0.244-0.859-0.752l0.443-8.357c0.026-0.508-0.266-0.984-0.649-1.059c-0.385-0.076-0.836,0.256-1.001,0.736
		l-2.734,7.91c-0.166,0.48-0.651,0.648-1.079,0.373l-6.908-4.447l-0.523,1.986l4.783,5.559c0.331,0.385,0.23,0.885-0.225,1.113l0,0
		l-6.489,3.241"/>
</g>
<g>
	<path d="M302.698,236.52l-7.241-0.459c-0.506-0.034-0.795-0.455-0.639-0.938l2.245-6.982l-1.255-1.628l-4.635,6.785
		c-0.286,0.421-0.8,0.455-1.141,0.078l-5.596-6.225c-0.339-0.377-0.884-0.508-1.207-0.289c-0.327,0.219-0.411,0.772-0.188,1.229
		l3.659,7.527c0.223,0.457-0.003,0.92-0.499,1.026l-8.164,1.771c-0.498,0.106-0.885,0.51-0.863,0.896
		c0.026,0.386,0.46,0.732,0.966,0.77l8.278,0.609c0.509,0.037,0.795,0.464,0.638,0.947l-2.55,7.9
		c-0.156,0.483,0.02,1.042,0.389,1.242c0.373,0.198,0.908,0.018,1.193-0.402l4.654-6.857c0.288-0.42,0.797-0.454,1.133-0.072
		l5.589,6.314c0.337,0.381,0.932,0.476,1.322,0.213c0.39-0.263,0.524-0.85,0.299-1.305l-3.745-7.554
		c-0.228-0.455-0.005-0.916,0.49-1.021l7.974-1.706 M286.072,250.326l4.578-6.744c0.286-0.42,0.795-0.452,1.132-0.071l5.59,6.312
		c0.336,0.383,0.931,0.478,1.32,0.216c0.39-0.263,0.525-0.852,0.299-1.305l-3.746-7.554c-0.225-0.457-0.004-0.916,0.493-1.022
		l8.105-1.733c0.495-0.105,0.866-0.535,0.82-0.954c-0.046-0.418-0.496-0.791-1.004-0.827l0,0l-8.281-0.61
		c-0.506-0.037-0.792-0.463-0.637-0.946l2.552-7.9c0.157-0.483-0.001-1.017-0.35-1.185c-0.349-0.165-0.869,0.042-1.155,0.462
		l-4.712,6.898c-0.286,0.42-0.798,0.454-1.139,0.076l-5.596-6.223c-0.341-0.378-0.884-0.509-1.209-0.29s-0.409,0.772-0.187,1.229
		l3.66,7.526c0.223,0.457-0.002,0.919-0.5,1.026l-8.029,1.74l1.035,1.775l7.312,0.548c0.506,0.038,0.789,0.463,0.628,0.945l0,0
		l-2.297,6.881"/>
</g>
<g>
	<path d="M189.215,249.615l-0.992-7.188c-0.068-0.503,0.288-0.869,0.793-0.814l7.289,0.81l1.345-1.554l-7.573-3.19
		c-0.469-0.196-0.605-0.691-0.303-1.102l4.983-6.724c0.303-0.407,0.322-0.966,0.043-1.242c-0.281-0.275-0.84-0.248-1.242,0.063
		l-6.646,5.085c-0.404,0.31-0.902,0.181-1.104-0.285l-3.362-7.647c-0.204-0.466-0.676-0.764-1.05-0.666
		c-0.373,0.102-0.626,0.596-0.562,1.101l1.053,8.232c0.065,0.506-0.295,0.871-0.8,0.813l-8.25-0.924
		c-0.505-0.057-1.018,0.227-1.14,0.629c-0.119,0.403,0.164,0.894,0.632,1.089l7.648,3.195c0.47,0.195,0.603,0.689,0.295,1.096
		l-5.072,6.734c-0.306,0.405-0.281,1.008,0.054,1.339c0.335,0.329,0.938,0.344,1.338,0.032l6.656-5.176
		c0.401-0.314,0.896-0.187,1.099,0.277l3.261,7.473 M172.373,236.073l7.521,3.143c0.468,0.197,0.602,0.689,0.295,1.096l-5.072,6.737
		c-0.307,0.402-0.282,1.005,0.053,1.335c0.334,0.329,0.937,0.346,1.337,0.032l6.656-5.177c0.403-0.311,0.896-0.187,1.1,0.28
		l3.313,7.598c0.203,0.464,0.698,0.741,1.099,0.614c0.4-0.128,0.677-0.646,0.611-1.15l0,0l-1.053-8.235
		c-0.065-0.504,0.295-0.869,0.8-0.812l8.25,0.926c0.505,0.058,0.996-0.204,1.091-0.58c0.093-0.373-0.213-0.843-0.682-1.038
		l-7.699-3.243c-0.469-0.195-0.604-0.692-0.301-1.101l4.982-6.725c0.302-0.408,0.322-0.968,0.043-1.241
		c-0.279-0.275-0.839-0.247-1.242,0.062l-6.646,5.085c-0.404,0.31-0.901,0.182-1.106-0.284l-3.305-7.521l-1.534,1.368l0.92,7.274
		c0.063,0.504-0.297,0.866-0.802,0.805l0,0l-7.201-0.879"/>
</g>
<g>
	<path d="M277.601,219.733l-6.027-4.041c-0.421-0.283-0.458-0.793-0.08-1.133l5.451-4.905l-0.265-2.036l-7.419,3.532
		c-0.459,0.22-0.919-0.009-1.024-0.508l-1.707-8.191c-0.103-0.497-0.507-0.885-0.897-0.858c-0.393,0.025-0.744,0.46-0.779,0.968
		l-0.624,8.346c-0.038,0.507-0.465,0.794-0.947,0.636l-7.947-2.576c-0.483-0.157-1.021-0.003-1.195,0.341
		c-0.173,0.346,0.027,0.865,0.447,1.151l6.849,4.69c0.421,0.288,0.454,0.801,0.075,1.139l-6.179,5.546
		c-0.378,0.34-0.508,0.91-0.288,1.27c0.222,0.358,0.775,0.473,1.233,0.253l7.473-3.586c0.459-0.22,0.916,0.009,1.015,0.507
		l1.654,8.27c0.1,0.496,0.566,0.879,1.036,0.849c0.469-0.031,0.881-0.471,0.915-0.978l0.562-8.413
		c0.031-0.508,0.456-0.794,0.937-0.636l7.749,2.535 M256.286,223.303l7.35-3.526c0.458-0.218,0.914,0.009,1.014,0.508l1.657,8.268
		c0.098,0.499,0.562,0.881,1.031,0.85s0.883-0.471,0.914-0.977l0.562-8.413c0.035-0.509,0.457-0.794,0.94-0.637l7.877,2.58
		c0.481,0.158,1.019-0.027,1.189-0.411c0.17-0.385-0.031-0.936-0.452-1.222l0,0l-6.851-4.692c-0.419-0.285-0.452-0.798-0.073-1.138
		l6.179-5.544c0.379-0.34,0.51-0.88,0.293-1.2c-0.218-0.319-0.771-0.401-1.23-0.182l-7.542,3.592
		c-0.458,0.22-0.919-0.01-1.023-0.507l-1.706-8.194c-0.104-0.497-0.509-0.883-0.898-0.856c-0.392,0.024-0.743,0.461-0.78,0.967
		l-0.622,8.348c-0.038,0.506-0.464,0.793-0.948,0.635l-7.814-2.533l0.001,2.054l6.045,4.151c0.419,0.288,0.449,0.797,0.067,1.134
		l0,0l-5.445,4.793"/>
</g>
<g>
	<path d="M144.098,167.612l-7.172-1.098c-0.502-0.079-0.752-0.523-0.554-0.991l2.853-6.756l-1.106-1.733l-5.215,6.351
		c-0.323,0.393-0.837,0.382-1.143-0.023l-5.024-6.693c-0.305-0.407-0.835-0.585-1.178-0.396c-0.344,0.189-0.477,0.733-0.294,1.207
		l2.98,7.821c0.181,0.476-0.083,0.916-0.587,0.978l-8.29,1.043c-0.504,0.062-0.925,0.43-0.938,0.816
		c-0.009,0.386,0.392,0.77,0.894,0.852l8.193,1.339c0.502,0.081,0.75,0.53,0.55,0.998l-3.237,7.645
		c-0.198,0.469-0.072,1.041,0.278,1.272c0.354,0.23,0.903,0.098,1.224-0.296l5.243-6.419c0.323-0.394,0.833-0.382,1.134,0.028
		l5.009,6.782c0.302,0.409,0.887,0.558,1.298,0.329c0.411-0.227,0.597-0.8,0.413-1.272l-3.063-7.855
		c-0.187-0.474,0.077-0.913,0.579-0.975l8.092-0.994 M126.317,179.896l5.156-6.312c0.321-0.394,0.832-0.38,1.134,0.029l5.011,6.781
		c0.3,0.41,0.884,0.558,1.295,0.33c0.411-0.227,0.599-0.8,0.412-1.272l-3.063-7.855c-0.184-0.475,0.077-0.912,0.581-0.975
		l8.227-1.011c0.502-0.062,0.911-0.456,0.902-0.877c-0.009-0.421-0.425-0.832-0.928-0.914l0,0l-8.194-1.338
		c-0.501-0.082-0.75-0.531-0.551-0.999l3.239-7.645c0.199-0.468,0.089-1.012-0.244-1.21c-0.332-0.195-0.87-0.036-1.191,0.357
		l-5.304,6.455c-0.321,0.394-0.835,0.382-1.141-0.024l-5.024-6.692c-0.306-0.406-0.836-0.585-1.179-0.396
		c-0.343,0.19-0.476,0.734-0.293,1.209l2.98,7.82c0.181,0.475-0.083,0.915-0.589,0.978l-8.152,1.024l0.875,1.86l7.235,1.191
		c0.5,0.082,0.745,0.531,0.542,0.997l0,0l-2.895,6.651"/>
</g>
<g>
	<path d="M294.276,119.742l6.922-2.176c0.484-0.151,0.905,0.139,0.935,0.646l0.417,7.322l1.756,1.067l1.883-7.999
		c0.116-0.495,0.582-0.712,1.037-0.483l7.459,3.794c0.453,0.23,1.008,0.155,1.232-0.165c0.225-0.322,0.104-0.869-0.269-1.214
		l-6.122-5.707c-0.372-0.347-0.328-0.859,0.097-1.137l6.98-4.59c0.425-0.278,0.641-0.793,0.482-1.146
		c-0.162-0.351-0.692-0.518-1.179-0.371l-7.942,2.41c-0.488,0.148-0.908-0.146-0.936-0.653l-0.464-8.29
		c-0.029-0.507-0.394-0.966-0.811-1.02c-0.419-0.051-0.854,0.311-0.968,0.805l-1.876,8.073c-0.116,0.496-0.58,0.71-1.031,0.475
		l-7.486-3.88c-0.45-0.234-1.04-0.108-1.31,0.277c-0.27,0.385-0.185,0.981,0.19,1.325l6.213,5.701
		c0.376,0.343,0.333,0.853-0.091,1.13l-6.824,4.46 M304.822,100.879l-1.847,7.938c-0.115,0.495-0.579,0.708-1.029,0.474
		l-7.487-3.878c-0.45-0.236-1.04-0.111-1.31,0.274c-0.269,0.385-0.184,0.982,0.191,1.324l6.213,5.701
		c0.374,0.345,0.334,0.853-0.092,1.131l-6.938,4.534c-0.425,0.277-0.616,0.812-0.424,1.185c0.193,0.374,0.749,0.56,1.235,0.411l0,0
		l7.946-2.411c0.484-0.148,0.905,0.147,0.935,0.654l0.461,8.289c0.028,0.508,0.368,0.948,0.753,0.979
		c0.385,0.03,0.797-0.351,0.911-0.846l1.915-8.132c0.115-0.494,0.581-0.71,1.035-0.48l7.46,3.792
		c0.453,0.23,1.008,0.156,1.231-0.164c0.226-0.321,0.104-0.868-0.268-1.214l-6.123-5.706c-0.372-0.347-0.329-0.858,0.097-1.138
		l6.865-4.513l-1.604-1.284l-7.02,2.12c-0.486,0.147-0.902-0.148-0.926-0.656l0,0l-0.334-7.246"/>
</g>
<g>
	<path d="M200.266,135.504l-5.282-4.975c-0.369-0.349-0.321-0.857,0.106-1.131l6.184-3.943l0.073-2.053l-7.898,2.267
		c-0.489,0.141-0.906-0.16-0.928-0.668l-0.337-8.362c-0.021-0.507-0.356-0.955-0.746-0.995c-0.391-0.039-0.809,0.333-0.928,0.827
		l-1.985,8.131c-0.121,0.494-0.59,0.706-1.039,0.471l-7.417-3.846c-0.45-0.235-1.005-0.171-1.235,0.139
		c-0.227,0.313-0.113,0.857,0.253,1.209l5.985,5.752c0.367,0.353,0.316,0.863-0.114,1.135l-7.005,4.457
		c-0.428,0.273-0.65,0.814-0.492,1.205c0.16,0.39,0.688,0.593,1.175,0.452l7.959-2.309c0.489-0.142,0.902,0.158,0.918,0.667
		l0.274,8.427c0.016,0.508,0.414,0.961,0.882,1.008c0.467,0.047,0.946-0.319,1.062-0.813l1.937-8.207
		c0.115-0.496,0.581-0.707,1.03-0.473l7.227,3.773 M178.655,135.523l7.828-2.27c0.488-0.141,0.901,0.159,0.917,0.667l0.276,8.427
		c0.014,0.508,0.412,0.961,0.879,1.008c0.467,0.047,0.947-0.319,1.062-0.813l1.936-8.207c0.118-0.495,0.582-0.708,1.031-0.473
		l7.347,3.838c0.449,0.234,1.009,0.14,1.241-0.21c0.231-0.351,0.123-0.927-0.245-1.278l0,0l-5.987-5.754
		c-0.366-0.351-0.315-0.863,0.114-1.136l7.005-4.454c0.43-0.273,0.648-0.784,0.486-1.135c-0.162-0.35-0.695-0.523-1.183-0.381
		l-8.031,2.305c-0.487,0.141-0.904-0.16-0.925-0.668l-0.338-8.362c-0.021-0.508-0.356-0.956-0.745-0.994
		c-0.39-0.04-0.808,0.333-0.928,0.827l-1.984,8.13c-0.121,0.494-0.588,0.707-1.04,0.472l-7.293-3.784l-0.335,2.027l5.281,5.087
		c0.365,0.353,0.312,0.86-0.12,1.129l0,0l-6.158,3.833"/>
</g>
<g>
	<path d="M258.174,153.818l-5.596-4.619c-0.391-0.324-0.377-0.834,0.031-1.135l5.913-4.339l-0.062-2.054l-7.733,2.779
		c-0.479,0.172-0.915-0.1-0.97-0.606l-0.884-8.322c-0.054-0.505-0.419-0.93-0.81-0.944c-0.393-0.013-0.785,0.385-0.871,0.886
		l-1.449,8.244c-0.088,0.501-0.541,0.743-1.006,0.538l-7.652-3.352c-0.465-0.205-1.014-0.105-1.224,0.22
		c-0.206,0.328-0.058,0.863,0.331,1.19l6.35,5.348c0.39,0.328,0.372,0.841-0.039,1.14l-6.698,4.906
		c-0.409,0.3-0.596,0.855-0.413,1.234c0.186,0.379,0.727,0.547,1.203,0.374l7.791-2.825c0.479-0.173,0.91,0.099,0.96,0.605
		l0.825,8.392c0.05,0.506,0.477,0.932,0.946,0.947c0.47,0.017,0.923-0.381,1.007-0.881l1.395-8.317
		c0.083-0.502,0.533-0.743,0.997-0.539l7.458,3.292 M236.611,155.253l7.662-2.778c0.478-0.172,0.908,0.1,0.959,0.605l0.827,8.391
		c0.048,0.507,0.474,0.933,0.943,0.948s0.924-0.381,1.007-0.881l1.395-8.316c0.085-0.502,0.533-0.745,0.998-0.54l7.582,3.348
		c0.464,0.205,1.016,0.074,1.225-0.291c0.207-0.365,0.062-0.933-0.328-1.259l0,0l-6.352-5.35c-0.388-0.326-0.37-0.84,0.039-1.141
		l6.699-4.903c0.411-0.3,0.596-0.824,0.41-1.165c-0.184-0.339-0.728-0.477-1.205-0.303l-7.862,2.826
		c-0.478,0.172-0.913-0.101-0.967-0.606l-0.886-8.322c-0.053-0.505-0.418-0.93-0.809-0.943c-0.391-0.015-0.784,0.385-0.871,0.886
		l-1.448,8.243c-0.088,0.501-0.54,0.744-1.007,0.539l-7.525-3.298l-0.201,2.045l5.602,4.73c0.389,0.328,0.368,0.838-0.045,1.134l0,0
		l-5.895,4.228"/>
</g>
<path fill="none" stroke="#000000" stroke-width="2" stroke-linecap="round" stroke-miterlimit="10" d="M142.333,76
	c0.652-2.022,1.539-4.021,2.667-6"/>
<path fill="none" stroke="#000000" stroke-width="2" stroke-linecap="round" stroke-miterlimit="10" d="M146.667,66.334
	c0.296-1.921,3.09-3.092,5-3"/>
<path fill="none" stroke="#000000" stroke-width="2" stroke-linecap="round" stroke-miterlimit="10" d="M156,61.667
	c2.232,0,5.57-0.509,7.333,0.333"/>
<path fill="none" stroke="#000000" stroke-width="2" stroke-linecap="round" stroke-miterlimit="10" d="M168.667,63.667
	c2.217-0.172,5.587,2.631,6.667,4.333"/>
</svg>
