<?xml version="1.0" encoding="utf-8"?>
<!-- Generator: Adobe Illustrator 17.0.0, SVG Export Plug-In . SVG Version: 6.00 Build 0)  -->
<!DOCTYPE svg PUBLIC "-//W3C//DTD SVG 1.1//EN" "http://www.w3.org/Graphics/SVG/1.1/DTD/svg11.dtd">
<svg version="1.1" id="Layer_1" xmlns="http://www.w3.org/2000/svg" xmlns:xlink="http://www.w3.org/1999/xlink" x="0px" y="0px"
	 width="152.091px" height="131.064px" viewBox="0 0 152.091 131.064" enable-background="new 0 0 152.091 131.064"
	 xml:space="preserve">
<g>
	<path d="M68.815,127.793c0,1.274-0.728,2.549-2.002,3.095c-1.274,0.364-2.731,0.182-3.641-0.728L28.036,95.024H3.277
		C1.456,95.024,0,93.568,0,91.747V39.317c0-1.82,1.456-3.277,3.277-3.277h24.759L63.172,0.904c0.91-0.91,2.367-1.092,3.641-0.728
		c1.274,0.546,2.002,1.82,2.002,3.095V127.793z"/>
</g>
<polygon points="152.091,44.565 138.783,31.257 117.816,52.224 96.849,31.257 83.541,44.565 104.508,65.532 83.541,86.499 
	96.849,99.807 117.816,78.84 138.783,99.807 152.091,86.499 131.124,65.532 "/>
</svg>
