<?xml version="1.0" encoding="utf-8"?>
<!-- Generator: Adobe Illustrator 15.1.0, SVG Export Plug-In . SVG Version: 6.00 Build 0)  -->
<!DOCTYPE svg PUBLIC "-//W3C//DTD SVG 1.1//EN" "http://www.w3.org/Graphics/SVG/1.1/DTD/svg11.dtd">
<svg version="1.1"
	 id="svg2" xmlns:inkscape="http://www.inkscape.org/namespaces/inkscape" xmlns:sodipodi="http://sodipodi.sourceforge.net/DTD/sodipodi-0.dtd" xmlns:svg="http://www.w3.org/2000/svg" xmlns:rdf="http://www.w3.org/1999/02/22-rdf-syntax-ns#" xmlns:cc="http://creativecommons.org/ns#" xmlns:dc="http://purl.org/dc/elements/1.1/"
	 xmlns="http://www.w3.org/2000/svg" xmlns:xlink="http://www.w3.org/1999/xlink" x="0px" y="0px" width="57.428px"
	 height="13.332px" viewBox="0 0 57.428 13.332" enable-background="new 0 0 57.428 13.332" xml:space="preserve">
<path id="path14875" fill="#19226E" d="M4.281,0.017c1.424,0.03,2.878,0.472,3.472,1.878c0.41,1.26,0.419,2.96-0.095,4.164
	c-0.747,1.596-2.66,1.658-4.318,1.71L3.282,7.8l-0.008,3.8c0.024,0.499,0.001,0.943,0.151,1.391l0.08,0.12
	c-0.124,0-3.269,0.002-3.269,0.002c0.247-0.831,0.19-1.813,0.216-2.732l0.026-8.752c-0.018-0.546-0.079-1.073-0.199-1.57L0.24,0.011
	L4.281,0.017"/>
<path id="path14877" fill="#19226E" d="M12.649,0.009c1.291,0.037,2.576,0.578,3.126,1.813c0.46,1.113,0.485,2.696,0.065,3.825
	c-0.275,0.612-0.727,1.128-1.356,1.389c-0.106,0.066,0.027,0.265,0.089,0.453c0.63,1.882,1.193,3.773,1.914,5.618l-3.1,0.001
	c-0.513-1.796-0.991-3.635-1.554-5.443c-0.15,0.035-0.384,0.051-0.603,0.123l0.025,4.398c0.061,0.302,0.167,0.938,0.167,0.938
	l-3.229-0.007c0.168-0.413,0.216-0.886,0.23-1.354l0.015-10.68C8.371,0.749,8.375,0.388,8.271,0.075L8.212,0.01L12.649,0.009"/>
<path id="path14879" fill="#19226E" d="M23.262,0.212L23.26,2.119c-0.147-0.016-0.359-0.071-0.547-0.1
	c-0.975-0.149-2.542-0.09-2.591-0.091c-0.468-0.007-0.494,0.03-0.502,0.224l0.018,3.161c0,0.257,0.209,0.198,0.209,0.198
	c0.893,0.002,2.844-0.12,2.844-0.12l-0.007,2.085c-0.843-0.179-2.763-0.132-2.918-0.132c-0.129,0-0.156,0.056-0.146,0.257
	c0.012,0.284-0.014,3.088-0.014,3.088l0.004,0.559l0.044,0.042c1.197,0.009,2.42-0.006,3.535-0.24l-0.004,2.043l-6.579,0.009
	c0.04-0.112,0.063-0.214,0.078-0.373l0.082-1.144l0.008-9.653c-0.026-0.615-0.075-1.351-0.274-1.917l6.808-0.009L23.262,0.212"/>
<path id="path14881" fill="#19226E" d="M27.755,0c0.017,0.149,0.707,4.268,0.817,4.763l0.052-0.004
	c0.273-1.398,0.723-3.545,0.99-4.743l4.066-0.005c-0.129,0.465-0.2,1.091-0.22,1.597l-0.003,9.886
	c0.002,0.578,0.031,1.122,0.159,1.613l-3.186-0.015c0.035-0.06,0.084-0.248,0.099-0.439c0.066-0.818,0.058-1.605,0.089-2.405
	l0.011-6.235l-0.043,0.003c-0.486,2.319-0.973,4.724-1.444,7.051l-1.715-0.008l-1.473-7.046l-0.047-0.001l0.013,7.803
	c0.018,0.439,0.087,0.875,0.191,1.284c-0.279,0.002-2.62-0.003-2.62-0.003c0.211-0.514,0.192-1.093,0.227-1.679l0.019-7.232
	c-0.014-1.342,0.098-2.904-0.167-4.168L27.755,0"/>
<path id="path14883" fill="#19226E" d="M37.589,0.148c-0.107,0.337-0.142,0.703-0.186,1.074L37.363,7.07l0.04,4.724
	c0.01,0.492,0.153,0.841,0.229,1.304h-3.283c-0.011-0.005,0.119-0.762,0.137-1.369c0.012-0.456,0.03-10.536,0.03-10.536
	c-0.01-0.374-0.075-0.817-0.224-1.182l3.359-0.001L37.589,0.148"/>
<path id="path14885" fill="#19226E" d="M41.342,0.004c-0.069,0.145-0.1,0.212-0.143,0.419c-0.071,0.335-0.168,1.666-0.149,2.511
	l0.01,6.995c0.025,0.558,0.122,1.165,0.651,1.434c0.515,0.171,1.161,0.146,1.54-0.273c0.321-0.332,0.326-0.825,0.346-1.293
	l0.023-6.246c0.001-1.18,0.051-2.439-0.212-3.546l2.548,0.005c-0.109,0.232-0.144,0.587-0.164,0.856l-0.052,1.217l-0.03,8.199
	c-0.03,1.154-0.559,2.335-1.671,2.723c-1.237,0.476-2.865,0.406-4.108-0.007c-0.895-0.294-1.494-1.193-1.609-2.117l-0.076-0.631
	c0,0-0.047-8.906-0.065-9.272c-0.016-0.259-0.111-0.735-0.207-0.977L41.342,0.004"/>
<path id="path14887" fill="#FFFFFF" d="M4.748,2.22c0.444,0.613,0.329,1.478,0.335,2.255c-0.028,0.326-0.442,1.171-0.595,1.25
	C4.139,5.865,3.697,5.948,3.28,5.894l0.01-4.088l0.179-0.004C3.976,1.754,4.43,1.877,4.748,2.22"/>
<path id="path14889" fill="#FFFFFF" d="M12.874,2.424c0.343,0.709,0.304,1.708,0.162,2.492c-0.109,0.354-0.487,0.649-0.837,0.768
	c-0.301,0.095-0.618,0.101-0.949,0.126l0.015-3.826C11.264,1.984,12.542,1.898,12.874,2.424"/>
<path id="path14891" fill="#19226E" d="M50.561,0c0.015,0.149,0.707,4.268,0.818,4.763l0.05-0.004
	c0.274-1.398,0.723-3.545,0.992-4.743l4.064-0.005c-0.129,0.465-0.199,1.091-0.217,1.597l-0.007,9.886
	c0.004,0.578,0.033,1.122,0.159,1.613l-3.186-0.015c0.037-0.06,0.084-0.248,0.1-0.439c0.065-0.818,0.057-1.605,0.091-2.405
	l0.009-6.235L53.39,4.016c-0.485,2.319-0.971,4.724-1.444,7.051l-1.714-0.008l-1.474-7.046l-0.044-0.001l0.011,7.803
	c0.018,0.439,0.089,0.875,0.193,1.284c-0.279,0.002-2.62-0.003-2.62-0.003c0.21-0.514,0.193-1.093,0.227-1.679l0.019-7.232
	c-0.015-1.342,0.1-2.904-0.17-4.168L50.561,0"/>
</svg>
