<?xml version="1.0" encoding="utf-8"?>
<!-- Generator: Adobe Illustrator 15.1.0, SVG Export Plug-In . SVG Version: 6.00 Build 0)  -->
<!DOCTYPE svg PUBLIC "-//W3C//DTD SVG 1.1//EN" "http://www.w3.org/Graphics/SVG/1.1/DTD/svg11.dtd">
<svg version="1.1"
	 id="svg2" xmlns:dc="http://purl.org/dc/elements/1.1/" xmlns:rdf="http://www.w3.org/1999/02/22-rdf-syntax-ns#" xmlns:svg="http://www.w3.org/2000/svg" xmlns:cc="http://creativecommons.org/ns#" xmlns:sodipodi="http://sodipodi.sourceforge.net/DTD/sodipodi-0.dtd" xmlns:inkscape="http://www.inkscape.org/namespaces/inkscape"
	 xmlns="http://www.w3.org/2000/svg" xmlns:xlink="http://www.w3.org/1999/xlink" x="0px" y="0px" width="58px" height="14.166px"
	 viewBox="-0.786 -0.834 58 14.166" enable-background="new -0.786 -0.834 58 14.166" xml:space="preserve">
<path id="path14875" fill="#19226E" d="M4.045-0.817c1.425,0.03,2.879,0.472,3.473,1.878c0.41,1.26,0.419,2.96-0.095,4.164
	c-0.747,1.596-2.66,1.658-4.318,1.71l-0.058,0.03l-0.009,3.8c0.024,0.5,0.001,0.943,0.151,1.392l0.08,0.12
	c-0.124,0-3.27,0.002-3.27,0.002c0.247-0.831,0.19-1.813,0.217-2.732l0.025-8.752c-0.018-0.546-0.079-1.073-0.199-1.57L0.005-0.823
	L4.045-0.817"/>
<path id="path14877" fill="#19226E" d="M12.413-0.825c1.291,0.037,2.576,0.578,3.126,1.813c0.46,1.113,0.485,2.696,0.065,3.825
	c-0.275,0.612-0.728,1.128-1.356,1.389c-0.105,0.066,0.027,0.265,0.09,0.453c0.63,1.882,1.192,3.772,1.913,5.618h-3.1
	c-0.513-1.795-0.991-3.635-1.554-5.442c-0.15,0.035-0.384,0.051-0.604,0.123l0.025,4.397c0.061,0.303,0.167,0.938,0.167,0.938
	l-3.229-0.007c0.168-0.413,0.217-0.887,0.23-1.354L8.202,0.249C8.136-0.085,8.14-0.446,8.035-0.759L7.977-0.824L12.413-0.825"/>
<path id="path14879" fill="#19226E" d="M23.027-0.622l-0.002,1.907c-0.147-0.016-0.359-0.071-0.547-0.1
	c-0.976-0.149-2.542-0.09-2.591-0.091c-0.469-0.007-0.494,0.03-0.502,0.224l0.018,3.161c0,0.257,0.209,0.198,0.209,0.198
	c0.894,0.002,2.844-0.12,2.844-0.12l-0.007,2.085c-0.843-0.18-2.763-0.133-2.918-0.133c-0.129,0-0.156,0.057-0.146,0.258
	c0.012,0.283-0.015,3.088-0.015,3.088l0.004,0.559l0.044,0.042c1.197,0.009,2.421-0.006,3.535-0.24l-0.004,2.043l-6.579,0.009
	c0.04-0.111,0.063-0.213,0.078-0.373l0.082-1.144l0.008-9.653c-0.025-0.615-0.074-1.351-0.273-1.917l6.808-0.009L23.027-0.622"/>
<path id="path14881" fill="#19226E" d="M27.52-0.834c0.017,0.149,0.707,4.268,0.816,4.763l0.053-0.004
	c0.272-1.398,0.723-3.545,0.989-4.743l4.066-0.005c-0.129,0.465-0.2,1.091-0.22,1.597l-0.003,9.886
	c0.002,0.578,0.03,1.122,0.159,1.613l-3.187-0.016c0.035-0.06,0.084-0.248,0.099-0.439c0.066-0.817,0.059-1.604,0.09-2.404
	l0.011-6.235l-0.043,0.003c-0.486,2.319-0.974,4.724-1.444,7.05l-1.715-0.008l-1.473-7.045l-0.047-0.001l0.013,7.802
	c0.018,0.439,0.087,0.875,0.19,1.285c-0.278,0.002-2.619-0.004-2.619-0.004c0.211-0.514,0.191-1.093,0.227-1.679l0.019-7.232
	c-0.014-1.342,0.099-2.904-0.167-4.168L27.52-0.834"/>
<path id="path14883" fill="#19226E" d="M37.354-0.686c-0.107,0.337-0.143,0.703-0.187,1.074l-0.04,5.848l0.04,4.724
	c0.011,0.492,0.153,0.841,0.229,1.304h-3.283c-0.011-0.005,0.119-0.762,0.137-1.369c0.013-0.455,0.03-10.536,0.03-10.536
	c-0.01-0.374-0.075-0.817-0.224-1.182l3.358-0.001L37.354-0.686"/>
<path id="path14885" fill="#19226E" d="M41.107-0.83c-0.069,0.145-0.1,0.212-0.143,0.419c-0.071,0.335-0.168,1.666-0.149,2.511
	l0.01,6.996c0.025,0.557,0.122,1.164,0.651,1.434c0.515,0.171,1.161,0.146,1.54-0.273c0.32-0.332,0.326-0.824,0.346-1.293
	l0.023-6.246c0.001-1.18,0.051-2.439-0.212-3.546l2.548,0.005c-0.109,0.232-0.145,0.587-0.164,0.856l-0.052,1.217l-0.03,8.199
	c-0.03,1.153-0.56,2.335-1.671,2.723c-1.237,0.476-2.865,0.406-4.108-0.007c-0.895-0.294-1.494-1.193-1.609-2.117l-0.075-0.631
	c0,0-0.047-8.906-0.065-9.272c-0.016-0.259-0.111-0.735-0.207-0.977L41.107-0.83"/>
<path id="path14887" fill="#FFFFFF" d="M4.513,1.386c0.443,0.613,0.329,1.479,0.335,2.255C4.82,3.967,4.406,4.812,4.252,4.891
	C3.904,5.031,3.461,5.114,3.044,5.06l0.011-4.088l0.179-0.004C3.74,0.92,4.195,1.043,4.513,1.386"/>
<path id="path14889" fill="#FFFFFF" d="M12.639,1.59c0.343,0.709,0.304,1.708,0.162,2.492c-0.109,0.354-0.487,0.649-0.837,0.768
	c-0.302,0.095-0.618,0.101-0.949,0.126L11.03,1.15C11.029,1.15,12.307,1.064,12.639,1.59"/>
<path id="path14891" fill="#19226E" d="M50.325-0.834c0.016,0.149,0.707,4.268,0.818,4.763l0.05-0.004
	c0.274-1.398,0.723-3.545,0.992-4.743l4.063-0.005c-0.129,0.465-0.198,1.091-0.217,1.597l-0.007,9.886
	c0.004,0.578,0.033,1.122,0.159,1.613l-3.187-0.016c0.037-0.06,0.084-0.248,0.101-0.439c0.064-0.817,0.057-1.604,0.091-2.404
	l0.009-6.235l-0.044,0.003c-0.485,2.319-0.971,4.724-1.444,7.05l-1.714-0.008l-1.474-7.045l-0.044-0.001l0.011,7.802
	c0.019,0.439,0.089,0.875,0.193,1.285c-0.279,0.002-2.62-0.004-2.62-0.004c0.21-0.514,0.193-1.093,0.227-1.679l0.02-7.232
	c-0.016-1.342,0.1-2.904-0.17-4.168L50.325-0.834"/>
</svg>
