<?xml version="1.0" standalone="no"?>
<!DOCTYPE svg PUBLIC "-//W3C//DTD SVG 1.1//EN" "http://www.w3.org/Graphics/SVG/1.1/DTD/svg11.dtd" >
<svg xmlns="http://www.w3.org/2000/svg">
<metadata>
Created by FontPrep 20130207 at Thu May 14 15:46:28 2015
 By Charles Broskoski
version 1.0/ created on 02-05-1998/   Dutch Type Library/ File#H022014D
</metadata>
<defs>
<font id="6d16b143d03dbb79a8b7ff7a8a05f914" horiz-adv-x='1024' >
  <font-face 
    font-family="DTLHaarlemmerD-Medium"
    font-weight="500"
    font-stretch="normal"
    units-per-em="2048"
    panose-1="2 0 6 3 8 0 0 2 0 3"
    ascent="1638"
    descent="-410"
    x-height="913"
    cap-height="1399"
    bbox="-532 -600 2540 1968"
    underline-thickness="40"
    underline-position="-231"
    unicode-range="U+0020-FB02"
  />
<missing-glyph horiz-adv-x="1024" 
 />
    <glyph glyph-name=".notdef" horiz-adv-x="1024" 
 />
    <glyph glyph-name=".null" horiz-adv-x="0" 
 />
    <glyph glyph-name="nonmarkingreturn" horiz-adv-x="681" 
 />
    <glyph glyph-name="space" unicode=" " horiz-adv-x="409" 
 />
    <glyph glyph-name="exclam" unicode="!" horiz-adv-x="579" 
d="M430 128q0 -56 -40 -96t-100 -40t-101 40q-39 40 -39 96t39 96q41 40 101 40t100 -40t40 -96zM293 1411q57 -1 98 -39t41 -132t-43 -420t-53 -386q-8 -33 -45 -33t-41 33q-2 8 -41 281q-57 447 -57 533t42 124t99 39z" />
    <glyph glyph-name="quotedbl" unicode="&#x22;" horiz-adv-x="831" 
d="M340 1481q-33 -197 -47 -277l-41 -231h-64q-25 141 -41 231l-45 275q110 50 238 2zM729 1481q-33 -197 -47 -277l-41 -231h-63q-25 141 -41 231l-45 275q110 50 237 2z" />
    <glyph glyph-name="numbersign" unicode="#" horiz-adv-x="1458" 
d="M918 881h-328l-60 -340h330zM1413 881h-369l-59 -340h340v-105h-356l-78 -444h-125l76 444h-328l-78 -444h-125l76 444h-342v105h361l57 340h-352v104h370l72 422h127l-72 -422h328l72 422h127l-72 -422h350v-104z" />
    <glyph glyph-name="dollar" unicode="$" 
d="M946 294q0 103 -74 155q-74 53 -202 112v-504q139 8 208 71q68 63 68 166zM578 1335q-92 0 -170 -53q-78 -52 -78 -150t56 -155t192 -123v481zM1122 373q0 -164 -129 -274t-323 -117v-156h-92v156q-104 2 -213 34t-160 74l-45 -90h-43q0 61 -6 150l-25 325h57l23 -94
q39 -149 136 -231t276 -93v543q-333 143 -401 290q-32 67 -32 148q0 166 122 264t311 107v131h92v-131q194 -16 272 -70l14 -8l43 70h43q0 -96 5 -152l12 -258h-58l-16 72q-27 117 -95 189t-220 83v-520l24 -10q232 -100 330 -184t98 -248z" />
    <glyph glyph-name="ampersand" unicode="&#x26;" horiz-adv-x="1738" 
d="M348 461q0 -175 109 -273t264 -98q82 0 157 25t109 49l33 24q-182 166 -334 318q-205 211 -209 215q-129 -86 -129 -260zM840 1172q0 81 -50 128q-50 48 -132 48t-135 -48q-54 -48 -54 -129q0 -111 168 -288q67 43 101 69t68 83q34 56 34 137zM111 350q0 225 321 420
q-168 184 -168 321t112 233t276 95q164 0 268 -65q102 -66 102 -184t-111 -202t-225 -134q225 -243 455 -445l33 -27q34 51 58 129t23 154q0 111 -114 121l-74 4v51q164 -4 264 -4l254 4v-51q-53 0 -90 -7t-70 -40t-71 -139t-60 -156l-59 -117q127 -107 227 -169t189 -62
l63 6l8 -49q-127 -59 -280 -60q-86 2 -167 40t-194 122q-186 -157 -438 -157t-392 102t-140 266z" />
    <glyph glyph-name="quotesingle" unicode="'" horiz-adv-x="442" 
d="M340 1481q-33 -197 -47 -277l-41 -231h-64q-25 141 -41 231l-45 275q110 50 238 2z" />
    <glyph glyph-name="parenleft" unicode="(" horiz-adv-x="784" 
d="M381 454q0 -634 319 -999l-38 -37q-228 190 -372 476q-284 566 -5 1123q139 280 377 478l38 -37q-319 -370 -319 -1004z" />
    <glyph glyph-name="parenright" unicode=")" horiz-adv-x="784" 
d="M639 458q0 -280 -143 -564t-373 -476l-39 37q319 365 319 1000t-319 1003l39 37q238 -199 377 -478t139 -559z" />
    <glyph glyph-name="asterisk" unicode="*" horiz-adv-x="995" 
d="M952 1124l-301 -159l150 -310l-47 -34l-246 235l-246 -235l-47 34l147 310l-301 159l19 56l336 -45l65 333h54l61 -333l338 45z" />
    <glyph glyph-name="plus" unicode="+" horiz-adv-x="1124" 
d="M1008 633q-229 2 -371 2l2 -381h-162q2 246 2 381l-360 -2v147q225 -2 360 -2l-2 369h162q-2 -229 -2 -369l371 2v-147z" />
    <glyph glyph-name="comma" unicode="," horiz-adv-x="491" 
d="M239 262q69 0 111 -55t41 -139q0 -84 -37 -164t-108 -149t-129 -97l-41 45q74 41 120 104t46 107t-10 57q-10 11 -38 23q-100 42 -102 127q0 59 39 100t108 41z" />
    <glyph glyph-name="hyphen" unicode="-" horiz-adv-x="677" 
d="M573 377q-154 2 -235 2l-234 -2v170q152 -2 234 -2l235 2v-170z" />
    <glyph glyph-name="period" unicode="." horiz-adv-x="491" 
d="M389 124q0 -60 -42 -99t-103 -39t-102 39q-40 39 -40 98t41 101t103 42t102 -41q41 -41 41 -101z" />
    <glyph glyph-name="slash" unicode="/" horiz-adv-x="700" 
d="M578 1475l-361 -2048h-121l361 2048h121z" />
    <glyph glyph-name="zero" unicode="0" 
d="M868 686q0 481 -117 605q-52 55 -129 55q-152 1 -216 -199q-58 -176 -58 -463t66 -462t202 -175t194 160t58 479zM1120 715q0 -295 -139 -516t-374 -221t-376 206q-141 207 -141 502t153 513t384 218q125 0 223 -59q177 -106 242 -383q28 -123 28 -260z" />
    <glyph glyph-name="one" unicode="1" 
d="M432 1200q-31 0 -72 -6t-69 -10l-31 -6l-8 55q125 39 268 94l225 90l-2 -143q-4 -202 -4 -576t6 -524q2 -63 25 -86t80 -29l92 -8v-51q-211 4 -326 4l-327 -4v51l86 8q57 7 83 27t30 104t6 462q0 378 -4 446t-15 84q-12 18 -43 18z" />
    <glyph glyph-name="two" unicode="2" 
d="M494 1239q-223 0 -318 -254l-43 39q45 180 173 286t298 107q170 0 284 -101t113 -269q0 -87 -50 -191t-100 -171q-60 -81 -228 -265t-197 -219q170 -2 313 -2l355 2v-201q-289 2 -473 2l-498 -2q98 78 389 420q133 154 190 266q58 112 58 259q0 146 -78 220t-188 74z" />
    <glyph glyph-name="three" unicode="3" 
d="M1087 397q0 -188 -148 -302q-147 -113 -359 -113t-334 66t-123 147q0 92 90 92q39 0 61 -24q22 -25 51 -69q89 -142 257 -141q126 0 196 70t70 192q0 78 -37 144q-37 65 -90 103q-114 80 -199 104l-37 10q55 39 84 61q174 129 174 295q0 109 -63 170t-174 62
q-182 0 -264 -193l-41 39q37 121 143 214t268 93t258 -80q94 -80 95 -198q-1 -80 -29 -125q-28 -46 -44 -70t-46 -52q-31 -28 -44 -40t-45 -38t-34 -26q137 -25 251 -130t113 -261z" />
    <glyph glyph-name="four" unicode="4" 
d="M672 803l-2 260q-92 -115 -197 -242l-186 -229h383q2 127 2 211zM899 406q0 -160 3 -228t26 -89q23 -22 80 -30l73 -8v-51q-184 4 -297 4l-307 -4v51l76 8q59 6 84 28q25 23 29 99t4 222q-606 0 -650 -2q78 78 288 336t390 475q180 216 203 251q-4 -61 -4 -553l2 -323
q256 0 272 2l-86 -188h-186z" />
    <glyph glyph-name="five" unicode="5" 
d="M1061 444q-1 -204 -147 -332t-369 -128q-172 0 -296 59t-124 137q0 39 23 65q24 25 62 25t60 -19t46 -59t36 -55q68 -82 206 -82t209 82q71 83 71 193q0 199 -148 301q-157 111 -422 135q16 76 49 338l35 295q156 -2 336 -2l359 2v-197q-152 2 -332 2l-312 -2l-28 -229
q324 -49 508 -183q74 -54 126 -144t52 -202z" />
    <glyph glyph-name="six" unicode="6" 
d="M631 57q235 0 235 373q0 176 -62 289t-202 113t-221 -82q-16 -102 -16 -246q1 -213 73 -330t193 -117zM868 1417q116 0 164 -18l-6 -68q-45 12 -113 12q-209 0 -346 -141t-178 -368q109 96 295 96t308 -126t122 -328t-139 -344q-139 -144 -346 -144t-360 150t-152 446
q0 385 231 624q207 209 520 209z" />
    <glyph glyph-name="seven" unicode="7" 
d="M1114 1399q-29 -51 -340 -715l-332 -709l-86 37q205 426 326 684l221 475q-166 2 -356 3l-375 -3v228q215 -2 461 -2z" />
    <glyph glyph-name="eight" unicode="8" 
d="M313 317q0 -111 78 -185t213 -75t210 59t75 157t-84 172t-293 198q-199 -100 -199 -326zM879 1116q0 111 -69 168q-70 57 -182 57t-172 -55t-60 -141t72 -160q73 -74 220 -160q191 92 191 291zM1102 371q0 -173 -141 -279t-363 -106t-354 92q-131 92 -131 227
q0 217 336 377q-203 145 -244 255q-23 58 -23 128q0 162 134 257t320 95t308 -81q123 -81 123 -210q0 -188 -315 -346q180 -112 265 -200t85 -209z" />
    <glyph glyph-name="nine" unicode="9" 
d="M860 910q0 192 -67 313q-68 121 -188 121q-119 0 -185 -104q-66 -103 -66 -276t67 -283t207 -110t220 80q12 67 12 259zM1108 807q0 -403 -240 -633q-195 -190 -508 -190q-107 0 -170 12l-20 6l4 66q66 -10 152 -11q188 0 330 123t184 387q-43 -38 -127 -63
q-83 -26 -154 -27q-201 0 -323 122t-123 327q0 205 144 345t357 140q214 1 354 -157t140 -447z" />
    <glyph glyph-name="colon" unicode=":" horiz-adv-x="522" 
d="M261 266q61 0 103 -41t42 -101t-42 -99t-104 -39t-103 39q-40 39 -40 98t41 101t103 42zM406 785q0 -60 -42 -99t-104 -39t-103 39q-40 39 -40 98q0 60 41 102t103 42t104 -41q41 -42 41 -102z" />
    <glyph glyph-name="semicolon" unicode=";" horiz-adv-x="522" 
d="M406 68q0 -84 -37 -164t-89 -130q-100 -97 -149 -116l-39 45q74 41 119 104t45 107t-10 57q-10 11 -38 23q-99 41 -99 127q0 59 37 100q38 41 108 41t111 -55t41 -139zM401 786q0 -59 -42 -99t-103 -40t-101 39t-40 99q0 59 40 101t102 42t103 -42t41 -100z" />
    <glyph glyph-name="less" unicode="&#x3c;" horiz-adv-x="1124" 
d="M1008 254l-889 377v147l889 377v-147l-723 -303l723 -304v-147z" />
    <glyph glyph-name="equal" unicode="=" horiz-adv-x="1124" 
d="M1008 434q-352 2 -455 2l-434 -2v148q332 -2 434 -2l455 2v-148zM1008 831q-352 2 -455 3l-434 -3v148q332 -2 434 -2l455 2v-148z" />
    <glyph glyph-name="greater" unicode="&#x3e;" horiz-adv-x="1124" 
d="M1008 629l-889 -377v147l723 303l-723 304v147l889 -377v-147z" />
    <glyph glyph-name="question" unicode="?" horiz-adv-x="854" 
d="M477 128q0 -56 -41 -96t-100 -40t-100 40t-41 96t39 96q40 40 102 40t101 -40q40 -40 40 -96zM299 511q0 -44 39 -110l-68 -18q-96 166 -96 267q0 100 65 150t205 101q227 84 228 207q0 74 -51 121t-125 47t-155 -45t-131 -45t-94 28t-44 78q0 51 62 86t183 35
q195 0 336 -100q156 -107 156 -295q0 -123 -77 -202t-235 -134q-159 -55 -185 -103q-13 -24 -13 -68z" />
    <glyph glyph-name="at" unicode="@" horiz-adv-x="2066" 
d="M1069 866q-59 0 -104 -51q-68 -72 -112 -210q-44 -139 -44 -249t51 -110q96 0 277 248q63 276 73 319q-41 53 -141 53zM1958 756q0 -304 -223 -490t-553 -186q-47 0 -65 18q-17 18 -17 80t24 201q-84 -113 -200 -207t-217 -94q-45 0 -70 59t-25 139q0 138 68 300t174 251
q127 113 272 113q79 0 148 -25l24 -8q37 14 58 25l61 20q-51 -206 -88 -406t-37 -280v-12q0 -78 72 -78q164 0 264 131t100 417t-161 452q-162 166 -455 165q-324 0 -541 -233t-217 -643q0 -336 184 -538t500 -201q289 0 546 148q40 24 58 40l23 -61q-63 -55 -183 -110
q-240 -112 -521 -112q-363 -1 -607 229t-243 605q0 289 134 507t362 331t515 112q388 0 612 -178t224 -481z" />
    <glyph glyph-name="A" unicode="A" horiz-adv-x="1554" 
d="M899 625l-199 473l-192 -473h391zM1092 125q0 35 -160 422q-74 2 -240 2l-217 -2q-147 -354 -147 -408q0 -78 125 -84l49 -4v-51q-164 6 -254 6l-201 -6v51l45 6q80 8 133 129q10 25 44 104t88 210q54 132 215 516t171 414h86q54 -134 157 -382q104 -248 195 -470
t141 -334t81 -147q31 -34 76 -40l43 -6v-49q-156 4 -279 4l-309 -6v51l49 4q109 6 109 70z" />
    <glyph glyph-name="B" unicode="B" horiz-adv-x="1409" 
d="M1020 388q0 140 -109 226q-109 84 -311 84h-115v-153q0 -102 4 -328q1 -88 49 -118q48 -29 194 -29t218 89q70 89 70 229zM905 1050q1 120 -65 198t-209 79l-144 -4l-2 -549q68 -6 152 -6q139 0 204 81q64 81 64 201zM1161 1094q0 -82 -41 -150t-98 -104
q-105 -67 -160 -78q100 -13 184 -46q83 -34 130 -70q46 -36 82 -100t36 -147q0 -197 -158 -300t-391 -103l-387 6l-297 -2v51l74 8q53 6 75 30q22 25 26 105t4 505t-4 506t-30 106t-89 30l-68 7v51q199 -2 303 -2l314 2q252 0 370 -80q125 -78 125 -225z" />
    <glyph glyph-name="C" unicode="C" horiz-adv-x="1607" 
d="M131 678q0 320 215 528q215 209 623 209q119 0 220 -10t140 -10l105 10v-90l10 -297h-55q-23 170 -106 244t-311 73q-228 0 -388 -132q-84 -69 -132 -193t-49 -291q1 -293 145 -475t451 -183q223 0 322 97q49 49 67 98q17 48 32 94t16 47h53q-29 -190 -37 -245l-14 -119
q-12 -3 -66 -13l-135 -25q-82 -15 -268 -18q-387 1 -613 191t-225 510z" />
    <glyph glyph-name="D" unicode="D" horiz-adv-x="1730" 
d="M1329 674q0 299 -151 472q-152 173 -441 173l-250 -8q-2 -333 -2 -655t4 -447q1 -84 61 -108t249 -23q238 0 384 148t146 448zM1604 723q0 -301 -183 -494q-217 -229 -618 -229l-438 4l-304 -4v51l74 8q53 6 75 30q22 25 26 105t4 505t-4 506t-30 106t-89 30l-68 7v51
q182 -2 299 -2l402 4q256 0 414 -49t268 -156q172 -172 172 -473z" />
    <glyph glyph-name="E" unicode="E" horiz-adv-x="1390" 
d="M877 1313h-390q-2 -319 -2 -543h244q168 0 207 22t54 66q15 45 24 125h53q-4 -117 -4 -246l4 -264h-53q-16 164 -86 195q-53 20 -199 20h-244q0 -352 4 -452t40 -124q36 -22 180 -22h202q132 0 200 30t108 135q14 36 41 112h53q-43 -178 -60 -277l-16 -96q-104 8 -123 8
h-754l-299 -2v51l74 8q53 6 75 30q22 25 26 105t4 505t-4 506t-30 106t-89 30l-68 7v51q193 -2 297 -2l481 2q295 0 357 12q4 -135 6 -156l14 -192h-53q-33 164 -79 207t-195 43z" />
    <glyph glyph-name="F" unicode="F" horiz-adv-x="1214" 
d="M850 1313h-363q-2 -330 -2 -553h222q176 0 223 30t61 183h53q-4 -119 -4 -248l4 -264h-53q-16 164 -82 192q-45 23 -202 23h-222q0 -346 7 -502q2 -61 28 -82q27 -20 103 -31l86 -10v-51q-229 4 -349 4l-299 -4v51l74 8q53 6 75 30q22 25 26 105t4 505t-4 506t-30 106
t-89 30l-68 7v51q193 -2 297 -2l455 2q295 0 356 12q4 -135 6 -156l15 -192h-54q-36 158 -66 194t-76 46t-132 10z" />
    <glyph glyph-name="G" unicode="G" horiz-adv-x="1742" 
d="M1402 1389q32 0 103 14v-88l11 -301h-56l-8 55q-20 139 -116 201t-341 63q-246 0 -409 -136q-84 -71 -132 -196t-48 -292q0 -311 147 -483t422 -171q223 0 256 82q18 45 18 154v49q0 197 -42 231q-22 18 -72 25l-74 8v51q195 -4 311 -4l309 4v-51l-86 -8q-49 -4 -69 -28
t-26 -76t-7 -238q0 -184 2 -221q-25 -2 -221 -29t-332 -27q-399 -1 -605 183t-206 504t206 531q101 103 266 161t336 59q171 0 301 -13t162 -13z" />
    <glyph glyph-name="H" unicode="H" horiz-adv-x="1722" 
d="M1485 699q0 -376 6 -525q4 -57 23 -82t73 -31l86 -10v-51q-197 4 -311 4l-301 -4v51l74 8q53 6 73 29t25 86q6 147 6 510l-385 2l-369 -2q0 -362 7 -510q4 -57 24 -82t74 -31l84 -10v-51q-195 4 -309 4l-304 -4v51l74 8q53 6 75 30q22 25 26 105t4 505t-4 506t-26 105
t-75 29l-74 9v51q188 -4 304 -4l309 4v-51l-84 -9q-53 -4 -74 -30q-20 -27 -24 -84q-6 -135 -7 -451l363 -2l391 2q0 318 -5 416q-6 98 -26 121t-73 28l-74 9v51q188 -4 303 -4l309 4v-51l-86 -9q-51 -5 -71 -31t-25 -83q-6 -150 -6 -526z" />
    <glyph glyph-name="I" unicode="I" horiz-adv-x="724" 
d="M674 0q-195 4 -309 4l-304 -4v51l74 8q53 6 75 30q22 25 26 105t4 505t-4 506t-26 105t-75 29l-74 9v51q188 -4 304 -4l309 4v-51l-84 -9q-53 -4 -74 -30q-20 -27 -24 -84q-6 -152 -6 -527t6 -524q4 -57 24 -82t74 -31l84 -10v-51z" />
    <glyph glyph-name="J" unicode="J" horiz-adv-x="712" 
d="M498 731v-553q-4 -324 -127 -500q-80 -116 -175 -182t-161 -86l-21 45q11 -1 23 11t42 31t47 45t42 64t37 106q12 67 17 100t9 87q3 54 9 110t6 136q4 59 4 293v252q0 383 -6 535q-4 67 -32 89t-103 27l-72 7v51q223 -4 338 -4l309 4v-51l-84 -9q-53 -4 -74 -30
q-20 -27 -24 -89t-4 -489z" />
    <glyph glyph-name="K" unicode="K" horiz-adv-x="1619" 
d="M1042 1292q0 47 -104 54l-49 2v51q188 -4 278 -4l260 4v-51h-18q-121 0 -205 -72q-31 -27 -111 -110q-79 -82 -122 -126l-248 -252q609 -587 696 -660q88 -73 160 -75l35 -2v-51q-250 4 -338 4l-369 -2v49l62 4q47 1 63 11q39 23 -11 84q-50 60 -90 98t-79 76t-82 82
q-43 42 -115 109t-110 103l-41 35l-19 15q0 -348 7 -494q4 -57 24 -82t74 -31l84 -10v-51q-195 4 -309 4l-304 -4v51l74 8q53 6 75 30q22 25 26 105t4 505t-4 506t-26 105t-75 29l-74 9v51q188 -4 304 -4l309 4v-51l-84 -9q-51 -5 -73 -31t-25 -83q-6 -137 -7 -539l23 16
q147 140 223 220t112 116t55 58q19 20 71 76q73 78 73 120z" />
    <glyph glyph-name="L" unicode="L" horiz-adv-x="1329" 
d="M1065 2h-705l-299 -2v51l74 8q53 6 75 30q22 25 26 105t4 505t-4 506t-26 105t-75 29l-78 9v51q203 -4 308 -4l321 4v-51l-88 -7q-51 -3 -78 -29q-26 -26 -30 -123t-4 -416t6 -546q4 -85 36 -109t154 -24h172q176 0 238 51q61 51 118 228h54q-43 -195 -58 -271l-18 -108
q-104 8 -123 8z" />
    <glyph glyph-name="M" unicode="M" horiz-adv-x="1988" 
d="M1942 1399v-51l-89 -9q-51 -5 -73 -31t-25 -104q-4 -78 -4 -504t4 -504q5 -78 25 -104q20 -25 73 -31l86 -10v-51q-197 4 -311 4l-305 -4v51l76 8q53 6 75 30q22 25 26 105t3 508q0 428 -2 478q-515 -1076 -559 -1180h-57q-57 135 -299 633l-252 534v-501q0 -336 4 -476
q2 -68 36 -98t101 -35l60 -6v-51q-131 4 -244 4l-234 -4v51l64 6q106 8 112 131q6 104 7 324v193q0 432 -4 524q-2 104 -130 114l-61 5v51h31l270 -2l152 2q158 -342 258 -559l239 -506q147 309 240 508l266 557q100 -2 154 -2l252 2h35z" />
    <glyph glyph-name="N" unicode="N" horiz-adv-x="1667" 
d="M1356 733q0 336 -4 473q-2 68 -35 99t-107 36l-57 7v51q133 -4 246 -4l231 4v-51l-74 -7q-96 -10 -102 -133q-6 -102 -6 -321v-907h-64q-10 16 -610 702l-440 500v-516q0 -334 6 -473q2 -68 37 -99t104 -37l58 -6v-51q-135 4 -246 4l-236 -4v51l74 6q96 9 102 123t7 332
v440q0 215 -4 277q-2 104 -130 114l-61 5v51h31l266 -2l135 2q285 -326 469 -537l410 -467v338z" />
    <glyph glyph-name="O" unicode="O" horiz-adv-x="1740" 
d="M1323 680q0 238 -95 436q-50 102 -144 164t-220 61q-213 -1 -332 -153q-118 -152 -118 -452t123 -487t354 -188q432 1 432 619zM868 1419q354 1 546 -189t192 -504t-205 -531t-527 -217t-533 204q-210 205 -210 513t211 516t526 208z" />
    <glyph glyph-name="P" unicode="P" horiz-adv-x="1253" 
d="M680 676q126 0 190 92t64 242q0 148 -82 232t-231 83l-132 -4q-4 -201 -4 -625q70 -20 195 -20zM1200 1028q0 -192 -160 -310t-358 -118q-112 0 -174 10l-23 4q0 -295 7 -440q2 -59 30 -82t101 -31l86 -10v-51q-229 4 -349 4l-299 -4v51l74 8q53 6 75 30q22 25 26 105
t4 505t-4 506t-30 106t-89 30l-68 7v51q195 -2 301 -2l307 2q254 0 399 -89q144 -90 144 -282z" />
    <glyph glyph-name="Q" unicode="Q" horiz-adv-x="1740" 
d="M1323 680q0 238 -95 436q-50 102 -144 164t-220 61q-213 -1 -332 -153q-118 -152 -118 -452t123 -489t354 -190q432 0 432 623zM1653 -438q-265 0 -447 112t-332 303q-324 0 -534 204t-209 513q0 309 211 517t526 208q354 0 546 -189t192 -503q0 -236 -119 -423
t-322 -269q92 -125 224 -246q186 -164 335 -164h17l-8 -53q-35 -10 -80 -10z" />
    <glyph glyph-name="R" unicode="R" horiz-adv-x="1589" 
d="M709 672q127 0 200 131q39 76 39 208t-76 222t-239 90l-146 -4l-2 -635q94 -12 220 -12h4zM1217 1059q0 -88 -37 -164q-38 -76 -98 -125q-102 -83 -175 -115q355 -407 470 -503q114 -97 169 -99l39 -2v-51q-78 -8 -186 -8q-107 0 -155 8t-91 39q-116 84 -335 377
q-107 140 -130 162q-16 14 -94 20l-109 4q0 -279 7 -428q4 -57 24 -82t74 -31l84 -10v-51q-195 4 -309 4l-304 -4v51l74 8q53 6 75 30q22 25 26 105t4 505t-4 506t-30 106t-89 30l-68 7v51q199 -2 305 -2l371 2q244 0 368 -88t124 -252z" />
    <glyph glyph-name="S" unicode="S" horiz-adv-x="1261" 
d="M1126 414q0 -209 -158 -321t-378 -111q-94 0 -192 15t-107 15l-119 -8q-14 98 -18 121l-50 276h54q31 -88 50 -130t67 -100q91 -110 321 -110q158 0 232 69t75 173q0 60 -18 89q-17 30 -29 47t-38 35t-41 32q-24 20 -115 62q-92 43 -109 53q-190 92 -248 137
q-135 104 -135 282q0 141 120 256t369 115q74 0 210 -19t171 1l11 2q-2 -84 -2 -107l10 -274h-53l-11 55q-36 189 -177 241q-65 24 -175 24t-185 -53q-75 -52 -75 -155q0 -59 20 -102q33 -71 170 -141q43 -23 145 -68t160 -76q173 -92 220 -188q28 -59 28 -137z" />
    <glyph glyph-name="T" unicode="T" horiz-adv-x="1409" 
d="M825 763q0 -440 6 -589q4 -59 27 -83t86 -30l84 -10v-51q-209 4 -323 4l-326 -4v51l82 10q63 6 87 29q24 24 28 104t4 572q1 492 -5 539q-92 4 -184 4h-59q-84 -1 -128 -11q-78 -19 -107 -122q-13 -51 -19 -91l-4 -38h-54q12 188 15 299l2 102h33q12 -41 116 -46t487 -5
q382 0 510 4t147 29q5 6 9 18h33q0 -80 2 -109l15 -292h-54q-14 153 -50 197t-78 54t-134 11h-47l-197 -4q-4 -102 -4 -542z" />
    <glyph glyph-name="U" unicode="U" horiz-adv-x="1650" 
d="M1438 987v-239q0 -252 -6 -328q-14 -197 -156 -324t-420 -127q-361 0 -506 147q-70 72 -100 156t-33 197v416q0 277 -3 339t-25 86t-74 29l-74 9v51q188 -4 303 -4l309 4v-51l-84 -9q-55 -5 -75 -31t-25 -83q-6 -152 -6 -365t6 -375q16 -408 428 -407q201 0 311 88
t119 295q6 117 6 363t-6 382q-2 68 -35 98t-108 37l-58 7v51q150 -4 260 -4l232 4v-51l-72 -7q-96 -6 -104 -133q-4 -76 -4 -221z" />
    <glyph glyph-name="V" unicode="V" horiz-adv-x="1478" 
d="M449 1266q-1 -51 37 -143q38 -93 73 -178t62 -152l196 -480q99 233 229 541t130 387q0 92 -107 102l-63 5v51q156 -4 243 -4l219 4v-51l-45 -5q-41 -5 -69 -33t-79 -138q-52 -110 -241 -547q-190 -437 -220 -505t-48 -120h-82q-49 139 -258 643t-258 614q-37 74 -117 84
l-43 7v51q180 -4 293 -4l322 4v-51l-70 -7q-104 -10 -104 -75z" />
    <glyph glyph-name="W" unicode="W" horiz-adv-x="2230" 
d="M449 1266q0 -56 67 -219t105 -254l198 -484q57 137 139 328l111 266q-100 248 -149 354q-35 78 -101 84l-47 7v51q168 -4 283 -4l329 4v-51l-79 -7q-103 -10 -103 -71t63 -208q17 -42 49 -121t58 -148l197 -480q99 233 199 471t129 323q30 85 30 134q0 92 -104 102l-64 5
v51q154 -4 244 -4l219 4v-51l-45 -5q-43 -5 -69 -33t-54 -83t-274 -625q-248 -570 -260 -602h-80q-39 98 -207 506l-121 297l-346 -803h-82q-63 174 -265 660t-251 597q-37 74 -117 84l-43 7v51q180 -4 293 -4l311 4v-51l-59 -7q-104 -10 -104 -75z" />
    <glyph glyph-name="X" unicode="X" horiz-adv-x="1587" 
d="M1065 113q0 33 -135 225q-20 29 -31 45l-162 221q-88 -111 -164 -209q-170 -215 -170 -270q0 -61 99 -70l53 -4v-51q-160 4 -262 4l-240 -4v51l45 4q82 8 162 95q45 47 213 253l213 271q-131 186 -223 317q-205 281 -217 293q-51 53 -111 62l-29 2v51q180 -4 295 -4
l316 4v-51l-58 -5q-45 -6 -67 -16t-21 -38q0 -28 134 -218l143 -201q88 109 149 189q127 166 127 223t-96 64l-53 2v51q156 -4 258 -4l229 4v-51l-45 -2q-55 -6 -105 -46t-200 -229l-217 -268q135 -187 289 -401t210 -278t122 -69l30 -2v-51q-176 4 -291 4l-333 -4v51l63 4
q80 6 80 56z" />
    <glyph glyph-name="Y" unicode="Y" horiz-adv-x="1456" 
d="M598 471v174q-129 189 -282 407t-169 236q-43 53 -110 58l-29 2v51q195 -4 305 -4l303 4v-51l-57 -5q-84 -10 -84 -57q0 -27 31 -76t121 -180l168 -246l168 228q129 174 140 207t11 61t-29 45q-29 18 -67 21l-53 2v51q160 -4 256 -4l227 4v-49l-33 -2q-72 -3 -133 -64
q-12 -12 -24 -23t-27 -31q-16 -20 -45 -53q-29 -34 -46 -60q-17 -25 -48 -64t-48 -62l-200 -268q0 -350 6 -549q2 -59 26 -83t87 -30l84 -10v-51q-207 4 -322 4l-326 -4v51l82 10q63 6 86 28q23 23 27 89t4 293z" />
    <glyph glyph-name="Z" unicode="Z" horiz-adv-x="1536" 
d="M362 1397h832l160 2q-31 -39 -475 -690l-420 -617q104 -2 227 -2h209q139 0 210 7t128 41t87 87t69 160h51q-45 -203 -58 -270l-18 -121q-51 6 -154 6h-434l-536 2l-144 -2q49 59 502 717l408 583q-509 13 -620 -5q-127 -18 -161 -121q-12 -37 -22 -93l-8 -45h-54
q12 145 17 256l4 119q57 -14 200 -14z" />
    <glyph glyph-name="bracketleft" unicode="[" horiz-adv-x="813" 
d="M756 1401h-299q-2 -539 -2 -940l2 -942h299v-88q-152 2 -254 2l-271 -2q2 539 2 1030l-2 1028q168 -2 271 -2l254 2v-88z" />
    <glyph glyph-name="backslash" unicode="\" horiz-adv-x="700" 
d="M604 -573h-123l-360 2048h123z" />
    <glyph glyph-name="bracketright" unicode="]" horiz-adv-x="813" 
d="M57 -481h299q2 496 2 942l-2 940h-299v88q152 -2 254 -2l271 2q-2 -537 -2 -1028l2 -1030q-168 2 -271 2l-254 -2v88z" />
    <glyph glyph-name="asciicircum" unicode="^" horiz-adv-x="675" 
d="M745 838h-190l-217 424l-217 -424h-189l299 561h215z" />
    <glyph glyph-name="underscore" unicode="_" horiz-adv-x="1024" 
d="M1024 -360h-1024v120h1024v-120z" />
    <glyph glyph-name="grave" unicode="`" horiz-adv-x="1024" 
d="M702 1057l-49 -31l-329 360l153 48z" />
    <glyph glyph-name="a" unicode="a" horiz-adv-x="999" 
d="M283 297q0 -90 53 -136t105 -46t81 17q28 17 40 30q11 12 13 14l3 295q-88 -6 -168 -37q-127 -47 -127 -137zM874 127q49 0 89 37l16 10l27 -41q-16 -16 -42 -41q-26 -26 -98 -66t-129 -40q-104 0 -153 131q-39 -47 -112 -92q-74 -45 -162 -45t-160 72t-72 164
q0 93 75 162q75 68 169 98t256 52q2 116 2 174t-36 112t-102 54q-88 0 -127 -86q-39 -92 -84 -107q-20 -7 -52 -7t-52 22t-21 55q0 57 84 111q125 76 306 76q303 0 303 -221l-8 -457q0 -127 83 -127z" />
    <glyph glyph-name="b" unicode="b" horiz-adv-x="1167" 
d="M569 49q125 1 195 97t70 274t-67 281t-187 104q-50 0 -98 -15t-68 -32l-21 -15v-608q19 -30 71 -58t105 -28zM709 934q154 0 258 -112t104 -312q0 -238 -160 -393q-141 -135 -340 -135q-104 0 -205 24t-151 51l-49 25l4 620q0 416 -2 495t-25 111t-77 35l-56 5v49
q94 14 203 41l184 47q-4 -307 -4 -682q162 131 316 131z" />
    <glyph glyph-name="c" unicode="c" horiz-adv-x="952" 
d="M494 -18q-152 0 -281 118t-129 339q0 223 143 359t363 136q139 0 227 -44t88 -99q0 -37 -34 -61q-62 -44 -138 -11q-29 12 -43 23t-57 46q-74 63 -135 64h-13q-82 -8 -134 -93t-52 -252t94 -273t225 -105q164 0 283 119l29 -47q-203 -219 -436 -219z" />
    <glyph glyph-name="d" unicode="d" horiz-adv-x="1169" 
d="M319 486q0 -176 75 -273q75 -98 184 -98t182 55l2 612q-24 31 -73 55q-50 24 -107 23q-121 0 -192 -99t-71 -275zM84 425q0 209 136 359t349 150q116 0 172 -25l21 -10q0 179 -2 277t-25 131t-78 36l-55 5v49q94 14 201 41l186 47q-4 -307 -4 -743t2 -523q2 -88 25 -115
t78 -26h51v-49q-115 -14 -191 -25l-188 -22l-2 124q-145 -124 -301 -124q-155 0 -265 118t-110 325z" />
    <glyph glyph-name="e" unicode="e" horiz-adv-x="997" 
d="M694 602q0 109 -46 188t-144 78q-137 0 -189 -189q-10 -40 -10 -75zM508 -18q-164 0 -294 116t-130 346q0 228 134 359t317 131t281 -116t112 -286q-264 4 -414 5l-213 -2v-11q0 -178 95 -284t247 -106t277 114l28 -47q-209 -219 -440 -219z" />
    <glyph glyph-name="f" unicode="f" horiz-adv-x="708" 
d="M739 1489q85 1 145 -21t60 -65t-46 -81t-106 -38t-117 52q-111 103 -183 10q-61 -86 -62 -453h254v-100h-254q-2 -143 -2 -322t4 -297q4 -68 30 -90t107 -27l68 -6v-51q-227 4 -322 4l-256 -4v51l60 6q51 6 66 29q15 24 17 98t3 228v381h-152q20 33 35 53l37 47h80
q4 143 62 285q128 312 472 311z" />
    <glyph glyph-name="g" unicode="g" horiz-adv-x="1052" 
d="M864 -274q0 66 -59 102t-205 43l-227 16q-37 -27 -55 -39t-42 -53q-25 -41 -24 -90q0 -84 77 -141q77 -58 213 -58t230 64q92 64 92 156zM680 514q0 150 -49 253t-137 103t-134 -70q-45 -70 -45 -198q-1 -129 49 -226t150 -97q166 -1 166 235zM1020 -166
q0 -174 -167 -297t-398 -123q-166 0 -277 62t-110 176q0 80 83 148t136 89l24 11q-55 2 -126 44t-71 103t75 112q75 50 147 74q-114 39 -180 127t-66 195q0 155 119 267t285 112q115 0 174 -31l22 -10h326v-100l-201 4q30 -24 59 -92q30 -68 29 -132q0 -166 -123 -264
t-295 -98l-86 6q-27 -8 -57 -30t-29 -47q1 -24 21 -38t76 -23t96 -12q41 -3 135 -10q211 -12 295 -61t84 -162z" />
    <glyph glyph-name="h" unicode="h" horiz-adv-x="1177" 
d="M784 390q0 158 -5 230q-5 70 -52 119t-138 49t-179 -61q0 -465 2 -541t15 -100q13 -25 65 -29l63 -6v-51q-166 4 -258 4l-258 -4v51l61 6q51 6 66 29q14 22 17 104t3 503t-2 501t-24 113q-23 33 -78 36l-55 5v49q94 14 202 41l185 47q-4 -274 -4 -703q195 152 342 152
q114 0 184 -76t74 -201v-372q0 -84 2 -132t18 -70t64 -26l65 -6v-51q-174 4 -262 4l-254 -4v51l59 6q44 5 60 25t19 85t3 223z" />
    <glyph glyph-name="i" unicode="i" horiz-adv-x="591" 
d="M197 411q0 151 -2 235t-24 112t-77 33l-51 4v49q88 14 197 41l182 49q-2 -258 -2 -482t2 -287t18 -83t64 -25l61 -6v-51q-166 4 -258 4l-258 -4v51l62 6q49 5 65 25t18 99t3 230zM449 1274q0 -57 -41 -97q-40 -40 -102 -40t-102 40t-40 97t40 97t101 40t103 -40t41 -97z
" />
    <glyph glyph-name="j" unicode="j" horiz-adv-x="587" 
d="M418 408l-2 -398q-2 -276 -191 -471q-68 -68 -168 -123l-30 -16l-29 41q2 2 40 34t81 95q61 118 67 290t6 438t-2 348q-4 84 -24 112t-76 33l-53 4v49q90 14 196 41l185 49v-526zM442 1268q0 -58 -40 -98t-101 -40t-101 40t-40 98t40 97q40 40 101 40t101 -40t40 -97z
" />
    <glyph glyph-name="k" unicode="k" horiz-adv-x="1136" 
d="M715 86q0 17 -99 129q-99 111 -148 168q-50 58 -58 66q0 -199 2 -267t17 -95q15 -26 63 -30l59 -6v-51q-162 4 -254 4l-258 -4v51l61 6q51 6 66 29q14 22 17 104t3 503t-2 501t-24 113q-23 33 -78 36l-55 5v49q94 14 202 41l185 47q-4 -307 -4 -770v-244q6 4 30 27
q24 22 60 56q237 215 237 265q0 37 -55 39l-55 4v51q131 -2 213 -2l221 2v-51q-119 -4 -185 -60t-135 -124l-127 -123q268 -324 367 -422q72 -76 127 -80l27 -4v-49q-156 4 -238 4l-258 -4v51l37 2q39 2 39 33z" />
    <glyph glyph-name="l" unicode="l" horiz-adv-x="581" 
d="M186 693q0 421 -2 501t-24 113q-23 33 -78 36l-55 5v49q94 14 202 41l185 47q-4 -307 -4 -765t2 -532t18 -101q16 -26 68 -30l65 -6v-51q-174 4 -266 4l-258 -4v51l61 6q51 6 66 29q14 22 17 104t3 503z" />
    <glyph glyph-name="m" unicode="m" horiz-adv-x="1779" 
d="M1386 390q0 158 -5 230q-5 70 -51 119t-131 49t-183 -63q4 -20 4 -74v-495q2 -51 17 -73t63 -26l63 -6v-51q-168 4 -256 4l-254 -4v51l60 6q43 4 63 31t19 245q0 219 -5 289q-6 70 -52 118t-118 48t-124 -22q-53 -22 -76 -43v-289q0 -207 2 -269q2 -63 18 -83t64 -25
l61 -6v-51q-166 4 -258 4l-258 -4v51l62 6q49 5 65 25t18 99t3 230q0 151 -2 235t-24 112t-77 33l-51 4v49q88 14 197 41l182 49l-2 -156q186 156 344 156q88 0 149 -45t88 -117q195 162 355 162q112 0 182 -76t74 -201v-372q0 -84 2 -132t18 -70t64 -26l65 -6v-51
q-174 4 -262 4l-254 -4v51l60 6q45 5 60 25t18 85t3 223z" />
    <glyph glyph-name="n" unicode="n" horiz-adv-x="1189" 
d="M797 378q0 144 -5 228q-6 84 -52 133t-118 49t-126 -24q-55 -24 -74 -41q-2 -129 -2 -311t2 -245q2 -62 17 -84t63 -26l63 -6v-51q-164 4 -258 4l-258 -4v51l64 6q49 7 64 27t17 72t3 129v127q0 147 -2 231t-24 114t-77 34l-51 4v49q88 14 197 41l182 49v-154
q190 154 342 154q112 0 182 -76t74 -199q2 -63 2 -147v-354q2 -51 19 -73t65 -26l65 -8v-51q-174 4 -262 4l-254 -4v51l60 6q43 4 58 26q15 23 19 87t5 208z" />
    <glyph glyph-name="o" unicode="o" horiz-adv-x="1177" 
d="M850 391q0 326 -157 435q-52 36 -122 36q-246 0 -245 -340q0 -205 70 -339t202 -134q131 0 192 80q60 80 60 262zM84 444q0 204 138 348q138 142 364 142t368 -133q140 -133 140 -338t-142 -343t-363 -138q-222 0 -364 129q-141 129 -141 333z" />
    <glyph glyph-name="p" unicode="p" horiz-adv-x="1177" 
d="M584 805q-52 0 -96 -13t-62 -28l-18 -14v-607q10 -29 61 -61t135 -33q250 1 250 357q-2 180 -73 290t-197 109zM716 934q152 0 261 -116q110 -116 110 -332t-140 -360t-347 -144q-106 0 -174 26l-18 10q0 -352 3 -412t22 -82t83 -28l72 -6v-51q-201 4 -295 4l-258 -4v51
l61 6q51 6 67 29q15 23 17 79t2 197v344q0 445 -2 515t-24 98t-76 33l-51 4v49q90 14 196 41l183 49v-127q156 127 308 127z" />
    <glyph glyph-name="q" unicode="q" horiz-adv-x="1138" 
d="M319 486q0 -178 75 -275q75 -98 196 -98q49 0 91 13t60 28l17 14v614q-23 31 -73 56t-107 24q-119 0 -189 -99t-70 -277zM90 440q0 224 143 359t336 135q150 0 226 -45q47 25 90 45l98 43q-2 -436 -2 -851q0 -414 3 -496t17 -105t66 -29l63 -6v-51q-168 4 -260 4l-295 -4
v51l74 6q61 4 81 28t24 90t4 492q-41 -48 -135 -87q-93 -38 -160 -37q-157 0 -265 116q-108 118 -108 342z" />
    <glyph glyph-name="r" unicode="r" horiz-adv-x="851" 
d="M825 827q0 -45 -46 -109t-101 -65q-25 -1 -39 23t-18 31q-23 31 -58 30q-80 0 -143 -194q0 -307 3 -371t29 -86t107 -29l68 -6v-51q-225 4 -320 4l-258 -4v51l60 6q57 6 73 33t15 203v119q0 147 -2 231t-24 114t-77 34l-51 4v49q88 14 197 41l184 49q-4 -162 -4 -277
q108 275 285 277q51 0 85 -30t35 -77z" />
    <glyph glyph-name="s" unicode="s" horiz-adv-x="864" 
d="M172 14q-24 0 -61 -12q-6 94 -11 150l-12 159h51l8 -45q39 -217 256 -217q92 0 143 38q50 38 50 97q0 58 -45 96t-142 78t-135 60q-107 56 -143 135q-20 47 -20 106q0 125 103 198t255 73q63 0 125 -11t80 -12l55 8v-59l8 -229h-53l-8 41q-31 195 -203 194
q-90 0 -133 -36t-43 -95t44 -94q45 -35 147 -81t132 -60t78 -48q86 -63 86 -172q0 -145 -114 -219t-258 -73q-76 0 -146 15t-94 15z" />
    <glyph glyph-name="t" unicode="t" horiz-adv-x="727" 
d="M512 123q84 0 160 67l26 -47q-51 -53 -138 -103t-189 -50q-219 0 -219 276v135l8 392h-131q84 76 178 163l182 183l-4 -246h299v-98h-301q-6 -323 -6 -443t22 -166q29 -63 113 -63z" />
    <glyph glyph-name="u" unicode="u" horiz-adv-x="1163" 
d="M393 548q0 -105 4 -237q6 -186 170 -186q102 0 187 63l2 267q0 133 -2 206t-24 103t-79 33l-51 4v49q106 18 207 41l174 43q-2 -326 -2 -438t4 -236q5 -125 25 -154t79 -28h52v-49q-117 -14 -193 -25l-190 -22v149q-176 -150 -340 -149q-106 0 -176 72t-72 216l2 189v203
q-4 68 -24 96t-76 33l-52 4v49q88 14 197 41l182 49q-4 -281 -4 -386z" />
    <glyph glyph-name="v" unicode="v" horiz-adv-x="1038" 
d="M590 281q200 438 198 520q0 25 -18 37t-63 18l-41 6v51q119 -4 184 -4l168 4v-51l-31 -6q-61 -12 -93 -70t-144 -319q-150 -336 -203 -467h-76q-51 127 -183 420t-147 325q-49 106 -100 113l-39 4v51q152 -2 240 -2l245 2v-51l-43 -2q-78 -4 -77 -43q0 -45 94 -253
t112 -245z" />
    <glyph glyph-name="w" unicode="w" horiz-adv-x="1611" 
d="M940 817q0 -27 73 -199t134 -299l16 -38q199 437 199 520q0 25 -18 37t-64 18l-41 6v51q119 -4 184 -4l168 4v-51l-30 -6q-61 -12 -93 -70t-145 -319q-154 -346 -203 -467h-76q-14 35 -174 401l-77 170l-246 -571h-76q-55 136 -185 425q-130 288 -145 320
q-49 106 -100 113l-39 4v51q152 -2 240 -2l237 2v-51l-37 -2q-76 -4 -75 -43q0 -27 100 -266l125 -275q31 61 106 244l56 139q-33 70 -39 86q-49 106 -99 113l-34 4v51q145 -2 233 -2l246 2v-51l-43 -2q-78 -4 -78 -43z" />
    <glyph glyph-name="x" unicode="x" horiz-adv-x="1089" 
d="M301 96q0 -37 68 -43l30 -2v-51q-160 2 -200 2l-179 -2v51l15 2q90 4 153 70q37 35 134 151l122 148q-48 57 -110 139t-115 149t-55 70q-55 72 -113 80l-31 2v51q164 -4 254 -4l254 4v-51h-22q-72 -8 -72 -43t70 -131l78 -104q29 29 95 114q66 86 66 122t-55 40l-31 2v51
q131 -4 197 -4l164 4v-51l-31 -2q-78 -4 -186 -133l-172 -205q88 -113 135 -175t158 -200q45 -53 79 -72t86 -24v-51q-147 4 -253 4l-259 -4v51l37 2q62 6 62 35t-88 145l-97 129q-188 -217 -188 -266z" />
    <glyph glyph-name="y" unicode="y" horiz-adv-x="1038" 
d="M137 -584q-51 0 -85 32t-34 77q0 94 150 94q86 0 122 31t85 133l96 217q-230 531 -330 745q-49 106 -100 113l-39 4v51q152 -2 240 -2l245 2v-51l-43 -2q-78 -4 -77 -43q0 -29 100 -268l121 -270q43 93 122 281t78 241q0 45 -81 55l-41 6v51q119 -4 184 -4l168 4v-51
l-31 -6q-61 -12 -94 -74q-22 -36 -243 -547q-222 -511 -249 -571q-119 -248 -264 -248z" />
    <glyph glyph-name="z" unicode="z" horiz-adv-x="1034" 
d="M428 844q-110 0 -162 -10t-83 -56q-32 -46 -42 -153h-53q8 131 8 209l-4 102q35 -14 80 -18t408 -5l348 2l-303 -454l-250 -381q94 -4 186 -4t113 2q131 2 178 55t72 197h53q-14 -123 -21 -205l-8 -131q-47 6 -71 6l-525 2l-284 -2q113 166 301 455l252 387q-83 2 -193 2
z" />
    <glyph glyph-name="braceleft" unicode="{" horiz-adv-x="800" 
d="M733 -514v-59h-47q-232 0 -326 79t-94 267l4 237q0 176 -16 264t-53 120t-113 32v63q76 0 113 32t53 120t16 266l-4 236q0 174 80 252q100 96 336 96h51v-59q-145 0 -195 -66t-51 -225l7 -269q0 -246 -170 -367q-39 -28 -66 -38l-27 -8q29 -6 84 -41q53 -35 87 -77
t63 -121t29 -175l-7 -268q0 -164 54 -228q47 -63 192 -63z" />
    <glyph glyph-name="bar" unicode="|" horiz-adv-x="675" 
d="M444 -569h-213v1968h213v-1968z" />
    <glyph glyph-name="braceright" unicode="}" horiz-adv-x="800" 
d="M713 428q-76 0 -113 -32t-58 -147t-7 -474q0 -188 -91 -262q-98 -84 -329 -84h-47v59q145 0 192 63q53 63 53 228l-6 268q0 96 27 175t65 121q84 90 144 108l26 10q-28 6 -82 41q-55 35 -89 76q-34 42 -62 120t-29 176l6 269q0 159 -50 225t-195 66v59h51q236 0 336 -96
q80 -78 80 -252l-5 -236q0 -178 16 -266t54 -120q37 -32 113 -31v-64z" />
    <glyph glyph-name="asciitilde" unicode="~" horiz-adv-x="1124" 
d="M748 606q-78 0 -208 30t-196 30q-119 0 -205 -64l-22 41q35 53 115 111t148 57q66 0 210 -30q144 -29 242 -29t153 63l25 -45q-37 -56 -111 -110q-73 -54 -151 -54z" />
    <glyph glyph-name="nbspace" unicode="&#xa0;" horiz-adv-x="409" 
 />
    <glyph glyph-name="exclamdown" unicode="&#xa1;" horiz-adv-x="579" 
d="M428 -328q0 -86 -42 -125t-99 -39t-99 39q-41 39 -41 133q-1 94 43 420t54 385q8 33 45 33t41 -33q2 -8 41 -280q57 -447 57 -533zM430 792q0 -56 -40 -96t-100 -41q-60 0 -101 40q-39 41 -39 97t39 96q41 40 101 40t100 -40t40 -96z" />
    <glyph glyph-name="cent" unicode="&#xa2;" 
d="M600 1100q-80 0 -143 -80t-64 -248q0 -242 133 -348q31 -25 52 -31l22 -8v715zM680 63h-80v164q-225 0 -351 192q-71 108 -71 263q0 207 119 338t303 156v143h80v-141h27q115 0 211 -40t96 -100q0 -38 -33 -60t-82 -22t-118 62t-101 74v-719h20q147 0 299 121l29 -48
q-158 -178 -348 -217v-166z" />
    <glyph glyph-name="sterling" unicode="&#xa3;" horiz-adv-x="1335" 
d="M196 270q-44 0 -80 -32t-36 -79q0 -48 40 -84t122 -36t142 38t83 77q-8 4 -66 41t-110 56q-51 19 -95 19zM1298 416q0 -82 -40 -168t-95 -139q-131 -129 -248 -129q-170 0 -389 139q-121 -141 -290 -142q-96 1 -166 45t-70 134t85 149q159 110 427 12q0 43 -47 129
q-12 25 -63 121q-50 96 -66 135h-203v86h170q-39 111 -39 205q0 180 138 296t337 116q137 0 256 -45q166 -63 166 -143q0 -43 -34 -71q-35 -28 -71 -28t-61 14t-40 28q-15 15 -41 44t-42 45q-80 84 -167 84t-151 -57t-65 -182q0 -83 23 -161t38 -111q15 -32 15 -34h326v-86
h-289q64 -152 64 -232t-45 -194q274 -133 404 -133t130 95q0 20 -30 80q-58 117 2 187q32 36 87 36q84 0 84 -125z" />
    <glyph glyph-name="currency" unicode="&#xa4;" 
d="M889 694q0 152 -84 234t-207 82t-202 -83t-79 -229t80 -230q80 -85 207 -85q127 -1 206 79t79 232zM598 254q-80 0 -150 22t-96 43l-28 21l-148 -147l-90 90l147 149q-30 38 -55 111q-50 148 -1 293q24 68 46 98l23 29l-164 161l102 101l166 -162q96 78 256 78
q78 1 144 -19t94 -41l26 -18l156 156l90 -91l-153 -153q33 -33 61 -116q29 -83 29 -159q-1 -76 -21 -138t-41 -91l-20 -29l155 -157l-98 -103l-160 158q-33 -33 -112 -60q-78 -26 -158 -26z" />
    <glyph glyph-name="yen" unicode="&#xa5;" 
d="M485 395v131l-272 -2v86q63 -2 272 -2v88q-92 154 -219 344t-168 242q-43 59 -104 64l-25 2v51q182 -4 287 -4l283 4v-51l-52 -5q-76 -6 -75 -59q0 -35 43 -103q23 -43 34 -60t25 -40t25 -39l139 -219q78 109 119 171l49 73q117 177 117 225q0 49 -84 54l-56 2v53
q184 -4 236 -4l190 4v-53l-32 -2q-63 -4 -109 -52t-213 -286q-168 -238 -164 -242v-158l283 2v-86q-68 2 -283 2v-131l283 2v-86q-66 2 -281 2l4 -137q2 -59 24 -84t83 -33l76 -8v-51q-199 4 -314 4l-299 -4v51l68 8q63 8 85 36t23 218l-270 -2v86q66 -2 272 -2z" />
    <glyph glyph-name="section" unicode="&#xa7;" 
d="M911 289q0 88 -72 168q-73 80 -205 175t-192 146l-20 19q-100 -80 -100 -189q0 -139 228 -307t267 -203q94 74 94 191zM981 -193q0 -165 -128 -275q-129 -110 -313 -110t-300 50t-117 120q0 37 32 65q31 28 77 28t85 -30t65 -66q26 -35 72 -65t107 -30q109 0 172 56
t63 156t-91 185q-92 85 -165 134q-117 77 -226 166q-169 137 -169 298q0 207 230 345l-18 18q-15 16 -23 26t-25 33q-17 22 -42 78q-25 55 -25 121q0 162 124 272t302 109q178 0 283 -48t106 -108q0 -41 -31 -67t-74 -27q-76 0 -153 85t-169 85q-90 0 -148 -54t-58 -157
q0 -58 20 -90t30 -51q11 -18 37 -43t40 -39t48 -40t48 -36t53 -37q120 -83 180 -130q138 -108 178 -199q23 -57 23 -131t-46 -157t-88 -123t-83 -67q117 -117 117 -250z" />
    <glyph glyph-name="dieresis" unicode="&#xa8;" horiz-adv-x="1024" 
d="M438 1145q0 -41 -28 -69t-70 -28q-41 0 -70 28t-28 69q0 41 28 69t70 29q42 -1 70 -29t28 -69zM782 1145q0 -41 -28 -69t-70 -28q-41 0 -70 28t-28 69q0 41 28 69t70 29q42 -1 70 -29t28 -69z" />
    <glyph glyph-name="copyright" unicode="&#xa9;" horiz-adv-x="1703" 
d="M889 1028q-155 0 -227 -80t-72 -239t81 -243t217 -83q136 0 177 30t68 128l6 22h45q-16 -117 -23 -162l-4 -51q-20 0 -97 -11t-167 -11q-211 0 -340 96t-129 269t117 279t329 107l236 -12l51 6v-82l4 -143h-45l-6 35q-10 81 -62 113t-159 32zM1485 690q0 284 -177 470
t-457 188q-280 0 -455 -180t-175 -465t179 -467t457 -182t453 176t175 460zM131 699q0 317 202 519t519 202t519 -203q202 -202 202 -518t-199 -519t-519 -203t-522 203t-202 519z" />
    <glyph glyph-name="ordfeminine" unicode="&#xaa;" horiz-adv-x="628" 
d="M354 1126q-59 -4 -111 -28q-53 -24 -53 -77q0 -52 29 -77t66 -24t67 30zM543 926q46 0 71 35l19 -35q-90 -100 -174 -101q-61 0 -97 88q-28 -33 -72 -61t-97 -29q-53 0 -100 46q-46 46 -46 102q0 113 156 166q45 14 151 30v86q0 47 -19 81t-63 34t-67 -54
q-24 -54 -44 -66q-21 -13 -44 -13q-56 0 -58 55q0 45 73 85t177 40q199 0 199 -143l-6 -283q0 -63 41 -63z" />
    <glyph glyph-name="guillemotleft" unicode="&#xab;" horiz-adv-x="843" 
d="M272 463q0 -41 32 -126t65 -149l32 -65l-43 -29l-264 344v60l264 344l43 -29q-129 -260 -129 -350zM610 463q0 -41 33 -126t66 -149l30 -65l-43 -29l-264 344v60l264 344l43 -29q-129 -260 -129 -350z" />
    <glyph glyph-name="logicalnot" unicode="&#xac;" horiz-adv-x="1124" 
d="M850 707v127h-297l-434 -3v148q332 -2 434 -2l455 2q-2 -168 -2 -272l2 -273h-160q2 150 2 273z" />
    <glyph glyph-name="registered" unicode="&#xae;" horiz-adv-x="1703" 
d="M971 842q0 172 -164 172l-68 -4q-4 -118 -4 -324q43 -6 107 -6t96 48q33 48 33 114zM1145 891q0 -86 -55 -138t-115 -75q183 -212 234 -250q51 -39 81 -43h23v-45q-39 -6 -121 -6t-116 14t-62 44t-69 84q-40 54 -71 96q-32 42 -40 50t-50 7l-49 2q0 -131 2 -170
q3 -39 15 -53t47 -19l49 -4v-45q-129 2 -191 2l-194 -2v45l47 4q37 3 47 17t12 72t2 226q0 166 -2 224t-14 72q-12 13 -51 16l-51 6v45q96 -2 190 -2l219 2q283 0 283 -176zM1485 690q0 284 -177 470t-457 188q-280 0 -455 -180t-175 -465t179 -467t457 -182t453 176
t175 460zM131 699q0 317 202 519t519 202t519 -203q202 -202 202 -518t-199 -519t-519 -203t-522 203t-202 519z" />
    <glyph glyph-name="macron" unicode="&#xaf;" horiz-adv-x="1024" 
d="M811 1104q-190 2 -293 2l-295 -2v125q193 -2 295 -2l293 2v-125z" />
    <glyph glyph-name="degree" unicode="&#xb0;" horiz-adv-x="634" 
d="M463 1186q0 64 -41 107q-40 42 -104 42t-106 -43q-42 -44 -42 -108t41 -105t107 -41t105 42q40 42 40 106zM565 1188q1 -102 -71 -169t-185 -67t-176 66t-63 166t72 170q74 70 180 70t175 -67q68 -67 68 -169z" />
    <glyph glyph-name="plusminus" unicode="&#xb1;" horiz-adv-x="1124" 
d="M963 0h-801v113h801v-113zM956 539h-342v-340h-112v340h-338v112h338v340h112v-340h342v-112z" />
    <glyph glyph-name="acute" unicode="&#xb4;" horiz-adv-x="1024" 
d="M729 1374l-397 -348l-35 39l285 375z" />
    <glyph glyph-name="mu" unicode="&#xb5;" horiz-adv-x="1107" 
d="M862 870v-591q0 -119 20 -160t71 -41q52 0 83 44q10 13 15 17h36q-43 -182 -225 -182q-68 0 -100 42t-49 114q-43 -43 -125 -88t-186 -45t-160 61v-57q0 -60 28 -152t29 -123q0 -125 -90 -125q-82 0 -82 125q0 31 25 123t24 152v669q0 111 -19 142t-89 30h-15v45h25
l119 -4l102 4h27v-585q0 -95 43 -139t147 -44t197 58v493q-1 113 -19 143t-88 29h-18v45h28l115 -4l103 4h28z" />
    <glyph glyph-name="paragraph" unicode="&#xb6;" horiz-adv-x="1615" 
d="M1221 76v344l-2 903h-95v-1247h97zM874 1325v-1251l166 2v344l-2 905h-164zM1305 0v-573h-86q0 270 2 573h-97v-573h-86q0 270 2 573h-200q-88 0 -142 4t-136 30q-81 26 -152 72q-281 184 -281 592q0 346 209 537q108 100 232 132t280 32l270 -2q312 0 402 28l8 -75
q-70 -18 -225 -25v-1251q155 -7 225 -25l-8 -76q-82 27 -217 27z" />
    <glyph glyph-name="periodcentered" unicode="&#xb7;" horiz-adv-x="440" 
d="M362 702q0 -55 -40 -96t-100 -41q-62 0 -103 40t-41 97q0 58 41 98t102 40t102 -41q39 -42 39 -97z" />
    <glyph glyph-name="cedilla" unicode="&#xb8;" horiz-adv-x="1024" 
d="M752 -328q0 -90 -76 -152t-176 -62t-163 28q-63 29 -63 64t18 55t51 20q32 0 63 -41q46 -65 102 -65q55 1 81 33t25 77q0 70 -68 102q-69 32 -194 46l113 246l72 -3l-56 -129q125 -17 198 -73t73 -146z" />
    <glyph glyph-name="ordmasculine" unicode="&#xba;" horiz-adv-x="712" 
d="M344 1362q-137 0 -137 -201q0 -117 39 -199t121 -83q137 -1 137 190t-73 259q-36 34 -87 34zM672 1122q0 -129 -91 -214t-227 -85t-225 81q-88 81 -88 209t88 216t227 88q140 0 228 -83t88 -212z" />
    <glyph glyph-name="guillemotright" unicode="&#xbb;" horiz-adv-x="843" 
d="M414 438l-264 -344l-44 29q129 248 130 340q0 41 -32 128t-65 154l-33 68l44 29l264 -344v-60zM573 463q0 41 -31 128q-32 87 -65 154l-33 68l43 29l265 -344v-60l-265 -344l-43 29q129 248 129 340z" />
    <glyph glyph-name="questiondown" unicode="&#xbf;" horiz-adv-x="854" 
d="M797 -373q-1 -51 -63 -86t-183 -35q-195 0 -336 101q-156 106 -156 295q0 123 75 199t254 143q79 28 117 50q64 38 64 94t-28 112l-11 18l68 19q96 -165 96 -267t-64 -151t-206 -101q-227 -84 -227 -206q0 -74 51 -121t125 -47q75 0 155 45t130 45t94 -28t45 -79z
M674 793q0 -55 -40 -97t-102 -41q-62 0 -101 41q-40 40 -40 96t41 96t100 40q58 0 100 -40t42 -95z" />
    <glyph glyph-name="Agrave" unicode="&#xc0;" horiz-adv-x="1554" 
d="M899 625l-199 473l-192 -473h391zM1092 125q0 35 -160 422q-74 2 -240 2l-217 -2q-147 -354 -147 -408q0 -78 125 -84l49 -4v-51q-164 6 -254 6l-201 -6v51l45 6q80 8 133 129q10 25 44 104t88 210q54 132 215 516t171 414h86q54 -134 157 -382q104 -248 195 -470
t141 -334t81 -147q31 -34 76 -40l43 -6v-49q-156 4 -279 4l-309 -6v51l49 4q109 6 109 70zM862 1569l-51 -33l-332 365l156 49z" />
    <glyph glyph-name="Aacute" unicode="&#xc1;" horiz-adv-x="1554" 
d="M899 625l-199 473l-192 -473h391zM1092 125q0 35 -160 422q-74 2 -240 2l-217 -2q-147 -354 -147 -408q0 -78 125 -84l49 -4v-51q-164 6 -254 6l-201 -6v51l45 6q80 8 133 129q10 25 44 104t88 210q54 132 215 516t171 414h86q54 -134 157 -382q104 -248 195 -470
t141 -334t81 -147q31 -34 76 -40l43 -6v-49q-156 4 -279 4l-309 -6v51l49 4q109 6 109 70zM1153 1888l-403 -352l-39 41l286 379z" />
    <glyph glyph-name="Acircumflex" unicode="&#xc2;" horiz-adv-x="1554" 
d="M899 625l-199 473l-192 -473h391zM1092 125q0 35 -160 422q-74 2 -240 2l-217 -2q-147 -354 -147 -408q0 -78 125 -84l49 -4v-51q-164 6 -254 6l-201 -6v51l45 6q80 8 133 129q10 25 44 104t88 210q54 132 215 516t171 414h86q54 -134 157 -382q104 -248 195 -470
t141 -334t81 -147q31 -34 76 -40l43 -6v-49q-156 4 -279 4l-309 -6v51l49 4q109 6 109 70zM1098 1561l-45 -43l-273 227l-264 -227l-41 41l281 356h63z" />
    <glyph glyph-name="Atilde" unicode="&#xc3;" horiz-adv-x="1554" 
d="M899 625l-199 473l-192 -473h391zM1092 125q0 35 -160 422q-74 2 -240 2l-217 -2q-147 -354 -147 -408q0 -78 125 -84l49 -4v-51q-164 6 -254 6l-201 -6v51l45 6q80 8 133 129q10 25 44 104t88 210q54 132 215 516t171 414h86q54 -134 157 -382q104 -248 195 -470
t141 -334t81 -147q31 -34 76 -40l43 -6v-49q-156 4 -279 4l-309 -6v51l49 4q109 6 109 70zM958 1708q82 0 122 47q10 12 22 27l33 -45q-99 -164 -224 -164q-63 0 -161 35q-98 34 -160 34t-119 -79l-35 43q35 61 94 114q70 56 122 56t160 -34t146 -34z" />
    <glyph glyph-name="Adieresis" unicode="&#xc4;" horiz-adv-x="1554" 
d="M899 625l-199 473l-192 -473h391zM1092 125q0 35 -160 422q-74 2 -240 2l-217 -2q-147 -354 -147 -408q0 -78 125 -84l49 -4v-51q-164 6 -254 6l-201 -6v51l45 6q80 8 133 129q10 25 44 104t88 210q54 132 215 516t171 414h86q54 -134 157 -382q104 -248 195 -470
t141 -334t81 -147q31 -34 76 -40l43 -6v-49q-156 4 -279 4l-309 -6v51l49 4q109 6 109 70zM696 1657q0 -43 -30 -72t-74 -29q-43 0 -73 29t-30 72t30 73t73 30t74 -30q30 -30 30 -73zM1065 1657q0 -43 -30 -72q-31 -29 -73 -29t-73 29t-31 72t31 73t74 30t73 -30t29 -73z
" />
    <glyph glyph-name="Aring" unicode="&#xc5;" horiz-adv-x="1554" 
d="M899 625l-199 473l-192 -473h391zM909 1752q0 56 -36 92t-89 36t-87 -34q-33 -34 -33 -92t34 -94t90 -36q55 0 89 36q32 36 32 92zM1092 125q0 35 -160 422q-74 2 -240 2l-217 -2q-147 -354 -147 -408q0 -78 125 -84l49 -4v-51q-164 6 -254 6l-201 -6v51l45 6
q80 8 133 129q10 25 44 104t88 210q54 132 215 516t171 414h86q54 -134 157 -382q104 -248 195 -470t141 -334t81 -147q31 -34 76 -40l43 -6v-49q-156 4 -279 4l-309 -6v51l49 4q109 6 109 70zM1001 1757q0 -92 -62 -153q-61 -62 -153 -62t-153 60t-61 152q0 90 62 152
t153 62t153 -59q61 -60 61 -152z" />
    <glyph glyph-name="AE" unicode="&#xc6;" horiz-adv-x="2205" 
d="M1055 764l-2 514l-330 -514h332zM1929 2h-753l-299 -2v51l73 8q53 6 75 29q22 22 26 102t4 496h-383q-27 -42 -119 -188t-139 -231t-47 -125q-1 -40 27 -59t95 -28l50 -4v-51q-176 6 -265 6l-235 -6v51l47 6q68 10 147 111q23 27 365 557l387 594q-39 14 -115 22l-67 7
v51q254 -2 358 -2h481q295 0 357 12q4 -135 6 -154l14 -194h-53q-33 164 -79 207t-195 43h-389q-2 -324 -3 -547h244q168 0 207 21t54 67t24 125h53q-4 -113 -4 -242l4 -266h-53q-16 166 -86 197q-53 20 -199 20h-244q0 -350 4 -438t17 -113q14 -25 58 -36t145 -11h202
q94 0 148 11t94 51q39 40 56 82q17 40 51 135h53q-41 -180 -60 -277l-16 -94q-104 6 -123 6z" />
    <glyph glyph-name="Ccedilla" unicode="&#xc7;" horiz-adv-x="1607" 
d="M706 -375q46 0 84 -53q37 -53 92 -53q56 1 82 33t25 77q0 70 -68 102q-69 32 -194 46q33 55 96 209q-324 35 -508 220t-184 488t215 512t623 209q119 0 220 -10t140 -10l105 10v-90l10 -297h-55q-23 170 -106 244t-311 73q-228 0 -388 -132q-84 -69 -132 -193t-49 -291
q1 -293 145 -475t451 -183q223 0 322 97q49 49 67 98q17 48 32 94t16 47h53q-29 -190 -37 -245l-14 -119q-12 -3 -66 -13l-135 -25q-82 -15 -201 -17q-118 -1 -143 2l-37 -89q125 -16 198 -72q72 -57 72 -147t-76 -152t-176 -62t-162 28q-62 29 -62 64t18 55t38 20z" />
    <glyph glyph-name="Egrave" unicode="&#xc8;" horiz-adv-x="1388" 
d="M877 1313h-390q-2 -319 -2 -543h244q168 0 207 22t54 66q15 45 24 125h53q-4 -117 -4 -246l4 -264h-53q-16 164 -86 195q-53 20 -199 20h-244q0 -352 4 -452t40 -124q36 -22 180 -22h202q132 0 200 30t108 135q14 36 41 112h53q-43 -178 -60 -277l-16 -96q-104 8 -123 8
h-754l-299 -2v51l74 8q53 6 75 30q22 25 26 105t4 505t-4 506t-30 106t-89 30l-68 7v51q193 -2 297 -2l481 2q295 0 357 12q4 -135 6 -156l14 -192h-53q-33 164 -79 207t-195 43zM827 1569l-51 -33l-334 365l158 49z" />
    <glyph glyph-name="Eacute" unicode="&#xc9;" horiz-adv-x="1388" 
d="M877 1313h-390q-2 -319 -2 -543h244q168 0 207 22t54 66q15 45 24 125h53q-4 -117 -4 -246l4 -264h-53q-16 164 -86 195q-53 20 -199 20h-244q0 -352 4 -452t40 -124q36 -22 180 -22h202q132 0 200 30t108 135q14 36 41 112h53q-43 -178 -60 -277l-16 -96q-104 8 -123 8
h-754l-299 -2v51l74 8q53 6 75 30q22 25 26 105t4 505t-4 506t-30 106t-89 30l-68 7v51q193 -2 297 -2l481 2q295 0 357 12q4 -135 6 -156l14 -192h-53q-33 164 -79 207t-195 43zM965 1888l-404 -352l-39 41l287 379z" />
    <glyph glyph-name="Ecircumflex" unicode="&#xca;" horiz-adv-x="1388" 
d="M877 1313h-390q-2 -319 -2 -543h244q168 0 207 22t54 66q15 45 24 125h53q-4 -117 -4 -246l4 -264h-53q-16 164 -86 195q-53 20 -199 20h-244q0 -352 4 -452t40 -124q36 -22 180 -22h202q132 0 200 30t108 135q14 36 41 112h53q-43 -178 -60 -277l-16 -96q-104 8 -123 8
h-754l-299 -2v51l74 8q53 6 75 30q22 25 26 105t4 505t-4 506t-30 106t-89 30l-68 7v51q193 -2 297 -2l481 2q295 0 357 12q4 -135 6 -156l14 -192h-53q-33 164 -79 207t-195 43zM1014 1561l-45 -43l-273 227l-264 -227l-43 41l283 356h63z" />
    <glyph glyph-name="Edieresis" unicode="&#xcb;" horiz-adv-x="1388" 
d="M877 1313h-390q-2 -319 -2 -543h244q168 0 207 22t54 66q15 45 24 125h53q-4 -117 -4 -246l4 -264h-53q-16 164 -86 195q-53 20 -199 20h-244q0 -352 4 -452t40 -124q36 -22 180 -22h202q132 0 200 30t108 135q14 36 41 112h53q-43 -178 -60 -277l-16 -96q-104 8 -123 8
h-754l-299 -2v51l74 8q53 6 75 30q22 25 26 105t4 505t-4 506t-30 106t-89 30l-68 7v51q193 -2 297 -2l481 2q295 0 357 12q4 -135 6 -156l14 -192h-53q-33 164 -79 207t-195 43zM616 1657q0 -43 -30 -72t-74 -29q-43 0 -73 29t-29 72q0 43 29 73q30 30 73 30t74 -30
q30 -30 30 -73zM985 1657q0 -43 -30 -72q-31 -29 -73 -29t-73 29t-31 72t31 73t74 30t73 -30t29 -73z" />
    <glyph glyph-name="Igrave" unicode="&#xcc;" horiz-adv-x="722" 
d="M674 0q-195 4 -309 4l-304 -4v51l74 8q53 6 75 30q22 25 26 105t4 505t-4 506t-26 105t-75 29l-74 9v51q188 -4 304 -4l309 4v-51l-84 -9q-53 -4 -74 -30q-20 -27 -24 -84q-6 -152 -6 -527t6 -524q4 -57 24 -82t74 -31l84 -10v-51zM504 1569l-51 -33l-332 365l155 49z
" />
    <glyph glyph-name="Iacute" unicode="&#xcd;" horiz-adv-x="722" 
d="M674 0q-195 4 -309 4l-304 -4v51l74 8q53 6 75 30q22 25 26 105t4 505t-4 506t-26 105t-75 29l-74 9v51q188 -4 304 -4l309 4v-51l-84 -9q-53 -4 -74 -30q-20 -27 -24 -84q-6 -152 -6 -527t6 -524q4 -57 24 -82t74 -31l84 -10v-51zM690 1888l-403 -352l-39 41l287 379z
" />
    <glyph glyph-name="Icircumflex" unicode="&#xce;" horiz-adv-x="722" 
d="M674 0q-195 4 -309 4l-304 -4v51l74 8q53 6 75 30q22 25 26 105t4 505t-4 506t-26 105t-75 29l-74 9v51q188 -4 304 -4l309 4v-51l-84 -9q-53 -4 -74 -30q-20 -27 -24 -84q-6 -152 -6 -527t6 -524q4 -57 24 -82t74 -31l84 -10v-51zM680 1561l-43 -43l-275 227l-264 -227
l-41 41l281 356h63z" />
    <glyph glyph-name="Idieresis" unicode="&#xcf;" horiz-adv-x="722" 
d="M674 0q-195 4 -309 4l-304 -4v51l74 8q53 6 75 30q22 25 26 105t4 505t-4 506t-26 105t-75 29l-74 9v51q188 -4 304 -4l309 4v-51l-84 -9q-53 -4 -74 -30q-20 -27 -24 -84q-6 -152 -6 -527t6 -524q4 -57 24 -82t74 -31l84 -10v-51zM285 1657q0 -43 -31 -72t-74 -29
q-42 0 -72 29t-30 72t30 73t72 30t74 -30q31 -30 31 -73zM653 1657q1 -43 -29 -72t-73 -29t-74 29t-31 72t31 73t74 30t73 -30q29 -30 29 -73z" />
    <glyph glyph-name="Ntilde" unicode="&#xd1;" horiz-adv-x="1665" 
d="M1356 733q0 336 -4 473q-2 68 -35 99t-107 36l-57 7v51q133 -4 246 -4l231 4v-51l-74 -7q-96 -10 -102 -133q-6 -102 -6 -321v-907h-64q-10 16 -610 702l-440 500v-516q0 -334 6 -473q2 -68 37 -99t104 -37l58 -6v-51q-135 4 -246 4l-236 -4v51l74 6q96 9 102 123t7 332
v440q0 215 -4 277q-2 104 -130 114l-61 5v51h31l266 -2l135 2q285 -326 469 -537l410 -467v338zM1073 1708q76 0 128 52l18 22l30 -45q-96 -164 -223 -164q-60 0 -160 35q-100 34 -157 34t-123 -79l-35 43q37 63 96 114q70 56 123 56q52 0 158 -34t145 -34z" />
    <glyph glyph-name="Ograve" unicode="&#xd2;" horiz-adv-x="1738" 
d="M1323 680q0 238 -95 436q-50 102 -144 164t-220 61q-213 -1 -332 -153q-118 -152 -118 -452t123 -487t354 -188q432 1 432 619zM868 1419q354 1 546 -189t192 -504t-205 -531t-527 -217t-533 204q-210 205 -210 513t211 516t526 208zM1028 1569l-51 -33l-334 365l158 49z
" />
    <glyph glyph-name="Oacute" unicode="&#xd3;" horiz-adv-x="1738" 
d="M1323 680q0 238 -95 436q-50 102 -144 164t-220 61q-213 -1 -332 -153q-118 -152 -118 -452t123 -487t354 -188q432 1 432 619zM868 1419q354 1 546 -189t192 -504t-205 -531t-527 -217t-533 204q-210 205 -210 513t211 516t526 208zM1149 1888l-404 -352l-38 41l286 379
z" />
    <glyph glyph-name="Ocircumflex" unicode="&#xd4;" horiz-adv-x="1738" 
d="M1323 680q0 238 -95 436q-50 102 -144 164t-220 61q-213 -1 -332 -153q-118 -152 -118 -452t123 -487t354 -188q432 1 432 619zM868 1419q354 1 546 -189t192 -504t-205 -531t-527 -217t-533 204q-210 205 -210 513t211 516t526 208zM1178 1561l-43 -43l-275 227
l-264 -227l-41 41l281 356h63z" />
    <glyph glyph-name="Otilde" unicode="&#xd5;" horiz-adv-x="1650" 
d="M1323 680q0 238 -95 436q-50 102 -144 164t-220 61q-213 -1 -332 -153q-118 -152 -118 -452t123 -487t354 -188q432 1 432 619zM868 1419q354 1 546 -189t192 -504t-205 -531t-527 -217t-533 204q-210 205 -210 513t211 516t526 208zM1066 1708q65 0 120 74l31 -45
q-96 -164 -224 -164q-59 0 -159 35q-100 34 -158 34t-123 -79l-35 43q37 63 96 114q70 56 124 56t158 -34q105 -34 170 -34z" />
    <glyph glyph-name="Odieresis" unicode="&#xd6;" horiz-adv-x="1738" 
d="M1323 680q0 238 -95 436q-50 102 -144 164t-220 61q-213 -1 -332 -153q-118 -152 -118 -452t123 -487t354 -188q432 1 432 619zM868 1419q354 1 546 -189t192 -504t-205 -531t-527 -217t-533 204q-210 205 -210 513t211 516t526 208zM772 1657q0 -43 -31 -72t-73 -29
t-73 29q-30 29 -30 72t30 73t73 30q44 0 74 -30t30 -73zM1141 1657q0 -43 -30 -72t-73 -29q-44 0 -74 29t-30 72t31 73t73 30t73 -30q30 -30 30 -73z" />
    <glyph glyph-name="Oslash" unicode="&#xd8;" horiz-adv-x="1751" 
d="M1329 680q0 150 -33 272t-65 172l-33 50l-541 -1047q86 -68 238 -68q434 0 434 621zM418 741q0 -229 56 -363t99 -177l19 -17l545 1059q-9 11 -29 27t-89 44t-149 27q-216 1 -334 -153t-118 -447zM1610 725q0 -313 -204 -529t-534 -216q-141 0 -237 32l-31 13l-82 -162
l-78 39l80 153q-45 17 -124 79t-130 129t-93 183t-42 252q0 303 210 512t534 209q90 0 170 -13t114 -28l35 -14l80 156l78 -37l-78 -154q51 -22 111 -73q61 -52 105 -113t80 -173t36 -245z" />
    <glyph glyph-name="Ugrave" unicode="&#xd9;" horiz-adv-x="1650" 
d="M1438 987v-239q0 -252 -6 -328q-14 -197 -156 -324t-420 -127q-361 0 -506 147q-70 72 -100 156t-33 197v416q0 277 -3 339t-25 86t-74 29l-74 9v51q188 -4 303 -4l309 4v-51l-84 -9q-55 -5 -75 -31t-25 -83q-6 -152 -6 -365t6 -375q16 -408 428 -407q201 0 311 88
t119 295q6 117 6 363t-6 382q-2 68 -35 98t-108 37l-58 7v51q150 -4 260 -4l232 4v-51l-72 -7q-96 -6 -104 -133q-4 -76 -4 -221zM991 1569l-49 -33l-334 365l156 49z" />
    <glyph glyph-name="Uacute" unicode="&#xda;" horiz-adv-x="1650" 
d="M1438 987v-239q0 -252 -6 -328q-14 -197 -156 -324t-420 -127q-361 0 -506 147q-70 72 -100 156t-33 197v416q0 277 -3 339t-25 86t-74 29l-74 9v51q188 -4 303 -4l309 4v-51l-84 -9q-55 -5 -75 -31t-25 -83q-6 -152 -6 -365t6 -375q16 -408 428 -407q201 0 311 88
t119 295q6 117 6 363t-6 382q-2 68 -35 98t-108 37l-58 7v51q150 -4 260 -4l232 4v-51l-72 -7q-96 -6 -104 -133q-4 -76 -4 -221zM1227 1888l-406 -352l-39 41l287 379z" />
    <glyph glyph-name="Ucircumflex" unicode="&#xdb;" horiz-adv-x="1650" 
d="M1438 987v-239q0 -252 -6 -328q-14 -197 -156 -324t-420 -127q-361 0 -506 147q-70 72 -100 156t-33 197v416q0 277 -3 339t-25 86t-74 29l-74 9v51q188 -4 303 -4l309 4v-51l-84 -9q-55 -5 -75 -31t-25 -83q-6 -152 -6 -365t6 -375q16 -408 428 -407q201 0 311 88
t119 295q6 117 6 363t-6 382q-2 68 -35 98t-108 37l-58 7v51q150 -4 260 -4l232 4v-51l-72 -7q-96 -6 -104 -133q-4 -76 -4 -221zM1204 1561l-43 -43l-274 227l-264 -227l-41 41l280 356h64z" />
    <glyph glyph-name="Udieresis" unicode="&#xdc;" horiz-adv-x="1650" 
d="M1438 987v-239q0 -252 -6 -328q-14 -197 -156 -324t-420 -127q-361 0 -506 147q-70 72 -100 156t-33 197v416q0 277 -3 339t-25 86t-74 29l-74 9v51q188 -4 303 -4l309 4v-51l-84 -9q-55 -5 -75 -31t-25 -83q-6 -152 -6 -365t6 -375q16 -408 428 -407q201 0 311 88
t119 295q6 117 6 363t-6 382q-2 68 -35 98t-108 37l-58 7v51q150 -4 260 -4l232 4v-51l-72 -7q-96 -6 -104 -133q-4 -76 -4 -221zM815 1657q0 -43 -31 -72q-32 -29 -74 -29t-72 29t-30 72t30 73t73 30t73 -30t31 -73zM1184 1657q0 -43 -30 -72t-73 -29t-73 29t-31 72
q0 43 31 73q32 30 74 30t72 -30t30 -73z" />
    <glyph glyph-name="germandbls" unicode="&#xdf;" horiz-adv-x="1372" 
d="M696 14q-32 0 -53 -14q-4 74 -8 129l-14 170h53l8 -43q39 -207 264 -207q176 0 176 135q0 62 -46 104t-169 99t-182 117t-59 130q0 71 18 104q38 68 69 99t82 75t84 81q80 87 79 188t-55 167t-171 65q-290 0 -330 -357q-14 -130 -14 -474t3 -460t3 -120q-98 2 -117 2
l-260 -4v51l62 6q53 8 66 31q13 24 17 94t3 230v381h-152q20 33 35 53l37 49h80q4 157 62 277q101 208 336 286q97 33 196 33q173 0 283 -77t110 -202q0 -67 -22 -101q-22 -33 -27 -45t-25 -28q-20 -18 -26 -25t-30 -25t-28 -20l-28 -21q-26 -17 -58 -39t-69 -62
q-37 -41 -37 -91q0 -85 89 -139t134 -71q63 -33 94 -51t73 -54q77 -65 77 -170q0 -141 -113 -214t-254 -72q-76 0 -144 15q-70 15 -102 15z" />
    <glyph glyph-name="agrave" unicode="&#xe0;" horiz-adv-x="997" 
d="M283 297q0 -90 53 -136t105 -46t81 17q28 17 40 30q11 12 13 14l3 295q-88 -6 -168 -37q-127 -47 -127 -137zM874 127q49 0 89 37l16 10l27 -41q-16 -16 -42 -41q-26 -26 -98 -66t-129 -40q-104 0 -153 131q-39 -47 -112 -92q-74 -45 -162 -45t-160 72t-72 164
q0 93 75 162q75 68 169 98t256 52q2 116 2 174t-36 112t-102 54q-88 0 -127 -86q-39 -92 -84 -107q-20 -7 -52 -7t-52 22t-21 55q0 57 84 111q125 76 306 76q303 0 303 -221l-8 -457q0 -127 83 -127zM623 1057l-50 -31l-329 360l153 48z" />
    <glyph glyph-name="aacute" unicode="&#xe1;" horiz-adv-x="997" 
d="M283 297q0 -90 53 -136t105 -46t81 17q28 17 40 30q11 12 13 14l3 295q-88 -6 -168 -37q-127 -47 -127 -137zM874 127q49 0 89 37l16 10l27 -41q-16 -16 -42 -41q-26 -26 -98 -66t-129 -40q-104 0 -153 131q-39 -47 -112 -92q-74 -45 -162 -45t-160 72t-72 164
q0 93 75 162q75 68 169 98t256 52q2 116 2 174t-36 112t-102 54q-88 0 -127 -86q-39 -92 -84 -107q-20 -7 -52 -7t-52 22t-21 55q0 57 84 111q125 76 306 76q303 0 303 -221l-8 -457q0 -127 83 -127zM793 1374l-398 -348l-35 39l285 375z" />
    <glyph glyph-name="acircumflex" unicode="&#xe2;" horiz-adv-x="997" 
d="M283 297q0 -90 53 -136t105 -46t81 17q28 17 40 30q11 12 13 14l3 295q-88 -6 -168 -37q-127 -47 -127 -137zM874 127q49 0 89 37l16 10l27 -41q-16 -16 -42 -41q-26 -26 -98 -66t-129 -40q-104 0 -153 131q-39 -47 -112 -92q-74 -45 -162 -45t-160 72t-72 164
q0 93 75 162q75 68 169 98t256 52q2 116 2 174t-36 112t-102 54q-88 0 -127 -86q-39 -92 -84 -107q-20 -7 -52 -7t-52 22t-21 55q0 57 84 111q125 76 306 76q303 0 303 -221l-8 -457q0 -127 83 -127zM778 1049l-41 -41l-272 231l-262 -231l-39 39l278 352h60z" />
    <glyph glyph-name="atilde" unicode="&#xe3;" horiz-adv-x="997" 
d="M283 297q0 -90 53 -136t105 -46t81 17q28 17 40 30q11 12 13 14l3 295q-88 -6 -168 -37q-127 -47 -127 -137zM874 127q49 0 89 37l16 10l27 -41q-16 -16 -42 -41q-26 -26 -98 -66t-129 -40q-104 0 -153 131q-39 -47 -112 -92q-74 -45 -162 -45t-160 72t-72 164
q0 93 75 162q75 68 169 98t256 52q2 116 2 174t-36 112t-102 54q-88 0 -127 -86q-39 -92 -84 -107q-20 -7 -52 -7t-52 22t-21 55q0 57 84 111q125 76 306 76q303 0 303 -221l-8 -457q0 -127 83 -127zM328 1155q-65 0 -106 -41q-9 -10 -13 -14t-23 -25l-34 39q35 56 97 112
t132 56q35 0 156 -37q83 -31 119 -31q81 0 127 61q9 11 12 13l30 -43q-41 -65 -99 -113t-120 -48t-155 35q-94 36 -123 36z" />
    <glyph glyph-name="adieresis" unicode="&#xe4;" horiz-adv-x="997" 
d="M283 297q0 -90 53 -136t105 -46t81 17q28 17 40 30q11 12 13 14l3 295q-88 -6 -168 -37q-127 -47 -127 -137zM874 127q49 0 89 37l16 10l27 -41q-16 -16 -42 -41q-26 -26 -98 -66t-129 -40q-104 0 -153 131q-39 -47 -112 -92q-74 -45 -162 -45t-160 72t-72 164
q0 93 75 162q75 68 169 98t256 52q2 116 2 174t-36 112t-102 54q-88 0 -127 -86q-39 -92 -84 -107q-20 -7 -52 -7t-52 22t-21 55q0 57 84 111q125 76 306 76q303 0 303 -221l-8 -457q0 -127 83 -127zM395 1145q-1 -41 -29 -69t-69 -28t-70 28t-28 69t29 69t69 29
q41 -1 69 -29t29 -69zM739 1145q-1 -41 -29 -69t-69 -28t-70 28t-28 69t29 69t69 29q41 -1 69 -29t29 -69z" />
    <glyph glyph-name="aring" unicode="&#xe5;" horiz-adv-x="997" 
d="M283 297q0 -90 53 -136t105 -46t81 17q28 17 40 30q11 12 13 14l3 295q-88 -6 -168 -37q-127 -47 -127 -137zM598 1242q0 56 -36 93t-90 37t-89 -35t-35 -93t36 -95t90 -37t89 37t35 93zM874 127q49 0 89 37l16 10l27 -41q-16 -16 -42 -41q-26 -26 -98 -66t-129 -40
q-104 0 -153 131q-39 -47 -112 -92q-74 -45 -162 -45t-160 72t-72 164q0 93 75 162q75 68 169 98t256 52q2 116 2 174t-36 112t-102 54q-88 0 -127 -86q-39 -92 -84 -107q-20 -7 -52 -7t-52 22t-21 55q0 57 84 111q125 76 306 76q303 0 303 -221l-8 -457q0 -127 83 -127z
M686 1247q0 -90 -61 -151q-61 -62 -151 -62t-152 60t-62 149t62 151t151 62q90 0 152 -59q61 -60 61 -150z" />
    <glyph glyph-name="ae" unicode="&#xe6;" horiz-adv-x="1478" 
d="M274 291q0 -80 52 -127t132 -47q79 0 173 76q-57 102 -58 251v29q-76 -6 -147 -33q-152 -55 -152 -149zM1176 590q0 123 -44 201t-141 77q-72 0 -120 -52q-76 -82 -83 -226h388zM991 -20q-96 0 -177 38t-112 69q-31 32 -45 56q-182 -162 -329 -161q-104 0 -176 68
t-72 163q0 180 254 264q129 41 237 53q2 135 2 150q0 74 -33 131q-34 57 -104 57q-40 0 -68 -17t-37 -33t-31 -59q-22 -44 -48 -69q-26 -24 -68 -24q-40 0 -62 22t-22 57q0 68 112 127q112 60 245 60t196 -41q59 -35 72 -74q11 11 29 31t92 53t164 33q184 0 284 -112
t113 -302q-258 6 -406 6l-217 -2v-10q0 -182 92 -282t246 -99q154 0 279 117l29 -47q-211 -223 -439 -223z" />
    <glyph glyph-name="ccedilla" unicode="&#xe7;" horiz-adv-x="952" 
d="M318 -375q46 0 83 -53t92 -53q55 1 81 33t26 77q0 70 -69 102t-193 46q29 53 96 209q-139 25 -245 139q-105 115 -105 325t143 348q143 136 363 136q139 0 227 -44t88 -99q0 -37 -34 -61q-62 -44 -138 -11q-29 12 -43 23t-57 46q-74 63 -135 64h-13q-82 -8 -134 -93
t-52 -252t94 -273t225 -105q164 0 283 119l29 -47q-205 -213 -424 -219l-39 -91q125 -16 198 -72q73 -57 73 -147t-76 -152t-176 -62t-163 28q-63 29 -63 64t18 55q20 20 40 20z" />
    <glyph glyph-name="egrave" unicode="&#xe8;" horiz-adv-x="997" 
d="M694 602q0 109 -46 188t-144 78q-137 0 -189 -189q-10 -40 -10 -75zM508 -18q-164 0 -294 116t-130 346q0 228 134 359t317 131t281 -116t112 -286q-264 4 -414 5l-213 -2v-11q0 -178 95 -284t247 -106t277 114l28 -47q-209 -219 -440 -219zM645 1057l-49 -31l-330 360
l154 48z" />
    <glyph glyph-name="eacute" unicode="&#xe9;" horiz-adv-x="997" 
d="M694 602q0 109 -46 188t-144 78q-137 0 -189 -189q-10 -40 -10 -75zM508 -18q-164 0 -294 116t-130 346q0 228 134 359t317 131t281 -116t112 -286q-264 4 -414 5l-213 -2v-11q0 -178 95 -284t247 -106t277 114l28 -47q-209 -219 -440 -219zM821 1374l-397 -348l-35 39
l285 375z" />
    <glyph glyph-name="ecircumflex" unicode="&#xea;" horiz-adv-x="997" 
d="M694 602q0 109 -46 188t-144 78q-137 0 -189 -189q-10 -40 -10 -75zM508 -18q-164 0 -294 116t-130 346q0 228 134 359t317 131t281 -116t112 -286q-264 4 -414 5l-213 -2v-11q0 -178 95 -284t247 -106t277 114l28 -47q-209 -219 -440 -219zM834 1049l-41 -41l-273 231
l-262 -231l-39 39l279 352h59z" />
    <glyph glyph-name="edieresis" unicode="&#xeb;" horiz-adv-x="997" 
d="M694 602q0 109 -46 188t-144 78q-137 0 -189 -189q-10 -40 -10 -75zM508 -18q-164 0 -294 116t-130 346q0 228 134 359t317 131t281 -116t112 -286q-264 4 -414 5l-213 -2v-11q0 -178 95 -284t247 -106t277 114l28 -47q-209 -219 -440 -219zM457 1145q0 -41 -29 -69
t-70 -28q-42 0 -70 28t-28 69t29 69t69 29q40 -1 70 -29q29 -28 29 -69zM801 1145q0 -41 -29 -69t-70 -28q-42 0 -70 28t-28 69t29 69t69 29q40 -1 70 -29q29 -28 29 -69z" />
    <glyph glyph-name="igrave" unicode="&#xec;" horiz-adv-x="591" 
d="M197 411q0 151 -2 235t-24 112t-77 33l-51 4v49q88 14 197 41l182 49q-2 -258 -2 -482t2 -287t18 -83t64 -25l61 -6v-51q-166 4 -258 4l-258 -4v51l62 6q49 5 65 25t18 99t3 230zM416 1057l-49 -31l-330 360l153 48z" />
    <glyph glyph-name="iacute" unicode="&#xed;" horiz-adv-x="591" 
d="M197 411q0 151 -2 235t-24 112t-77 33l-51 4v49q88 14 197 41l182 49q-2 -258 -2 -482t2 -287t18 -83t64 -25l61 -6v-51q-166 4 -258 4l-258 -4v51l62 6q49 5 65 25t18 99t3 230zM580 1374l-398 -348l-35 39l285 375z" />
    <glyph glyph-name="icircumflex" unicode="&#xee;" horiz-adv-x="591" 
d="M197 411q0 151 -2 235t-24 112t-77 33l-51 4v49q88 14 197 41l182 49q-2 -258 -2 -482t2 -287t18 -83t64 -25l61 -6v-51q-166 4 -258 4l-258 -4v51l62 6q49 5 65 25t18 99t3 230zM598 1049l-41 -41l-272 231l-262 -231l-39 39l278 352h60z" />
    <glyph glyph-name="idieresis" unicode="&#xef;" horiz-adv-x="591" 
d="M197 411q0 151 -2 235t-24 112t-77 33l-51 4v49q88 14 197 41l182 49q-2 -258 -2 -482t2 -287t18 -83t64 -25l61 -6v-51q-166 4 -258 4l-258 -4v51l62 6q49 5 65 25t18 99t3 230zM223 1145q1 -41 -29 -69t-71 -28t-70 28t-28 69t29 69t69 29q41 -1 71 -29t29 -69z
M557 1145q0 -41 -29 -69q-30 -28 -70 -28t-70 28t-30 69t30 69t71 29q41 -1 69 -29t29 -69z" />
    <glyph glyph-name="ntilde" unicode="&#xf1;" horiz-adv-x="1187" 
d="M797 378q0 144 -5 228q-6 84 -52 133t-118 49t-126 -24q-55 -24 -74 -41q-2 -129 -2 -311t2 -245q2 -62 17 -84t63 -26l63 -6v-51q-164 4 -258 4l-258 -4v51l64 6q49 7 64 27t17 72t3 129v127q0 147 -2 231t-24 114t-77 34l-51 4v49q88 14 197 41l182 49v-154
q190 154 342 154q112 0 182 -76t74 -199q2 -63 2 -147v-354q2 -51 19 -73t65 -26l65 -8v-51q-174 4 -262 4l-254 -4v51l60 6q43 4 58 26q15 23 19 87t5 208zM418 1155q-53 0 -117 -80l-35 39q36 56 98 112t132 56q37 0 155 -37q84 -31 127 -31t75 21q31 21 43 36
q11 15 13 17l31 -43q-41 -65 -99 -113q-57 -48 -119 -48t-156 35q-94 36 -148 36z" />
    <glyph glyph-name="ograve" unicode="&#xf2;" horiz-adv-x="1177" 
d="M850 391q0 326 -157 435q-52 36 -122 36q-246 0 -245 -340q0 -205 70 -339t202 -134q131 0 192 80q60 80 60 262zM84 444q0 204 138 348q138 142 364 142t368 -133q140 -133 140 -338t-142 -343t-363 -138q-222 0 -364 129q-141 129 -141 333zM709 1057l-50 -31l-329 360
l153 48z" />
    <glyph glyph-name="oacute" unicode="&#xf3;" horiz-adv-x="1177" 
d="M850 391q0 326 -157 435q-52 36 -122 36q-246 0 -245 -340q0 -205 70 -339t202 -134q131 0 192 80q60 80 60 262zM84 444q0 204 138 348q138 142 364 142t368 -133q140 -133 140 -338t-142 -343t-363 -138q-222 0 -364 129q-141 129 -141 333zM866 1374l-397 -348l-35 39
l285 375z" />
    <glyph glyph-name="ocircumflex" unicode="&#xf4;" horiz-adv-x="1177" 
d="M850 391q0 326 -157 435q-52 36 -122 36q-246 0 -245 -340q0 -205 70 -339t202 -134q131 0 192 80q60 80 60 262zM84 444q0 204 138 348q138 142 364 142t368 -133q140 -133 140 -338t-142 -343t-363 -138q-222 0 -364 129q-141 129 -141 333zM891 1049l-41 -41l-272 231
l-263 -231l-39 39l279 352h59z" />
    <glyph glyph-name="otilde" unicode="&#xf5;" horiz-adv-x="1177" 
d="M850 391q0 326 -157 435q-52 36 -122 36q-246 0 -245 -340q0 -205 70 -339t202 -134q131 0 192 80q60 80 60 262zM84 444q0 204 138 348q138 142 364 142t368 -133q140 -133 140 -338t-142 -343t-363 -138q-222 0 -364 129q-141 129 -141 333zM404 1155q-53 0 -117 -80
l-35 39q35 56 97 112t132 56q35 0 156 -37q84 -31 127 -31t73 20t43 36t15 18l31 -43q-42 -65 -100 -113t-119 -48t-155 35q-94 36 -148 36z" />
    <glyph glyph-name="odieresis" unicode="&#xf6;" horiz-adv-x="1177" 
d="M850 391q0 326 -157 435q-52 36 -122 36q-246 0 -245 -340q0 -205 70 -339t202 -134q131 0 192 80q60 80 60 262zM84 444q0 204 138 348q138 142 364 142t368 -133q140 -133 140 -338t-142 -343t-363 -138q-222 0 -364 129q-141 129 -141 333zM504 1145q0 -41 -29 -69
t-69 -28t-70 28q-29 28 -29 69t29 69t70 29q42 -1 70 -29t28 -69zM848 1145q0 -41 -29 -69t-69 -28t-70 28q-29 28 -29 69t29 69t70 29q42 -1 70 -29t28 -69z" />
    <glyph glyph-name="divide" unicode="&#xf7;" horiz-adv-x="1124" 
d="M672 166q0 -49 -34 -82t-82 -33t-80 34t-32 81t34 81t81 34t80 -33t33 -82zM950 406h-776v112h776v-112zM672 760q0 -49 -34 -82t-82 -33t-80 34t-32 81t34 81q34 33 81 33t80 -32t33 -82z" />
    <glyph glyph-name="oslash" unicode="&#xf8;" horiz-adv-x="1185" 
d="M856 391q0 98 -17 181t-36 116l-17 35l-319 -625q51 -49 151 -49q238 0 238 342zM737 795q-51 68 -162 67q-248 0 -247 -340q0 -113 22 -204t43 -125l21 -33zM1098 461q0 -209 -144 -344t-354 -135q-97 0 -160 18l-20 6l-64 -127l-67 35l59 119q-27 11 -81 53
q-54 43 -89 85t-62 115q-28 73 -28 154q0 210 139 352t371 142q108 0 172 -25l21 -8l65 125l68 -35l-62 -121q25 -10 74 -53t80 -86q30 -43 56 -115t26 -155z" />
    <glyph glyph-name="ugrave" unicode="&#xf9;" horiz-adv-x="1163" 
d="M393 548q0 -105 4 -237q6 -186 170 -186q102 0 187 63l2 267q0 133 -2 206t-24 103t-79 33l-51 4v49q106 18 207 41l174 43q-2 -326 -2 -438t4 -236q5 -125 25 -154t79 -28h52v-49q-117 -14 -193 -25l-190 -22v149q-176 -150 -340 -149q-106 0 -176 72t-72 216l2 189v203
q-4 68 -24 96t-76 33l-52 4v49q88 14 197 41l182 49q-4 -281 -4 -386zM662 1057l-50 -31l-329 360l153 48z" />
    <glyph glyph-name="uacute" unicode="&#xfa;" horiz-adv-x="1163" 
d="M393 548q0 -105 4 -237q6 -186 170 -186q102 0 187 63l2 267q0 133 -2 206t-24 103t-79 33l-51 4v49q106 18 207 41l174 43q-2 -326 -2 -438t4 -236q5 -125 25 -154t79 -28h52v-49q-117 -14 -193 -25l-190 -22v149q-176 -150 -340 -149q-106 0 -176 72t-72 216l2 189v203
q-4 68 -24 96t-76 33l-52 4v49q88 14 197 41l182 49q-4 -281 -4 -386zM907 1374l-397 -348l-35 39l285 375z" />
    <glyph glyph-name="ucircumflex" unicode="&#xfb;" horiz-adv-x="1163" 
d="M393 548q0 -105 4 -237q6 -186 170 -186q102 0 187 63l2 267q0 133 -2 206t-24 103t-79 33l-51 4v49q106 18 207 41l174 43q-2 -326 -2 -438t4 -236q5 -125 25 -154t79 -28h52v-49q-117 -14 -193 -25l-190 -22v149q-176 -150 -340 -149q-106 0 -176 72t-72 216l2 189v203
q-4 68 -24 96t-76 33l-52 4v49q88 14 197 41l182 49q-4 -281 -4 -386zM866 1049l-41 -41l-272 231l-262 -231l-39 39l278 352h60z" />
    <glyph glyph-name="udieresis" unicode="&#xfc;" horiz-adv-x="1163" 
d="M393 548q0 -105 4 -237q6 -186 170 -186q102 0 187 63l2 267q0 133 -2 206t-24 103t-79 33l-51 4v49q106 18 207 41l174 43q-2 -326 -2 -438t4 -236q5 -125 25 -154t79 -28h52v-49q-117 -14 -193 -25l-190 -22v149q-176 -150 -340 -149q-106 0 -176 72t-72 216l2 189v203
q-4 68 -24 96t-76 33l-52 4v49q88 14 197 41l182 49q-4 -281 -4 -386zM498 1145q0 -41 -29 -69t-70 -28t-69 28t-29 69q0 41 29 69q30 28 70 29q40 -1 69 -29t29 -69zM842 1145q0 -41 -29 -69t-70 -28t-69 28t-29 69q0 41 29 69q30 28 70 29q40 -1 69 -29t29 -69z" />
    <glyph glyph-name="ydieresis" unicode="&#xff;" horiz-adv-x="1011" 
d="M137 -584q-51 0 -85 32t-34 77q0 94 150 94q86 0 122 31t85 133l96 217q-230 531 -330 745q-49 106 -100 113l-39 4v51q152 -2 240 -2l245 2v-51l-43 -2q-78 -4 -77 -43q0 -29 100 -268l121 -270q43 93 122 281t78 241q0 45 -81 55l-41 6v51q119 -4 184 -4l168 4v-51
l-31 -6q-61 -12 -94 -74q-22 -36 -243 -547q-222 -511 -249 -571q-119 -248 -264 -248zM485 1145q-1 -41 -29 -69t-69 -28t-70 28t-28 69t29 69t69 29q41 -1 69 -29t29 -69zM829 1145q-1 -41 -29 -69t-69 -28t-69 28t-29 69q0 41 29 69q30 28 70 29q40 -1 68 -29t29 -69z
" />
    <glyph glyph-name="dotlessi" unicode="&#x131;" horiz-adv-x="591" 
d="M197 411q0 151 -2 235t-24 112t-77 33l-51 4v49q88 14 197 41l182 49q-2 -258 -2 -482t2 -287t18 -83t64 -25l61 -6v-51q-166 4 -258 4l-258 -4v51l62 6q49 5 65 25t18 99t3 230z" />
    <glyph glyph-name="OE" unicode="&#x152;" horiz-adv-x="2215" 
d="M1065 714q0 406 -2 480t-45 103q-43 30 -148 30q-233 0 -352 -170t-119 -470t120 -456t335 -155q119 0 162 26t46 117q3 89 3 495zM1653 1399q319 0 356 12q6 -135 6 -156l15 -192h-54q-33 164 -79 207t-195 43h-387q-2 -319 -2 -543h241q172 0 215 27q55 33 70 186h53
q-4 -117 -4 -246l4 -264h-53q-12 160 -80 191q-49 25 -205 24h-241q0 -352 4 -452t39 -124q35 -22 178 -22h203q135 0 200 30t107 134q14 35 41 113h53q-39 -178 -57 -277l-19 -96q-104 8 -123 8h-745l-346 -8q-313 0 -515 177t-202 499t196 528q196 205 533 205l330 -4h463
z" />
    <glyph glyph-name="oe" unicode="&#x153;" horiz-adv-x="1769" 
d="M850 379q0 190 -42 295q-75 193 -235 190q-246 0 -245 -336q0 -118 43 -273q25 -89 87 -146t168 -57q224 -2 224 327zM1464 604q0 109 -46 188t-142 78q-72 0 -120 -52q-73 -79 -81 -214h389zM1280 -20q-122 0 -202 53t-107 90l-15 16q-15 -22 -69 -67t-141 -68
q-87 -24 -156 -24q-225 0 -364 130q-138 130 -138 336t137 348q137 140 348 140t335 -107q30 -25 42 -41l13 -18q72 108 211 147q59 18 124 19q188 0 288 -116t112 -288q-264 6 -412 7h-215v-13q0 -180 96 -285t247 -105t276 114l28 -47q-209 -221 -438 -221z" />
    <glyph glyph-name="Ydieresis" unicode="&#x178;" horiz-adv-x="1456" 
d="M598 471v174q-129 189 -282 407t-169 236q-43 53 -110 58l-29 2v51q195 -4 305 -4l303 4v-51l-57 -5q-84 -10 -84 -57q0 -27 31 -76t121 -180l168 -246l168 228q129 174 140 207t11 61t-29 45q-29 18 -67 21l-53 2v51q160 -4 256 -4l227 4v-49l-33 -2q-72 -3 -133 -64
q-12 -12 -24 -23t-27 -31q-16 -20 -45 -53q-29 -34 -46 -60q-17 -25 -48 -64t-48 -62l-200 -268q0 -350 6 -549q2 -59 26 -83t87 -30l84 -10v-51q-207 4 -322 4l-326 -4v51l82 10q63 6 86 28q23 23 27 89t4 293zM709 1657q0 -43 -31 -72t-74 -29t-73 29t-29 72q0 43 29 73
q30 30 73 30t74 -30t31 -73zM1077 1657q1 -43 -29 -72t-73 -29t-74 29t-31 72t31 73t74 30t73 -30q29 -30 29 -73z" />
    <glyph glyph-name="florin" unicode="&#x192;" 
d="M1305 1365q0 -46 -30 -74q-30 -27 -86 -27q-57 0 -117 72t-118 71q-100 0 -150 -128t-73 -384h248v-92h-256q-53 -599 -122 -863t-207 -393t-326 -129q-115 0 -183 35q-67 35 -67 82t27 76q28 29 76 29q47 0 107 -70t117 -70q131 0 191 174q51 143 90 494q6 59 25 216
q18 158 31 276t16 143h-205v92h215q25 254 161 425t365 171q123 0 197 -40t74 -86z" />
    <glyph glyph-name="circumflex" unicode="&#x2c6;" horiz-adv-x="1024" 
d="M819 1049l-41 -41l-272 231l-262 -231l-39 39l278 352h60z" />
    <glyph glyph-name="caron" unicode="&#x2c7;" horiz-adv-x="1024" 
d="M817 1382l-278 -352h-60l-276 350l41 41l272 -231l262 231z" />
    <glyph glyph-name="breve" unicode="&#x2d8;" horiz-adv-x="1024" 
d="M504 1036q-76 0 -146 76t-100 142t-49 135l41 38q7 -17 41 -69q35 -53 65 -84q30 -30 72 -56q43 -26 84 -26q72 0 136 59t93 117l29 59l41 -38q-43 -156 -160 -278q-71 -75 -147 -75z" />
    <glyph glyph-name="dotaccent" unicode="&#x2d9;" horiz-adv-x="1024" 
d="M653 1274q0 -57 -40 -97t-101 -40t-101 40t-40 97t40 97t101 40t101 -40t40 -97z" />
    <glyph glyph-name="ring" unicode="&#x2da;" horiz-adv-x="1024" 
d="M637 1242q0 56 -36 93t-90 37t-89 -35t-35 -93t36 -95t90 -37t89 37t35 93zM725 1247q0 -90 -61 -151q-62 -62 -152 -62t-152 60t-61 149q0 89 61 151q62 62 152 62t152 -59q61 -60 61 -150z" />
    <glyph glyph-name="ogonek" unicode="&#x2db;" horiz-adv-x="1024" 
d="M538 -506q-112 0 -183 56t-71 144q1 158 135 253q102 71 181 90l35 -35q-82 -38 -137 -106q-56 -68 -56 -143t44 -115t117 -39q73 0 138 65l17 -61q-108 -109 -220 -109z" />
    <glyph glyph-name="tilde" unicode="&#x2dc;" horiz-adv-x="1024" 
d="M328 1155q-53 0 -117 -80l-35 39q35 56 97 112t133 56q35 0 155 -37q84 -31 127 -31t75 21q31 21 43 36q11 15 13 17l31 -43q-41 -65 -99 -113q-57 -48 -119 -48t-156 35q-94 36 -148 36z" />
    <glyph glyph-name="hungarumlaut" unicode="&#x2dd;" horiz-adv-x="1024" 
d="M547 1374l-397 -348l-35 39l284 375zM911 1374l-397 -348l-35 39l285 375z" />
    <glyph glyph-name="pi" unicode="&#x3c0;" horiz-adv-x="1124" 
d="M1036 279q0 -133 -63 -217t-143 -85t-118 57q-40 58 -40 156l37 527h-269l-45 -357q-33 -260 -63 -324t-84 -63q-55 0 -83 25q-28 26 -28 62q0 63 70 119q27 22 54 70q28 48 38 111l55 357h-110q-45 0 -90 -29t-68 -86h-31l6 21q4 18 10 30q5 12 16 41t35 65q25 36 61 66
q57 47 147 47h692v-155h-227q-25 -291 -25 -375t25 -141t98 -58q41 0 74 43t32 93h37z" />
    <glyph glyph-name="endash" unicode="&#x2013;" horiz-adv-x="1024" 
d="M1024 434q-205 2 -512 2l-512 -2v119q205 -2 512 -2l512 2v-119z" />
    <glyph glyph-name="emdash" unicode="&#x2014;" horiz-adv-x="2048" 
d="M2048 434q-563 2 -1024 2l-1024 -2v119q563 -2 1024 -2l1024 2v-119z" />
    <glyph glyph-name="quoteleft" unicode="&#x2018;" horiz-adv-x="491" 
d="M246 1163q0 -29 10 -42t37 -24t39 -22q59 -41 59 -103t-37 -104q-36 -42 -106 -41t-112 57t-42 139q0 216 218 361q36 25 59 35l41 -45q-166 -94 -166 -211z" />
    <glyph glyph-name="quoteright" unicode="&#x2019;" horiz-adv-x="491" 
d="M244 1419q70 0 112 -55t41 -139q0 -84 -37 -162t-111 -145t-126 -91l-43 45q166 94 166 211q0 31 -12 44t-38 25q-95 45 -96 126q0 59 37 100t107 41z" />
    <glyph glyph-name="quotesinglbase" unicode="&#x201a;" horiz-adv-x="487" 
d="M238 264q70 0 112 -56t41 -139q0 -83 -37 -161t-111 -145t-126 -91l-43 45q166 94 166 211q0 31 -12 44q-12 14 -40 26q-94 41 -94 123q0 61 37 102t107 41z" />
    <glyph glyph-name="quotedblleft" unicode="&#x201c;" horiz-adv-x="917" 
d="M246 1163q0 -29 10 -42t37 -24t39 -22q59 -41 59 -103t-37 -104q-36 -42 -106 -41t-112 57t-42 139q0 216 218 361q36 25 59 35l41 -45q-166 -94 -166 -211zM672 1163q0 -29 10 -42t37 -24t39 -22q59 -41 59 -103t-37 -104q-36 -42 -106 -41t-112 57t-42 139
q0 216 218 361q36 25 59 35l41 -45q-166 -94 -166 -211z" />
    <glyph glyph-name="quotedblright" unicode="&#x201d;" horiz-adv-x="917" 
d="M244 1419q70 0 112 -55t41 -139q0 -84 -37 -162t-111 -145t-126 -91l-43 45q166 94 166 211q0 31 -12 44t-38 25q-95 45 -96 126q0 59 37 100t107 41zM670 1419q70 0 112 -55t41 -139q0 -84 -37 -162t-111 -145t-126 -91l-43 45q166 94 166 211q0 31 -12 44t-38 25
q-95 45 -96 126q0 59 37 100t107 41z" />
    <glyph glyph-name="quotedblbase" unicode="&#x201e;" horiz-adv-x="913" 
d="M238 264q70 0 112 -56t41 -139q0 -83 -37 -161t-111 -145t-126 -91l-43 45q166 94 166 211q0 31 -12 44q-12 14 -40 26q-94 41 -94 123q0 61 37 102t107 41zM664 264q70 0 112 -56t41 -139q0 -83 -37 -161t-111 -145t-126 -91l-43 45q166 94 166 211q0 31 -12 44
q-12 14 -40 26q-94 41 -94 123q0 61 37 102t107 41z" />
    <glyph glyph-name="dagger" unicode="&#x2020;" 
d="M1067 1118q41 -51 41 -120t-31 -109l-10 -15q-125 31 -207 50l-229 45q16 -88 47 -213l51 -203q-35 -362 -53 -539t-37 -489l-4 -98h-62l-4 98q-25 399 -39 520l-51 508q31 125 49 203l50 213q-111 -14 -230 -43l-207 -52q-41 53 -41 121t41 125q123 -31 203 -49l234 -47
q-20 104 -50 217l-51 197q45 41 127 41q70 0 127 -41q-31 -119 -49 -197l-51 -217q119 18 231 45z" />
    <glyph glyph-name="daggerdbl" unicode="&#x2021;" 
d="M731 -532q-43 -41 -123 -41t-116 30l-15 11q31 121 51 196l50 217q-121 -20 -234 -47l-203 -49q-41 49 -41 117t41 129q127 -33 207 -51l230 -43q-16 168 -50 292l-49 224q31 145 53 236t41 235l5 45q-111 -14 -230 -43l-207 -52q-41 53 -41 121t41 125q123 -31 203 -49
l234 -47q-20 104 -50 217l-51 197q45 41 127 41q70 0 127 -41q-31 -119 -49 -197l-51 -217q119 18 231 45l205 49q41 -51 41 -120t-31 -109l-10 -15q-125 31 -207 50l-229 45q16 -168 47 -293l51 -223q-31 -145 -51 -224t-43 -247l-4 -45q113 16 229 45l207 49
q41 -49 41 -119t-41 -127q-125 33 -205 51l-231 45q20 -104 51 -217z" />
    <glyph glyph-name="bullet" unicode="&#x2022;" 
d="M915 702q0 -127 -92 -218t-219 -91t-219 91t-92 218q0 128 92 220t219 92t219 -92t92 -220z" />
    <glyph glyph-name="ellipsis" unicode="&#x2026;" horiz-adv-x="2048" 
d="M485 124q0 -60 -42 -99t-103 -39t-101 39t-40 98t41 101t102 42t102 -41t41 -101zM1167 124q0 -60 -42 -99t-103 -39t-101 39t-40 98t41 101t102 42t102 -41t41 -101zM1849 124q0 -60 -42 -99t-103 -39t-101 39t-40 98t41 101t102 42t102 -41t41 -101z" />
    <glyph glyph-name="perthousand" unicode="&#x2030;" horiz-adv-x="2594" 
d="M1475 143q0 272 -172 273q-178 0 -179 -281q0 -109 41 -187t133 -77t135 77q42 76 42 195zM2347 143q0 272 -172 273q-178 0 -178 -281q0 -109 41 -187t133 -77t134 77t42 195zM623 1006q0 279 -170 278q-182 0 -183 -274q0 -111 43 -191t135 -80t134 74q41 74 41 193z
M1667 145q0 -149 -105 -245q-104 -96 -266 -96t-266 90q-104 92 -104 240t106 249q106 100 270 100t264 -94q101 -94 101 -244zM2540 145q0 -149 -106 -245t-266 -96q-161 0 -265 90q-105 92 -105 240t106 249q106 100 270 100q162 0 264 -94t102 -244zM441 672
q-159 0 -262 92t-103 242t108 248t273 98q74 0 128 -14t96 -25q42 -9 96 -23t158 -14q103 0 189 50t181 151l75 -39l-983 -1901l-84 41l893 1725q-106 -98 -272 -99q-102 0 -180 21l-25 8q32 -25 59 -91q28 -66 27 -130q0 -147 -107 -244q-108 -96 -267 -96z" />
    <glyph glyph-name="guilsinglleft" unicode="&#x2039;" horiz-adv-x="505" 
d="M272 463q0 -41 32 -126t65 -149l32 -65l-43 -29l-264 344v60l264 344l43 -29q-129 -260 -129 -350z" />
    <glyph glyph-name="guilsinglright" unicode="&#x203a;" horiz-adv-x="505" 
d="M414 438l-264 -344l-44 29q129 248 130 340q0 41 -32 128t-65 154l-33 68l44 29l264 -344v-60z" />
    <glyph glyph-name="fraction" unicode="&#x2044;" horiz-adv-x="0" 
d="M532 1442l-983 -1874l-81 39l987 1878z" />
    <glyph glyph-name="trademark" unicode="&#x2122;" horiz-adv-x="1853" 
d="M1481 928v131q0 19 1 115t1 106q-5 -14 -43 -89t-118 -246t-91 -200h-41q-12 29 -61 130q-50 101 -68 143l-117 244v-211q0 -184 2 -212t16 -39t44 -14l32 -4v-37q-84 2 -120 3l-130 -3v37l37 4q57 2 60 56q4 160 4 280t-2 193q0 39 -60 43l-41 4v37q104 -2 168 -2l88 2
q63 -141 115 -248l107 -221q66 137 106 227l113 242q74 -2 96 -2l147 2v-37l-32 -2q-37 -2 -46 -12t-12 -39l-2 -230q0 -239 3 -257t13 -26t40 -10l28 -2v-39q-106 2 -153 3l-164 -3v37l31 2q27 2 38 14q11 13 11 130zM530 1343h-73q-2 -123 -2 -311t2 -206q4 -38 57 -42
l33 -2v-37q-100 2 -168 3l-172 -3v37l29 2q33 4 46 12t15 42t2 225l-2 280h-74q-79 0 -103 -16t-38 -92l-6 -33h-41q6 104 6 139v84h33q8 -20 30 -24t264 -4t273 4t37 20l2 4h33q2 -78 2 -84l6 -139h-41l-6 31q-14 78 -39 94t-105 16z" />
    <glyph glyph-name="Omega" unicode="&#x2126;" horiz-adv-x="1572" 
d="M1507 0h-604l33 287q127 49 219 177t92 364t-115 391q-116 155 -346 155t-343 -150t-113 -393t94 -373t217 -171l33 -287h-604v307h51q18 -77 45 -101t90 -24h303l-4 58q-209 47 -324 218t-114 369q0 279 188 446t488 167q299 0 483 -166t184 -449t-184 -456
q-102 -96 -254 -129l-6 -58h305q63 0 90 25t45 100h51v-307z" />
    <glyph glyph-name="partialdiff" unicode="&#x2202;" horiz-adv-x="1011" 
d="M543 805q-143 0 -216 -119q-73 -118 -73 -312t46 -266t142 -73q279 0 330 651q-33 37 -52 55q-20 18 -70 41t-107 23zM946 805q0 -479 -226 -711q-122 -125 -287 -125q-165 1 -257 97t-92 292q0 270 120 404t290 135q104 0 163 -29t125 -100q6 74 6 154q0 213 -80 319
q-81 106 -266 107q-120 0 -173 -30t-56 -34l-80 102q115 57 275 58q256 0 397 -184t141 -455z" />
    <glyph glyph-name="Delta" unicode="&#x2206;" horiz-adv-x="1253" 
d="M991 100l-397 959l-447 -959h844zM1245 0h-1233l656 1409z" />
    <glyph glyph-name="product" unicode="&#x220f;" horiz-adv-x="1685" 
d="M1645 -207h-627v47q100 0 148 33t48 133v1419h-733v-1419q0 -100 48 -133t151 -33v-47h-629v47q102 0 151 33q48 33 48 133v1282q0 203 -195 203v47h1583v-47q-193 0 -192 -203v-1282q0 -100 48 -133t151 -33v-47z" />
    <glyph glyph-name="summation" unicode="&#x2211;" horiz-adv-x="1460" 
d="M922 1446h-539l559 -733l-602 -695h760q104 0 164 50t112 182h47q-61 -252 -88 -459q-147 23 -157 23h-1031q-20 0 -59 -3t-59 -4l714 816l-710 929l213 -14h1018l12 -326h-41q-38 188 -169 221q-56 13 -144 13z" />
    <glyph glyph-name="radical" unicode="&#x221a;" horiz-adv-x="1124" 
d="M1055 1868l-307 -1946l-498 1028l-197 -96l-33 68l299 147l404 -825l260 1634z" />
    <glyph glyph-name="infinity" unicode="&#x221e;" horiz-adv-x="1460" 
d="M344 721q-178 0 -178 -189q0 -90 53 -134t129 -44t143 42t173 145q-121 102 -191 141t-129 39zM1296 549q0 90 -53 134t-129 44t-142 -41t-173 -145q121 -101 191 -141t128 -40q178 1 178 189zM1148 825q118 -1 188 -73t71 -200q0 -128 -80 -213q-79 -85 -187 -85
t-187 45t-222 174q-127 -121 -213 -169t-204 -48t-188 73t-71 201q0 128 80 212q79 85 187 85t187 -45t222 -174q129 121 214 169t203 48z" />
    <glyph glyph-name="integral" unicode="&#x222b;" horiz-adv-x="561" 
d="M596 1683q0 -41 -31 -67t-68 -27q-37 0 -69 27t-41 26q-37 0 -37 -49v-12q0 -25 20 -267t19 -396l-2 -443q-4 -776 -268 -776q-53 0 -86 31q-33 30 -33 68t25 71t71 33t73 -25q28 -25 45 -25t31 57q13 56 13 134v27q-12 412 -12 557v381q0 455 53 634q16 56 63 104
t107 48q127 0 127 -111z" />
    <glyph glyph-name="approxequal" unicode="&#x2248;" horiz-adv-x="1124" 
d="M764 223q-54 0 -80 8l-246 80q-39 8 -69 13h-4q-62 0 -95 -29t-50 -55q-17 -25 -17 -27l-74 76q100 145 240 145q49 0 86 -12l247 -78q29 -4 59 -4t79 24t80 74l61 -69q-37 -70 -100 -108t-117 -38zM768 487q-50 0 -84 11l-246 80q-39 8 -69 12h-4q-76 0 -127 -61
q-35 -38 -35 -50l-74 76q100 145 240 145q49 0 86 -12l247 -78q14 -4 52 -4t86 24q49 24 80 75l61 -70q-37 -70 -100 -109t-113 -39z" />
    <glyph glyph-name="notequal" unicode="&#x2260;" horiz-adv-x="1124" 
d="M950 264h-413l-86 -219h-101l86 219h-262v113h305l62 168h-367v112h406l75 213h101l-74 -213h268v-112h-309l-61 -168h370v-113z" />
    <glyph glyph-name="lessequal" unicode="&#x2264;" horiz-adv-x="1124" 
d="M934 0h-801v113h801v-113zM932 207l-801 334v114l801 357v-117l-658 -293l658 -266v-129z" />
    <glyph glyph-name="greaterequal" unicode="&#x2265;" horiz-adv-x="1124" 
d="M991 0h-801v113h801v-113zM987 543l-801 -336v117l658 272l-658 287v129l801 -355v-114z" />
    <glyph glyph-name="lozenge" unicode="&#x25ca;" horiz-adv-x="1011" 
d="M831 772l-335 643l-336 -643l336 -661zM954 772l-397 -772h-123l-397 772l397 754h123z" />
    <glyph glyph-name="fi" unicode="&#xfb01;" horiz-adv-x="1200" 
d="M805 301v141q0 186 -5 250t-28 84t-90 21h-252q-2 -158 -2 -327t3 -268q3 -100 19 -120t64 -25l61 -6v-51q-164 4 -258 4l-258 -4v51l58 6q47 4 65 26q18 21 20 89t3 240v385h-150q20 31 35 51l35 45h80q13 287 161 443t377 155q125 0 197 -34t72 -83t-42 -77
q-42 -27 -102 -27t-126 59t-130 62q-96 0 -138 -126t-44 -372h311q168 0 289 43q-2 -258 -2 -482t2 -287q2 -62 18 -84t64 -26l62 -6v-51q-166 4 -259 4l-249 -4v51l53 6q51 7 66 27t17 72t3 145z" />
    <glyph glyph-name="fl" unicode="&#xfb02;" horiz-adv-x="1200" 
d="M805 674q0 432 -2 526q-4 203 -160 203q-213 0 -213 -473v-37h244v-100h-244q-2 -193 -2 -343t3 -248q3 -100 19 -120t64 -25l64 -6v-51q-166 4 -261 4l-258 -4v51l58 6q47 4 65 26t20 71t3 122v517h-152q20 33 35 53l37 49h78q12 289 149 441t336 153q137 0 219 -49
l125 45l-4 -772q0 -412 2 -505t18 -120t68 -31l66 -6v-51q-172 4 -267 4l-247 -4v51l53 6q47 7 63 27t18 89t3 501z" />
    <glyph glyph-name="percent" horiz-adv-x="1724" 
d="M1475 143q0 272 -172 273q-178 0 -179 -281q0 -109 41 -187t133 -77t135 77q42 76 42 195zM623 1006q0 279 -170 278q-182 0 -183 -274q0 -111 43 -191t135 -80t134 74q41 74 41 193zM1667 145q0 -149 -105 -245q-104 -96 -266 -96t-266 90q-104 92 -104 240t106 249
q106 100 270 100t264 -94q101 -94 101 -244zM441 672q-159 0 -262 92t-103 242t108 248t273 98q74 0 128 -14t96 -25q42 -9 96 -23t158 -14q103 0 189 50t181 151l75 -39l-983 -1901l-84 41l893 1725q-106 -98 -272 -99q-102 0 -180 21l-25 8q32 -25 59 -91q28 -66 27 -130
q0 -147 -107 -244q-108 -96 -267 -96z" />
    <glyph glyph-name="apple" horiz-adv-x="1646" 
d="M588 448q0 58 22 116t23 93q0 84 -62 84q-57 0 -82 -38t-24 -89q0 -112 174 -333q-51 109 -51 167zM1192 1452q-24 -56 -84 -105q-16 -13 -66 -45t-59 -40q-117 -80 -164 -213q49 93 106 135q27 20 124 82q135 98 143 186zM784 1085q0 207 111 287q46 34 191 67
q44 9 79 39t35 78h6q23 -62 23 -138q1 -76 -15 -143t-79 -115t-128 -66q-167 -46 -167 -125q0 -121 59 -121q11 0 31 14q63 45 168 45q104 1 160 -29q91 -48 111 -195q7 -50 7 -126q0 -242 -131 -409t-284 -166q-59 0 -85 17t-37 17t-41 -17t-88 -17t-124 30t-141 91
t-127 185t-52 283q0 336 277 336q90 -1 145 -27t68 -26q39 0 39 70l-11 149v12z" />
    </font>
</defs>
</svg>
