<svg version="1.1" xmlns="http://www.w3.org/2000/svg" data-icon="arrow-thick" width="128" height="128" class="iconic iconic-arrow-thick" viewBox="0 0 128 128">
  <g><title>Arrow Thick</title></g>
  <g data-width="128" data-height="128" data-default-max-height="76" class="iconic-lg iconic-container" display="inline" transform="translate(0 26)">
    <path stroke="#000" stroke-width="16" stroke-miterlimit="10" class="iconic-arrow-thick-stem iconic-property-stroke" d="M0 38h110" fill="none"/>
    <path d="M126.7 37.2l-33.4-20.4c-.7-.4-1.3-.1-1.3.7v41c0 .8.6 1.1 1.3.7l33.4-20.4c.7-.4.7-1.2 0-1.6z" class="iconic-arrow-thick-head iconic-arrow-thick-head-fill iconic-property-fill"/>
    <path d="M126.6 37.4l-45.2-20.8c-.8-.3-1.4 0-1.4.9v41c0 .8.6 1.2 1.4.9l45.3-20.8c.7-.3.7-.9-.1-1.2z" class="iconic-arrow-thick-head iconic-arrow-thick-head-fill-acute iconic-property-fill" display="none"/>
    <path d="M127 36.8l-18-21.6c-.5-.6-1-.5-1 .3v45c0 .8.4 1 1 .3l18-21.6c.6-.7.6-1.7 0-2.4z" class="iconic-arrow-thick-head iconic-arrow-thick-head-fill-oblique iconic-property-fill" display="none"/>
    <path d="M126.6 37.4l-47.2-20.8c-.8-.3-1.1 0-.9.8l7 19.2c.3.8.3 2 0 2.8l-7 19.2c-.3.8.1 1.1.9.8l47.3-20.8c.7-.3.7-.9-.1-1.2z" class="iconic-arrow-thick-head iconic-arrow-thick-head-fill-angled iconic-property-fill" display="none"/>
    <path d="M126.7 37.2l-43.4-26.4c-.7-.4-1.3-.1-1.3.7v53c0 .8.6 1.2 1.3.7l43.4-26.4c.7-.5.7-1.1 0-1.6z" class="iconic-arrow-thick-head iconic-arrow-thick-head-fill-large iconic-property-fill" display="none"/>
    <path d="M126.6 37.4l-57.2-26.8c-.8-.4-1.4 0-1.4.9v53c0 .8.6 1.2 1.4.9l57.3-26.7c.7-.4.7-1-.1-1.3z" class="iconic-arrow-thick-head iconic-arrow-thick-head-fill-large-acute iconic-property-fill" display="none"/>
    <path d="M126.6 37.4l-61.2-26.8c-.8-.3-1.2 0-1 .8l7.2 25.1c.2.8.2 2.1 0 2.9l-7.2 25.1c-.2.8.2 1.2 1 .8l61.3-26.8c.7-.2.7-.8-.1-1.1z" class="iconic-arrow-thick-head iconic-arrow-thick-head-fill-large-angled iconic-property-fill" display="none"/>
    <path class="iconic-arrow-thick-head iconic-arrow-thick-head-fill-large-oblique iconic-property-fill" d="M128 38l-28-34v68z" display="none"/>
    <path d="M127.6 38.4c.2-.2.2-.5 0-.7l-25.3-25.3c-.2-.2-.6-.4-.9-.4h-17c-.3 0-.3.2-.1.4l25.3 25.3c.2.2.2.5 0 .7l-25.2 25.2c-.2.2-.1.4.1.4h17c.3 0 .7-.2.9-.4l25.2-25.2z" class="iconic-arrow-thick-head iconic-arrow-thick-head-line iconic-property-fill" display="none"/>
    <path class="iconic-arrow-thick-head iconic-arrow-thick-head-line-acute iconic-property-fill" d="M128 38l-34-26h-20l34 26-34 26h20z" display="none"/>
    <path class="iconic-arrow-thick-head iconic-arrow-thick-head-line-oblique iconic-property-fill" d="M126 38l-18-28h-16l18 28-18 28h16z" display="none"/>
    <path class="iconic-arrow-thick-head iconic-arrow-thick-head-line-large iconic-property-fill" d="M128 38l-34-34h-18l34 34-34 34h18z" display="none"/>
    <path class="iconic-arrow-thick-head iconic-arrow-thick-head-line-large-acute iconic-property-fill" d="M128 38l-46-34h-20l46 34-46 34h20z" display="none"/>
    <path class="iconic-arrow-thick-head iconic-arrow-thick-head-line-large-oblique iconic-property-fill" d="M126 38l-24-38h-16l24 38-24 38h16z" display="none"/>
  </g>
  <g data-width="32" data-height="32" data-default-max-height="24" class="iconic-md iconic-container" display="none" transform="scale(4) translate(0 4)">
    <path stroke="#000" stroke-width="6" stroke-miterlimit="10" class="iconic-arrow-thick-stem iconic-property-stroke" d="M0 12h26" fill="none"/>
    <path d="M31.6 12.3l-8.2 6.4c-.2.2-.4.1-.4-.2v-13c0-.3.2-.4.4-.2l8.2 6.4c.2.2.2.4 0 .6z" class="iconic-arrow-thick-head iconic-arrow-thick-head-fill iconic-property-fill"/>
    <path d="M31.6 12.3l-11.1 6.5c-.2.1-.4 0-.4-.2v-13c0-.3.2-.4.4-.2l11.1 6.5c.2 0 .2.2 0 .4z" class="iconic-arrow-thick-head iconic-arrow-thick-head-fill-acute iconic-property-fill" display="none"/>
    <path d="M31.7 12.4l-5.4 7.2c-.2.2-.3.2-.3-.1v-15c0-.3.1-.3.3-.1l5.4 7.2c.2.2.2.6 0 .8z" class="iconic-arrow-thick-head iconic-arrow-thick-head-fill-oblique iconic-property-fill" display="none"/>
    <path d="M31.6 12.2l-13.1 6.6c-.2.1-.4 0-.3-.2l2.6-6.1c.1-.3.1-.7 0-.9l-2.6-6.1c-.1-.3 0-.4.3-.2l13.1 6.6c.2 0 .2.2 0 .3z" class="iconic-arrow-thick-head iconic-arrow-thick-head-fill-angled iconic-property-fill" display="none"/>
    <path d="M31.6 12.3l-12.2 9.4c-.2.2-.4.1-.4-.2v-19c0-.3.2-.4.4-.2l12.2 9.4c.2.2.2.4 0 .6z" class="iconic-arrow-thick-head iconic-arrow-thick-head-fill-large iconic-property-fill" display="none"/>
    <path d="M31.6 12.3l-16.1 9.5c-.2.1-.4 0-.4-.2v-19c0-.3.2-.4.4-.2l16.1 9.5c.2 0 .2.2 0 .4z" class="iconic-arrow-thick-head iconic-arrow-thick-head-fill-large-acute iconic-property-fill" display="none"/>
    <path d="M31.7 12.4l-7.4 10.2c-.2.2-.3.2-.3-.1v-21c0-.3.1-.3.3-.1l7.4 10.2c.2.2.2.6 0 .8z" class="iconic-arrow-thick-head iconic-arrow-thick-head-fill-large-oblique iconic-property-fill" display="none"/>
    <path d="M31.6 12.2l-19.1 9.6c-.2.1-.4 0-.3-.2l3.6-9.1c.1-.3.1-.7 0-.9l-3.6-9.1c-.1-.3 0-.4.3-.2l19.1 9.6c.2 0 .2.2 0 .3z" class="iconic-arrow-thick-head iconic-arrow-thick-head-fill-large-angled iconic-property-fill" display="none"/>
    <path class="iconic-arrow-thick-head iconic-arrow-thick-head-line iconic-property-fill" d="M32 12l-9-9h-6l9 9-9 9h6z" display="none"/>
    <path class="iconic-arrow-thick-head iconic-arrow-thick-head-line-acute iconic-property-fill" d="M32 12l-12-9h-7l12 9-12 9h7z" display="none"/>
    <path class="iconic-arrow-thick-head iconic-arrow-thick-head-line-oblique iconic-property-fill" d="M32 12l-6-10h-6l6 10-6 10h6z" display="none"/>
    <path class="iconic-arrow-thick-head iconic-arrow-thick-head-line-large-acute iconic-property-fill" d="M32 12l-15-11h-8l15 11-15 11h8z" display="none"/>
    <path class="iconic-arrow-thick-head iconic-arrow-thick-head-line-large-oblique iconic-property-fill" d="M32 12l-7-12h-6l7 12-7 12h6z" display="none"/>
    <path class="iconic-arrow-thick-head iconic-arrow-thick-head-line-large iconic-property-fill" d="M32 12l-11-11h-8l11 11-11 11h8z" display="none"/>
  </g>
  <g data-width="16" data-height="16" data-default-max-height="16" class="iconic-sm iconic-container" display="none" transform="scale(8)">
    <path stroke="#000" stroke-width="4" stroke-miterlimit="10" class="iconic-arrow-thick-stem iconic-property-stroke" d="M0 8h12.25" fill="none"/>
    <path class="iconic-arrow-thick-head iconic-arrow-thick-head-fill iconic-property-fill" d="M16 8l-5 5v-10z"/>
    <path class="iconic-arrow-thick-head iconic-arrow-thick-head-fill-acute iconic-property-fill" d="M16 8l-8 5v-10z" display="none"/>
    <path class="iconic-arrow-thick-head iconic-arrow-thick-head-fill-oblique iconic-property-fill" d="M16 8l-4 6v-12z" display="none"/>
    <path class="iconic-arrow-thick-head iconic-arrow-thick-head-fill-angled iconic-property-fill" d="M16 8l-9 5 2-5-2-5z" display="none"/>
    <path class="iconic-arrow-thick-head iconic-arrow-thick-head-fill-large iconic-property-fill" d="M16 8l-7 7v-14z" display="none"/>
    <path class="iconic-arrow-thick-head iconic-arrow-thick-head-fill-large-acute iconic-property-fill" d="M16 8l-11 7v-14z" display="none"/>
    <path class="iconic-arrow-thick-head iconic-arrow-thick-head-fill-large-oblique iconic-property-fill" d="M16 8l-5 8v-16z" display="none"/>
    <path class="iconic-arrow-thick-head iconic-arrow-thick-head-fill-large-angled iconic-property-fill" d="M16 8l-12 7 3-7-3-7z" display="none"/>
    <path class="iconic-arrow-thick-head iconic-arrow-thick-head-line iconic-property-fill" d="M16 8l-6-6h-4l6 6-6 6h4z" display="none"/>
    <path class="iconic-arrow-thick-head iconic-arrow-thick-head-line-acute iconic-property-fill" d="M16 8l-8-6h-5l8 6-8 6h5z" display="none"/>
    <path class="iconic-arrow-thick-head iconic-arrow-thick-head-line-oblique iconic-property-fill" d="M16 8l-4-7h-4l4 7-4 7h4z" display="none"/>
    <path class="iconic-arrow-thick-head iconic-arrow-thick-head-line-large iconic-property-fill" d="M16 8l-7-7h-4.5l7 7-7 7h4.5z" display="none"/>
    <path class="iconic-arrow-thick-head iconic-arrow-thick-head-line-large-acute iconic-property-fill" d="M16 8l-8-6h-5l8 6-8 6h5z" display="none"/>
    <path class="iconic-arrow-thick-head iconic-arrow-thick-head-line-large-oblique iconic-property-fill" d="M16 8l-5-8h-4l5 8-5 8h4z" display="none"/>
  </g>
<script class="iconic-api" type="application/ecmascript">
//<![CDATA[
var iconicApis=window._Iconic?window._Iconic.smartIconApis:{};iconicApis["arrow-thick"]=iconicApis["arrow-thick"]||function(t){function e(e){t.setAttribute("data-head",e);for(var a=t.querySelectorAll(".iconic-arrow-thick-head"),r=0;r<a.length;r++)a[r].setAttribute("display","none");var i=".iconic-arrow-thick-head-"+e,o=t.querySelectorAll(i);o.length||(o=t.querySelectorAll(".iconic-arrow-thick-head-fill"));for(var n=0;n<o.length;n++)o[n].setAttribute("display","inline")}function a(e){t.setAttribute("data-direction",e);var a=0;switch(e){case"top":a=270;break;case"left":a=180;break;case"bottom":a=90;break;case"top-right":a=-45;break;case"top-left":a=-135;break;case"bottom-right":a=45;break;case"bottom-left":a=135;break;default:a=0}r.setAttribute("transform",["rotate("+a+" 64 64)","translate(0 26)"].join(" ")),i.setAttribute("transform",["scale(4)","rotate("+a+" 16 16)","translate(0 4)"].join(" ")),o.setAttribute("transform",["scale(8)","rotate("+a+" 8 8)"].join(" "))}var r=t.querySelector(".iconic-lg"),i=t.querySelector(".iconic-md"),o=t.querySelector(".iconic-sm"),n=function(){var r=t.getAttribute("data-head")||"";e(r);var i=t.getAttribute("data-direction")||"";a(i)};return{update:n,setHead:e,setDirection:a}};
//]]>
</script>
</svg>