<svg version="1.1" xmlns="http://www.w3.org/2000/svg" data-icon="arrow" width="128" height="128" class="iconic iconic-arrow" viewBox="0 0 128 128">
  <g><title>Arrow</title></g>
  <g data-width="128" data-height="128" data-default-max-height="64" class="iconic-lg iconic-container" display="inline" transform="translate(0 32)">
    <path stroke="#000" stroke-width="8" stroke-miterlimit="10" class="iconic-arrow-stem iconic-property-stroke" d="M0 32h118" fill="none"/>
    <path d="M126.7 31.2l-21.4-12.5c-.7-.4-1.3-.1-1.3.7v25c0 .8.6 1.2 1.3.7l21.4-12.5c.7-.3.7-.9 0-1.4z" class="iconic-arrow-head iconic-arrow-head-fill iconic-property-fill"/>
    <path d="M126.6 31.4l-29.2-12.8c-.8-.3-1.4.1-1.4.9v25c0 .8.6 1.2 1.4.9l29.3-12.8c.7-.3.7-.9-.1-1.2z" class="iconic-arrow-head iconic-arrow-head-fill-acute iconic-property-fill" display="none"/>
    <path d="M126.6 31.5l-33.2-13c-.8-.3-1.1 0-.7.8l6.5 11.4c.4.7.4 1.9 0 2.6l-6.5 11.4c-.4.7-.1 1.1.7.8l33.2-12.9c.8-.4.8-.8 0-1.1z" class="iconic-arrow-head iconic-arrow-head-fill-angled iconic-property-fill" display="none"/>
    <path d="M127.1 30.8l-12.2-15.6c-.5-.7-.9-.5-.9.3v33c0 .8.4 1 .9.3l12.2-15.6c.5-.7.5-1.7 0-2.4z" class="iconic-arrow-head iconic-arrow-head-fill-oblique iconic-property-fill" display="none"/>
    <path d="M126.7 31.2l-31.4-18.4c-.7-.4-1.3-.1-1.3.7v37c0 .8.6 1.2 1.3.7l31.4-18.5c.7-.4.7-1 0-1.5z" class="iconic-arrow-head iconic-arrow-head-fill-large iconic-property-fill" display="none"/>
    <path d="M126.6 31.4l-43.2-18.8c-.8-.3-1.4.1-1.4.9v37c0 .8.6 1.2 1.4.9l43.2-18.8c.8-.3.8-.9 0-1.2z" class="iconic-arrow-head iconic-arrow-head-fill-large-acute iconic-property-fill" display="none"/>
    <path d="M127.1 30.8l-16.2-21.6c-.5-.7-.9-.5-.9.3v45c0 .8.4 1 .9.3l16.2-21.6c.5-.7.5-1.7 0-2.4z" class="iconic-arrow-head iconic-arrow-head-fill-large-oblique iconic-property-fill" display="none"/>
    <path d="M126.6 31.4l-47.2-18.8c-.8-.3-1 0-.6.7l10.5 17.4c.4.7.4 1.9 0 2.6l-10.5 17.4c-.4.7-.1 1 .6.7l47.2-18.9c.8-.3.8-.7 0-1.1z" class="iconic-arrow-head iconic-arrow-head-fill-large-angled iconic-property-fill" display="none"/>
    <path class="iconic-arrow-head iconic-arrow-head-line iconic-property-fill" d="M128 32l-24-24h-10l24 24-24 24h10z" display="none"/>
    <path class="iconic-arrow-head iconic-arrow-head-line-acute iconic-property-fill" d="M128 32l-32-24h-11l32 24-32 24h11z" display="none"/>
    <path class="iconic-arrow-head iconic-arrow-head-line-oblique iconic-property-fill" d="M128 32l-20-26h-10l20 26-20 26h10z" display="none"/>
    <path class="iconic-arrow-head iconic-arrow-head-line-large iconic-property-fill" d="M128 32l-30-30h-11l30 30-30 30h11z" display="none"/>
    <path class="iconic-arrow-head iconic-arrow-head-line-large-acute iconic-property-fill" d="M128 32l-40-30h-12l40 30-40 30h12z" display="none"/>
    <path class="iconic-arrow-head iconic-arrow-head-line-large-oblique iconic-property-fill" d="M128 32l-24-32h-10l24 32-24 32h10z" display="none"/>
  </g>
  <g data-width="32" data-height="32" data-default-max-height="19" class="iconic-md iconic-container" display="none" transform="scale(4) translate(0 6) ">
    <path stroke="#000" stroke-width="3" stroke-miterlimit="10" class="iconic-arrow-stem iconic-property-stroke" d="M0 9.5h29" fill="none"/>
    <path d="M31.6 9.8l-5.2 3.9c-.2.2-.4.1-.4-.2v-8c0-.3.2-.4.4-.2l5.2 3.9c.2.2.2.4 0 .6z" class="iconic-arrow-head iconic-arrow-head-fill iconic-property-fill"/>
    <path d="M31.6 9.7l-8.1 4.1c-.2.1-.4 0-.4-.3v-8c0-.3.2-.4.4-.3l8.1 4.1c.2.1.2.3 0 .4z" class="iconic-arrow-head iconic-arrow-head-fill-acute iconic-property-fill" display="none"/>
    <path d="M31.7 9.9l-4.3 4.8c-.2.2-.3.1-.3-.1v-10c0-.3.2-.3.3-.1l4.3 4.8c.1 0 .1.4 0 .6z" class="iconic-arrow-head iconic-arrow-head-fill-oblique iconic-property-fill" display="none"/>
    <path d="M31.5 9.7l-9.1 4.1c-.3.1-.4 0-.3-.3l1.6-3.6c.1-.3.1-.7 0-.9l-1.6-3.6c-.1-.3 0-.4.3-.3l9.1 4.1c.3.2.3.4 0 .5z" class="iconic-arrow-head iconic-arrow-head-fill-angled iconic-property-fill" display="none"/>
    <path d="M31.6 9.8l-8.2 5.9c-.2.2-.4.1-.4-.2v-12c0-.3.2-.4.4-.2l8.2 5.9c.2.2.2.4 0 .6z" class="iconic-arrow-head iconic-arrow-head-fill-large iconic-property-fill" display="none"/>
    <path d="M31.6 9.7l-11.1 6c-.2.1-.4 0-.4-.3v-12c0-.3.2-.4.4-.3l11.1 6c.2.3.2.5 0 .6z" class="iconic-arrow-head iconic-arrow-head-fill-large-acute iconic-property-fill" display="none"/>
    <path d="M31.7 9.9l-6.3 6.8c-.2.2-.3.1-.3-.1v-14c0-.3.2-.3.3-.1l6.3 6.8c.1 0 .1.4 0 .6z" class="iconic-arrow-head iconic-arrow-head-fill-large-oblique iconic-property-fill" display="none"/>
    <path d="M31.5 9.7l-13.1 6.1c-.3.1-.4 0-.2-.2l2.6-5.6c.1-.3.1-.7 0-.9l-2.6-5.6c-.1-.3 0-.4.2-.2l13.1 6.1c.3 0 .3.2 0 .3z" class="iconic-arrow-head iconic-arrow-head-fill-large-angled iconic-property-fill" display="none"/>
    <path class="iconic-arrow-head iconic-arrow-head-line iconic-property-fill" d="M32 9.5l-7-6.5h-3.5l7 6.5-7 6.5h3.5z" display="none"/>
    <path class="iconic-arrow-head iconic-arrow-head-line-acute iconic-property-fill" d="M32 9.5l-9-6.5h-4l9 6.5-9 6.5h4z" display="none"/>
    <path class="iconic-arrow-head iconic-arrow-head-line-oblique iconic-property-fill" d="M32 9.5l-6-7.5h-3l6 7.5-6 7.5h3z" display="none"/>
    <path class="iconic-arrow-head iconic-arrow-head-line-large iconic-property-fill" d="M32 9.5l-11-8.5h-4l11 8.5-11 8.5h4z" display="none"/>
    <path class="iconic-arrow-head iconic-arrow-head-line-large-acute iconic-property-fill" d="M32 9.5l-11-8.5h-4l11 8.5-11 8.5h4z" display="none"/>
    <path class="iconic-arrow-head iconic-arrow-head-line-large-oblique iconic-property-fill" d="M32 9.5l-7-9.5h-3.5l7 9.5-7 9.5h3.5z" display="none"/>
  </g>
  <g data-width="16" data-height="16" data-default-max-height="10" class="iconic-sm iconic-container" display="none" transform="scale(8) translate(0 3)">
    <path stroke="#000" stroke-width="2" stroke-miterlimit="10" class="iconic-arrow-stem iconic-property-stroke" d="M14 5h-14" fill="none"/>
    <path class="iconic-arrow-head iconic-arrow-head-fill iconic-property-fill" d="M16 5l-3 3v-6z"/>
    <path class="iconic-arrow-head iconic-arrow-head-fill-acute iconic-property-fill" d="M16 5l-5 3v-6z" display="none"/>
    <path class="iconic-arrow-head iconic-arrow-head-fill-oblique iconic-property-fill" d="M16 5l-3 4v-8z" display="none"/>
    <path class="iconic-arrow-head iconic-arrow-head-fill-angled iconic-property-fill" d="M16 5l-6 3 2-3-2-3z" display="none"/>
    <path class="iconic-arrow-head iconic-arrow-head-fill-large iconic-property-fill" d="M16 5l-4 4v-8z" display="none"/>
    <path class="iconic-arrow-head iconic-arrow-head-fill-large-acute iconic-property-fill" d="M16 5l-7 4v-8z" display="none"/>
    <path class="iconic-arrow-head iconic-arrow-head-fill-large-angled iconic-property-fill" d="M16 5l-8 4 2-4-2-4z" display="none"/>
    <path class="iconic-arrow-head iconic-arrow-head-fill-large-oblique iconic-property-fill" d="M16 5l-4 5v-10z" display="none"/>
    <path class="iconic-arrow-head iconic-arrow-head-line iconic-property-fill" d="M16 5l-4-4h-2l4 4-4 4h2z" display="none"/>
    <path class="iconic-arrow-head iconic-arrow-head-line-acute iconic-property-fill" d="M16 5l-5-4h-2.5l5 4-5 4h2.5z" display="none"/>
    <path class="iconic-arrow-head iconic-arrow-head-line-oblique iconic-property-fill" d="M16 5l-3-4h-2l3 4-3 4h2z" display="none"/>
    <path class="iconic-arrow-head iconic-arrow-head-line-large iconic-property-fill" d="M16 5l-5-5h-2.5l5 5-5 5h2.5z" display="none"/>
    <path class="iconic-arrow-head iconic-arrow-head-line-large-acute iconic-property-fill" d="M16 5l-6-5h-2.5l6 5-6 5h2.5z" display="none"/>
    <path class="iconic-arrow-head iconic-arrow-head-line-large-oblique iconic-property-fill" d="M16 5l-4-5h-2l4 5-4 5h2z" display="none"/>
  </g>
<script class="iconic-api" type="application/ecmascript">
//<![CDATA[
var iconicApis=window._Iconic?window._Iconic.smartIconApis:{};iconicApis["arrow"]=iconicApis["arrow"]||function(t){function e(e){t.setAttribute("data-head",e);for(var i=t.querySelectorAll(".iconic-arrow-head"),n=0;n<i.length;n++)i[n].setAttribute("display","none");var r=".iconic-arrow-head-"+e,a=t.querySelectorAll(r);a.length||(a=t.querySelectorAll(".iconic-arrow-head-fill"));for(var c=0;c<a.length;c++)a[c].setAttribute("display","inline")}function i(e){t.setAttribute("data-direction",e);var i=0;switch(e){case"top":i=270;break;case"left":i=180;break;case"bottom":i=90;break;case"top-right":i=-45;break;case"top-left":i=-135;break;case"bottom-right":i=45;break;case"bottom-left":i=135;break;default:i=0}n.setAttribute("transform",["rotate("+i+" 64 64)","translate(0 32)"].join(" ")),r.setAttribute("transform",["scale(4)","rotate("+i+" 16 16)","translate(0 8)"].join(" ")),a.setAttribute("transform",["scale(8)","rotate("+i+" 8 8)","translate(0 4)"].join(" "))}var n=t.querySelector(".iconic-lg"),r=t.querySelector(".iconic-md"),a=t.querySelector(".iconic-sm"),c=function(){var n=t.getAttribute("data-head")||"";e(n);var r=t.getAttribute("data-direction")||"";i(r)};return{update:c,setHead:e,setDirection:i}};
//]]>
</script>
</svg>