<svg version="1.1" xmlns="http://www.w3.org/2000/svg" data-icon="arrow-right-angle-thick" width="128" height="128" class="iconic iconic-arrow-right-angle-thick" viewBox="0 0 128 128">
  <g><title>Arrow 90 Degree Thick</title></g>
  <g data-width="128" data-height="128" data-default-max-height="92" class="iconic-lg iconic-container" display="inline" transform="translate(0 16)">
    <path stroke="#000" stroke-width="16" stroke-linecap="square" stroke-miterlimit="10" class="iconic-arrow-right-angle-thick-stem iconic-property-stroke" d="M102 28h-94v58" fill="none"/>
    <path d="M126.7 27.2l-33.4-20.4c-.7-.4-1.3-.1-1.3.7v41c0 .8.6 1.1 1.3.7l33.4-20.4c.7-.4.7-1.2 0-1.6z" class="iconic-arrow-right-angle-thick-head iconic-arrow-right-angle-thick-head-fill iconic-property-fill"/>
    <path d="M126.6 27.4l-45.2-20.8c-.8-.3-1.4 0-1.4.9v41c0 .8.6 1.2 1.4.9l45.3-20.8c.7-.3.7-.9-.1-1.2z" class="iconic-arrow-right-angle-thick-head iconic-arrow-right-angle-thick-head-fill-acute iconic-property-fill" display="none"/>
    <path d="M126.6 27.4l-47.2-20.8c-.8-.3-1.1 0-.9.8l7 19.2c.3.8.3 2 0 2.8l-7 19.2c-.3.8.1 1.1.9.8l47.3-20.8c.7-.3.7-.9-.1-1.2z" class="iconic-arrow-right-angle-thick-head iconic-arrow-right-angle-thick-head-fill-angled iconic-property-fill" display="none"/>
    <path d="M127.6 28.4c.2-.2.2-.5 0-.7l-25.2-25.3c-.2-.2-.6-.4-.9-.4h-17c-.3 0-.3.2-.1.4l25.3 25.3c.2.2.2.5 0 .7l-25.3 25.2c-.2.2-.1.4.1.4h17c.3 0 .7-.2.9-.4l25.2-25.2z" class="iconic-arrow-right-angle-thick-head iconic-arrow-right-angle-thick-head-line iconic-property-fill" display="none"/>
  </g>
  <g data-width="32" data-height="32" data-default-max-height="26" class="iconic-md iconic-container" display="none" transform="scale(4) translate(0 2)">
    <path stroke="#000" stroke-width="6" stroke-linecap="square" stroke-miterlimit="10" class="iconic-arrow-right-angle-thick-stem iconic-property-stroke" d="M23 9h-20v14" fill="none"/>
    <path d="M31.6 9.3l-8.2 6.4c-.2.2-.4.1-.4-.2v-13c0-.3.2-.4.4-.2l8.2 6.4c.2.2.2.4 0 .6z" class="iconic-arrow-right-angle-thick-head iconic-arrow-right-angle-thick-head-fill iconic-property-fill"/>
    <path d="M31.6 9.3l-11.1 6.5c-.2.1-.4 0-.4-.2v-13c0-.3.2-.4.4-.2l11.1 6.5c.2 0 .2.2 0 .4z" class="iconic-arrow-right-angle-thick-head iconic-arrow-right-angle-thick-head-fill-acute iconic-property-fill" display="none"/>
    <path d="M31.6 9.2l-13.1 6.6c-.2.1-.4 0-.3-.2l2.6-6.1c.1-.3.1-.7 0-.9l-2.6-6.1c-.1-.3 0-.4.3-.2l13.1 6.6c.2 0 .2.2 0 .3z" class="iconic-arrow-right-angle-thick-head iconic-arrow-right-angle-thick-head-fill-angled iconic-property-fill" display="none"/>
    <path class="iconic-arrow-right-angle-thick-head iconic-arrow-right-angle-thick-head-line iconic-property-fill" d="M32 9l-9-9h-6l9 9-9 9h6z" display="none"/>
  </g>
  <g data-width="16" data-height="16" data-default-max-height="14" class="iconic-sm iconic-container" display="none" transform="scale(8) translate(0 1)">
    <path stroke="#000" stroke-width="4" stroke-linecap="square" stroke-miterlimit="10" class="iconic-arrow-right-angle-thick-stem iconic-property-stroke" d="M10.5 5h-8.5v7" fill="none"/>
    <path class="iconic-arrow-right-angle-thick-head iconic-arrow-right-angle-thick-head-fill iconic-property-fill" d="M16 5l-5 5v-10z"/>
    <path class="iconic-arrow-right-angle-thick-head iconic-arrow-right-angle-thick-head-fill-acute iconic-property-fill" d="M16 5l-8 5v-10z" display="none"/>
    <path class="iconic-arrow-right-angle-thick-head iconic-arrow-right-angle-thick-head-fill-angled iconic-property-fill" d="M16 5l-9 5 2-5-2-5z" display="none"/>
    <path class="iconic-arrow-right-angle-thick-head iconic-arrow-right-angle-thick-head-line iconic-property-fill" d="M16 5l-5-5h-4l5 5-5 5h4z" display="none"/>
  </g>
<script class="iconic-api" type="application/ecmascript">
//<![CDATA[
var iconicApis=window._Iconic?window._Iconic.smartIconApis:{};iconicApis["arrow-right-angle-thick"]=iconicApis["arrow-right-angle-thick"]||function(t){function e(e){t.setAttribute("data-head",e);for(var a=t.querySelectorAll(".iconic-arrow-right-angle-thick-head"),r=0;r<a.length;r++)a[r].setAttribute("display","none");var i=".iconic-arrow-right-angle-thick-head-"+e,n=t.querySelectorAll(i);n.length||(n=t.querySelectorAll(".iconic-arrow-right-angle-thick-head-fill"));for(var o=0;o<n.length;o++)n[o].setAttribute("display","inline")}function a(e){t.setAttribute("data-direction",e);var a,o,c;switch(e){case"bottom-left":a=["scale(-1 1)","rotate(0 64 64)","translate(-128 16)"],o=["scale(-4 4)","rotate(0 16 16)","translate(-32 2)"],c=["scale(-8 8)","rotate(0 8 8)","translate(-16 1)"];break;case"top-left":a=["rotate(180 64 64)","translate(0 16)"],o=["scale(4)","rotate(180 16 16)","translate(0 2)"],c=["scale(8)","rotate(180 8 8)","translate(0 1)"];break;case"top-right":a=["scale(-1 1)","rotate(180 64 64)","translate(128 16)"],o=["scale(-4 4)","rotate(180 16 16)","translate(32 2)"],c=["scale(-8 8)","rotate(180 8 8)","translate(16 1)"];break;case"right-top":a=["rotate(270 64 64)","translate(0 16)"],o=["scale(4)","rotate(270 16 16)","translate(0 2)"],c=["scale(8)","rotate(270 8 8)","translate(0 1)"];break;case"right-bottom":a=["scale(-1 1)","rotate(90 64 64)","translate(0 144)"],o=["scale(-4 4)","rotate(90 16 16)","translate(0 34)"],c=["scale(-8 8)","rotate(90 8 8)","translate(0 17)"];break;case"left-top":a=["scale(-1 1)","rotate(270 64 64)","translate(0 -112)"],o=["scale(-4 4)","rotate(270 16 16)","translate(0 -30)"],c=["scale(-8 8)","rotate(270 8 8)","translate(0 -15)"];break;case"left-bottom":a=["rotate(90 64 64)","translate(0 16)"],o=["scale(4)","rotate(90 16 16)","translate(0 3)"],c=["scale(8)","rotate(90 8 8)","translate(0 1)"];break;default:a=["translate(0 16)"],o=["scale(4)","translate(0 2)"],c=["scale(8)"]}r.setAttribute("transform",a.join(" ")),i.setAttribute("transform",o.join(" ")),n.setAttribute("transform",c.join(" "))}var r=t.querySelector(".iconic-lg"),i=t.querySelector(".iconic-md"),n=t.querySelector(".iconic-sm"),o=function(){var r=t.getAttribute("data-head")||"";e(r);var i=t.getAttribute("data-direction")||"";a(i)};return{update:o,setHead:e,setDirection:a}};
//]]>
</script>
</svg>