<svg xmlns="http://www.w3.org/2000/svg" class="iconic iconic-audio" width="128" height="128" viewBox="0 0 128 128">
  <g class="iconic-metadata">
    <title>Audio</title>
  </g>
  <g class="iconic-audio-lg iconic-container iconic-lg" data-width="128" data-height="90" display="inline" transform="translate(0 19)">
    <circle cx="64" cy="45.255" r="10" class="iconic-audio-center iconic-property-accent iconic-property-fill" />
    <path stroke="#000" stroke-width="8" d="M86.981 22.274c5.881 5.881 9.519 14.006 9.519 22.981s-3.638 17.1-9.519 22.981" class="iconic-audio-wave iconic-audio-wave-inner iconic-audio-wave-right iconic-audio-wave-inner-right iconic-property-stroke" fill="none"
    />
    <path stroke="#000" stroke-width="8" d="M106.426 2.828c10.858 10.858 17.574 25.858 17.574 42.426s-6.716 31.569-17.574 42.426" class="iconic-audio-wave iconic-audio-wave-outer iconic-audio-wave-right iconic-audio-wave-outer-right iconic-property-stroke"
    fill="none" />
    <path stroke="#000" stroke-width="8" d="M41.019 68.236c-5.881-5.881-9.519-14.006-9.519-22.981s3.638-17.1 9.519-22.981" class="iconic-audio-wave iconic-audio-wave-inner iconic-audio-wave-left iconic-audio-wave-inner-left iconic-property-stroke" fill="none"
    />
    <path stroke="#000" stroke-width="8" d="M21.574 87.681c-10.858-10.858-17.574-25.858-17.574-42.426s6.716-31.569 17.574-42.426" class="iconic-audio-wave iconic-audio-wave-outer iconic-audio-wave-left iconic-audio-wave-outer-left iconic-property-stroke"
    fill="none" />
  </g>
  <g class="iconic-audio-md iconic-container iconic-md" data-width="32" data-height="22" display="none" transform="scale(4) translate(0 5)">
    <circle cx="16" cy="11.314" r="3" class="iconic-audio-center iconic-property-accent iconic-property-fill" />
    <path stroke="#000" stroke-width="2" d="M22.364 4.95c1.629 1.629 2.636 3.879 2.636 6.364s-1.007 4.735-2.636 6.364" class="iconic-audio-wave iconic-audio-wave-inner iconic-audio-wave-right iconic-audio-wave-inner-right iconic-property-stroke" fill="none"
    />
    <path stroke="#000" stroke-width="2" d="M26.607.707c2.715 2.715 4.393 6.465 4.393 10.607s-1.679 7.892-4.393 10.607" class="iconic-audio-wave iconic-audio-wave-outer iconic-audio-wave-right iconic-audio-wave-outer-right iconic-property-stroke" fill="none"
    />
    <path stroke="#000" stroke-width="2" d="M9.636 17.678c-1.629-1.629-2.636-3.879-2.636-6.364s1.007-4.735 2.636-6.364" class="iconic-audio-wave iconic-audio-wave-inner iconic-audio-wave-left iconic-audio-wave-inner-left iconic-property-stroke" fill="none"
    />
    <path stroke="#000" stroke-width="2" d="M5.393 21.92c-2.714-2.715-4.393-6.465-4.393-10.607s1.679-7.892 4.393-10.607" class="iconic-audio-wave iconic-audio-wave-outer iconic-audio-wave-left iconic-audio-wave-outer-left iconic-property-stroke" fill="none"
    />
  </g>
  <g class="iconic-audio-sm iconic-container iconic-sm" data-width="16" data-height="11" display="none" transform="scale(8) translate(0 2)">
    <circle cx="8" cy="5.657" r="2" class="iconic-audio-center iconic-property-accent iconic-property-fill" />
    <path stroke="#000" d="M11.182 2.475c.814.814 1.318 1.939 1.318 3.182s-.504 2.368-1.318 3.182" class="iconic-audio-wave iconic-audio-wave-inner iconic-audio-wave-right iconic-audio-wave-inner-right iconic-property-stroke" fill="none" />
    <path stroke="#000" d="M13.303.354c1.357 1.357 2.197 3.232 2.197 5.303s-.84 3.946-2.197 5.303" class="iconic-audio-wave iconic-audio-wave-outer iconic-audio-wave-right iconic-audio-wave-outer-right iconic-property-stroke" fill="none" />
    <path stroke="#000" d="M4.818 8.839c-.814-.814-1.318-1.939-1.318-3.182s.504-2.368 1.318-3.182" class="iconic-audio-wave iconic-audio-wave-inner iconic-audio-wave-left iconic-audio-wave-inner-left iconic-property-stroke" fill="none" />
    <path stroke="#000" d="M2.697 10.96c-1.357-1.357-2.197-3.232-2.197-5.303s.84-3.946 2.197-5.303" class="iconic-audio-wave iconic-audio-wave-outer iconic-audio-wave-left iconic-audio-wave-outer-left iconic-property-stroke" fill="none" />
  </g>
</svg>