<svg xmlns="http://www.w3.org/2000/svg" class="iconic iconic-beaker" width="128" height="128" viewBox="0 0 128 128">
  <g class="iconic-metadata">
    <title>Beaker</title>
  </g>
  <g class="iconic-beaker-lg iconic-container iconic-lg" data-width="128" data-height="128" display="inline">
    <path d="M123.657 112.343l-21.346-30.343h-28.334c.633-.838 1.023-1.869 1.023-3 0-2.761-2.239-5-5-5s-5 2.239-5 5c0 1.131.39 2.162 1.023 3h-40.023l-21.657 30.343c-1.448 1.448-2.343 3.448-2.343 5.657s.895 4.209 2.343 5.657c1.448 1.448 3.448 2.343 5.657 2.343h108c2.209 0 4.209-.895 5.657-2.343 1.448-1.448 2.343-3.448 2.343-5.657s-.895-4.209-2.343-5.657zm-62.657-12.343c-1.657 0-3-1.343-3-3s1.343-3 3-3 3 1.343 3 3-1.343 3-3 3zm8 12c-.552 0-1-.448-1-1s.448-1 1-1 1 .448 1 1-.448 1-1 1z"
    class="iconic-beaker-fluid iconic-property-fill" />
    <circle cx="60" cy="68" r="2" class="iconic-beaker-fluid iconic-beaker-fluid-bubble iconic-property-fill" />
    <path stroke="#000" stroke-width="2" stroke-linecap="round" class="iconic-beaker-measure-line iconic-beaker-measure-line-7 iconic-property-accent iconic-property-stroke" d="M95 73h-10" fill="none" />
    <path stroke="#000" stroke-width="2" stroke-linecap="round" class="iconic-beaker-measure-line iconic-beaker-measure-line-6 iconic-property-accent iconic-property-stroke" d="M88 63h-9" fill="none" />
    <path stroke="#000" stroke-width="2" stroke-linecap="round" class="iconic-beaker-measure-line iconic-beaker-measure-line-5 iconic-property-accent iconic-property-stroke" d="M81 53h-8" fill="none" />
    <path stroke="#000" stroke-width="2" stroke-linecap="round" class="iconic-beaker-measure-line iconic-beaker-measure-line-4 iconic-property-accent iconic-property-stroke" d="M81 43h-8" fill="none" />
    <path stroke="#000" stroke-width="2" stroke-linecap="round" class="iconic-beaker-measure-line iconic-beaker-measure-line-3 iconic-property-accent iconic-property-stroke" d="M81 33h-8" fill="none" />
    <path stroke="#000" stroke-width="2" stroke-linecap="round" class="iconic-beaker-measure-line iconic-beaker-measure-line-2 iconic-property-accent iconic-property-stroke" d="M81 23h-8" fill="none" />
    <path stroke="#000" stroke-width="2" stroke-linecap="round" class="iconic-beaker-measure-line iconic-beaker-measure-line-1 iconic-property-accent iconic-property-stroke" d="M81 13h-8" fill="none" />
    <path stroke="#000" stroke-width="4" d="M46 2v50.686l-41.657 59.657c-1.27 1.657-2.343 3.448-2.343 5.657s.895 4.209 2.343 5.657 3.448 2.343 5.657 2.343h108c2.209 0 4.209-.895 5.657-2.343s2.343-3.448 2.343-5.657-1.075-4-2.343-5.657l-41.657-59.657v-50.686h-36z"
    class="iconic-beaker-glass iconic-property-stroke" fill="none" />
    <path stroke="#000" stroke-width="4" stroke-linecap="round" class="iconic-beaker-glass iconic-beaker-glass-rim iconic-property-stroke" d="M42 2h44" fill="none" />
  </g>
  <g class="iconic-beaker-md iconic-container iconic-md" data-width="32" data-height="32" display="none" transform="scale(4)">
    <path d="M30.621 26.379l-4.871-6.379h-7.027c.172-.295.277-.634.277-1 0-1.105-.895-2-2-2s-2 .895-2 2c0 .366.105.705.277 1h-9.52l-4.379 6.379c-.543.543-.879 1.293-.879 2.121s.336 1.578.879 2.121c.543.543 1.293.879 2.121.879h25c.828 0 1.578-.336 2.121-.879.543-.543.879-1.293.879-2.121s-.336-1.578-.879-2.121zm-17.621-1.379c-.552 0-1-.448-1-1s.448-1 1-1 1 .448 1 1-.448 1-1 1zm2.5 3c-.276 0-.5-.224-.5-.5s.224-.5.5-.5.5.224.5.5-.224.5-.5.5z"
    class="iconic-beaker-fluid iconic-property-fill" />
    <path stroke="#000" stroke-linecap="round" class="iconic-beaker-measure-line iconic-beaker-measure-line-4 iconic-property-accent iconic-property-stroke" d="M23.5 16.5h-3" fill="none" />
    <path stroke="#000" stroke-linecap="round" class="iconic-beaker-measure-line iconic-beaker-measure-line-3 iconic-property-accent iconic-property-stroke" d="M20.5 12.5h-2" fill="none" />
    <path stroke="#000" stroke-linecap="round" class="iconic-beaker-measure-line iconic-beaker-measure-line-2 iconic-property-accent iconic-property-stroke" d="M20.5 8.5h-2" fill="none" />
    <path stroke="#000" stroke-linecap="round" class="iconic-beaker-measure-line iconic-beaker-measure-line-1 iconic-property-accent iconic-property-stroke" d="M20.5 4.5h-2" fill="none" />
    <path stroke="#000" stroke-width="2" d="M3.5 31c-.668 0-1.295-.26-1.768-.732s-.732-1.1-.732-1.768.332-1.245.732-1.768l9.268-14.268v-11.464h10v11.464l9.268 14.268c.401.525.732 1.099.732 1.767s-.26 1.295-.732 1.768-1.1.732-1.768.732h-25z" class="iconic-beaker-glass iconic-property-stroke"
    fill="none" />
    <path stroke="#000" stroke-width="2" stroke-linecap="round" class="iconic-beaker-glass iconic-beaker-glass-rim iconic-property-stroke" d="M9.5 1h13" fill="none" />
  </g>
  <g class="iconic-beaker-sm iconic-container iconic-sm" data-width="16" data-height="16" display="none" transform="scale(8)">
    <path d="M14.914 12.086l-1.497-2.086h-3.417c0-.552-.448-1-1-1s-1 .448-1 1h-5.458l-1.455 2.086c-.378.377-.587.879-.587 1.414s.208 1.038.586 1.414c.377.378.879.586 1.414.586h11c.535 0 1.038-.208 1.414-.586.378-.377.586-.879.586-1.414 0-.535-.21-1.04-.586-1.414z"
    class="iconic-beaker-fluid iconic-property-fill" />
    <path stroke="#000" d="M2.5 15.5c-.552 0-1.052-.224-1.414-.586-.362-.362-.586-.862-.586-1.414s.224-1.052.586-1.414l4.414-6.586v-5h5v5l4.414 6.586c.362.362.586.862.586 1.414s-.224 1.052-.586 1.414c-.362.362-.862.586-1.414.586h-11z" class="iconic-beaker-glass iconic-property-stroke"
    fill="none" />
    <path stroke="#000" stroke-linecap="round" class="iconic-beaker-glass iconic-beaker-glass-rim iconic-property-stroke" d="M4.5.5h7" fill="none" />
  </g>
</svg>