<svg xmlns="http://www.w3.org/2000/svg" class="iconic iconic-book" width="128" height="128" viewBox="0 0 128 128">
  <g class="iconic-metadata">
    <title>Book</title>
  </g>
  <g class="iconic-book-lg iconic-container iconic-lg" data-width="120" data-height="128" display="inline" transform="translate(4)">
    <path d="M6 112c-3.309 0-6 2.691-6 6v4c0 3.314 2.686 6 6 6h114v-3.995h-112c-2.209 0-4-1.791-4-4s1.791-4 4-4h2v-.005h110v-4h-114z" class="iconic-book-bottom iconic-property-fill" />
    <path d="M6 109.666v-109.666h-1v.09c-2.837.477-5 2.938-5 5.91 0 .216.013.429.035.639-.011.121-.035.237-.035.361v105.726c1.467-1.667 3.61-2.726 6-2.726h.067c-.038-.105-.067-.215-.067-.334z" class="iconic-book-spine iconic-property-fill" />
    <path d="M119.983 2.828c-.091-1.575-1.384-2.828-2.982-2.828h-13v52l-6-6-6 6v-52h-84v109.666c0 .118-.03.228-.067.334h112.067v-107.155l-.017-.016z" class="iconic-book-cover iconic-property-fill" />
  </g>
  <g class="iconic-book-md iconic-container iconic-md" data-width="30" data-height="32" display="none" transform="scale(4) translate(1)">
    <path d="M3.5 30c-.829 0-1.5-.671-1.5-1.5s.671-1.5 1.5-1.5h26.5v-2h-27.75c-1.241 0-2.25 1.009-2.25 2.25v2.25c0 1.381 1.119 2.5 2.5 2.5h27.5v-2h-26.5z" class="iconic-book-bottom iconic-property-fill" />
    <path d="M2 .05c-1.141.232-2 1.24-2 2.45v22.414c.527-.508 1.227-.829 2-.889v-23.975z" class="iconic-book-spine iconic-property-fill" />
    <path d="M28.5 0h-1.5v13l-2-2-2 2v-13h-20v24h27v-22.5c0-.828-.672-1.5-1.5-1.5z" class="iconic-book-cover iconic-property-fill" />
  </g>
  <g class="iconic-book-sm iconic-container iconic-sm" data-width="15" data-height="16" display="none" transform="scale(8)">
    <path d="M3 12h12v-2h-12c-1.654 0-3 1.346-3 3v.001c.001 1.656 1.343 2.999 3 2.999.009 0 .018-.003.027-.003.005 0 .009.003.014.003h11.959v-2h-12c-.552 0-1-.448-1-1s.448-1 1-1z" class="iconic-book-bottom iconic-property-fill" />
    <path d="M2 .184c-1.163.413-2 1.512-2 2.816v7.382c.521-.597 1.215-1.031 2-1.24v-8.959z" class="iconic-book-spine iconic-property-fill" />
    <path d="M14 0h-1v6l-2-2-2 2v-6h-5.957c-.005 0-.009.003-.014.003-.01 0-.019-.003-.028-.003v9h12v-8c0-.552-.448-1-1-1z" class="iconic-book-cover iconic-property-fill" />
  </g>
</svg>