<svg xmlns="http://www.w3.org/2000/svg" class="iconic iconic-briefcase" width="128" height="128" viewBox="0 0 128 128">
  <g class="iconic-metadata">
    <title>Briefcase</title>
  </g>
  <defs>
    <clipPath id="iconic-size-lg-briefcase-clip-0">
      <path d="M125 52h-51v1c0 1.654-1.346 3-3 3h-16c-1.654 0-3-1.346-3-3v-1h-49c-1.13 0-2.162-.391-3-1.026v57.026h128v-57.026c-.838.635-1.87 1.026-3 1.026z" />
    </clipPath>
    <clipPath id="iconic-size-lg-briefcase-clip-1">
      <path d="M3 50h49v-1c0-1.654 1.346-3 3-3h16c1.654 0 3 1.346 3 3v1h51c1.654 0 3-1.346 3-3v-35h-128v35c0 1.654 1.346 3 3 3z" />
    </clipPath>
    <clipPath id="iconic-size-md-briefcase-clip-0">
      <path d="M1.5 12h10.5v-.75c0-.689.561-1.25 1.25-1.25h5.5c.689 0 1.25.561 1.25 1.25v.75h10.5c.813 0 1.5-.458 1.5-1v-8h-32v8c0 .542.687 1 1.5 1z" />
    </clipPath>
    <clipPath id="iconic-size-md-briefcase-clip-1">
      <path d="M30.5 13h-10.5v.75c0 .689-.561 1.25-1.25 1.25h-5.5c-.689 0-1.25-.561-1.25-1.25v-.75h-10.5c-.565 0-1.081-.156-1.5-.41v14.41h32v-14.41c-.419.254-.935.41-1.5.41z" />
    </clipPath>
    <clipPath id="iconic-size-sm-briefcase-clip-0">
      <path d="M.5 8h5.525c.065-.559.524-1 1.1-1h1.75c.576 0 1.034.441 1.1 1h5.525c.276 0 .5-.224.5-.5v-4.5h-16v4.5c0 .276.224.5.5.5z" />
    </clipPath>
    <clipPath id="iconic-size-sm-briefcase-clip-1">
      <path d="M15.5 9h-5.525c-.065.559-.524 1-1.1 1h-1.75c-.576 0-1.034-.441-1.1-1h-5.525c-.176 0-.343-.036-.5-.092v6.092h16v-6.092c-.157.056-.324.092-.5.092z" />
    </clipPath>
  </defs>
  <g class="iconic-briefcase-lg iconic-container iconic-lg" data-width="128" data-height="108" display="inline" transform="translate(0 10)">
    <path stroke="#000" stroke-width="4" stroke-linecap="square" d="M78 14v-9c0-1.657-1.343-3-3-3h-24c-1.657 0-3 1.343-3 3v11" class="iconic-briefcase-handle iconic-property-stroke" fill="none" />
    <path d="M55 48c-.55 0-1 .45-1 1v4c0 .55.45 1 1 1h16c.55 0 1-.45 1-1v-4c0-.55-.45-1-1-1h-16z" class="iconic-briefcase-body iconic-briefcase-body-buckle iconic-property-fill" />
    <path clip-path="url(#iconic-size-lg-briefcase-clip-0)" d="M126.5 108h-125c-.828 0-1.5-.672-1.5-1.5v-63c0-.828.672-1.5 1.5-1.5h125c.828 0 1.5.672 1.5 1.5v63c0 .828-.672 1.5-1.5 1.5z" class="iconic-briefcase-body iconic-briefcase-body-bottom iconic-property-fill"
    />
    <path clip-path="url(#iconic-size-lg-briefcase-clip-1)" d="M126.5 58h-125c-.828 0-1.5-.672-1.5-1.5v-43c0-.828.672-1.5 1.5-1.5h125c.828 0 1.5.672 1.5 1.5v43c0 .828-.672 1.5-1.5 1.5z" class="iconic-briefcase-body iconic-briefcase-body-top iconic-property-fill"
    />
  </g>
  <g class="iconic-briefcase-md iconic-container iconic-md" data-width="32" data-height="27" display="none" transform="scale(4) translate(0 2)">
    <path stroke="#000" stroke-linecap="square" d="M19.5 3.5v-2.5c0-.276-.224-.5-.5-.5h-6c-.276 0-.5.224-.5.5v2.5" class="iconic-briefcase-handle iconic-property-stroke" fill="none" />
    <path clip-path="url(#iconic-size-md-briefcase-clip-0)" d="M31.5 16h-31c-.276 0-.5-.224-.5-.5v-12c0-.276.224-.5.5-.5h31c.276 0 .5.224.5.5v12c0 .276-.224.5-.5.5z" class="iconic-briefcase-body iconic-briefcase-body-top iconic-property-fill" />
    <path clip-path="url(#iconic-size-md-briefcase-clip-1)" d="M31.5 27h-31c-.276 0-.5-.224-.5-.5v-17c0-.276.224-.5.5-.5h31c.276 0 .5.224.5.5v17c0 .276-.224.5-.5.5z" class="iconic-briefcase-body iconic-briefcase-body-bottom iconic-property-fill" />
    <path d="M13.25 11c-.137 0-.25.113-.25.25v2.5c0 .138.113.25.25.25h5.5c.138 0 .25-.113.25-.25v-2.5c0-.138-.113-.25-.25-.25h-5.5z" class="iconic-briefcase-body iconic-briefcase-body-buckle iconic-property-fill" />
  </g>
  <g class="iconic-briefcase-sm iconic-container iconic-sm" data-width="16" data-height="15" display="none" transform="scale(8)">
    <path stroke="#000" stroke-linecap="square" d="M10.5 3v-2.25c0-.138-.112-.25-.25-.25h-4.5c-.138 0-.25.112-.25.25v2.25" class="iconic-briefcase-handle iconic-property-stroke" fill="none" />
    <path d="M7.125 8c-.069 0-.125.056-.125.125v.75c0 .069.056.125.125.125h1.75c.069 0 .125-.056.125-.125v-.75c0-.069-.056-.125-.125-.125h-1.75z" class="iconic-briefcase-body iconic-briefcase-body-buckle iconic-property-fill" />
    <path clip-path="url(#iconic-size-sm-briefcase-clip-0)" class="iconic-briefcase-body iconic-briefcase-body-top iconic-property-fill" d="M0 3h16v8h-16z" />
    <path clip-path="url(#iconic-size-sm-briefcase-clip-1)" class="iconic-briefcase-body iconic-briefcase-body-bottom iconic-property-fill" d="M0 7h16v8h-16z" />
  </g>
</svg>