<svg version="1.1" xmlns="http://www.w3.org/2000/svg" data-icon="browser-type" width="128" height="128" class="iconic iconic-browser-type" viewBox="0 0 128 128">
  <g><title>Browser Type</title></g>

  <!-- Chrome -->
  <g data-width="128" data-height="128" class="iconic-lg iconic-container" display="inline">
    <g class="iconic-browser-type-chrome">
      <path d="M73.12 95.508c-2.957.852-6.037 1.292-9.12 1.292-11.866 0-22.84-6.438-28.64-16.801l-27.066-47.519c-5.277 9.305-8.294 20.059-8.294 31.521 0 32.009 23.504 58.512 54.191 63.235l18.93-31.727z" class="iconic-browser-type-chrome-rim iconic-browser-type-chrome-rim-left iconic-property-fill"/>
      <path d="M32.071 56.444c3.413-14.554 16.442-25.244 31.929-25.244l54.957-.003c-11.176-18.684-31.603-31.197-54.957-31.197-20.362 0-38.497 9.513-50.219 24.333l18.29 32.111z" class="iconic-browser-type-chrome-rim iconic-browser-type-chrome-rim-top iconic-property-fill"/>
      <path d="M86.348 40c6.628 6.152 10.452 14.769 10.452 24 0 6.418-1.854 12.633-5.362 17.977l-27.45 46.023h.011c35.346 0 64-28.654 64-64 0-8.489-1.658-16.59-4.66-24.003l-36.992.003z" class="iconic-browser-type-chrome-rim iconic-browser-type-chrome-rim-right iconic-property-fill"/>
      <path d="M64 40c-13.234 0-24 10.766-24 24 0 4.101 1.051 8.146 3.038 11.698 4.252 7.588 12.284 12.302 20.962 12.302 8.077 0 15.562-4.025 20.027-10.768l.013-.019c2.591-3.921 3.961-8.489 3.961-13.212 0-13.234-10.766-24-24-24z" class="iconic-browser-type-chrome-center iconic-property-fill"/>
    </g>
  </g>
  <!-- Firefox -->
  <g data-width="128" data-height="124" class="iconic-lg iconic-container" display="inline" transform="translate(0 2)">
    <g class="iconic-browser-type-firefox" display="none">
      <path d="M63.802 4c30.597 0 55.49 24.911 55.49 55.532 0 30.621-24.893 55.534-55.49 55.534-30.599 0-55.494-24.912-55.494-55.534 0-30.62 24.894-55.532 55.494-55.532m0-4c-32.805 0-59.494 26.706-59.494 59.532 0 32.827 26.689 59.534 59.494 59.534 32.803 0 59.49-26.707 59.49-59.534 0-32.826-26.687-59.532-59.49-59.532z" class="iconic-browser-type-firefox-border iconic-property-fill"/>
      <path d="M110.269 95.899c.53-.997 1.09-1.926 1.666-2.811-.067.139-.132.269-.195.39.948-1.497 2.016-2.965 3.107-4.394 2.395-3.005 4.748-5.515 6.306-8.276.32-.568.666-1.233 1.027-1.981 3.423-6.682 7.081-18.25 5.396-29.285-.28-1.97-.729-3.915-1.395-5.798.03.115.057.23.086.346-.045-.135-.072-.208-.072-.208s-1.049 3.157-2.45 7.886c.731-6.857.21-13.998-2.181-20.605-1.053-2.908-2.34-5.366-3.615-7.377-1.87-3.176-3.987-5.614-5.646-6.749.189.142.376.308.56.495-.355-.33-.56-.495-.56-.495.091.1.175.201.265.301-.226-.209-.357-.32-.357-.32s.132.714.362 1.973c-3.47-5.455-8.751-8.02-8.751-8.02s.263 1.48.66 4.638c-5.033-4.018-11.093-7.309-18.319-9.302 11.794 7.777 16.199 14.383 18.987 20.261-3.152-3.224-8.552-6.59-12.197-6.87 5.467 4.066 14.615 16.127 13.642 34.399-1.402-2.943-3.968-7.551-5.79-9.163 1.962 17.947.244 21.801-.948 26.567-.262-2.19-1.05-3.836-1.506-4.837 0 0-.21 5.609-3.854 13.6-2.76 6.052-5.61 7.922-6.87 7.71-.342-.024-.526-.171-.523-.184.09-.783.171-1.605-.037-2.128 0 0-1.164.403-1.915 1.459-.303.425-.695.842-1.21 1.232-.088.068.832-1.179.762-1.121-.453.368-.938.8-1.426 1.305-1.788 1.857-3.398 3.912-4.237 3.331.781-.239 1.405-1.233 1.574-2.208-.703.491-2.485 1.822-6.483 2.417-1.635.244-8.591 1.508-17.841-3.119 1.349-.154 3.367-.63 4.905.28-1.538-1.68-5.255-1.331-7.92-2.172-2.322-.735-5.352-3.993-7.093-5.639 7.119 1.744 14.68.485 19.051-2.503 4.418-3.022 7.035-5.228 9.382-4.706 2.343.524 3.906-1.829 2.08-3.92-1.819-2.092-6.233-4.906-12.239-3.398-4.598 1.151-8.517 4.842-14.975 2.278-.391-.155-.794-.334-1.207-.539-.412-.205 1.35.245.916-.012-1.241-.457-3.498-1.493-4.059-1.885-.092-.068.935.186.828.12-6.13-3.626-5.729-6.528-5.729-8.324 0-1.436.872-3.379 2.51-4.29.884.315 1.433.603 1.433.603s-.408-.627-.667-.931c.06-.022.121-.038.184-.056.722.244 2.346.844 3.169 1.258 1.115.56 1.49 1.131 1.49 1.131s.26-.165-.012-.736c-.112-.239-.505-.928-1.609-1.598.02-.002.039-.003.052-.006.579.23 1.193.521 1.871.905.211-.983.635-2.003.349-3.785-.201-1.254-.175-1.577-.489-2.032-.269-.39.073-.562.489-.211-.086-.267-.206-.533-.342-.799.012-.004.022-.021.029-.058 1.909-2.314 9.53-5.856 11.238-7.659.203-.215.371-.398.514-.562-.009.025-.018.056-.027.078.998-.754 1.428-1.485 1.866-2.554.445-1.087.95-3.644-.507-4.179-1.2-.287-2.219-.496-4.15-.459-1.494-.09-3.487-.128-6.159-.105-2.687.02-4.437-1.543-5.494-3.034-.213-.324-.404-.633-.574-.911-.232-.415-.388-.782-.508-1.08 1.174-4.262 3.527-7.962 7.199-10.959.222-.186-.875.127-.667-.071.248-.233 1.803-.975 2.094-1.139.377-.212-1.692-.77-3.46-.403-1.774.367-2.122.578-3.036 1.051.37-.384 1.575-.993 1.279-.928-1.926.432-4.199 1.7-6.134 3.067-.015-.174 0-.316.04-.596-.913.474-3.119 2.172-3.681 3.47 0-.282 0-.423-.035-.737-.628.577-1.231 1.254-1.777 2.01-.006.011-.016.019-.022.029-5.745-1.428-10.622-1.082-14.698.225-1.361-1.104-3.427-3.066-4.995-5.597-.014-.023-.027-.033-.039-.036-.111-.099-.139.412-.235.353-.008-.009-.017-.021-.026-.037-.97-1.745-1.796-4.719-1.875-6.848 0 0-.006.004-.01.006v-.001s-1.583.921-2.622 4.184c-.183.578-.31.92-.443 1.235-.002.005-.003.004-.005.004-.017-.068.082-1 .044-.959-.002-.006-.004-.008-.007-.001-.198.407-.761 1.051-.944 1.789-.138.551-.361.886-.449 1.576-.005.015-.01.029-.018.043-.012-.169-.023-.689-.059-.687-.005-.007-.012-.006-.018.011-.367.971-.712 2.06-1.012 3.259-.063.25-.124.505-.183.766-.01.046-.022.088-.032.134-.008.042-.017.085-.025.128-.241 1.116-.436 2.324-.567 3.627-.199 1.839-.286 3.965-.115 6.381-.003.348.052.685.041.997-.992 1.367-1.761 2.609-2.29 3.564-2.109 3.602-4.345 9.54-6.105 19.463 0 0 .046-.146.137-.408-.022.124-.045.242-.068.368 0 0 1.002-3.159 2.999-6.798-1.507 4.739-2.67 12.034-1.972 22.888.005-.068.021-.222.049-.449.008.13.015.257.023.388.029-.363.352-3.146 1.175-6.899.4 7.326 2.139 16.333 7.845 26.099 4.348 7.448 15.807 24.752 44.561 31.227-3.156-.91-5.118-2.733-5.118-2.733s10.739 3.451 18.578 3.156c-2.454-.423-2.945-1.612-2.945-1.612s27.867 1.576 37.502-11.568c-3.293 3.854-11.635 4.941-14.79 4.975 4.802-4.413 15.419-4.311 26.92-15.63 6.308-6.212 6.99-10.936 7.677-15.352-1.052 5.782-6.556 9.251-12.304 12.408z" class="iconic-browser-type-firefox-fox iconic-property-fill"/>
    </g>
  </g>

  <!-- IE -->
  <g data-width="128" data-height="126" class="iconic-lg iconic-container" display="inline" transform="translate(0 1)">
    <g class="iconic-browser-type-internetexplorer" display="none">
      <path d="M128 65.795c0-10.118-2.616-19.625-7.204-27.885 19.554-44.255-20.953-37.773-23.208-37.332-8.582 1.679-16.521 4.375-23.845 7.793-11.441-.644-22.951 2.158-32.784 8.05-9.265 5.552-16.889 13.717-21.783 23.347-2.115 4.16-3.717 8.579-4.759 13.128 14.405-16.161 24.487-22.682 30.524-25.291-11.072 9.893-20.546 21.573-28.453 34.119-3.508 5.566-6.739 11.311-9.608 17.233-.946 1.952-2.06 3.527-3.662 8.335-16.373 58.479 34.697 33.786 41.821 30.1 11.811 5.835 25.535 7.412 38.37 4.464 10.844-2.491 20.843-8.192 28.549-16.213 5.636-5.866 10.009-12.92 12.733-20.586h-30.222c-6.049 10.219-18.854 14.744-30.16 11.74-10.272-2.729-18.497-11.636-19.023-22.461-.018-.377-.027-.754-.027-1.131h82.267c.312-2.426.474-4.898.474-7.408zm-10.745-56.601c4.953 3.343 8.926 8.593 2.103 26.274-6.543-10.523-16.388-18.778-28.09-23.316 5.323-2.571 18.505-8.008 25.986-2.958 4.953 3.343-7.482-5.05 0 0zm-105.262 108.079c-4.034-4.137-4.747-14.214 4.155-32.576 4.493 12.917 13.458 23.74 25.046 30.61-5.763 3.172-21.062 10.314-29.2 1.967-4.034-4.137 8.138 8.347 0 0zm33.139-59.799c.38-10.872 8.488-19.968 18.813-22.758 10.621-2.87 22.567 1.004 28.924 10.118 2.586 3.708 4.091 8.118 4.249 12.64h-51.985z" class="iconic-property-fill"/>
    </g>
  </g>

  <!-- Safari -->
  <g data-width="128" data-height="128" class="iconic-lg iconic-container" display="inline">
    <g class="iconic-browser-type-safari" display="none">
      <path d="M64 4c33.084 0 60 26.916 60 60s-26.916 60-60 60-60-26.916-60-60 26.916-60 60-60m0-4c-35.346 0-64 28.654-64 64s28.654 64 64 64 64-28.654 64-64-28.654-64-64-64z" class="iconic-browser-type-safari-border iconic-property-fill"/>
      <path class="iconic-browser-type-safari-needle iconic-property-fill" d="M103.779 24.044l-32.177 47.028-47.381 32.884 32.884-46.674z"/>
      <path stroke="#000" stroke-width="1.414" class="iconic-browser-type-safari-tick iconic-browser-type-safari-tick-large iconic-property-stroke" d="M64 7.484v11.551m-11.026-10.465l2.254 11.329m-12.856-8.113l4.421 10.672m-14.191-5.449l6.417 9.604m-14.982-2.576l8.168 8.168m-15.196.397l9.604 6.417m-14.827 3.353l10.672 4.421m-13.888 6.181l11.329 2.254m-12.415 8.772h11.551m-10.465 11.026l11.329-2.254m-8.113 12.856l10.672-4.421m-5.449 14.191l9.604-6.417m5.989 22.01l6.417-9.604m3.353 14.827l4.421-10.672m6.181 13.888l2.254-11.329m8.772 12.415v-11.551m11.026 10.465l-2.254-11.329m12.856 8.113l-4.421-10.672m14.191 5.449l-6.417-9.604m14.982 2.576l-8.168-8.168m15.196-.397l-9.604-6.417m14.827-3.353l-10.672-4.421m13.888-6.181l-11.329-2.254m12.415-8.772h-11.551m10.465-11.026l-11.329 2.254m8.113-12.856l-10.672 4.421m5.449-14.191l-9.604 6.417m-5.989-22.01l-6.417 9.604m-3.353-14.827l-4.421 10.672m-6.181-13.888l-2.254 11.329" fill="none"/>
      <path stroke="#000" stroke-width="1.414" class="iconic-browser-type-safari-tick iconic-browser-type-safari-tick-small iconic-property-stroke" d="M58.461 7.756l.577 5.865m-11.444-3.703l1.711 5.639m-11.946-1.399l2.778 5.197m-11.99.958l3.738 4.555m-11.572 3.279l4.555 3.738m-10.71 5.474l5.197 2.778m-9.437 7.457l5.639 1.711m-7.801 9.156l5.865.577m-5.865 10.502l5.865-.578m-3.703 11.444l5.639-1.711m-1.399 11.946l5.197-2.778m.958 11.99l4.555-3.738m3.279 11.572l3.738-4.555m5.474 10.71l2.778-5.197m7.457 9.437l1.711-5.639m9.156 7.8l.577-5.864m10.502 5.864l-.578-5.864m11.444 3.703l-1.711-5.639m11.946 1.399l-2.778-5.197m11.99-.958l-3.738-4.555m11.572-3.279l-4.555-3.738m10.71-5.474l-5.197-2.778m9.437-7.457l-5.639-1.711m7.8-9.155l-5.864-.578m5.864-10.501l-5.864.577m3.703-11.444l-5.639 1.711m1.399-11.946l-5.197 2.778m-.958-11.99l-4.555 3.738m-3.279-11.572l-3.738 4.555m-5.474-10.71l-2.778 5.197m-7.457-9.437l-1.711 5.639m-9.155-7.801l-.578 5.865" fill="none"/>
    </g>
  </g>



  <!-- Chrome -->
  <g data-width="32" data-height="32" class="iconic-md iconic-container" display="none" transform="scale(4)">
    <g class="iconic-browser-type-chrome">
      <path d="M18.28 23.877c-.739.213-1.509.323-2.28.323-2.966 0-5.71-1.609-7.16-4.2l-6.766-11.88c-1.319 2.326-2.074 5.015-2.074 7.88 0 8.002 5.876 14.628 13.548 15.809l4.732-7.932z" class="iconic-browser-type-chrome-rim iconic-browser-type-chrome-rim-left iconic-property-fill"/>
      <path d="M8.018 14.111c.853-3.639 4.111-6.311 7.982-6.311l13.739-.001c-2.794-4.671-7.901-7.799-13.739-7.799-5.091 0-9.624 2.378-12.555 6.083l4.572 8.028z" class="iconic-browser-type-chrome-rim iconic-browser-type-chrome-rim-top iconic-property-fill"/>
      <path d="M21.587 10c1.657 1.538 2.613 3.692 2.613 6 0 1.605-.464 3.158-1.34 4.494l-6.862 11.506h.003c8.837 0 16-7.163 16-16 0-2.122-.414-4.148-1.165-6.001l-9.248.001z" class="iconic-browser-type-chrome-rim iconic-browser-type-chrome-rim-right iconic-property-fill"/>
      <path d="M16 10c-3.308 0-6 2.692-6 6 0 1.025.263 2.036.76 2.924 1.063 1.897 3.071 3.076 5.24 3.076 2.019 0 3.89-1.006 5.007-2.692l.003-.005c.648-.98.99-2.122.99-3.303 0-3.308-2.692-6-6-6z" class="iconic-browser-type-chrome-center iconic-property-fill"/>
    </g>
  </g>
  <!-- Firefox -->
  <g data-width="32" data-height="31" class="iconic-md iconic-container" display="none" transform="scale(4)">
    <g class="iconic-browser-type-firefox" display="none">
      <path d="M15.951 1c7.649 0 13.873 6.228 13.873 13.883 0 7.655-6.223 13.883-13.873 13.883-7.65 0-13.873-6.228-13.873-13.883 0-7.655 6.224-13.883 13.873-13.883m0-1c-8.201 0-14.873 6.676-14.873 14.883 0 8.207 6.672 14.883 14.873 14.883s14.873-6.677 14.873-14.883c0-8.207-6.672-14.883-14.873-14.883z" class="iconic-browser-type-firefox-border iconic-property-fill"/>
      <path d="M27.567 23.975c.133-.249.273-.482.416-.703-.017.035-.033.067-.049.098.237-.374.504-.741.777-1.099.599-.751 1.187-1.379 1.576-2.069.08-.142.167-.308.257-.495.856-1.671 1.77-4.563 1.349-7.321-.07-.492-.182-.979-.349-1.45.007.029.014.058.021.086-.011-.034-.018-.052-.018-.052s-.262.789-.612 1.972c.183-1.714.053-3.499-.545-5.151-.263-.727-.585-1.342-.904-1.844-.468-.794-.997-1.403-1.411-1.687.047.035.094.077.14.124-.089-.082-.14-.124-.14-.124.023.025.044.05.066.075-.056-.052-.089-.08-.089-.08s.033.178.09.493c-.868-1.364-2.188-2.005-2.188-2.005s.066.37.165 1.159c-1.258-1.004-2.773-1.827-4.58-2.325 2.949 1.944 4.05 3.596 4.747 5.065-.788-.806-2.138-1.647-3.049-1.718 1.367 1.016 3.654 4.032 3.411 8.6-.35-.736-.992-1.888-1.448-2.291.49 4.487.061 5.45-.237 6.642-.065-.548-.263-.959-.376-1.209 0 0-.053 1.402-.964 3.4-.69 1.513-1.403 1.98-1.717 1.927-.086-.006-.132-.043-.131-.046.022-.196.043-.401-.009-.532 0 0-.291.101-.479.365-.076.106-.174.21-.302.308-.022.017.208-.295.191-.28-.113.092-.234.2-.356.326-.447.464-.85.978-1.059.833.195-.06.351-.308.394-.552-.176.123-.621.456-1.621.604-.409.061-2.148.377-4.46-.78.337-.038.842-.157 1.226.07-.385-.42-1.314-.333-1.98-.543-.581-.184-1.338-.998-1.773-1.41 1.78.436 3.67.121 4.763-.626 1.104-.755 1.759-1.307 2.345-1.177.586.131.977-.457.52-.98-.455-.523-1.558-1.226-3.06-.85-1.149.288-2.129 1.211-3.744.569-.098-.039-.199-.084-.302-.135-.103-.051.338.061.229-.003-.31-.114-.875-.373-1.015-.471-.023-.017.234.047.207.03-1.532-.907-1.432-1.632-1.432-2.081 0-.359.218-.845.627-1.073.221.079.358.151.358.151s-.102-.157-.167-.233c.015-.006.03-.01.046-.014.18.061.587.211.792.315.279.14.372.283.372.283s.065-.041-.003-.184c-.028-.06-.126-.232-.402-.4.005 0 .01-.001.013-.002.145.057.298.13.468.226.053-.246.159-.501.087-.946-.05-.314-.044-.394-.122-.508-.067-.098.018-.141.122-.053-.021-.067-.051-.133-.086-.2.003-.001.005-.005.007-.015.477-.579 2.382-1.464 2.809-1.915.051-.054.093-.1.129-.141-.002.006-.005.014-.007.019.25-.189.357-.371.467-.639.111-.272.238-.911-.127-1.045-.3-.072-.555-.124-1.038-.115-.373-.022-.872-.032-1.54-.026-.672.005-1.109-.386-1.373-.758-.053-.081-.101-.158-.143-.228-.058-.104-.097-.196-.127-.27.294-1.065.882-1.99 1.8-2.74.056-.047-.219.032-.167-.018.062-.058.451-.244.523-.285.094-.053-.423-.193-.865-.101-.444.092-.53.144-.759.263.093-.096.394-.248.32-.232-.482.108-1.05.425-1.534.767-.004-.043 0-.079.01-.149-.229.119-.78.543-.921.868 0-.071 0-.106-.009-.184-.157.144-.308.314-.444.502-.002.003-.004.005-.005.007-1.436-.357-2.655-.271-3.675.056-.34-.276-.857-.767-1.249-1.399-.004-.006-.007-.008-.01-.009-.028-.025-.035.103-.059.088-.002-.002-.004-.005-.006-.009-.242-.436-.449-1.18-.469-1.712 0 0-.002.001-.003.002 0 0-.396.23-.655 1.046-.046.144-.078.23-.111.309 0 .001-.001.001-.001.001-.004-.017.02-.25.011-.24-.001-.002-.001-.002-.002 0-.05.102-.19.263-.236.447-.035.138-.09.222-.112.394-.001.004-.003.007-.005.011-.003-.042-.006-.172-.015-.172-.001-.002-.003-.001-.005.003-.092.243-.178.515-.253.815-.016.063-.031.126-.046.192-.002.011-.005.022-.008.034-.002.01-.004.021-.006.032-.06.279-.109.581-.142.907-.05.46-.072.991-.029 1.595-.001.087.013.171.01.249-.248.342-.44.652-.572.891-.527.901-1.086 2.385-1.526 4.866 0 0 .011-.036.034-.102-.006.031-.011.061-.017.092 0 0 .251-.79.75-1.7-.377 1.185-.667 3.009-.493 5.722.001-.017.005-.056.012-.112.002.032.004.064.006.097.007-.091.088-.787.294-1.725.1 1.831.535 4.083 1.961 6.525 1.087 1.862 3.952 6.188 11.14 7.807-.789-.228-1.28-.683-1.28-.683s2.685.863 4.644.789c-.614-.106-.736-.403-.736-.403s6.967.394 9.376-2.892c-.823.964-2.909 1.235-3.697 1.244 1.2-1.103 3.855-1.078 6.73-3.908 1.577-1.553 1.748-2.734 1.919-3.838-.263 1.445-1.639 2.313-3.076 3.102z" class="iconic-browser-type-firefox-fox iconic-property-fill"/>
    </g>
  </g>

  <!-- IE -->
  <g data-width="32" data-height="32" class="iconic-md iconic-container" display="none" transform="scale(4)">
    <g class="iconic-browser-type-internetexplorer" display="none">
      <path d="M32 16.449c0-2.53-.654-4.906-1.801-6.971 4.889-11.064-5.238-9.443-5.802-9.333-2.145.42-4.13 1.094-5.961 1.948-2.86-.161-5.738.539-8.196 2.013-2.316 1.388-4.222 3.429-5.446 5.837-.529 1.04-.929 2.145-1.19 3.282 3.601-4.04 6.122-5.67 7.631-6.323-2.768 2.473-5.136 5.393-7.113 8.53-.877 1.392-1.685 2.828-2.402 4.308-.236.488-.515.882-.916 2.084-4.093 14.62 8.674 8.447 10.455 7.525 2.953 1.459 6.384 1.853 9.592 1.116 2.711-.623 5.211-2.048 7.137-4.053 1.409-1.466 2.502-3.23 3.183-5.146h-7.556c-1.512 2.555-4.713 3.686-7.54 2.935-2.568-.682-4.624-2.909-4.756-5.615-.005-.094-.007-.189-.007-.283h20.567c.078-.606.118-1.224.118-1.852zm-2.686-14.15c1.238.836 2.232 2.148.526 6.568-1.636-2.631-4.097-4.695-7.022-5.829 1.331-.643 4.626-2.002 6.497-.739 1.238.836-1.87-1.263 0 0zm-26.315 27.02c-1.008-1.034-1.187-3.554 1.039-8.144 1.123 3.229 3.365 5.935 6.261 7.652-1.441.793-5.266 2.578-7.3.492-1.009-1.034 2.035 2.087 0 0zm8.285-14.95c.095-2.718 2.122-4.992 4.703-5.689 2.655-.718 5.642.251 7.231 2.53.647.927 1.023 2.029 1.062 3.16h-12.997z" class="iconic-property-fill"/>
    </g>
  </g>

  <!-- Safari -->
  <g data-width="32" data-height="32" class="iconic-md iconic-container" display="none" transform="scale(4)">
    <g class="iconic-browser-type-safari" display="none">
      <path d="M16 1c8.271 0 15 6.729 15 15s-6.729 15-15 15-15-6.729-15-15 6.729-15 15-15m0-1c-8.837 0-16 7.163-16 16s7.163 16 16 16 16-7.163 16-16-7.163-16-16-16z" class="iconic-browser-type-safari-border iconic-property-fill"/>
      <path class="iconic-browser-type-safari-needle iconic-property-fill" d="M25.945 6.011l-8.044 11.757-11.845 8.221 8.221-11.669z"/>
      <path stroke="#000" stroke-width=".354" class="iconic-browser-type-safari-tick iconic-browser-type-safari-tick-large iconic-property-stroke" d="M16 1.871v2.888m-2.756-2.616l.563 2.832m-3.214-2.028l1.105 2.667m-3.548-1.362l1.605 2.401m-3.746-.644l2.042 2.042m-3.799.099l2.401 1.605m-3.706.838l2.667 1.105m-3.471 1.546l2.832.563m-3.104 2.193h2.888m-2.616 2.756l2.832-.563m-2.028 3.214l2.667-1.105m-1.362 3.548l2.401-1.605m1.497 5.503l1.605-2.401m.838 3.706l1.105-2.667m1.546 3.471l.563-2.832m2.193 3.104v-2.888m2.756 2.616l-.563-2.832m3.214 2.028l-1.105-2.667m3.548 1.362l-1.605-2.401m3.746.644l-2.042-2.042m3.799-.099l-2.401-1.605m3.706-.838l-2.667-1.105m3.471-1.546l-2.832-.563m3.104-2.193h-2.888m2.616-2.756l-2.832.563m2.028-3.214l-2.667 1.105m1.362-3.548l-2.401 1.605m-1.497-5.503l-1.605 2.401m-.838-3.706l-1.105 2.667m-1.546-3.471l-.563 2.832" fill="none"/>
      <path stroke="#000" stroke-width=".354" class="iconic-browser-type-safari-tick iconic-browser-type-safari-tick-small iconic-property-stroke" d="M14.615 1.939l.144 1.466m-2.86-.926l.427 1.41m-2.986-.35l.694 1.3m-2.997.239l.934 1.139m-2.893.82l1.139.934m-2.678 1.369l1.3.694m-2.36 1.865l1.41.427m-1.95 2.289l1.466.144m-1.466 2.626l1.466-.144m-.926 2.86l1.41-.427m-.35 2.986l1.3-.694m.239 2.997l1.139-.934m.82 2.893l.934-1.139m1.369 2.678l.694-1.3m1.865 2.359l.427-1.409m2.289 1.95l.144-1.466m2.626 1.466l-.144-1.466m2.86.925l-.427-1.409m2.986.35l-.694-1.3m2.997-.239l-.934-1.139m2.893-.82l-1.139-.934m2.678-1.369l-1.3-.694m2.359-1.865l-1.409-.427m1.95-2.289l-1.466-.144m1.466-2.626l-1.466.144m.925-2.86l-1.409.427m.35-2.986l-1.3.694m-.239-2.997l-1.139.934m-.82-2.893l-.934 1.139m-1.369-2.678l-.694 1.3m-1.865-2.36l-.427 1.41m-2.289-1.95l-.144 1.466" fill="none"/>
    </g>
  </g>



  <!-- Chrome -->
  <g data-width="16" data-height="16" class="iconic-sm iconic-container" display="none" transform="scale(8)">
    <g class="iconic-browser-type-chrome">
      <path d="M9.14 11.938c-.37.107-.755.162-1.14.162-1.483 0-2.855-.805-3.58-2.1l-3.383-5.94c-.66 1.163-1.037 2.508-1.037 3.94 0 4.001 2.938 7.314 6.774 7.904l2.366-3.966z" class="iconic-browser-type-chrome-rim iconic-browser-type-chrome-rim-left iconic-property-fill"/>
      <path d="M4.009 7.056c.426-1.819 2.055-3.156 3.991-3.156h6.87c-1.397-2.335-3.95-3.9-6.87-3.9-2.545 0-4.812 1.189-6.277 3.042l2.286 4.014z" class="iconic-browser-type-chrome-rim iconic-browser-type-chrome-rim-top iconic-property-fill"/>
      <path d="M10.794 5c.829.769 1.306 1.846 1.306 3 0 .802-.232 1.579-.67 2.247l-3.431 5.753h.001c4.418 0 8-3.582 8-8 0-1.061-.207-2.074-.582-3h-4.624z" class="iconic-browser-type-chrome-rim iconic-browser-type-chrome-rim-right iconic-property-fill"/>
      <path d="M8 5c-1.654 0-3 1.346-3 3 0 .513.131 1.018.38 1.462.531.949 1.535 1.538 2.62 1.538 1.01 0 1.945-.503 2.503-1.346l.002-.002c.324-.49.495-1.061.495-1.652 0-1.654-1.346-3-3-3z" class="iconic-browser-type-chrome-center iconic-property-fill"/>
    </g>
  </g>
  <!-- Firefox -->
  <g data-width="16" data-height="16" class="iconic-sm iconic-container" display="none" transform="scale(8)">
    <g class="iconic-browser-type-firefox" display="none">
      <path d="M7.975.5c3.825 0 6.936 3.114 6.936 6.941 0 3.828-3.112 6.942-6.936 6.942-3.825 0-6.937-3.114-6.937-6.942 0-3.827 3.112-6.941 6.937-6.941m0-.5c-4.101 0-7.437 3.338-7.437 7.441s3.336 7.442 7.437 7.442c4.1 0 7.436-3.338 7.436-7.442 0-4.103-3.336-7.441-7.436-7.441z" class="iconic-browser-type-firefox-border iconic-property-fill"/>
      <path d="M13.784 11.987c.066-.125.136-.241.208-.351-.008.017-.017.034-.024.049.118-.187.252-.371.388-.549.299-.376.594-.689.788-1.034.04-.071.083-.154.128-.248.428-.835.885-2.281.674-3.661-.035-.246-.091-.489-.174-.725.004.014.007.029.011.043-.006-.017-.009-.026-.009-.026s-.131.395-.306.986c.091-.857.026-1.75-.273-2.576-.132-.363-.292-.671-.452-.922-.234-.397-.498-.702-.706-.844.024.018.047.039.07.062-.044-.041-.07-.062-.07-.062.011.013.022.025.033.038-.028-.026-.045-.04-.045-.04s.017.089.045.247c-.434-.682-1.094-1.002-1.094-1.002s.033.185.083.58c-.629-.502-1.387-.914-2.29-1.163 1.474.972 2.025 1.798 2.373 2.533-.394-.403-1.069-.824-1.525-.859.683.508 1.827 2.016 1.705 4.3-.175-.368-.496-.944-.724-1.145.245 2.243.03 2.725-.118 3.321-.033-.274-.131-.479-.188-.605 0 0-.026.701-.482 1.7-.345.757-.701.99-.859.964-.043-.003-.066-.021-.065-.023.011-.098.021-.201-.005-.266 0 0-.145.05-.239.182-.038.053-.087.105-.151.154-.011.009.104-.147.095-.14-.057.046-.117.1-.178.163-.224.232-.425.489-.53.416.098-.03.176-.154.197-.276-.088.061-.311.228-.81.302-.204.03-1.074.188-2.23-.39.169-.019.421-.079.613.035-.192-.21-.657-.166-.99-.272-.29-.092-.669-.499-.887-.705.89.218 1.835.061 2.381-.313.552-.378.879-.653 1.173-.588.293.066.488-.229.26-.49-.227-.262-.779-.613-1.53-.425-.575.144-1.065.605-1.872.285-.049-.019-.099-.042-.151-.067-.051-.026.169.031.114-.002-.155-.057-.437-.187-.507-.236-.011-.009.117.023.104.015-.766-.453-.716-.816-.716-1.04 0-.179.109-.422.314-.536.111.039.179.075.179.075s-.051-.078-.083-.116c.007-.003.015-.005.023-.007.09.031.293.105.396.157.139.07.186.141.186.141s.033-.021-.002-.092c-.014-.03-.063-.116-.201-.2.003 0 .005 0 .007-.001.072.029.149.065.234.113.026-.123.079-.25.044-.473-.025-.157-.022-.197-.061-.254-.034-.049.009-.07.061-.026-.011-.033-.026-.067-.043-.1.002-.001.003-.003.004-.007.239-.289 1.191-.732 1.405-.957.025-.027.046-.05.064-.07-.001.003-.002.007-.003.01.125-.094.179-.186.233-.319.056-.136.119-.455-.063-.522-.15-.036-.277-.062-.519-.057-.187-.011-.436-.016-.77-.013-.336.003-.555-.193-.687-.379-.027-.041-.051-.079-.072-.114-.029-.052-.049-.098-.064-.135.147-.533.441-.995.9-1.37.028-.023-.109.016-.083-.009.031-.029.225-.122.262-.142.047-.027-.212-.096-.432-.05-.222.046-.265.072-.38.131.046-.048.197-.124.16-.116-.241.054-.525.212-.767.383-.002-.022 0-.04.005-.074-.114.059-.39.271-.46.434 0-.035 0-.053-.004-.092-.079.072-.154.157-.222.251-.001.001-.002.002-.003.004-.718-.178-1.328-.135-1.837.028-.17-.138-.428-.383-.624-.7-.002-.003-.003-.004-.005-.005-.014-.012-.017.052-.029.044-.001-.001-.002-.003-.003-.005-.121-.218-.225-.59-.234-.856 0 0-.001.001-.001.001s-.198.115-.328.523c-.023.072-.039.115-.055.154 0 .001 0 .001-.001 0-.002-.009.01-.125.005-.12 0-.001-.001-.001-.001 0-.025.051-.095.131-.118.224-.017.069-.045.111-.056.197-.001.002-.001.003-.002.005-.002-.021-.003-.086-.007-.086-.001-.001-.002-.001-.002.001-.046.121-.089.258-.127.407-.008.031-.016.063-.023.096-.001.006-.003.011-.004.017-.001.005-.002.011-.003.016-.03.139-.054.29-.071.453-.025.23-.036.496-.014.798 0 .044.006.086.005.125-.124.171-.22.326-.286.445-.264.45-.543 1.192-.763 2.433 0 0 .006-.018.017-.051-.003.016-.006.03-.008.046 0 0 .125-.395.375-.85-.188.592-.334 1.504-.246 2.861.001-.009.003-.028.006-.056.001.016.002.032.003.049.004-.045.044-.393.147-.862.05.916.267 2.042.981 3.262.543.931 1.976 3.094 5.57 3.903-.395-.114-.64-.342-.64-.342s1.342.431 2.322.395c-.307-.053-.368-.202-.368-.202s3.483.197 4.688-1.446c-.412.482-1.454.618-1.849.622.6-.552 1.927-.539 3.365-1.954.788-.776.874-1.367.96-1.919-.132.723-.819 1.156-1.538 1.551z" class="iconic-browser-type-firefox-fox iconic-property-fill"/>
    </g>
  </g>

  <!-- IE -->
  <g data-width="16" data-height="16" class="iconic-sm iconic-container" display="none" transform="scale(8)">
    <g class="iconic-browser-type-internetexplorer" display="none">
      <path d="M16 8.224c0-1.265-.327-2.453-.9-3.486 2.444-5.532-2.619-4.722-2.901-4.667-1.073.21-2.065.547-2.981.974-1.43-.08-2.869.27-4.098 1.006-1.158.694-2.111 1.715-2.723 2.918-.264.52-.465 1.072-.595 1.641 1.801-2.02 3.061-2.835 3.816-3.161-1.384 1.237-2.568 2.697-3.557 4.265-.439.696-.842 1.414-1.201 2.154-.118.244-.258.441-.458 1.042-2.047 7.31 4.337 4.223 5.228 3.763 1.476.729 3.192.926 4.796.558 1.355-.311 2.605-1.024 3.569-2.027.705-.733 1.251-1.615 1.592-2.573h-3.778c-.756 1.277-2.357 1.843-3.77 1.468-1.284-.341-2.312-1.454-2.378-2.808-.002-.047-.003-.094-.003-.141h10.283c.039-.303.059-.612.059-.926zm-1.343-7.075c.619.418 1.116 1.074.263 3.284-.818-1.315-2.049-2.347-3.511-2.914.665-.321 2.313-1.001 3.248-.37.619.418-.935-.631 0 0zm-13.158 13.51c-.504-.517-.593-1.777.519-4.072.562 1.615 1.682 2.968 3.131 3.826-.72.396-2.633 1.289-3.65.246-.504-.517 1.017 1.043 0 0zm4.142-7.475c.048-1.359 1.061-2.496 2.352-2.845 1.328-.359 2.821.126 3.615 1.265.323.464.511 1.015.531 1.58h-6.498z" class="iconic-property-fill"/>
    </g>
  </g>

  <!-- Safari -->
  <g data-width="16" data-height="16" class="iconic-sm iconic-container" display="none" transform="scale(8)">
    <g class="iconic-browser-type-safari" display="none">
      <path d="M8 .53c4.119 0 7.47 3.351 7.47 7.47s-3.351 7.47-7.47 7.47-7.47-3.351-7.47-7.47 3.351-7.47 7.47-7.47m0-.53c-4.418 0-8 3.582-8 8s3.582 8 8 8 8-3.582 8-8-3.582-8-8-8z" class="iconic-browser-type-safari-border iconic-property-fill"/>
      <path class="iconic-browser-type-safari-needle iconic-property-fill" d="M12.972 3.006l-4.022 5.879-5.923 4.111 4.111-5.834z"/>
      <path stroke="#000" stroke-width=".177" class="iconic-browser-type-safari-tick iconic-browser-type-safari-tick-large iconic-property-stroke" d="M8 .935v1.444m-1.378-1.308l.282 1.416m-1.608-1.014l.553 1.334m-1.774-.681l.802 1.201m-1.872-.322l1.021 1.021m-1.9.049l1.201.802m-1.854.419l1.334.553m-1.736.773l1.416.282m-1.552 1.096h1.444m-1.308 1.378l1.416-.281m-1.014 1.607l1.334-.553m-.681 1.774l1.201-.802m.748 2.751l.802-1.201m.419 1.854l.553-1.334m.773 1.736l.282-1.416m1.096 1.552v-1.444m1.378 1.308l-.281-1.416m1.607 1.014l-.553-1.334m1.774.681l-.802-1.201m1.872.322l-1.021-1.021m1.9-.049l-1.201-.802m1.854-.419l-1.334-.553m1.736-.773l-1.416-.281m1.552-1.097h-1.444m1.308-1.378l-1.416.282m1.014-1.608l-1.334.553m.681-1.774l-1.201.802m-.748-2.751l-.802 1.201m-.419-1.854l-.553 1.334m-.773-1.736l-.281 1.416" fill="none"/>
      <path stroke="#000" stroke-width=".177" class="iconic-browser-type-safari-tick iconic-browser-type-safari-tick-small iconic-property-stroke" d="M7.308.97l.072.733m-1.431-.463l.214.705m-1.493-.175l.347.649m-1.499.12l.468.569m-1.447.41l.569.468m-1.338.684l.649.347m-1.179.932l.705.214m-.975 1.145l.733.072m-.733 1.312l.733-.072m-.463 1.431l.705-.214m-.175 1.493l.649-.347m.12 1.499l.569-.468m.41 1.447l.468-.569m.684 1.338l.347-.649m.932 1.179l.214-.705m1.145.975l.072-.733m1.312.733l-.072-.733m1.431.463l-.214-.705m1.493.175l-.347-.649m1.499-.12l-.468-.569m1.447-.41l-.569-.468m1.338-.684l-.649-.347m1.179-.932l-.705-.214m.975-1.145l-.733-.072m.733-1.312l-.733.072m.463-1.431l-.705.214m.175-1.493l-.649.347m-.12-1.499l-.569.468m-.41-1.447l-.468.569m-.684-1.338l-.347.649m-.932-1.179l-.214.705m-1.145-.975l-.072.733" fill="none"/>
    </g>
  </g>

<script class="iconic-api" type="application/ecmascript">
//<![CDATA[
var iconicApis=window._Iconic?window._Iconic.smartIconApis:{};iconicApis["browser-type"]=iconicApis["browser-type"]||function(t){var e=function(e){t.setAttribute("data-type",e);var a,r,i,n,o=t.querySelectorAll(".iconic-browser-type-chrome"),c=t.querySelectorAll(".iconic-browser-type-firefox"),s=t.querySelectorAll(".iconic-browser-type-internetexplorer"),l=t.querySelectorAll(".iconic-browser-type-safari");switch(a=r=i=n="none",e){case"internetexplorer":i="inline";break;case"firefox":r="inline";break;case"safari":n="inline";break;default:a="inline"}for(var u=0;u<o.length;u++)o[u].setAttribute("display",a),c[u].setAttribute("display",r),s[u].setAttribute("display",i),l[u].setAttribute("display",n)},a=function(){var a=t.getAttribute("data-type");a&&e(a)};return{update:a,setType:e}};
//]]>
</script>
</svg>
