<svg xmlns="http://www.w3.org/2000/svg" class="iconic iconic-brush" width="128" height="128" viewBox="0 0 128 128">
  <g class="iconic-metadata">
    <title>Brush</title>
  </g>
  <defs>
    <clipPath id="iconic-size-lg-brush-clip-0">
      <path d="M40 0v76.665c.124.032.25.055.374.089 6.147 1.682 10.92 5.918 13.498 11.246h74.127v-88h-88z" />
    </clipPath>
    <clipPath id="iconic-size-md-brush-clip-0">
      <path d="M10 0v15.878c.231.009.463.016.692.047 1.927.262 3.638 1.26 4.817 2.81.741.974 1.215 2.091 1.401 3.265h15.089v-22h-22z" />
    </clipPath>
    <clipPath id="iconic-size-sm-brush-clip-0">
      <path d="M7 0v6.322c1.231.474 2.205 1.448 2.679 2.678h6.321v-9h-9z" />
    </clipPath>
  </defs>
  <g class="iconic-brush-lg iconic-container iconic-lg" data-width="128" data-height="126" display="inline" transform="translate(0 1)">
    <path d="M5.061 124.777c-1.737-.472-3.429-1.077-5.061-1.805 10.557-6.608 18.494-16.982 21.879-29.221l.184-.667c2.192-6.635 9.285-10.477 16.137-8.614 7.078 1.925 11.262 9.206 9.327 16.231l-.28 1.018c-5.447 17.659-24.138 27.967-42.187 23.058z" class="iconic-brush-head iconic-property-accent iconic-property-fill"
    />
    <path clip-path="url(#iconic-size-lg-brush-clip-0)" d="M40.949 77.154l4.103-12.308c.524-1.572 2.013-3.665 3.327-4.675l73.244-56.342c1.313-1.01 2.826-1.381 3.378-.829s.168 2.054-.859 3.355l-56.282 71.291c-1.027 1.3-3.06 2.955-4.542 3.696l-10.633 5.317c-1.482.741-3.732.503-5.026-.532l-5.315-4.252c-1.294-1.035-1.918-3.148-1.394-4.72z"
    class="iconic-brush-stem iconic-property-fill" />
  </g>
  <g class="iconic-brush-md iconic-container iconic-md" data-width="32" data-height="32" display="none" transform="scale(4)">
    <path d="M3.197 31.912c-1.121-.152-2.204-.502-3.197-1.027 2.95-1.791 4.991-4.844 5.466-8.312l.026-.191c.405-2.243 2.516-3.794 4.796-3.484 2.344.319 3.991 2.483 3.673 4.825l-.037.271c-.839 5.081-5.591 8.616-10.727 7.917z" class="iconic-brush-head iconic-property-accent iconic-property-fill"
    />
    <path clip-path="url(#iconic-size-md-brush-clip-0)" d="M29.792.89l-16.585 12.22c-.667.491-1.507 1.491-1.877 2.232l-1.652 3.315c-.37.741-.195 1.818.39 2.405l.873.875c.585.587 1.66.762 2.401.392l3.317-1.658c.741-.37 1.74-1.212 2.231-1.878l12.22-16.585c.491-.667.666-1.431.39-1.708s-1.041-.102-1.708.39z"
    class="iconic-brush-stem iconic-property-fill" />
  </g>
  <g class="iconic-brush-sm iconic-container iconic-sm" data-width="16" data-height="16" display="none" transform="scale(8)">
    <path d="M8 10.666c0-1.473-1.197-2.666-2.67-2.666-1.473 0-2.666 1.193-2.666 2.666l.002.002c-.002 1.973-1.074 3.693-2.666 4.615l.008.01c.783.449 1.689.707 2.658.707 2.945 0 5.334-2.389 5.334-5.334z" class="iconic-brush-head iconic-property-accent iconic-property-fill"
    />
    <path clip-path="url(#iconic-size-sm-brush-clip-0)" d="M14.186.581l-5.372 3.838c-.449.321-1.014.982-1.261 1.476l-.106.211c-.247.494-.131 1.211.26 1.601l.586.586c.391.391 1.108.507 1.601.26l.211-.106c.494-.247 1.155-.811 1.476-1.261l3.837-5.372c.321-.449.357-1.038.081-1.314s-.864-.24-1.314.081z"
    class="iconic-brush-stem iconic-property-fill" />
  </g>
</svg>