<svg version="1.1" xmlns="http://www.w3.org/2000/svg" data-icon="cloud-transfer" width="128" height="128" class="iconic iconic-cloud-transfer" viewBox="0 0 128 128">
  <g><title>Cloud Transfer</title></g>
  <defs>
    <clipPath id="iconic-size-lg-cloud-download-clip-0">
      <path d="M0 0v86h50v-7.1c-2.4-2.2-4-5.4-4-8.9 0-6.6 5.4-12 12-12s12 5.4 12 12c0 3.5-1.6 6.7-4 8.9v7.1h62v-86h-128z"/>
    </clipPath>
    <clipPath id="iconic-size-md-cloud-download-clip-0">
      <path d="M0 0v22h12v-2.1c-.6-.6-1-1.5-1-2.4 0-1.9 1.6-3.5 3.5-3.5s3.5 1.6 3.5 3.5c0 1-.4 1.8-1 2.4v2.1h15v-22h-32z"/>
    </clipPath>
    <clipPath id="iconic-size-sm-cloud-download-clip-0">
      <path d="M0 0v12h6v-1c0-1.1.9-2 2-2s2 .9 2 2v1h6v-12h-16z"/>
    </clipPath>
    <clipPath id="iconic-size-lg-cloud-upload-clip-0">
      <path d="M0 0v86h42.7l15.3-26 15.3 26h54.7v-86z"/>
    </clipPath>
    <clipPath id="iconic-size-md-cloud-upload-clip-0">
      <path d="M0 0v22h9.5l5-6.5 5 6.5h12.5v-22z"/>
    </clipPath>
    <clipPath id="iconic-size-sm-cloud-upload-clip-0">
      <path d="M0 0v12h4l4-4 4 4h4v-12z"/>
    </clipPath>
  </defs>
  <g data-width="128" data-height="128" class="iconic-lg iconic-container" display="inline">
    <g class="iconic-cloud-download">
      <path stroke="#000" stroke-width="8" stroke-linecap="round" stroke-linejoin="round" stroke-miterlimit="10" class="iconic-cloud-download-arrow iconic-cloud-download-arrow-line iconic-property-accent iconic-property-stroke" d="M58 70v38" fill="none"/>
      <circle cx="58" cy="70" r="8" class="iconic-cloud-download-arrow iconic-cloud-download-arrow-starting-point iconic-property-accent iconic-property-fill"/>
      <path d="M71.2 104.7l-12.4 22c-.4.7-1.1.7-1.5 0l-12.4-22c-.4-.7-.1-1.3.8-1.3h24.8c.7 0 1.1.6.7 1.3z" class="iconic-cloud-download-arrow iconic-cloud-download-arrow-head iconic-property-accent iconic-property-fill"/>
      <path d="M110 50l-2.1.1c-.9-8.4-7.6-15.1-16-16-.9-19-16.7-34.1-35.9-34.1-18.8 0-34.3 14.5-35.9 32.9-11.5 3-20.1 13.6-20.1 26.1 0 14.6 11.6 26.4 26 27h84c9.9 0 18-8.1 18-18s-8.1-18-18-18z" clip-path="url(#iconic-size-lg-cloud-download-clip-0)" class="iconic-property-fill"/>
    </g>
    <g class="iconic-cloud-upload" display="none">
      <path stroke="#000" stroke-width="8" stroke-linecap="square" stroke-linejoin="round" stroke-miterlimit="10" class="iconic-cloud-upload-arrow iconic-cloud-upload-arrow-line iconic-property-accent iconic-property-stroke" d="M58 120v-32.1" fill="none"/>
      <path class="iconic-cloud-upload-arrow iconic-cloud-upload-arrow-head iconic-property-accent iconic-property-fill" d="M58 68l-14 24h28z"/>
      <circle cx="58" cy="120" r="8" class="iconic-cloud-upload-arrow iconic-cloud-upload-arrow-starting-point iconic-property-accent iconic-property-fill"/>
      <path d="M110 50l-2.1.1c-.9-8.4-7.6-15.1-16-16-.9-19-16.7-34.1-35.9-34.1-18.8 0-34.3 14.5-35.9 32.9-11.5 3-20.1 13.6-20.1 26.1 0 14.6 11.6 26.4 26 27h84c9.9 0 18-8.1 18-18s-8.1-18-18-18z" clip-path="url(#iconic-size-lg-cloud-upload-clip-0)" class="iconic-cloud-upload-cloud iconic-property-fill"/>
    </g>
  </g>
  <g data-width="32" data-height="32" class="iconic-md iconic-container" display="none" transform="scale(4)">
    <g class="iconic-cloud-download">
      <path stroke="#000" stroke-width="3" stroke-miterlimit="10" class="iconic-cloud-download-arrow iconic-cloud-download-arrow-line iconic-property-accent iconic-property-stroke" d="M14.5 17.5v10" fill="none"/>
      <circle cx="14.5" cy="17.5" r="2.5" class="iconic-cloud-download-arrow iconic-cloud-download-arrow-starting-point iconic-property-accent iconic-property-fill"/>
      <path d="M18.7 26.4l-3.9 5.2c-.2.2-.4.2-.6 0l-3.9-5.2c-.2-.2-.1-.4.2-.4h8c.3 0 .4.2.2.4z" class="iconic-cloud-download-arrow iconic-cloud-download-arrow-head iconic-property-accent iconic-property-fill"/>
      <path d="M27 12c-.4-2-2.1-3.5-4-3.9-.5-4.5-4.3-8.1-9-8.1s-8.6 3.4-9 8c-2.9.9-5 3.8-5 7 0 3.5 2.6 6.5 6 7h21c2.8 0 5-2.2 5-5s-2.2-5-5-5z" clip-path="url(#iconic-size-md-cloud-download-clip-0)" class="iconic-cloud-download-cloud iconic-property-fill"/>
    </g>
    <g class="iconic-cloud-upload" display="none">
      <path d="M27 12c-.4-2-2.1-3.5-4-3.9-.5-4.5-4.3-8.1-9-8.1s-8.6 3.4-9 8c-2.9.9-5 3.8-5 7 0 3.5 2.6 6.5 6 7h21c2.8 0 5-2.2 5-5s-2.2-5-5-5z" clip-path="url(#iconic-size-md-cloud-upload-clip-0)" class="iconic-cloud-upload-cloud iconic-property-fill"/>
      <path stroke="#000" stroke-width="3" stroke-linecap="square" stroke-linejoin="round" stroke-miterlimit="10" class="iconic-cloud-upload-arrow iconic-cloud-upload-arrow-line iconic-property-accent iconic-property-stroke" d="M14.5 29.5v-7.5" fill="none"/>
      <path class="iconic-cloud-upload-arrow iconic-cloud-upload-arrow-head iconic-property-accent iconic-property-fill" d="M10 24l4.5-6 4.5 6z"/>
      <circle cx="14.5" cy="29.5" r="2.5" class="iconic-cloud-upload-arrow iconic-cloud-upload-arrow-starting-point iconic-property-accent iconic-property-fill"/>
    </g>
  </g>
  <g data-width="16" data-height="16" class="iconic-sm iconic-container" display="none" transform="scale(8)">
    <g class="iconic-cloud-download">
      <path stroke="#000" stroke-width="2" stroke-linecap="round" stroke-miterlimit="10" class="iconic-cloud-download-arrow iconic-cloud-download-arrow-line iconic-property-accent iconic-property-stroke" d="M8 11v3" fill="none"/>
      <path class="iconic-cloud-download-arrow iconic-cloud-download-arrow-head iconic-property-accent iconic-property-fill" d="M11 13l-3 3-3-3z"/>
      <path d="M13 6v-1c0-2.8-2.2-5-5-5-2.5 0-4.5 1.8-4.9 4.1-1.8.4-3.1 2-3.1 3.9 0 2.2 1.8 4 4 4h9c1.7 0 3-1.3 3-3s-1.3-3-3-3z" clip-path="url(#iconic-size-sm-cloud-download-clip-0)" class="iconic-cloud-download-cloud iconic-property-fill"/>
    </g>
    <g class="iconic-cloud-upload" display="none">
      <path d="M13 6v-1c0-2.8-2.2-5-5-5-2.5 0-4.5 1.8-4.9 4.1-1.8.4-3.1 2-3.1 3.9 0 2.2 1.8 4 4 4h9c1.7 0 3-1.3 3-3s-1.3-3-3-3z" clip-path="url(#iconic-size-sm-cloud-upload-clip-0)" class="iconic-cloud-upload-cloud iconic-property-fill"/>
      <path stroke="#000" stroke-width="2" stroke-linecap="round" stroke-linejoin="round" stroke-miterlimit="10" class="iconic-cloud-upload-arrow iconic-cloud-upload-arrow-line iconic-property-accent iconic-property-stroke" d="M8 12v3" fill="none"/>
      <path class="iconic-cloud-upload-arrow iconic-cloud-upload-arrow-head iconic-property-accent iconic-property-fill" d="M5 13l3-3 3 3z"/>
    </g>
  </g>
<script class="iconic-api" type="application/ecmascript">
//<![CDATA[
var iconicApis=window._Iconic?window._Iconic.smartIconApis:{};iconicApis["cloud-transfer"]=iconicApis["cloud-transfer"]||function(t){var e=function(e){t.setAttribute("data-transfer-direction",e);var r,a,i=t.querySelectorAll(".iconic-cloud-download"),n=t.querySelectorAll(".iconic-cloud-upload");r=a="none","upload"===e?r="inline":a="inline";for(var o=0;o<i.length;o++)i[o].setAttribute("display",a),n[o].setAttribute("display",r)},r=function(){var r=t.getAttribute("data-transfer-direction");r&&e(r)};return{update:r,setTransferDirection:e}};
//]]>
</script>
</svg>
