<svg xmlns="http://www.w3.org/2000/svg" class="iconic iconic-cloudy" width="128" height="128" viewBox="0 0 128 128">
  <g class="iconic-metadata">
    <title>Cloudy</title>
  </g>
  <defs>
    <clipPath id="iconic-size-lg-cloudy-clip-0">
      <path d="M16.342 57.954c3.005-19.247 19.922-33.954 39.658-33.954 10.737 0 20.521 4.21 27.731 11.094-3.366-19.919-20.688-35.094-41.565-35.094-23.288 0-42.167 18.879-42.167 42.167 0 8.034 2.248 15.542 6.148 21.933 2.919-2.649 6.361-4.76 10.194-6.146z"
      />
    </clipPath>
    <clipPath id="iconic-size-md-cloudy-clip-0">
      <path d="M3.184 15.562c1.01-4.964 5.45-8.567 10.813-8.567 2.17 0 4.193.618 5.905 1.681-.649-4.896-4.829-8.676-9.902-8.676-5.523 0-10 4.477-10 10 0 2.331.804 4.47 2.141 6.17.334-.225.681-.432 1.043-.608z" />
    </clipPath>
    <clipPath id="iconic-size-sm-cloudy-clip-0">
      <path d="M2.248 7.325c.735-2.54 3.063-4.325 5.752-4.325.702 0 1.373.127 2 .35v-3.35h-10v9h.012c.562-.744 1.326-1.336 2.237-1.675z" />
    </clipPath>
  </defs>
  <g class="iconic-cloudy-lg iconic-container iconic-lg" data-width="128" data-height="114" display="inline" transform="translate(0 7)">
    <circle cx="42" cy="42" r="42" clip-path="url(#iconic-size-lg-cloudy-clip-0)" class="iconic-cloudy-sun iconic-property-accent iconic-property-fill" />
    <path d="M110 78c-.711 0-1.311-.081-2 0-.871-8.409-7.602-15.091-16-16-.986-18.976-16.783-34-36-34-18.8 0-34.415 14.604-36 33-11.578 3.042-20 13.481-20 26 0 14.552 11.575 26.471 26 27h84c9.925 0 18-8.075 18-18s-8.075-18-18-18z" class="iconic-cloudy-cloud iconic-property-fill"
    />
  </g>
  <g class="iconic-cloudy-md iconic-container iconic-md" data-width="32" data-height="31" display="none" transform="scale(4)">
    <circle cx="10" cy="10" r="10" clip-path="url(#iconic-size-md-cloudy-clip-0)" class="iconic-cloudy-sun iconic-property-accent iconic-property-fill" />
    <path d="M27 21c-.401-1.976-2.065-3.524-4.046-3.909-.457-4.537-4.298-8.091-8.954-8.091-4.721 0-8.634 3.371-9 8-2.906.852-5 3.822-5 7 0 3.527 2.603 6.521 6 7 4.323 0 20.923 0 21 0 2.76 0 5-2.24 5-5s-2.24-5-5-5z" class="iconic-cloudy-cloud iconic-property-fill"
    />
  </g>
  <g class="iconic-cloudy-sm iconic-container iconic-sm" data-width="16" data-height="16" display="none" transform="scale(8)">
    <circle cx="5" cy="5" r="5" clip-path="url(#iconic-size-sm-cloudy-clip-0)" class="iconic-cloudy-sun iconic-property-accent iconic-property-fill" />
    <path d="M13 10v-1c0-2.757-2.243-5-5-5-2.454 0-4.49 1.78-4.91 4.114-1.767.415-3.09 1.995-3.09 3.886 0 2.206 1.794 4 4 4h9c1.654 0 3-1.346 3-3s-1.346-3-3-3z" class="iconic-cloudy-cloud iconic-property-fill" />
  </g>
</svg>