<svg xmlns="http://www.w3.org/2000/svg" class="iconic iconic-cloud" width="128" height="128" viewBox="0 0 128 128">
  <g class="iconic-metadata">
    <title>Cloud</title>
  </g>
  <g class="iconic-cloud-lg iconic-container iconic-lg" data-width="128" data-height="86" display="inline" transform="translate(0 21)">
    <path d="M108 50c-.871-8.409-7.602-15.091-16-16-.986-18.976-16.783-34-36-34-18.8 0-34.415 14.604-36 33-11.578 3.042-20 13.481-20 26 0 14.552 11.575 26.471 26 27h84c9.925 0 18-8.075 18-18s-7-18-20-18z" class="iconic-cloud-cloud iconic-property-fill"
    />
  </g>
  <g class="iconic-cloud-md iconic-container iconic-md" data-width="32" data-height="22" display="none" transform="scale(4) translate(0 5)">
    <path d="M27 12c-.401-1.976-2.065-3.524-4.046-3.909-.457-4.537-4.298-8.091-8.954-8.091-4.721 0-8.634 3.371-9 8-2.906.852-5 3.822-5 7 0 3.527 2.603 6.521 6 7 4.323 0 20.923 0 21 0 2.76 0 5-2.24 5-5s-2.24-5-5-5z" class="iconic-cloud-cloud iconic-property-fill"
    />
  </g>
  <g class="iconic-cloud-sm iconic-container iconic-sm" data-width="16" data-height="12" display="none" transform="scale(8) translate(0 2)">
    <path d="M13 6v-1c0-2.757-2.243-5-5-5-2.454 0-4.49 1.78-4.91 4.114-1.767.415-3.09 1.995-3.09 3.886 0 2.206 1.794 4 4 4h9c1.654 0 3-1.346 3-3s-1.346-3-3-3z" class="iconic-cloud-cloud iconic-property-fill" />
  </g>
</svg>