<svg xmlns="http://www.w3.org/2000/svg" class="iconic iconic-command" width="128" height="128" viewBox="0 0 128 128">
  <g class="iconic-metadata">
    <title>Command</title>
  </g>
  <g class="iconic-command-lg iconic-container iconic-lg" data-width="128" data-height="128" display="inline">
    <path stroke="#000" stroke-width="12" d="M26 46c-11.046 0-20-8.954-20-20s8.954-20 20-20 20 8.954 20 20v76c0 11.046-8.954 20-20 20s-20-8.954-20-20 8.954-20 20-20h76c11.046 0 20 8.954 20 20s-8.954 20-20 20-20-8.954-20-20v-76c0-11.046 8.954-20 20-20s20 8.954 20 20-8.954 20-20 20h-76z"
    class="iconic-property-stroke" fill="none" />
  </g>
  <g class="iconic-command-md iconic-container iconic-md" data-width="32" data-height="32" display="none" transform="scale(4)">
    <path stroke="#000" stroke-width="3" d="M6.5 11.5c-2.761 0-5-2.239-5-5s2.239-5 5-5 5 2.239 5 5v19c0 2.761-2.239 5-5 5s-5-2.239-5-5 2.239-5 5-5h19c2.761 0 5 2.239 5 5s-2.239 5-5 5-5-2.239-5-5v-19c0-2.761 2.239-5 5-5s5 2.239 5 5-2.239 5-5 5h-19z" class="iconic-property-stroke"
    fill="none" />
  </g>
  <g class="iconic-command-sm iconic-container iconic-sm" data-width="16" data-height="16" display="none" transform="scale(8)">
    <path stroke="#000" stroke-width="2" d="M3.5 6c-1.381 0-2.5-1.119-2.5-2.5s1.119-2.5 2.5-2.5 2.5 1.119 2.5 2.5v9c0 1.381-1.119 2.5-2.5 2.5s-2.5-1.119-2.5-2.5 1.119-2.5 2.5-2.5h9c1.381 0 2.5 1.119 2.5 2.5s-1.119 2.5-2.5 2.5-2.5-1.119-2.5-2.5v-9c0-1.381 1.119-2.5 2.5-2.5s2.5 1.119 2.5 2.5-1.119 2.5-2.5 2.5h-9z"
    class="iconic-property-stroke" fill="none" />
  </g>
</svg>