<svg xmlns="http://www.w3.org/2000/svg" class="iconic iconic-compass" width="128" height="128" viewBox="0 0 128 128">
  <g class="iconic-metadata">
    <title>Compass</title>
  </g>
  <g class="iconic-compass-lg iconic-container iconic-lg" data-width="128" data-height="128" display="inline">
    <circle stroke="#000" stroke-width="8" cx="64" cy="64" r="60" class="iconic-compass-body iconic-property-stroke" fill="none" />
    <path d="M54 54l-20 40 40-20 20-40-40 20zm10 18c-4.418 0-8-3.582-8-8s3.582-8 8-8 8 3.582 8 8-3.582 8-8 8z" class="iconic-compass-needle iconic-property-accent iconic-property-fill" />
    <circle cx="64" cy="64" r="4" class="iconic-compass-needle-axis iconic-property-accent iconic-property-fill" />
    <circle cx="64" cy="14" r="2" class="iconic-compass-direction iconic-compass-direction-north iconic-property-fill" />
    <circle cx="14" cy="64" r="2" class="iconic-compass-direction iconic-compass-direction-west iconic-property-fill" />
    <circle cx="114" cy="64" r="2" class="iconic-compass-direction iconic-compass-direction-east iconic-property-fill" />
    <circle cx="64" cy="114" r="2" class="iconic-compass-direction iconic-compass-direction-south iconic-property-fill" />
  </g>
  <g class="iconic-compass-md iconic-container iconic-md" data-width="32" data-height="32" display="none" transform="scale(4)">
    <circle stroke="#000" stroke-width="3" cx="16" cy="16" r="14.5" class="iconic-compass-body iconic-property-stroke" fill="none" />
    <path d="M13 13l-4 10 10-4 4-10-10 4zm3 5c-1.105 0-2-.895-2-2s.895-2 2-2 2 .895 2 2-.895 2-2 2z" class="iconic-compass-needle iconic-property-accent iconic-property-fill" />
  </g>
  <g class="iconic-compass-sm iconic-container iconic-sm" data-width="16" data-height="16" display="none" transform="scale(8)">
    <circle stroke="#000" stroke-width="2" cx="8" cy="8" r="7" class="iconic-compass-body iconic-property-stroke" fill="none" />
    <path d="M6 6l-1 5 5-1 1-5-5 1zm2 3c-.552 0-1-.448-1-1s.448-1 1-1 1 .448 1 1-.448 1-1 1z" class="iconic-compass-needle iconic-property-accent iconic-property-fill" />
  </g>
</svg>