<svg xmlns="http://www.w3.org/2000/svg" class="iconic iconic-connections" width="128" height="128" viewBox="0 0 128 128">
  <g class="iconic-metadata">
    <title>Connections</title>
  </g>
  <defs>
    <clipPath id="iconic-size-lg-connections-clip-0">
      <path d="M94 104c0-9.925 8.075-18 18-18 6.967 0 13.009 3.986 16 9.791v-79.173c-2.151 3.239-5.829 5.381-10 5.381-6.617 0-12-5.383-12-12 0-4.171 2.142-7.849 5.381-10h-111.381v42.025c1.825-2.438 4.727-4.025 8-4.025 5.514 0 10 4.486 10 10s-4.486 10-10 10c-3.273 0-6.175-1.588-8-4.026v66.025h103.791c-5.805-2.99-9.791-9.033-9.791-16zm-30-18c-12.131 0-22-9.869-22-22s9.869-22 22-22 22 9.869 22 22-9.869 22-22 22z"
      />
    </clipPath>
  </defs>
  <g class="iconic-connections-lg iconic-container iconic-lg" data-width="128" data-height="120" display="inline" transform="translate(0 4)">
    <path clip-path="url(#iconic-size-lg-connections-clip-0)" stroke="#000" stroke-width="4" class="iconic-connections-line iconic-connections-line-top-right iconic-property-stroke" d="M118 10l-54 54" fill="none" />
    <path clip-path="url(#iconic-size-lg-connections-clip-0)" stroke="#000" stroke-width="4" class="iconic-connections-line iconic-connections-line-left iconic-property-stroke" d="M64 64l-56-16" fill="none" />
    <path clip-path="url(#iconic-size-lg-connections-clip-0)" stroke="#000" stroke-width="4" class="iconic-connections-line iconic-connections-line-bottom-right iconic-property-stroke" d="M112 104l-48-40" fill="none" />
    <circle cx="64" cy="64" r="20" class="iconic-connections-dot iconic-connections-dot-center iconic-property-accent iconic-property-fill" />
    <circle cx="8" cy="48" r="8" class="iconic-connections-dot iconic-connections-dot-left iconic-property-fill" />
    <circle cx="118" cy="10" r="10" class="iconic-connections-dot iconic-connections-dot-top-right iconic-property-fill" />
    <circle cx="112" cy="104" r="16" class="iconic-connections-dot iconic-connections-dot-top-left iconic-property-fill" />
  </g>
  <g class="iconic-connections-md iconic-container iconic-md" data-width="32" data-height="30" display="none" transform="scale(4) translate(0 1)">
    <path stroke="#000" class="iconic-connections-line iconic-connections-line-top-right iconic-property-stroke" d="M29.5 2.5l-13.5 13.5" fill="none" />
    <path stroke="#000" class="iconic-connections-line iconic-connections-line-bottom-right iconic-property-stroke" d="M28 26l-12-10" fill="none" />
    <path stroke="#000" class="iconic-connections-line iconic-connections-line-left iconic-property-stroke" d="M16 16l-14-4" fill="none" />
    <circle cx="16" cy="16" r="5" class="iconic-connections-dot iconic-connections-dot-center iconic-property-accent iconic-property-fill" />
    <circle cx="2" cy="12" r="2" class="iconic-connections-dot iconic-connections-dot-left iconic-property-fill" />
    <circle cx="29.5" cy="2.5" r="2.5" class="iconic-connections-dot iconic-connections-dot-top-right iconic-property-fill" />
    <circle cx="28" cy="26" r="4" class="iconic-connections-dot iconic-connections-dot-bottom-right iconic-property-fill" />
  </g>
  <g class="iconic-connections-sm iconic-container iconic-sm" data-width="16" data-height="15" display="none" transform="scale(8)">
    <path stroke="#000" class="iconic-connections-line iconic-connections-line-top-right iconic-property-stroke" d="M14.5 1.5l-6.5 6.5" fill="none" />
    <path stroke="#000" class="iconic-connections-line iconic-connections-line-bottom-right iconic-property-stroke" d="M14.5 13.5l-6.5-5.5" fill="none" />
    <path stroke="#000" class="iconic-connections-line iconic-connections-line-left iconic-property-stroke" d="M8 8l-7-2" fill="none" />
    <circle cx="8" cy="8" r="3" class="iconic-connections-dot iconic-connections-dot-center iconic-property-accent iconic-property-fill" />
    <circle cx="1" cy="6" r="1" class="iconic-connections-dot iconic-connections-dot-left iconic-property-fill" />
    <circle cx="14.5" cy="1.5" r="1.5" class="iconic-connections-dot iconic-connections-dot-top-right iconic-property-fill" />
    <circle cx="14" cy="13" r="2" class="iconic-connections-dot iconic-connections-dot-bottom-right iconic-property-fill" />
  </g>
</svg>