<svg xmlns="http://www.w3.org/2000/svg" class="iconic iconic-contrast" width="128" height="128" viewBox="0 0 128 128">
  <g class="iconic-metadata">
    <title>Contrast</title>
  </g>
  <defs>
    <clipPath id="iconic-size-lg-contrast-clip-0">
      <path d="M64 116c-28.719 0-52-23.281-52-52s23.281-52 52-52v104z" />
    </clipPath>
  </defs>
  <g class="iconic-contrast-lg iconic-container iconic-lg" data-width="128" data-height="128" display="inline">
    <path d="M64 116c-28.719 0-52-23.281-52-52s23.281-52 52-52v104z" class="iconic-contrast-black iconic-property-accent iconic-property-fill" />
    <circle stroke="#000" stroke-width="8" cx="64" cy="64" r="60" class="iconic-contrast-border iconic-property-stroke" fill="none" />
  </g>
  <g class="iconic-contrast-md iconic-container iconic-md" data-width="32" data-height="32" display="none" transform="scale(4)">
    <path d="M16 31c-8.284 0-15-6.716-15-15s6.716-15 15-15v30z" class="iconic-contrast-black iconic-property-accent iconic-property-fill" />
    <circle stroke="#000" stroke-width="3" cx="16" cy="16" r="14.5" class="iconic-contrast-border iconic-property-stroke" fill="none" />
  </g>
  <g class="iconic-contrast-sm iconic-container iconic-sm" data-width="16" data-height="16" display="none" transform="scale(8)">
    <path d="M8 15c-3.866 0-7-3.134-7-7s3.134-7 7-7v14z" class="iconic-contrast-black iconic-property-accent iconic-property-fill" />
    <circle stroke="#000" stroke-width="2" cx="8" cy="8" r="7" class="iconic-contrast-border iconic-property-stroke" fill="none" />
  </g>
</svg>