<svg xmlns="http://www.w3.org/2000/svg" class="iconic iconic-dial" width="128" height="128" viewBox="0 0 128 128">
  <g class="iconic-metadata">
    <title>Dial</title>
  </g>
  <defs>
    <clipPath id="iconic-size-lg-dial-clip-0">
      <path d="M66 26v34c0 1.105-.895 2-2 2s-2-.895-2-2v-34h-36v76h76v-76h-36z" />
    </clipPath>
    <clipPath id="iconic-size-md-dial-clip-0">
      <path d="M17 5v10c0 .552-.448 1-1 1s-1-.448-1-1v-10h-10v22h22v-22h-10z" />
    </clipPath>
    <clipPath id="iconic-size-sm-dial-clip-0">
      <path d="M8 3v4.5c0 .276-.224.5-.5.5s-.5-.224-.5-.5v-4.5h-4v9h9v-9h-4z" />
    </clipPath>
  </defs>
  <g class="iconic-dial-lg iconic-container iconic-lg" data-width="128" data-height="102" display="inline" transform="translate(0 13)">
    <circle cx="64" cy="64" r="38" clip-path="url(#iconic-size-lg-dial-clip-0)" class="iconic-dial-body iconic-property-fill" />
    <path stroke="#000" stroke-width="4" stroke-linecap="round" class="iconic-dial-notch iconic-dial-notch-1 iconic-property-accent iconic-property-stroke" d="M2 64h4" fill="none" />
    <path stroke="#000" stroke-width="4" stroke-linecap="round" class="iconic-dial-notch iconic-dial-notch-2 iconic-property-accent iconic-property-stroke" d="M6.72 40.274l3.695 1.53" fill="none" />
    <path stroke="#000" stroke-width="4" stroke-linecap="round" class="iconic-dial-notch iconic-dial-notch-3 iconic-property-accent iconic-property-stroke" d="M20.159 20.159l2.829 2.829" fill="none" />
    <path stroke="#000" stroke-width="4" stroke-linecap="round" class="iconic-dial-notch iconic-dial-notch-4 iconic-property-accent iconic-property-stroke" d="M40.274 6.72l1.53 3.695" fill="none" />
    <path stroke="#000" stroke-width="4" stroke-linecap="round" class="iconic-dial-notch iconic-dial-notch-5 iconic-property-accent iconic-property-stroke" d="M64 2v4" fill="none" />
    <path stroke="#000" stroke-width="4" stroke-linecap="round" class="iconic-dial-notch iconic-dial-notch-6 iconic-property-accent iconic-property-stroke" d="M86.196 10.415l1.53-3.695" fill="none" />
    <path stroke="#000" stroke-width="4" stroke-linecap="round" class="iconic-dial-notch iconic-dial-notch-7 iconic-property-accent iconic-property-stroke" d="M105.012 22.988l2.829-2.829" fill="none" />
    <path stroke="#000" stroke-width="4" stroke-linecap="round" class="iconic-dial-notch iconic-dial-notch-8 iconic-property-accent iconic-property-stroke" d="M117.585 41.804l3.696-1.53" fill="none" />
    <path stroke="#000" stroke-width="4" stroke-linecap="round" class="iconic-dial-notch iconic-dial-notch-9 iconic-property-accent iconic-property-stroke" d="M122 64h4" fill="none" />
  </g>
  <g class="iconic-dial-md iconic-container iconic-md" data-width="32" data-height="27" display="none" transform="scale(4) translate(0 2)">
    <circle cx="16" cy="16" r="11" clip-path="url(#iconic-size-md-dial-clip-0)" class="iconic-dial-body iconic-property-fill" />
    <circle cx="1" cy="16" r="1" class="iconic-dial-notch iconic-dial-notch-1 iconic-property-accent iconic-property-fill" />
    <circle cx="2.142" cy="10.26" r="1" class="iconic-dial-notch iconic-dial-notch-2 iconic-property-accent iconic-property-fill" />
    <circle cx="5.393" cy="5.393" r="1" class="iconic-dial-notch iconic-dial-notch-3 iconic-property-accent iconic-property-fill" />
    <circle cx="10.26" cy="2.142" r="1" class="iconic-dial-notch iconic-dial-notch-4 iconic-property-accent iconic-property-fill" />
    <circle cx="16" cy="1" r="1" class="iconic-dial-notch iconic-dial-notch-5 iconic-property-accent iconic-property-fill" />
    <circle cx="21.74" cy="2.142" r="1" class="iconic-dial-notch iconic-dial-notch-6 iconic-property-accent iconic-property-fill" />
    <circle cx="26.607" cy="5.393" r="1" class="iconic-dial-notch iconic-dial-notch-7 iconic-property-accent iconic-property-fill" />
    <circle cx="29.858" cy="10.26" r="1" class="iconic-dial-notch iconic-dial-notch-8 iconic-property-accent iconic-property-fill" />
    <circle cx="31" cy="16" r="1" class="iconic-dial-notch iconic-dial-notch-9 iconic-property-accent iconic-property-fill" />
  </g>
  <g class="iconic-dial-sm iconic-container iconic-sm" data-width="15" data-height="12" display="none" transform="scale(8) translate(0 2)">
    <circle cx="7.5" cy="7.5" r="4.5" clip-path="url(#iconic-size-sm-dial-clip-0)" class="iconic-dial-body iconic-property-fill" />
    <path stroke="#000" stroke-linecap="round" d="M.5 7.5c0-3.866 3.134-7 7-7s7 3.134 7 7" class="iconic-dial-notches iconic-property-accent iconic-property-stroke" fill="none" />
  </g>
</svg>