<svg xmlns="http://www.w3.org/2000/svg" class="iconic iconic-dollar" width="128" height="128" viewBox="0 0 128 128">
  <g class="iconic-metadata">
    <title>Dollar</title>
  </g>
  <g class="iconic-dollar-lg iconic-container iconic-lg" data-width="82" data-height="128" display="inline" transform="translate(23)">
    <path stroke="#000" stroke-width="8" class="iconic-dollar-vertical-line iconic-property-stroke" d="M42 128v-128" fill="none" />
    <path stroke="#000" stroke-width="12" d="M72 40c0-16-8.003-26-31-26-31.003 0-31 20.331-31 25 0 35.013 66 14.987 66 50 0 9-2.003 25-35 25-25.003 0-35-12-35-28" class="iconic-dollar-s-curve iconic-property-stroke" fill="none" />
  </g>
  <g class="iconic-dollar-md iconic-container iconic-md" data-width="20" data-height="32" display="none" transform="scale(4) translate(6)">
    <path stroke="#000" stroke-width="2" class="iconic-dollar-vertical-line iconic-property-stroke" d="M10 32v-32" fill="none" />
    <path stroke="#000" stroke-width="4" d="M17 11c0-4-1.643-6.5-7-6.5-7.501 0-7 4.673-7 5.747 0 8.053 15 3.45 15 11.503 0 1.143-.501 5.75-8 5.75-5.358 0-8-2.5-8-6.5" class="iconic-dollar-s-curve iconic-property-stroke" fill="none" />
  </g>
  <g class="iconic-dollar-sm iconic-container iconic-sm" data-width="9" data-height="16" display="none" transform="scale(8) translate(3)">
    <path stroke="#000" class="iconic-dollar-vertical-line iconic-property-stroke" d="M4.5 16v-16" fill="none" />
    <path stroke="#000" stroke-width="2" d="M8 6c0-2-1-3-3.5-3-3.5 0-3.5 2.032-3.5 2.499 0 3.501 7 1.5 7 5.001 0 .497 0 2.5-3.5 2.5-2.5 0-3.5-1-3.5-3" class="iconic-dollar-s-curve iconic-property-stroke" fill="none" />
  </g>
</svg>