<svg xmlns="http://www.w3.org/2000/svg" class="iconic iconic-external-link" width="128" height="128" viewBox="0 0 128 128">
  <g class="iconic-metadata">
    <title>External Link</title>
  </g>
  <g class="iconic-external-link-lg iconic-container iconic-lg" data-width="127" data-height="128" display="inline">
    <path stroke="#000" stroke-width="8" stroke-linecap="square" d="M108 52v69c0 1.657-1.343 3-3 3h-98c-1.657 0-3-1.343-3-3v-98c0-1.657 1.343-3 3-3h68.917" class="iconic-external-link-box iconic-property-accent iconic-property-stroke" fill="none" />
    <path stroke="#000" stroke-width="8" stroke-linecap="square" class="iconic-external-link-arrow iconic-external-link-arrow-steam iconic-property-stroke" d="M116 12l-52.5 52.5" fill="none" />
    <path d="M126.404.316l-24.937 5.369c-.81.174-.992.791-.406 1.376l19.879 19.879c.586.586 1.198.403 1.368-.407l5.255-25.064c.17-.811-.349-1.327-1.159-1.152z" class="iconic-external-link-arrow iconic-external-link-arrow-head iconic-property-fill" />
  </g>
  <g class="iconic-external-link-md iconic-container iconic-md" data-width="32" data-height="32" display="none" transform="scale(4)">
    <path stroke="#000" stroke-width="3" d="M27.5 15v15c0 .276-.224.5-.5.5h-25c-.276 0-.5-.224-.5-.5v-25c0-.276.224-.5.5-.5h16" class="iconic-external-link-box iconic-property-accent iconic-property-stroke" fill="none" />
    <path stroke="#000" stroke-width="3" stroke-linecap="square" class="iconic-external-link-arrow iconic-external-link-arrow-stem iconic-property-stroke" d="M28 4l-10 10" fill="none" />
    <path class="iconic-external-link-arrow iconic-external-link-arrow-head iconic-property-fill" d="M32 0l-1 8-7-7z" />
  </g>
  <g class="iconic-external-link-sm iconic-container iconic-sm" data-width="16" data-height="16" display="none" transform="scale(8)">
    <path stroke="#000" stroke-width="2" class="iconic-external-link-box iconic-property-accent iconic-property-stroke" d="M13 8v7h-12v-12h7" fill="none" />
    <path stroke="#000" stroke-width="2" stroke-linecap="square" class="iconic-external-link-arrow iconic-external-link-arrow-stem iconic-property-stroke" d="M13 3l-4 4" fill="none" />
    <path class="iconic-external-link-arrow iconic-external-link-arrow-head iconic-property-fill" d="M16 0v5l-5-5z" />
  </g>
</svg>