<svg xmlns="http://www.w3.org/2000/svg" class="iconic iconic-eyedropper" width="128" height="128" viewBox="0 0 128 128">
  <g class="iconic-metadata">
    <title>Eyedropper</title>
  </g>
  <g class="iconic-eyedropper-lg iconic-container iconic-lg" data-width="127" data-height="127" display="inline">
    <path class="iconic-eyedropper-fluid iconic-property-fill" d="M16.787 94.781l16.213 16.213-13.104 12.966-17.896.034v-14.606z" />
    <path stroke="#000" stroke-width="4" d="M103.372 40.417l-84.415 84.482c-.586.586-1.732 1.063-2.56 1.064l-12.896.027c-.828.002-1.5-.668-1.5-1.497v-12.863c0-.828.475-1.975 1.061-2.561l84.883-84.883" class="iconic-eyedropper-tube iconic-property-stroke"
    fill="none" />
    <path d="M86.922 25.976l22.849-22.849c4.169-4.169 10.927-4.169 15.096 0s4.169 10.927 0 15.096l-22.294 22.294-15.651-14.541z" class="iconic-eyedropper-top iconic-eyedropper-top-suction iconic-property-fill" />
    <path transform="matrix(.707 -.707 .707 .707 5.495 77.253)" class="iconic-eyedropper-top iconic-eyedropper-top-lip iconic-property-fill" d="M93.172 9.366h5.657v45.255h-5.657z" />
  </g>
  <g class="iconic-eyedropper-md iconic-container iconic-md" data-width="32" data-height="32" display="none" transform="scale(4)">
    <path class="iconic-property-fill" d="M3.674 23.278l4.714 5.015-3.388 3.198-4.5.008v-4.43z" />
    <path stroke="#000" stroke-linejoin="round" d="M19.608 7.711l-18.757 19.002c-.194.197-.351.58-.351.856v3.43c0 .276.224.5.5.499l3.439-.006c.276-.001.658-.159.853-.355l18.863-18.879" class="iconic-eyedropper-tube iconic-property-stroke" fill="none"
    />
    <path d="M20.004 7.046l6.021-6.021c1.367-1.367 3.583-1.367 4.95 0s1.367 3.583 0 4.95l-6.167 6.167-4.804-5.096z" class="iconic-eyedropper-top iconic-eyedropper-top-suction iconic-property-fill" />
    <path transform="matrix(.707 -.707 .707 .707 -.127 18.692)" class="iconic-eyedropper-top iconic-eyedropper-top-lip iconic-property-fill" d="M21.086 3.136h2.828v12.728h-2.828z" />
  </g>
  <g class="iconic-eyedropper-sm iconic-container iconic-sm" data-width="15" data-height="15" display="none" transform="scale(8)">
    <path class="iconic-eyedropper-fluid iconic-property-fill" d="M1.984 9.719l3.141 3.281-1.5 1.75-3.125-.25v-3.008z" />
    <path stroke="#000" stroke-linejoin="round" class="iconic-eyedropper-tube iconic-property-stroke" d="M9.438 2.438l-8.938 9.055v3.008l3.012-.004 8.988-8.996" fill="none" />
    <path d="M9.101 3.07l2.484-2.484c.781-.781 2.047-.781 2.828 0 .781.781.781 2.047 0 2.828l-2.453 2.453-2.86-2.797z" class="iconic-eyedropper-top iconic-eyedropper-top-suction iconic-property-fill" />
    <path transform="matrix(.707 -.707 .707 .707 -.107 8.743)" class="iconic-eyedropper-top iconic-eyedropper-top-lip iconic-property-fill" d="M9.793.257h1.414v8.485h-1.414z" />
  </g>
</svg>