<svg xmlns="http://www.w3.org/2000/svg" class="iconic iconic-fork" width="128" height="128" viewBox="0 0 128 128">
  <g class="iconic-metadata">
    <title>Fork</title>
  </g>
  <defs>
    <clipPath id="iconic-size-lg-fork-clip-0">
      <path d="M50 54c-7.72 0-14-6.28-14-14s6.28-14 14-14c5.096 0 9.551 2.745 12 6.826v-32.826h-42.826c4.081 2.449 6.826 6.904 6.826 12 0 7.72-6.28 14-14 14-5.096 0-9.551-2.745-12-6.826v89.652c2.449-4.081 6.904-6.826 12-6.826 7.72 0 14 6.28 14 14 0 5.096-2.745 9.551-6.826 12h42.826v-80.826c-2.449 4.081-6.904 6.826-12 6.826z"
      />
    </clipPath>
    <clipPath id="iconic-size-md-fork-clip-0">
      <path d="M14.5 13c-2.481 0-4.5-2.019-4.5-4.5s2.019-4.5 4.5-4.5c1.421 0 2.675.675 3.5 1.707v-5.707h-11.707c1.032.825 1.707 2.079 1.707 3.5 0 2.481-2.019 4.5-4.5 4.5-1.421 0-2.675-.675-3.5-1.707v19.413c.825-1.032 2.079-1.707 3.5-1.707 2.481 0 4.5 2.019 4.5 4.5 0 1.421-.675 2.675-1.707 3.5h11.707v-20.707c-.825 1.032-2.079 1.707-3.5 1.707z"
      />
    </clipPath>
    <clipPath id="iconic-size-sm-fork-clip-0">
      <path d="M8 7c-1.654 0-3-1.346-3-3s1.346-3 3-3c.771 0 1.468.301 2 .78v-1.78h-5.78c.48.532.78 1.229.78 2 0 1.654-1.346 3-3 3-.771 0-1.468-.301-2-.78v7.561c.532-.48 1.229-.78 2-.78 1.654 0 3 1.346 3 3 0 .771-.3 1.468-.78 2h5.78v-9.78c-.532.48-1.229.78-2 .78z"
      />
    </clipPath>
  </defs>
  <g class="iconic-fork-lg iconic-container iconic-lg" data-width="62" data-height="128" display="inline" transform="translate(33)">
    <path stroke="#000" stroke-width="8" d="M12 112v-14c0-4.4 3.318-9.397 7.373-11.104l23.254-9.791c4.055-1.707 7.373-6.704 7.373-11.104v-22" clip-path="url(#iconic-size-lg-fork-clip-0)" class="iconic-fork-line-fork iconic-property-stroke" fill="none" />
    <path clip-path="url(#iconic-size-lg-fork-clip-0)" stroke="#000" stroke-width="8" class="iconic-fork-line-trunk iconic-property-stroke" d="M12 12v92" fill="none" />
    <circle cx="12" cy="116" r="12" class="iconic-fork-point-trunk-start iconic-property-accent iconic-property-fill" />
    <circle cx="50" cy="40" r="12" class="iconic-fork-point-fork iconic-property-accent iconic-property-fill" />
    <circle cx="12" cy="12" r="12" class="iconic-fork-point-trunk-start iconic-property-accent iconic-property-fill" />
  </g>
  <g class="iconic-fork-md iconic-container iconic-md" data-width="18" data-height="32" display="none" transform="scale(4) translate(7)">
    <path stroke="#000" stroke-width="3" d="M3.5 25s0-.787 0-1.75.833-2.091 1.851-2.507l7.298-2.986c1.018-.416 1.851-1.657 1.851-2.757v-3" clip-path="url(#iconic-size-md-fork-clip-0)" class="iconic-fork-line-fork iconic-property-stroke" fill="none" />
    <path clip-path="url(#iconic-size-md-fork-clip-0)" stroke="#000" stroke-width="3" class="iconic-fork-line-trunk iconic-property-stroke" d="M3.5 5v25" fill="none" />
    <circle cx="14.5" cy="8.5" r="3.5" class="iconic-fork-fork-point iconic-property-accent iconic-property-fill" />
    <circle cx="3.5" cy="28.5" r="3.5" class="iconic-fork-trunk-point-start iconic-property-accent iconic-property-fill" />
    <circle cx="3.5" cy="3.5" r="3.5" class="iconic-fork-point-trunk-end iconic-property-accent iconic-property-fill" />
  </g>
  <g class="iconic-fork-sm iconic-container iconic-sm" data-width="10" data-height="16" display="none" transform="scale(8) translate(3)">
    <path stroke="#000" stroke-width="2" d="M2 14v-2c0-1.1.888-2.148 1.973-2.329l2.054-.342c1.085-.181 1.973-1.229 1.973-2.329v-3" clip-path="url(#iconic-size-sm-fork-clip-0)" class="iconic-fork-line-fork iconic-property-stroke" fill="none" />
    <path clip-path="url(#iconic-size-sm-fork-clip-0)" stroke="#000" stroke-width="2" class="iconic-fork-line-trunk iconic-property-stroke" d="M2 4v8" fill="none" />
    <circle cx="2" cy="14" r="2" class="iconic-fork-point-trunk-start iconic-property-accent iconic-property-fill" />
    <circle cx="2" cy="2" r="2" class="iconic-fork-point-trunk-end iconic-property-accent iconic-property-fill" />
    <circle cx="8" cy="4" r="2" class="iconic-fork-point-fork iconic-property-accent iconic-property-fill" />
  </g>
</svg>