<svg version="1.1" xmlns="http://www.w3.org/2000/svg" data-icon="fullscreen" width="128" height="128" class="iconic iconic-fullscreen iconic-orientation-square" viewBox="0 0 128 128">
  <g><title>Fullscreen</title></g>
  <g data-width="128" data-height="127" class="iconic-lg iconic-container" display="inline">
    <g class="iconic-fullscreen-enter">
      <path stroke="#000" stroke-width="8" stroke-miterlimit="10" class="iconic-fullscreen-enter-line iconic-fullscreen-enter-line-bottom iconic-property-stroke" d="M119 119l-45-45" fill="none"/>
      <path d="M127.7 125.5l-5.3-24.1c-.2-.8-.8-1-1.4-.4l-19.9 19.9c-.6.6-.4 1.2.4 1.3l25 4.5c.8.2 1.4-.4 1.2-1.2z" class="iconic-fullscreen-enter-arrowhead iconic-fullscreen-enter-arrowhead-bottom iconic-property-fill"/>
      <path stroke="#000" stroke-width="8" stroke-miterlimit="10" class="iconic-fullscreen-enter-line iconic-fullscreen-enter-line-top iconic-property-stroke" d="M11 11l43 43" fill="none"/>
      <path d="M.3 1.5l5.4 25.1c.2.8.8 1 1.4.4l19.8-19.9c.6-.6.4-1.2-.4-1.4l-25-5.4c-.8-.2-1.4.4-1.2 1.2z" class="iconic-fullscreen-enter-arrowhead iconic-fullscreen-enter-arrowhead-top iconic-property-fill"/>
    </g>
    <g class="iconic-fullscreen-exit" display="none">
      <path stroke="#000" stroke-width="8" stroke-linecap="square" stroke-miterlimit="10" class="iconic-fullscreen-exit-line iconic-fullscreen-exit-line-bottom iconic-property-stroke" d="M83.5 83.5l38.5 38.5" fill="none"/>
      <path d="M74.3 75.5l5.4 25.1c.2.8.8 1 1.4.4l19.9-19.9c.6-.6.4-1.2-.4-1.4l-25.1-5.4c-.8-.2-1.4.4-1.2 1.2z" class="iconic-fullscreen-exit-arrowhead iconic-fullscreen-exit-arrowhead-bottom iconic-property-fill"/>
      <path stroke="#000" stroke-width="8" stroke-linecap="square" stroke-miterlimit="10" class="iconic-fullscreen-exit-line iconic-fullscreen-exit-line-top iconic-property-stroke" d="M44.5 44.5l-38.5-38.5" fill="none"/>
      <path d="M53.7 52.5l-5.4-25.1c-.2-.8-.8-1-1.4-.4l-19.8 19.9c-.6.6-.4 1.2.4 1.4l25.1 5.4c.7.2 1.3-.4 1.1-1.2z" class="iconic-fullscreen-exit-arrowhead iconic-fullscreen-exit-arrowhead-top iconic-property-fill"/>
    </g>
  </g>
  <g data-width="32" data-height="32" class="iconic-md iconic-container" display="none" transform="scale(4)">
    <g class="iconic-fullscreen-enter">
      <path stroke="#000" stroke-width="3" stroke-miterlimit="10" class="iconic-fullscreen-enter-line iconic-fullscreen-enter-line-bottom iconic-property-stroke" d="M29 29l-10-10" fill="none"/>
      <path d="M31.5 31.9l-6-.9c-.3 0-.3-.2-.1-.4l5.3-5.3c.2-.2.4-.1.4.1l.9 6c0 .4-.2.6-.5.5z" class="iconic-fullscreen-enter-arrowhead iconic-fullscreen-enter-arrowhead-bottom iconic-property-fill"/>
      <path stroke="#000" stroke-width="3" stroke-miterlimit="10" class="iconic-fullscreen-enter-line iconic-fullscreen-enter-line-top iconic-property-stroke" d="M3 3l10 10" fill="none"/>
      <path d="M.5.1l6 .9c.3 0 .3.2.1.4l-5.2 5.2c-.2.2-.4.2-.5-.1l-.9-6c0-.3.2-.5.5-.4z" class="iconic-fullscreen-enter-arrowhead iconic-fullscreen-enter-arrowhead-top iconic-property-fill"/>
    </g>
    <g class="iconic-fullscreen-exit" display="none">
      <path stroke="#000" stroke-width="3" stroke-miterlimit="10" class="iconic-fullscreen-exit-line iconic-fullscreen-exit-line-bottom iconic-property-stroke" d="M21 21l10 10" fill="none"/>
      <path d="M18.5 18.1l6 .9c.3 0 .3.2.1.4l-5.3 5.3c-.2.2-.4.1-.4-.1l-.9-6c0-.4.2-.6.5-.5z" class="iconic-fullscreen-exit-arrowhead iconic-fullscreen-exit-arrowhead-bottom iconic-property-fill"/>
      <path stroke="#000" stroke-width="3" stroke-miterlimit="10" class="iconic-fullscreen-exit-line iconic-fullscreen-exit-line-top iconic-property-stroke" d="M11 11l-10-10" fill="none"/>
      <path d="M13.5 13.9l-6-.9c-.3 0-.3-.2-.1-.4l5.3-5.3c.2-.2.4-.1.4.1l.9 6c0 .4-.2.6-.5.5z" class="iconic-fullscreen-exit-arrowhead iconic-fullscreen-exit-arrowhead-top iconic-property-fill"/>
    </g>
  </g>
  <g data-width="16" data-height="16" class="iconic-sm iconic-container" display="none" transform="scale(8)">
    <g class="iconic-fullscreen-enter">
      <path stroke="#000" stroke-width="2" stroke-miterlimit="10" class="iconic-fullscreen-enter-line iconic-fullscreen-enter-line-bottom iconic-property-stroke" d="M13 13l-3-3" fill="none"/>
      <path class="iconic-fullscreen-enter-arrowhead iconic-fullscreen-enter-arrowhead-bottom iconic-property-fill" d="M16 16v-6l-6 6z"/>
      <path stroke="#000" stroke-width="2" stroke-miterlimit="10" class="iconic-fullscreen-enter-line iconic-fullscreen-enter-line-top iconic-property-stroke" d="M3 3l3 3" fill="none"/>
      <path class="iconic-fullscreen-enter-arrowhead iconic-fullscreen-enter-arrowhead-top iconic-property-fill" d="M0 0v6l6-6z"/>
    </g>
    <g class="iconic-fullscreen-exit" display="none">
      <path stroke="#000" stroke-width="2" stroke-miterlimit="10" class="iconic-fullscreen-exit-line iconic-fullscreen-exit-line-bottom iconic-property-stroke" d="M12 12.1l3 2.9" fill="none"/>
      <path class="iconic-fullscreen-exit-arrowhead iconic-fullscreen-exit-arrowhead-bottom iconic-property-fill" d="M10 10v6l6-6z"/>
      <path stroke="#000" stroke-width="2" stroke-miterlimit="10" class="iconic-fullscreen-exit-line iconic-fullscreen-exit-line-top iconic-property-stroke" d="M4 4l-3-3" fill="none"/>
      <path class="iconic-fullscreen-exit-arrowhead iconic-fullscreen-exit-arrowhead-top iconic-property-fill" d="M6 6v-6l-6 6z"/>
    </g>
  </g>
<script class="iconic-api" type="application/ecmascript">
//<![CDATA[
var iconicApis=window._Iconic?window._Iconic.smartIconApis:{};iconicApis["fullscreen"]=iconicApis["fullscreen"]||function(t){var e=function(e){t.setAttribute("data-state",e);var i,r,a=t.querySelectorAll(".iconic-fullscreen-enter"),n=t.querySelectorAll(".iconic-fullscreen-exit");i=r="none","exit"===e?i="inline":r="inline";for(var o=0;o<a.length;o++)a[o].setAttribute("display",r),n[o].setAttribute("display",i)},i=function(){var i=t.getAttribute("data-state");i&&e(i)};return{update:i,setState:e}};
//]]>
</script>
</svg>
