<svg xmlns="http://www.w3.org/2000/svg" class="iconic iconic-game-controller" width="128" height="128" viewBox="0 0 128 128">
  <g class="iconic-metadata">
    <title>Game Controller</title>
  </g>
  <g class="iconic-game-controller-lg iconic-container iconic-lg" data-width="128" data-height="88" display="inline" transform="translate(0 20)">
    <circle cx="40" cy="50" r="8" class="iconic-game-controller-analog-stick iconic-game-controller-analog-stick-left iconic-property-accent iconic-property-fill" />
    <circle cx="88" cy="50" r="8" class="iconic-game-controller-analog-stick iconic-game-controller-analog-stick-right iconic-property-accent iconic-property-fill" />
    <path d="M115.806 3.441c-1.121-1.893-3.839-3.441-6.039-3.441h-92c-2.2 0-4.896 1.561-5.992 3.469 0 0-11.776 20.531-11.776 44.531 0 8.75.268 40 15.768 40 16.5 0 16.253-28 16.253-28-.003-.328.046-.642.118-.947-2.531-2.2-4.139-5.435-4.139-9.053 0-6.627 5.373-12 12-12s12 5.373 12 12c0 2.188-.595 4.234-1.619 6h27.237c-1.023-1.767-1.618-3.812-1.618-6 0-6.627 5.373-12 12-12s12 5.373 12 12c0 3.644-1.63 6.902-4.195 9.103.061.289.097.587.09.896 0 0-.628 28.001 15.872 28.001 15.5 0 16.232-31.25 16.232-40 0-24-12.194-44.559-12.194-44.559zm-89.806 4.559h8v4l-4 4-4-4v-4zm-4 16h-4v-8h4l4 4-4 4zm12 8h-8v-4l4-4 4 4v4zm8-8h-4l-4-4 4-4h4v8zm56-16c2.209 0 4 1.791 4 4s-1.791 4-4 4-4-1.791-4-4 1.791-4 4-4zm-8 16c-2.209 0-4-1.791-4-4s1.791-4 4-4 4 1.791 4 4-1.791 4-4 4zm8 8c-2.209 0-4-1.791-4-4s1.791-4 4-4 4 1.791 4 4-1.791 4-4 4zm8-8c-2.209 0-4-1.791-4-4s1.791-4 4-4 4 1.791 4 4-1.791 4-4 4z"
    class="iconic-game-controller-body iconic-property-fill" />
  </g>
  <g class="iconic-game-controller-md iconic-container iconic-md" data-width="32" data-height="22" display="none" transform="scale(4) translate(0 5)">
    <circle cx="10" cy="13" r="2" class="iconic-game-controller-analog-stick iconic-game-controller-analog-stick-left iconic-property-accent iconic-property-fill" />
    <circle cx="22" cy="13" r="2" class="iconic-game-controller-analog-stick iconic-game-controller-analog-stick-right iconic-property-accent iconic-property-fill" />
    <path d="M29.447.894c-.246-.492-.897-.894-1.447-.894h-24c-.55 0-1.201.403-1.447.894 0 0-2.553 5.106-2.553 11.106 0 2.188 0 10 3.875 10 3.245 0 3.935-4.32 4.082-6.168-.879-.636-1.457-1.663-1.457-2.832 0-1.933 1.567-3.5 3.5-3.5s3.5 1.567 3.5 3.5c0 .35-.067.681-.163 1h5.325c-.096-.319-.163-.65-.163-1 0-1.933 1.567-3.5 3.5-3.5s3.5 1.567 3.5 3.5c0 1.168-.578 2.196-1.457 2.831.148 1.848.837 6.169 4.082 6.169 3.875 0 3.875-7.813 3.875-10 0-6-2.553-11.106-2.553-11.106zm-23.447 1.106h2v1l-1 1-1-1v-1zm-2 4v-2h1l1 1-1 1h-1zm4 2h-2v-1l1-1 1 1v1zm2-2h-1l-1-.97 1-1.03h1v2zm15-4c.552 0 1 .448 1 1s-.448 1-1 1-1-.448-1-1 .448-1 1-1zm-2 4c-.552 0-1-.448-1-1s.448-1 1-1 1 .448 1 1-.448 1-1 1zm2 2c-.552 0-1-.448-1-1s.448-1 1-1 1 .448 1 1-.448 1-1 1zm2-2c-.552 0-1-.448-1-1s.448-1 1-1 1 .448 1 1-.448 1-1 1z"
    class="iconic-game-controller-body iconic-property-fill" />
  </g>
  <g class="iconic-game-controller-sm iconic-container iconic-sm" data-width="16" data-height="11" display="none" transform="scale(8) translate(0 2)">
    <circle cx="5" cy="7" r="1" class="iconic-game-controller-analog-stick iconic-game-controller-analog-stick-left iconic-property-accent iconic-property-fill" />
    <circle cx="11" cy="7" r="1" class="iconic-game-controller-analog-stick iconic-game-controller-analog-stick-right iconic-property-accent iconic-property-fill" />
    <path d="M14.277.416c-.152-.229-.502-.416-.777-.416h-11c-.275 0-.625.187-.777.416 0 0-1.723 2.584-1.723 5.584 0 1.094 0 5 1.938 5 1.268 0 1.756-1.323 1.943-2.342-.531-.36-.881-.968-.881-1.658 0-1.105.895-2 2-2s2 .895 2 2h2c0-1.105.895-2 2-2s2 .895 2 2c0 .69-.349 1.298-.881 1.658.188 1.019.675 2.342 1.944 2.342 1.938 0 1.938-3.906 1.938-5 0-3-1.723-5.584-1.723-5.584zm-8.277 2.584h-1v1h-1v-1h-1v-1h1v-1h1v1h1v1zm5.5-2c.276 0 .5.224.5.5s-.224.5-.5.5-.5-.224-.5-.5.224-.5.5-.5zm-1 2c-.276 0-.5-.224-.5-.5s.224-.5.5-.5.5.224.5.5-.224.5-.5.5zm1 1c-.276 0-.5-.224-.5-.5s.224-.5.5-.5.5.224.5.5-.224.5-.5.5zm1-1c-.276 0-.5-.224-.5-.5s.224-.5.5-.5.5.224.5.5-.224.5-.5.5z"
    class="iconic-game-controller-body iconic-property-fill" />
  </g>
</svg>