<svg xmlns="http://www.w3.org/2000/svg" class="iconic iconic-globe" width="128" height="128" viewBox="0 0 128 128">
  <g class="iconic-metadata">
    <title>Globe</title>
  </g>
  <g class="iconic-globe-lg iconic-container iconic-lg" data-width="128" data-height="128" display="inline">
    <path d="M77.73 22.563c-1.364-.928-2.058-2.11-1.543-2.625s1.359-.516 1.875 0 1.359 1.359 1.875 1.875 1.359 1.359 1.875 1.875 1.359 1.359 1.875 1.875-.186 1.686-1.559 2.602l-.633.422c-1.373.915-2.074.416-1.559-1.109s-.179-3.533-1.543-4.461l-.665-.452zm-2.48 3.937c0 1.031.844 1.031 1.875 0s1.453-2.297.938-2.813-1.359-.516-1.875 0-.938 1.781-.938 2.813zm30 4.609c0 .473.422 1.334.938 1.914s1.359.615 1.875.078 1.324-.977 1.797-.977c.473 0 .912-.404.977-.898s-.709-1.338-1.719-1.875-2.275-1.416-2.813-1.953-.994-.115-1.016.938c-.022 1.053-.039 2.301-.039 2.773zm-36.375-17.734c-1.65 0-3.422.457-3.938 1.016s-.094 1.402.938 1.875 2.297.438 2.813-.078.938-1.676.938-2.578c0 0 0 0 0-.234h-.75zm-59.25 41.172c0 1.074.422 2.375.938 2.891s1.359.938 1.875.938.203-1.133-.695-2.517l-.485-.748c-.898-1.384-1.633-1.638-1.633-.564zm2.734 6.641c-.473.516-.016 1.359 1.016 1.875s1.875.094 1.875-.938-.457-1.875-1.016-1.875-1.402.422-1.875.938zm6.641 5.625c0 1.547.422 2.813.938 2.813s.938-.422.938-.938-.422-1.781-.938-2.813-.938-.609-.938.938zm105 12.851v-31.328c-4.697-18.042-17.32-32.875-33.925-40.586h-.575c-1.65 0-3 .422-3 .938s.422 1.359.938 1.875.094.516-.938 0-2.719-.938-3.75-.938-1.875.844-1.875 1.875.422 2.297.938 2.813.516 1.359 0 1.875-.094 1.781.938 2.813 2.297 1.453 2.813.938.938-.094.938.938.422 2.297.938 2.813.516.938 0 .938-1.686 1.123-2.602 2.496l-.422.633c-.915 1.373-2.086 2.496-2.602 2.496s-.516.422 0 .938 1.359 1.025 1.875 1.133c.516.107 1.359.951 1.875 1.875s-.412 1.68-2.062 1.68h-1.5c-1.65 0-2.578 1.266-2.063 2.813s.516 2.813 0 2.813-.516.844 0 1.875 1.781 1.875 2.813 1.875 1.875.069 1.875.153c0 .084 1.1-.63 2.445-1.586l.813-.578c1.345-.956 2.41-2.565 2.367-3.575-.043-1.01-.078-2.293-.078-2.852s.475-.981 1.055-.938 1.477-.344 1.992-.859 1.746-.516 2.734 0 2.654 1.381 3.701 1.924c1.047.542 1.891 1.791 1.875 2.773s.41 1.805.947 1.826c.537.021.959-.805.938-1.836s-.514-2.279-1.094-2.773-1.828-1.338-2.773-1.875-2.176-1.398-2.734-1.914-.611-.99-.117-1.055 2 .663 3.346 1.617l.729.516c1.346.954 2.888 2.156 3.425 2.672s.977 1.342.977 1.836.475.916 1.055.938c.58.021 1.037-.787 1.016-1.797s.787-1.01 1.797 0 2.293 1.414 2.852.898 1.402-.094 1.875.938.842 2.666.82 3.633-1.287 1.389-2.813.938-3.213-.381-3.75.156-.537 1.398 0 1.914.133.938-.898.938-2.279-.44-2.773-.977-1.338-.537-1.875 0-1.398.537-1.914 0-.938-1.82-.938-2.852-.44-1.875-.977-1.875-1.363.387-1.836.859-1.721.894-2.773.938-2.336.482-2.852.977c-.516.494-1.359 1.32-1.875 1.836s-1.781 1.114-2.813 1.33-1.875.638-1.875.938-.844.967-1.875 1.482-1.875 1.781-1.875 2.813-.844 2.719-1.875 3.75-2.479 3.083-3.217 4.558l-1.067 2.133c-.738 1.476-1.342 3.105-1.342 3.621s.422 1.781.938 2.813.516 2.719 0 3.75-.938 2.297-.938 2.813.422 1.359.938 1.875.938 1.359.938 1.875.422 1.359.938 1.875 1.781 1.359 2.813 1.875 1.875 1.359 1.875 1.875 1.123 1.686 2.496 2.602l.633.422c1.373.915 3.34.82 4.371-.211s2.719-1.875 3.75-1.875 2.998-.749 4.371-1.664l.633-.422c1.373-.915 2.918-1.242 3.434-.727s1.781.938 2.813.938 1.875.844 1.875 1.875-.422 2.297-.938 2.813-.094 1.781.938 2.813 1.875 2.297 1.875 2.813-.422 1.359-.938 1.875-.938 1.359-.938 1.875-.749 2.061-1.664 3.434l-.422.633c-.915 1.373-.68 3.34.523 4.371 0 0 0 0-.313 0s-2.186 3.065-2.186 3.065c-.803 1.313-.282 2.391 1.129 2.532 10.469-8.245 18.225-19.78 21.681-33.058zm-59.062-69.101c.516-.516.938-1.781.938-2.813s1.266-1.875 2.813-1.875 3.234-.422 3.75-.938-.412-.938-2.063-.938h-22.039c-21.653 5.637-38.699 22.683-44.336 44.336v8.914c0 1.65.422 3.844.938 4.875s.938 3.141.938 4.688.422 3.234.938 3.75 1.359 1.781 1.875 2.813.516 2.323 0 2.871-.938 1.392-.938 1.875 0 1.723 0 2.754-.141 3.218-.314 4.859l-.311 2.958c5.495 12.64 15.072 23.091 27.076 29.684h.55c1.65 0 3.422-.422 3.938-.938s.938-1.359.938-1.875 1.266-.938 2.813-.938 3.234-.844 3.75-1.875.938-2.684.938-3.672.844-2.254 1.875-2.813 1.875-1.859 1.875-2.891-.844-2.297-1.875-2.813-2.297-1.359-2.813-1.875-2.203-1.333-3.75-1.816-4.012-1.498-5.479-2.254l-2.167-1.117c-1.466-.756-2.666-1.797-2.666-2.312s-.422-1.359-.938-1.875-1.359-1.781-1.875-2.813-2.061-2.624-3.434-3.539l-.633-.422c-1.373-.915-3.1-2.872-3.838-4.347l-1.067-2.133c-.738-1.476-2.185-2.683-3.217-2.683s-2.629-1.12-3.551-2.488l-.437-.649c-.922-1.369-2.089-2.066-2.594-1.551s-1.34.516-1.855 0-.937-2.287-.937-3.937v-1.5c0-1.65-.422-3.422-.938-3.938s-.516-1.781 0-2.813.938-2.727.938-3.77-.422-1.455-.938-.918-.716-.355-.446-1.983l.892-5.37c.27-1.628.913-2.959 1.429-2.959s.938.422.938.938.422.938.938.938.61 1.31.21 2.91l-.42 1.679c-.4 1.601-.042 2.91.796 2.91 0 0 0 0 .352 0s1.278-4.56 1.278-4.56c.328-1.617 1.742-3.655 3.141-4.53l.537-.336c1.399-.874 2.544-2.065 2.544-2.645s.422-1.028.938-.996.938-.39.938-.938.422-1.418.938-1.934 1.359-.516 1.875 0 .938.516.938 0 .422-1.359.938-1.875 1.359-.938 1.875-.938.938.422.938.938.422.938.938.938 1.781-.422 2.813-.938 1.875-1.359 1.875-1.875-.422-.938-.938-.938-.938-.422-.938-.938 0-1.359 0-1.875.422-.516.938 0 1.781.516 2.813 0 1.453-.516.938 0-.938 1.359-.938 1.875.422 1.359.938 1.875 1.359.938 1.875.938.938-.844.938-1.875-.422-1.875-.938-1.875-.516-.422 0-.938 1.359-1.781 1.875-2.813.516-1.875 0-1.875-.938-.422-.938-.938.422-1.359.938-1.875.92-1.359.898-1.875-.865-.516-1.875 0-1.414.094-.898-.938.516-1.893 0-1.914-1.799.435-2.852 1.016-1.932 1.424-1.953 1.875-1.145 1.595-2.497 2.541l-.553.387c-1.352.946-2.036.877-1.52-.155s.938-2.297.938-2.813 1.123-1.686 2.496-2.602l.633-.422c1.373-.915 3.762-1.664 5.309-1.664s2.812.422 2.812.938.422.938.938.938 2.061-.749 3.434-1.664l.633-.422c1.373-.915 2.918-2.086 3.434-2.602s.516-.938 0-.938-.938-.422-.938-.938.844-1.359 1.875-1.875 2.297-.516 2.813 0 .516 1.359 0 1.875-1.686 2.061-2.602 3.434l-.422.633c-.915 1.373-1.664 2.918-1.664 3.434s.422 1.359.938 1.875 1.359.938 1.875.938 1.359-.422 1.875-.938 2.061-1.686 3.434-2.602l.633-.422c1.373-.915 3.34-1.664 4.371-1.664s1.875-.422 1.875-.938.422-1.359.938-1.875z"
    class="iconic-globe-land-mass iconic-property-fill" />
    <circle stroke="#000" stroke-width="4" cx="64" cy="64" r="62" class="iconic-globe-border iconic-property-stroke" fill="none" />
  </g>
  <g class="iconic-globe-md iconic-container iconic-md" data-width="32" data-height="32" display="none" transform="scale(4)">
    <path d="M31 19.844v-7.688c-1.163-4.549-4.328-8.285-8.511-10.219h-.114c-.412 0-.75.208-.75.461s-.211.461-.469.461-.68 0-.938 0-.258.208 0 .461.479.669.491.923.223.468.469.476.447.352.447.765v.375c0 .412-.211.542-.469.289s-.686-.679-.952-.945-.698-.483-.96-.483-.466.211-.454.469.025.68.029.938.212.472.461.476.658.014.908.022.454.212.454.454.221.66.491.93.27.695 0 .945-.692.454-.938.454-.444.214-.44.476.215.687.469.945.704.234 1-.053l.798-.773c.296-.287.535-.743.531-1.013s.207-.491.469-.491.774.158 1.139.35l.505.266c.365.193.67.555.678.804s.235.243.505-.015.19-.622-.178-.808l-.567-.288c-.368-.187-.458-.33-.2-.318s.686.23.952.483.684.254.93 0 .45-.251.454.007.222.466.483.461.684.213.938.483.241.698-.029.952-.698.455-.952.447-.671.196-.926.454-.675.469-.93.469-.465-.211-.465-.469-.327-.385-.727-.283l-2.268.58c-.4.102-.938.39-1.195.64s-.68.665-.938.923-.67.683-.915.945-.463.68-.483.93-.248.668-.505.93-.251.687.015.945.478.806.471 1.219l-.005.346c-.006.412.224.991.513 1.286l1.777 1.814c.289.295.733.312.986.038s.669-.495.923-.491.676-.2.938-.454.78-.315 1.152-.137l.538.258c.372.179.669.539.661.801s-.012.814-.009 1.226l.003.404c.003.412-.149 1.05-.338 1.417l-.265.513c-.189.367-.339 1.004-.332 1.416l.006.39c.004.265.154.487.365.621 2.558-2.066 4.432-4.932 5.272-8.215zm-14.568-18.375c.27.258.705.258.967 0s.139-.469-.274-.469h-4.969c-5.466 1.397-9.759 5.69-11.156 11.156v3.094c0 .412.153 1.051.34 1.419l.273.537c.187.368.334 1.006.328 1.419l-.006.375c-.006.412.096 1.07.228 1.461l.473 1.406c.132.391.428.991.658 1.333l1.053 1.567c.23.342.415.83.411 1.084s.204.672.461.93.739.671 1.069.919l2.55 1.913c.33.247.6.239.6-.019s.217-.676.483-.93.694-.468.952-.476.462-.229.454-.491.196-.684.454-.938.459-.676.447-.938-.226-.684-.476-.938-.668-.452-.93-.44-.753-.17-1.093-.405l-1.536-1.065c-.339-.235-.61-.632-.602-.881s-.216-.665-.498-.923-.714-.68-.959-.937-.651-.683-.901-.945-.696-.711-.993-.998l-.842-.816c-.296-.287-.75-.525-1.007-.529s-.469-.345-.469-.757v-.313c0-.412.304-.604.676-.426l.566.271c.372.178.877.314 1.123.302s.207-.26-.085-.551l-1.749-1.74c-.292-.291-.529-.867-.526-1.279l.003-.375c.003-.412.217-.964.475-1.226s.461-.139.452.274l-.009.405c-.009.412.207.532.481.266s.495-.694.491-.952.2-.469.454-.469.461-.211.461-.469.24-.706.534-.995l.821-.808c.294-.289.735-.315.981-.057s.671.469.945.469.495-.217.491-.483-.228-.688-.498-.938-.153-.454.259-.454h.404c.412 0 .903-.301 1.09-.669l.273-.537c.187-.368.132-.883-.122-1.145s-.692-.255-.974.015-.717.477-.967.461-.212-.264.084-.551l.842-.816c.296-.287.749-.308 1.007-.046s.673.473.923.469.672-.222.938-.483.48-.684.476-.938.21-.455.476-.447.327.314.135.679l-.271.517c-.191.365-.348.879-.348 1.14s.221.483.491.491.695-.209.945-.483.754-.653 1.121-.842l.513-.265c.367-.189.67-.558.674-.82s-.003-.677-.015-.923.199-.236.469.022z"
    class="iconic-globe-land-mass iconic-property-fill" />
    <circle stroke="#000" stroke-width="2" cx="16" cy="16" r="15" class="iconic-globe-border iconic-property-stroke" fill="none" />
  </g>
  <g class="iconic-globe-sm iconic-container iconic-sm" data-width="16" data-height="16" display="none" transform="scale(8)">
    <path d="M15 10.675v-5.35c-.736-1.923-2.234-3.467-4.131-4.254-.143.077-.244.209-.244.367 0 .241-.197.438-.438.438s-.438.197-.438.438-.162.593-.361.784l-.19.182c-.198.19-.16.346.086.346s.648-.028.893-.063c.246-.034.286.095.089.287l-.161.157c-.197.192-.322.572-.279.844l.033.206c.043.272.285.406.538.298l1.516-.645c.253-.108.617-.357.808-.555l.179-.184c.192-.197.345-.156.341.092-.004.248.152.61.347.805l.154.154c.195.195.163.355-.07.357s-.433.202-.444.444-.211.438-.444.434c-.233-.004-.424-.204-.424-.444 0-.241-.201-.335-.446-.211l-.172.088c-.245.125-.601.298-.791.385-.19.087-.503.318-.696.515l-.175.179c-.192.197-.504.521-.692.722l-.136.145c-.188.201-.351.59-.363.864l-.031.751c-.011.275.181.599.427.721l.872.431c.246.122.653.226.904.231.251.005.648.009.884.009s.591.156.789.346l.172.165c.199.19.2.504.004.696l-.197.193c-.196.193-.355.575-.352.85l.008.732c.002.137.059.26.149.351 1.109-.84 1.976-1.979 2.481-3.3zm-14-5.35v3.925c0 .275 0 .725 0 1v.425c.536 1.4 1.475 2.598 2.681 3.45h1.187c.275 0 .657-.161.849-.358l.169-.173c.192-.197.353-.583.357-.858l.012-.737c.004-.275-.217-.502-.492-.504l-.764-.006c-.275-.002-.602-.204-.726-.45l-.436-.858c-.124-.245-.451-.444-.726-.442l-.736.006c-.275.002-.502-.221-.504-.496l-.006-.75c-.002-.275.193-.5.434-.5s.592.164.78.364l.176.188c.188.2.346.161.349-.087.004-.248-.152-.61-.347-.805l-.168-.168c-.195-.195-.347-.554-.34-.798s.014-.644.014-.889.138-.441.308-.438c.169.004.366-.187.438-.424.071-.237.355-.429.63-.426l.518.005c.275.003.652-.162.837-.365l.174-.191c.185-.203.14-.478-.102-.61l-.668-.367c-.241-.132-.429-.437-.418-.678.011-.241.177-.276.368-.078l.152.157c.191.198.508.201.704.008l.204-.201c.196-.193.353-.542.349-.775-.004-.233.19-.424.431-.424h-1.363c-1.987.76-3.565 2.337-4.325 4.325zm7.875-4.325h-2.188c.241 0 .434.194.431.431-.004.237-.162.593-.352.792l-.171.179c-.19.199-.151.362.085.362s.587-.162.779-.359l.179-.184c.192-.197.51-.516.707-.707l.53-.513z"
    class="iconic-globe-land-mass iconic-property-fill" />
    <circle stroke="#000" cx="8" cy="8" r="7.5" class="iconic-globe-border iconic-property-stroke" fill="none" />
  </g>
</svg>