<svg version="1.1" xmlns="http://www.w3.org/2000/svg" data-icon="grid" width="128" height="128" class="iconic iconic-grid iconic-orientation-square" viewBox="0 0 128 128">
  <g><title>Grid</title></g>
  <g data-width="128" data-height="128" class="iconic-lg iconic-container" display="inline">
    <g class="iconic-grid-three-up">
      <path d="M126.5 128h-33c-.8 0-1.5-.7-1.5-1.5v-33c0-.8.7-1.5 1.5-1.5h33c.8 0 1.5.7 1.5 1.5v33c0 .8-.7 1.5-1.5 1.5z" class="iconic-grid-three-up-item iconic-grid-three-up-item-9 iconic-grid-three-up-row-3 iconic-grid-three-up-column-3 iconic-property-fill"/>
      <path d="M80.5 128h-33c-.8 0-1.5-.7-1.5-1.5v-33c0-.8.7-1.5 1.5-1.5h33c.8 0 1.5.7 1.5 1.5v33c0 .8-.7 1.5-1.5 1.5z" class="iconic-grid-three-up-item iconic-grid-three-up-item-8 iconic-grid-three-up-row-3 iconic-grid-three-up-column-2 iconic-property-fill"/>
      <path d="M34.5 128h-33c-.8 0-1.5-.7-1.5-1.5v-33c0-.8.7-1.5 1.5-1.5h33c.8 0 1.5.7 1.5 1.5v33c0 .8-.7 1.5-1.5 1.5z" class="iconic-grid-three-up-item iconic-grid-three-up-item-7 iconic-grid-three-up-row-3 iconic-grid-three-up-column-1 iconic-property-fill"/>
      <path d="M126.5 82h-33c-.8 0-1.5-.7-1.5-1.5v-33c0-.8.7-1.5 1.5-1.5h33c.8 0 1.5.7 1.5 1.5v33c0 .8-.7 1.5-1.5 1.5z" class="iconic-grid-three-up-item iconic-grid-three-up-item-6 iconic-grid-three-up-row-2 iconic-grid-three-up-column-3 iconic-property-fill"/>
      <path d="M80.5 82h-33c-.8 0-1.5-.7-1.5-1.5v-33c0-.8.7-1.5 1.5-1.5h33c.8 0 1.5.7 1.5 1.5v33c0 .8-.7 1.5-1.5 1.5z" class="iconic-grid-three-up-item iconic-grid-three-up-item-5 iconic-grid-three-up-row-2 iconic-grid-three-up-column-2 iconic-property-fill"/>
      <path d="M34.5 82h-33c-.8 0-1.5-.7-1.5-1.5v-33c0-.8.7-1.5 1.5-1.5h33c.8 0 1.5.7 1.5 1.5v33c0 .8-.7 1.5-1.5 1.5z" class="iconic-grid-three-up-item iconic-grid-three-up-item-4 iconic-grid-three-up-row-2 iconic-grid-three-up-column-1 iconic-property-fill"/>
      <path d="M80.5 36h-33c-.8 0-1.5-.7-1.5-1.5v-33c0-.8.7-1.5 1.5-1.5h33c.8 0 1.5.7 1.5 1.5v33c0 .8-.7 1.5-1.5 1.5z" class="iconic-grid-three-up-item iconic-grid-three-up-item-2 iconic-grid-three-up-row-1 iconic-grid-three-up-column-2 iconic-property-fill"/>
      <path d="M126.5 36h-33c-.8 0-1.5-.7-1.5-1.5v-33c0-.8.7-1.5 1.5-1.5h33c.8 0 1.5.7 1.5 1.5v33c0 .8-.7 1.5-1.5 1.5z" class="iconic-grid-three-up-item iconic-grid-three-up-item-3 iconic-grid-three-up-row-1 iconic-grid-three-up-column-3 iconic-property-fill"/>
      <path d="M34.5 36h-33c-.8 0-1.5-.7-1.5-1.5v-33c0-.8.7-1.5 1.5-1.5h33c.8 0 1.5.7 1.5 1.5v33c0 .8-.7 1.5-1.5 1.5z" class="iconic-grid-three-up-item iconic-grid-three-up-item-1 iconic-grid-three-up-row-1 iconic-grid-three-up-column-1 iconic-property-fill"/>
    </g>
    <g class="iconic-grid-two-up" display="none">
      <path d="M126.5 128h-55c-.8 0-1.5-.7-1.5-1.5v-55c0-.8.7-1.5 1.5-1.5h55c.8 0 1.5.7 1.5 1.5v55c0 .8-.7 1.5-1.5 1.5z" class="iconic-grid-two-up-item iconic-grid-two-up-item-4 iconic-grid-two-up-row-2 iconic-grid-two-up-column-2 iconic-property-fill"/>
      <path d="M56.5 128h-55c-.8 0-1.5-.7-1.5-1.5v-55c0-.8.7-1.5 1.5-1.5h55c.8 0 1.5.7 1.5 1.5v55c0 .8-.7 1.5-1.5 1.5z" class="iconic-grid-two-up-item iconic-grid-two-up-item-3 iconic-grid-two-up-row-2 iconic-grid-two-up-column-1 iconic-property-fill"/>
      <path d="M126.5 58h-55c-.8 0-1.5-.7-1.5-1.5v-55c0-.8.7-1.5 1.5-1.5h55c.8 0 1.5.7 1.5 1.5v55c0 .8-.7 1.5-1.5 1.5z" class="iconic-grid-two-up-item iconic-grid-two-up-item-2 iconic-grid-two-up-row-1 iconic-grid-two-up-column-2 iconic-property-fill"/>
      <path d="M56.5 58h-55c-.8 0-1.5-.7-1.5-1.5v-55c0-.8.7-1.5 1.5-1.5h55c.8 0 1.5.7 1.5 1.5v55c0 .8-.7 1.5-1.5 1.5z" class="iconic-grid-two-up-item iconic-grid-two-up-item-1 iconic-grid-two-up-row-1 iconic-grid-two-up-column-1 iconic-property-fill"/>
    </g>
    <g class="iconic-grid-four-up" display="none">
      <path d="M126.5 128h-17c-.8 0-1.5-.7-1.5-1.5v-17c0-.8.7-1.5 1.5-1.5h17c.8 0 1.5.7 1.5 1.5v17c0 .8-.7 1.5-1.5 1.5z" class="iconic-grid-four-up-item iconic-grid-four-up-item-16 iconic-grid-four-up-row-4 iconic-grid-four-up-column-4 iconic-property-fill"/>
      <path d="M90.5 128h-17c-.8 0-1.5-.7-1.5-1.5v-17c0-.8.7-1.5 1.5-1.5h17c.8 0 1.5.7 1.5 1.5v17c0 .8-.7 1.5-1.5 1.5z" class="iconic-grid-four-up-item iconic-grid-four-up-item-15 iconic-grid-four-up-row-5 iconic-grid-four-up-column-3 iconic-property-fill"/>
      <path d="M54.5 128h-17c-.8 0-1.5-.7-1.5-1.5v-17c0-.8.7-1.5 1.5-1.5h17c.8 0 1.5.7 1.5 1.5v17c0 .8-.7 1.5-1.5 1.5z" class="iconic-grid-four-up-item iconic-grid-four-up-item-14 iconic-grid-four-up-row-4 iconic-grid-four-up-column-2 iconic-property-fill"/>
      <path d="M18.5 128h-17c-.8 0-1.5-.7-1.5-1.5v-17c0-.8.7-1.5 1.5-1.5h17c.8 0 1.5.7 1.5 1.5v17c0 .8-.7 1.5-1.5 1.5z" class="iconic-grid-four-up-item iconic-grid-four-up-item-13 iconic-grid-four-up-row-4 iconic-grid-four-up-column-1 iconic-property-fill"/>
      <path d="M126.5 92h-17c-.8 0-1.5-.7-1.5-1.5v-17c0-.8.7-1.5 1.5-1.5h17c.8 0 1.5.7 1.5 1.5v17c0 .8-.7 1.5-1.5 1.5z" class="iconic-grid-four-up-item iconic-grid-four-up-item-12 iconic-grid-four-up-row-3 iconic-grid-four-up-column-4 iconic-property-fill"/>
      <path d="M90.5 92h-17c-.8 0-1.5-.7-1.5-1.5v-17c0-.8.7-1.5 1.5-1.5h17c.8 0 1.5.7 1.5 1.5v17c0 .8-.7 1.5-1.5 1.5z" class="iconic-grid-four-up-item iconic-grid-four-up-item-11 iconic-grid-four-up-row-3 iconic-grid-four-up-column-3 iconic-property-fill"/>
      <path d="M54.5 92h-17c-.8 0-1.5-.7-1.5-1.5v-17c0-.8.7-1.5 1.5-1.5h17c.8 0 1.5.7 1.5 1.5v17c0 .8-.7 1.5-1.5 1.5z" class="iconic-grid-four-up-item iconic-grid-four-up-item-10 iconic-grid-four-up-row-3 iconic-grid-four-up-column-2 iconic-property-fill"/>
      <path d="M18.5 92h-17c-.8 0-1.5-.7-1.5-1.5v-17c0-.8.7-1.5 1.5-1.5h17c.8 0 1.5.7 1.5 1.5v17c0 .8-.7 1.5-1.5 1.5z" class="iconic-grid-four-up-item iconic-grid-four-up-item-9 iconic-grid-four-up-row-3 iconic-grid-four-up-column-1 iconic-property-fill"/>
      <path d="M126.5 56h-17c-.8 0-1.5-.7-1.5-1.5v-17c0-.8.7-1.5 1.5-1.5h17c.8 0 1.5.7 1.5 1.5v17c0 .8-.7 1.5-1.5 1.5z" class="iconic-grid-four-up-item iconic-grid-four-up-item-8 iconic-grid-four-up-row-2 iconic-grid-four-up-column-4 iconic-property-fill"/>
      <path d="M90.5 56h-17c-.8 0-1.5-.7-1.5-1.5v-17c0-.8.7-1.5 1.5-1.5h17c.8 0 1.5.7 1.5 1.5v17c0 .8-.7 1.5-1.5 1.5z" class="iconic-grid-four-up-item iconic-grid-four-up-item-7 iconic-grid-four-up-row-2 iconic-grid-four-up-column-3 iconic-property-fill"/>
      <path d="M54.5 56h-17c-.8 0-1.5-.7-1.5-1.5v-17c0-.8.7-1.5 1.5-1.5h17c.8 0 1.5.7 1.5 1.5v17c0 .8-.7 1.5-1.5 1.5z" class="iconic-grid-four-up-item iconic-grid-four-up-item-6 iconic-grid-four-up-row-2 iconic-grid-four-up-column-2 iconic-property-fill"/>
      <path d="M18.5 56h-17c-.8 0-1.5-.7-1.5-1.5v-17c0-.8.7-1.5 1.5-1.5h17c.8 0 1.5.7 1.5 1.5v17c0 .8-.7 1.5-1.5 1.5z" class="iconic-grid-four-up-item iconic-grid-four-up-item-5 iconic-grid-four-up-row-2 iconic-grid-four-up-column-1 iconic-property-fill"/>
      <path d="M126.5 20h-17c-.8 0-1.5-.7-1.5-1.5v-17c0-.8.7-1.5 1.5-1.5h17c.8 0 1.5.7 1.5 1.5v17c0 .8-.7 1.5-1.5 1.5z" class="iconic-grid-four-up-item iconic-grid-four-up-item-4 iconic-grid-four-up-row-1 iconic-grid-four-up-column-4 iconic-property-fill"/>
      <path d="M90.5 20h-17c-.8 0-1.5-.7-1.5-1.5v-17c0-.8.7-1.5 1.5-1.5h17c.8 0 1.5.7 1.5 1.5v17c0 .8-.7 1.5-1.5 1.5z" class="iconic-grid-four-up-item iconic-grid-four-up-item-3 iconic-grid-four-up-row-1 iconic-grid-four-up-column-3 iconic-property-fill"/>
      <path d="M54.5 20h-17c-.8 0-1.5-.7-1.5-1.5v-17c0-.8.7-1.5 1.5-1.5h17c.8 0 1.5.7 1.5 1.5v17c0 .8-.7 1.5-1.5 1.5z" class="iconic-grid-four-up-item iconic-grid-four-up-item-2 iconic-grid-four-up-row-1 iconic-grid-four-up-column-2 iconic-property-fill"/>
      <path d="M18.5 20h-17c-.8 0-1.5-.7-1.5-1.5v-17c0-.8.7-1.5 1.5-1.5h17c.8 0 1.5.7 1.5 1.5v17c0 .8-.7 1.5-1.5 1.5z" class="iconic-grid-four-up-item iconic-grid-four-up-item-1 iconic-grid-four-up-row-1 iconic-grid-four-up-column-1 iconic-property-fill"/>
    </g>
  </g>
  <g data-width="32" data-height="32" class="iconic-md iconic-container" display="none" transform="scale(4)">
    <g class="iconic-grid-three-up">
      <path d="M31.5 32h-7c-.3 0-.5-.2-.5-.5v-7c0-.3.2-.5.5-.5h7c.3 0 .5.2.5.5v7c0 .3-.2.5-.5.5z" class="iconic-grid-three-up-item iconic-grid-three-up-item-9 iconic-grid-three-up-row-3 iconic-grid-three-up-column-3 iconic-property-fill"/>
      <path d="M19.5 32h-7c-.3 0-.5-.2-.5-.5v-7c0-.3.2-.5.5-.5h7c.3 0 .5.2.5.5v7c0 .3-.2.5-.5.5z" class="iconic-grid-three-up-item iconic-grid-three-up-item-8 iconic-grid-three-up-row-3 iconic-grid-three-up-column-2 iconic-property-fill"/>
      <path d="M7.5 32h-7c-.3 0-.5-.2-.5-.5v-7c0-.3.2-.5.5-.5h7c.3 0 .5.2.5.5v7c0 .3-.2.5-.5.5z" class="iconic-grid-three-up-item iconic-grid-three-up-item-7 iconic-grid-three-up-row-3 iconic-grid-three-up-column-1 iconic-property-fill"/>
      <path d="M31.5 20h-7c-.3 0-.5-.2-.5-.5v-7c0-.3.2-.5.5-.5h7c.3 0 .5.2.5.5v7c0 .3-.2.5-.5.5z" class="iconic-grid-three-up-item iconic-grid-three-up-item-6 iconic-grid-three-up-row-2 iconic-grid-three-up-column-3 iconic-property-fill"/>
      <path d="M19.5 20h-7c-.3 0-.5-.2-.5-.5v-7c0-.3.2-.5.5-.5h7c.3 0 .5.2.5.5v7c0 .3-.2.5-.5.5z" class="iconic-grid-three-up-item iconic-grid-three-up-item-5 iconic-grid-three-up-row-2 iconic-grid-three-up-column-2 iconic-property-fill"/>
      <path d="M7.5 20h-7c-.3 0-.5-.2-.5-.5v-7c0-.3.2-.5.5-.5h7c.3 0 .5.2.5.5v7c0 .3-.2.5-.5.5z" class="iconic-grid-three-up-item iconic-grid-three-up-item-4 iconic-grid-three-up-row-2 iconic-grid-three-up-column-1 iconic-property-fill"/>
      <path d="M31.5 8h-7c-.3 0-.5-.2-.5-.5v-7c0-.3.2-.5.5-.5h7c.3 0 .5.2.5.5v7c0 .3-.2.5-.5.5z" class="iconic-grid-three-up-item iconic-grid-three-up-item-3 iconic-grid-three-up-row-1 iconic-grid-three-up-column-3 iconic-property-fill"/>
      <path d="M19.5 8h-7c-.3 0-.5-.2-.5-.5v-7c0-.3.2-.5.5-.5h7c.3 0 .5.2.5.5v7c0 .3-.2.5-.5.5z" class="iconic-grid-three-up-item iconic-grid-three-up-item-2 iconic-grid-three-up-row-1 iconic-grid-three-up-column-2 iconic-property-fill"/>
      <path d="M7.5 8h-7c-.3 0-.5-.2-.5-.5v-7c0-.3.2-.5.5-.5h7c.3 0 .5.2.5.5v7c0 .3-.2.5-.5.5z" class="iconic-grid-three-up-item iconic-grid-three-up-item-1 iconic-grid-three-up-row-1 iconic-grid-three-up-column-1 iconic-property-fill"/>
    </g>
    <g class="iconic-grid-two-up" display="none">
      <path d="M31.5 32h-13c-.3 0-.5-.2-.5-.5v-13c0-.3.2-.5.5-.5h13c.3 0 .5.2.5.5v13c0 .3-.2.5-.5.5z" class="iconic-grid-two-up-item iconic-grid-two-up-item-4 iconic-grid-two-up-row-2 iconic-grid-two-up-column-2 iconic-property-fill"/>
      <path d="M13.5 32h-13c-.3 0-.5-.2-.5-.5v-13c0-.3.2-.5.5-.5h13c.3 0 .5.2.5.5v13c0 .3-.2.5-.5.5z" class="iconic-grid-two-up-item iconic-grid-two-up-item-3 iconic-grid-two-up-row-2 iconic-grid-two-up-column-1 iconic-property-fill"/>
      <path d="M31.5 14h-13c-.3 0-.5-.2-.5-.5v-13c0-.3.2-.5.5-.5h13c.3 0 .5.2.5.5v13c0 .3-.2.5-.5.5z" class="iconic-grid-two-up-item iconic-grid-two-up-item-2 iconic-grid-two-up-row-1 iconic-grid-two-up-column-2 iconic-property-fill"/>
      <path d="M13.5 14h-13c-.3 0-.5-.2-.5-.5v-13c0-.3.2-.5.5-.5h13c.3 0 .5.2.5.5v13c0 .3-.2.5-.5.5z" class="iconic-grid-two-up-item iconic-grid-two-up-item-1 iconic-grid-two-up-row-1 iconic-grid-two-up-column-1 iconic-property-fill"/>
    </g>
    <g class="iconic-grid-four-up" display="none">
      <path d="M31.5 32h-4c-.3 0-.5-.2-.5-.5v-4c0-.3.2-.5.5-.5h4c.3 0 .5.2.5.5v4c0 .3-.2.5-.5.5z" class="iconic-grid-four-up-item iconic-grid-four-up-item-16 iconic-grid-four-up-row-4 iconic-grid-four-up-column-4 iconic-property-fill"/>
      <path d="M22.5 32h-4c-.3 0-.5-.2-.5-.5v-4c0-.3.2-.5.5-.5h4c.3 0 .5.2.5.5v4c0 .3-.2.5-.5.5z" class="iconic-grid-four-up-item iconic-grid-four-up-item-15 iconic-grid-four-up-row-5 iconic-grid-four-up-column-3 iconic-property-fill"/>
      <path d="M13.5 32h-4c-.3 0-.5-.2-.5-.5v-4c0-.3.2-.5.5-.5h4c.3 0 .5.2.5.5v4c0 .3-.2.5-.5.5z" class="iconic-grid-four-up-item iconic-grid-four-up-item-14 iconic-grid-four-up-row-4 iconic-grid-four-up-column-2 iconic-property-fill"/>
      <path d="M4.5 32h-4c-.3 0-.5-.2-.5-.5v-4c0-.3.2-.5.5-.5h4c.3 0 .5.2.5.5v4c0 .3-.2.5-.5.5z" class="iconic-grid-four-up-item iconic-grid-four-up-item-13 iconic-grid-four-up-row-4 iconic-grid-four-up-column-1 iconic-property-fill"/>
      <path d="M31.5 23h-4c-.3 0-.5-.2-.5-.5v-4c0-.3.2-.5.5-.5h4c.3 0 .5.2.5.5v4c0 .3-.2.5-.5.5z" class="iconic-grid-four-up-item iconic-grid-four-up-item-12 iconic-grid-four-up-row-3 iconic-grid-four-up-column-4 iconic-property-fill"/>
      <path d="M22.5 23h-4c-.3 0-.5-.2-.5-.5v-4c0-.3.2-.5.5-.5h4c.3 0 .5.2.5.5v4c0 .3-.2.5-.5.5z" class="iconic-grid-four-up-item iconic-grid-four-up-item-11 iconic-grid-four-up-row-3 iconic-grid-four-up-column-3 iconic-property-fill"/>
      <path d="M13.5 23h-4c-.3 0-.5-.2-.5-.5v-4c0-.3.2-.5.5-.5h4c.3 0 .5.2.5.5v4c0 .3-.2.5-.5.5z" class="iconic-grid-four-up-item iconic-grid-four-up-item-10 iconic-grid-four-up-row-3 iconic-grid-four-up-column-2 iconic-property-fill"/>
      <path d="M4.5 23h-4c-.3 0-.5-.2-.5-.5v-4c0-.3.2-.5.5-.5h4c.3 0 .5.2.5.5v4c0 .3-.2.5-.5.5z" class="iconic-grid-four-up-item iconic-grid-four-up-item-9 iconic-grid-four-up-row-3 iconic-grid-four-up-column-1 iconic-property-fill"/>
      <path d="M31.5 14h-4c-.3 0-.5-.2-.5-.5v-4c0-.3.2-.5.5-.5h4c.3 0 .5.2.5.5v4c0 .3-.2.5-.5.5z" class="iconic-grid-four-up-item iconic-grid-four-up-item-8 iconic-grid-four-up-row-2 iconic-grid-four-up-column-4 iconic-property-fill"/>
      <path d="M22.5 14h-4c-.3 0-.5-.2-.5-.5v-4c0-.3.2-.5.5-.5h4c.3 0 .5.2.5.5v4c0 .3-.2.5-.5.5z" class="iconic-grid-four-up-item iconic-grid-four-up-item-7 iconic-grid-four-up-row-2 iconic-grid-four-up-column-3 iconic-property-fill"/>
      <path d="M13.5 14h-4c-.3 0-.5-.2-.5-.5v-4c0-.3.2-.5.5-.5h4c.3 0 .5.2.5.5v4c0 .3-.2.5-.5.5z" class="iconic-grid-four-up-item iconic-grid-four-up-item-6 iconic-grid-four-up-row-2 iconic-grid-four-up-column-2 iconic-property-fill"/>
      <path d="M4.5 14h-4c-.3 0-.5-.2-.5-.5v-4c0-.3.2-.5.5-.5h4c.3 0 .5.2.5.5v4c0 .3-.2.5-.5.5z" class="iconic-grid-four-up-item iconic-grid-four-up-item-5 iconic-grid-four-up-row-2 iconic-grid-four-up-column-1 iconic-property-fill"/>
      <path d="M31.5 5h-4c-.3 0-.5-.2-.5-.5v-4c0-.3.2-.5.5-.5h4c.3 0 .5.2.5.5v4c0 .3-.2.5-.5.5z" class="iconic-grid-four-up-item iconic-grid-four-up-item-4 iconic-grid-four-up-row-1 iconic-grid-four-up-column-4 iconic-property-fill"/>
      <path d="M22.5 5h-4c-.3 0-.5-.2-.5-.5v-4c0-.3.2-.5.5-.5h4c.3 0 .5.2.5.5v4c0 .3-.2.5-.5.5z" class="iconic-grid-four-up-item iconic-grid-four-up-item-3 iconic-grid-four-up-row-1 iconic-grid-four-up-column-3 iconic-property-fill"/>
      <path d="M13.5 5h-4c-.3 0-.5-.2-.5-.5v-4c0-.3.2-.5.5-.5h4c.3 0 .5.2.5.5v4c0 .3-.2.5-.5.5z" class="iconic-grid-four-up-item iconic-grid-four-up-item-2 iconic-grid-four-up-row-1 iconic-grid-four-up-column-2 iconic-property-fill"/>
      <path d="M4.5 5h-4c-.3 0-.5-.2-.5-.5v-4c0-.3.2-.5.5-.5h4c.3 0 .5.2.5.5v4c0 .3-.2.5-.5.5z" class="iconic-grid-four-up-item iconic-grid-four-up-item-1 iconic-grid-four-up-row-1 iconic-grid-four-up-column-1 iconic-property-fill"/>
    </g>
  </g>
  <g data-width="16" data-height="16" class="iconic-sm iconic-container" display="none" transform="scale(8)">
    <g class="iconic-grid-three-up">
      <path class="iconic-grid-three-up-item iconic-grid-three-up-item-9 iconic-grid-three-up-row-3 iconic-grid-three-up-column-3 iconic-property-fill" d="M12 12h4v4h-4z"/>
      <path class="iconic-grid-three-up-item iconic-grid-three-up-item-8 iconic-grid-three-up-row-3 iconic-grid-three-up-column-2 iconic-property-fill" d="M6 12h4v4h-4z"/>
      <path class="iconic-grid-three-up-item iconic-grid-three-up-item-7 iconic-grid-three-up-row-3 iconic-grid-three-up-column-1 iconic-property-fill" d="M0 12h4v4h-4z"/>
      <path class="iconic-grid-three-up-item iconic-grid-three-up-item-6 iconic-grid-three-up-row-2 iconic-grid-three-up-column-3 iconic-property-fill" d="M12 6h4v4h-4z"/>
      <path class="iconic-grid-three-up-item iconic-grid-three-up-item-5 iconic-grid-three-up-row-2 iconic-grid-three-up-column-2 iconic-property-fill" d="M6 6h4v4h-4z"/>
      <path class="iconic-grid-three-up-item iconic-grid-three-up-item-4 iconic-grid-three-up-row-2 iconic-grid-three-up-column-1 iconic-property-fill" d="M0 6h4v4h-4z"/>
      <path class="iconic-grid-three-up-item iconic-grid-three-up-item-3 iconic-grid-three-up-row-1 iconic-grid-three-up-column-3 iconic-property-fill" d="M12 0h4v4h-4z"/>
      <path class="iconic-grid-three-up-item iconic-grid-three-up-item-2 iconic-grid-three-up-row-1 iconic-grid-three-up-column-2 iconic-property-fill" d="M6 0h4v4h-4z"/>
      <path class="iconic-grid-three-up-item iconic-grid-three-up-item-1 iconic-grid-three-up-row-1 iconic-grid-three-up-column-1 iconic-property-fill" d="M0 0h4v4h-4z"/>
    </g>
  </g>
  <g data-width="16" data-height="16" class="iconic-sm iconic-container" display="none" transform="scale(8)">
    <g class="iconic-grid-two-up" display="none">
      <path class="iconic-grid-two-up-item iconic-grid-two-up-item-4 iconic-grid-two-up-row-2 iconic-grid-two-up-column-2 iconic-property-fill" d="M9 9h7v7h-7z"/>
      <path class="iconic-grid-two-up-item iconic-grid-two-up-item-3 iconic-grid-two-up-row-2 iconic-grid-two-up-column-1 iconic-property-fill" d="M0 9h7v7h-7z"/>
      <path class="iconic-grid-two-up-item iconic-grid-two-up-item-2 iconic-grid-two-up-row-1 iconic-grid-two-up-column-2 iconic-property-fill" d="M9 0h7v7h-7z"/>
      <path class="iconic-grid-two-up-item iconic-grid-two-up-item-1 iconic-grid-two-up-row-1 iconic-grid-two-up-column-1 iconic-property-fill" d="M0 0h7v7h-7z"/>
    </g>
  </g>
  <g data-width="14" data-height="14" class="iconic-sm iconic-container" display="none" transform="scale(8) translate(1 1)">
    <g class="iconic-grid-four-up" display="none">
      <path class="iconic-grid-four-up-item iconic-grid-four-up-item-16 iconic-grid-four-up-row-4 iconic-grid-four-up-column-4 iconic-property-fill" d="M12 12h2v2h-2z"/>
      <path class="iconic-grid-four-up-item iconic-grid-four-up-item-15 iconic-grid-four-up-row-4 iconic-grid-four-up-column-3 iconic-property-fill" d="M8 12h2v2h-2z"/>
      <path class="iconic-grid-four-up-item iconic-grid-four-up-item-14 iconic-grid-four-up-row-4 iconic-grid-four-up-column-2 iconic-property-fill" d="M4 12h2v2h-2z"/>
      <path class="iconic-grid-four-up-item iconic-grid-four-up-item-13 iconic-grid-four-up-row-4 iconic-grid-four-up-column-1 iconic-property-fill" d="M0 12h2v2h-2z"/>
      <path class="iconic-grid-four-up-item iconic-grid-four-up-item-12 iconic-grid-four-up-row-3 iconic-grid-four-up-column-4 iconic-property-fill" d="M12 8h2v2h-2z"/>
      <path class="iconic-grid-four-up-item iconic-grid-four-up-item-11 iconic-grid-four-up-row-3 iconic-grid-four-up-column-3 iconic-property-fill" d="M8 8h2v2h-2z"/>
      <path class="iconic-grid-four-up-item iconic-grid-four-up-item-10 iconic-grid-four-up-row-3 iconic-grid-four-up-column-2 iconic-property-fill" d="M4 8h2v2h-2z"/>
      <path class="iconic-grid-four-up-item iconic-grid-four-up-item-9 iconic-grid-four-up-row-3 iconic-grid-four-up-column-1 iconic-property-fill" d="M0 8h2v2h-2z"/>
      <path class="iconic-grid-four-up-item iconic-grid-four-up-item-8 iconic-grid-four-up-row-2 iconic-grid-four-up-column-4 iconic-property-fill" d="M12 4h2v2h-2z"/>
      <path class="iconic-grid-four-up-item iconic-grid-four-up-item-7 iconic-grid-four-up-row-2 iconic-grid-four-up-column-3 iconic-property-fill" d="M8 4h2v2h-2z"/>
      <path class="iconic-grid-four-up-item iconic-grid-four-up-item-6 iconic-grid-four-up-row-2 iconic-grid-four-up-column-2 iconic-property-fill" d="M4 4h2v2h-2z"/>
      <path class="iconic-grid-four-up-item iconic-grid-four-up-item-5 iconic-grid-four-up-row-2 iconic-grid-four-up-column-1 iconic-property-fill" d="M0 4h2v2h-2z"/>
      <path class="iconic-grid-four-up-item iconic-grid-four-up-item-4 iconic-grid-four-up-row-1 iconic-grid-four-up-column-4 iconic-property-fill" d="M12 0h2v2h-2z"/>
      <path class="iconic-grid-four-up-item iconic-grid-four-up-item-3 iconic-grid-four-up-row-1 iconic-grid-four-up-column-3 iconic-property-fill" d="M8 0h2v2h-2z"/>
      <path class="iconic-grid-four-up-item iconic-grid-four-up-item-2 iconic-grid-four-up-row-1 iconic-grid-four-up-column-2 iconic-property-fill" d="M4 0h2v2h-2z"/>
      <path class="iconic-grid-four-up-item iconic-grid-four-up-item-1 iconic-grid-four-up-row-1 iconic-grid-four-up-column-1 iconic-property-fill" d="M0 0h2v2h-2z"/>
    </g>
  </g>
<script class="iconic-api" type="application/ecmascript">
//<![CDATA[
var iconicApis=window._Iconic?window._Iconic.smartIconApis:{};iconicApis["grid"]=iconicApis["grid"]||function(t){var e=function(e){t.setAttribute("data-state",e);var i,r,a,n=t.querySelectorAll(".iconic-grid-three-up"),o=t.querySelectorAll(".iconic-grid-two-up"),c=t.querySelectorAll(".iconic-grid-four-up");switch(i=r=a="none",e){case"four-up":a="inline";break;case"two-up":r="inline";break;default:i="inline"}for(var s=0;s<n.length;s++)n[s].setAttribute("display",i),o[s].setAttribute("display",r),c[s].setAttribute("display",a)},i=function(){var i=t.getAttribute("data-state");i&&e(i)};return{update:i,setState:e}};
//]]>
</script>
</svg>