<svg xmlns="http://www.w3.org/2000/svg" class="iconic iconic-hammer" width="128" height="128" viewBox="0 0 128 128">
  <g class="iconic-metadata">
    <title>Hammer</title>
  </g>
  <defs>
    <clipPath id="iconic-size-lg-hammer-clip-0">
      <path d="M62 46l12 12v70h-74v-82z" />
    </clipPath>
    <clipPath id="iconic-size-md-hammer-clip-0">
      <path d="M0 11v21h19v-17l-4-4z" />
    </clipPath>
    <clipPath id="iconic-size-sm-hammer-clip-0">
      <path d="M7 6h-7v10h9v-8z" />
    </clipPath>
  </defs>
  <g class="iconic-hammer-lg iconic-container iconic-lg" data-width="127" data-height="128" display="inline">
    <path d="M127.646 31.646l-1.293-1.293c-.673-.673-1.715-1.715-2.353-2.353-4-4-6 0-10-4s-2-8-6-12c-12-12-16-12-40-12 28 12.125 19.938 24.063 16 28l-18 18 8 8 18-18c5.875-5.875 7.875-6.125 12-2 4.083 4.083 0 6 4 10 1 1 3 3 3 3l.646.646c.195.195.513.195.707 0l15.293-15.293c.195-.194.195-.513 0-.707z"
    class="iconic-hammer-head iconic-property-fill" />
    <path clip-path="url(#iconic-size-lg-hammer-clip-0)" d="M57.154 52.949l-6.308 2.103c-1.572.524-3.796 1.898-4.967 3.07l-43.757 43.757c-1.172 1.172-1.521 3.323-.78 4.805l9.317 18.633c.741 1.482 2.088 1.567 3.009.189l4.728-7.074c.921-1.377 2.617-3.444 3.788-4.615l39.695-39.695c1.172-1.172 2.538-3.398 3.052-4.973l2.014-6.171c.514-1.575 1.88-3.802 3.052-4.973l1.882-1.882c1.172-1.172 1.172-3.071 0-4.243l-3.757-3.757c-1.172-1.172-3.071-1.172-4.243 0l-1.757 1.757c-1.172 1.172-3.396 2.546-4.967 3.07z"
    class="iconic-hammer-handle iconic-property-accent iconic-property-fill" />
  </g>
  <g class="iconic-hammer-md iconic-container iconic-md" data-width="32" data-height="32" display="none" transform="scale(4)">
    <path d="M31 7c-1-1-1 0-2-1s0-1-1-2-1-1-1-1c-3-3-4-3-10-3 7 3.031 4.984 6.016 4 7l-9 9 2 2 9-9c.984-.984 1.969-1.031 3 0s0 1 1 2 1 1 1 1l4-4s0 0-1-1z" class="iconic-hammer-head iconic-property-fill" />
    <path clip-path="url(#iconic-size-md-hammer-clip-0)" d="M14.526 13.158l-2.051.684c-.262.087-.633.316-.828.512l-11.293 11.293c-.195.195-.253.554-.13.801l2.553 5.106c.123.247.348.261.501.032l1.46-2.184c.153-.23.436-.574.631-.769l10.277-10.277c.195-.195.423-.566.509-.829l.658-2.018c.086-.263.313-.634.509-.829l1.324-1.324c.195-.195.195-.512 0-.707l-1.293-1.293c-.195-.195-.512-.195-.707 0l-1.293 1.293c-.195.195-.566.424-.828.512z"
    class="iconic-hammer-handle iconic-property-accent iconic-property-fill" />
  </g>
  <g class="iconic-hammer-sm iconic-container iconic-sm" data-width="16" data-height="16" display="none" transform="scale(8)">
    <path d="M14 2c-2-2-3-2-6-2 2.96 1.002 3 2.948 2.04 3.96l-4.04 4.04 1 1 4-4c.001.001.001.001.002.002 1-1 .999-1.002 2-.001.515.515 0 0 .5.5s.5.5.5.5l1.999-1.999s-1-1.001-2-2.001z" class="iconic-hammer-head iconic-property-fill" />
    <path clip-path="url(#iconic-size-sm-hammer-clip-0)" d="M6.75 7h-.5c-.138 0-.329.079-.427.177l-5.646 5.646c-.098.098-.115.27-.038.385l1.723 2.584c.077.115.189.108.251-.015l.783-1.561c.062-.123.191-.303.289-.4l4.639-4.639c.098-.098.175-.289.173-.427l-.008-.484c-.002-.138.075-.329.173-.427l1.662-1.662c.098-.098.098-.256 0-.354l-.646-.646c-.098-.098-.256-.098-.354 0l-1.646 1.646c-.098.098-.289.177-.427.177z"
    class="iconic-hammer-handle iconic-property-accent iconic-property-fill" />
  </g>
</svg>