<svg xmlns="http://www.w3.org/2000/svg" class="iconic iconic-hand" width="128" height="128" viewBox="0 0 128 128">
  <g class="iconic-metadata">
    <title>Hand</title>
  </g>
  <g class="iconic-hand-lg iconic-container iconic-lg" data-width="104" data-height="128" display="inline" transform="translate(12)">
    <path d="M101.657 70.343c-3.124-3.124-8.19-3.124-11.314 0l-10.343 8.503c-3.165 2.602-8 .778-8-2.846v-62c0-3.314-2.686-6-6-6s-6 2.686-6 6v38c0 2.209-1.791 4-4 4s-4-1.791-4-4v-46c0-3.314-2.686-6-6-6s-6 2.686-6 6v50c0 2.209-1.791 4-4 4s-4-1.791-4-4v-42c0-3.314-2.686-6-6-6s-6 2.686-6 6v46c0 2.209-1.791 4-4 4s-4-1.791-4-4v-38c0-3.314-2.686-6-6-6s-6 2.686-6 6v70c0 19.882 16.118 36 36 36 9.223 0 17.631-3.472 24.001-9.175l-.001.007s41.448-36.966 41.657-37.175c3.124-3.124 3.124-8.19 0-11.314z"
    class="iconic-property-fill" />
  </g>
  <g class="iconic-hand-md iconic-container iconic-md" data-width="26" data-height="32" display="none" transform="scale(4) translate(3)">
    <path d="M25.414 16.586c-.781-.781-2.01-.742-2.828 0-.62.562-2.447 2.011-2.586 2.126-.791.65-2 .195-2-.712v-14.5c0-.828-.672-1.5-1.5-1.5s-1.5.672-1.5 1.5v9.5c0 .552-.448 1-1 1s-1-.448-1-1v-11.5c0-.828-.672-1.5-1.5-1.5s-1.5.672-1.5 1.5v12.5c0 .552-.448 1-1 1s-1-.448-1-1v-10.5c0-.828-.672-1.5-1.5-1.5s-1.5.672-1.5 1.5v11.5c0 .552-.448 1-1 1s-1-.448-1-1v-9.5c0-.828-.672-1.5-1.5-1.5s-1.5.672-1.5 1.5c0 0 0 16.581 0 17.5 0 4.971 4.029 9 9 9 2.309 0 4.442-.84 6.001-2.306 2.665-2.506 7.958-7.839 10.413-10.28.783-.779.781-2.047 0-2.828z"
    class="iconic-property-fill" />
  </g>
  <g class="iconic-hand-sm iconic-container iconic-sm" data-width="15" data-height="16" display="none" transform="scale(8)">
    <path d="M14.707 8.293c-.391-.391-1.024-.391-1.414 0 0 0-1.061.872-1.293 1.063-.396.325-1 .097-1-.356v-7c0-.552-.448-1-1-1s-1 .448-1 1v4.5c0 .276-.224.5-.5.5s-.5-.224-.5-.5v-5.5c0-.552-.448-1-1-1s-1 .448-1 1v5.5c0 .276-.224.5-.5.5s-.5-.224-.5-.5v-4.5c0-.552-.448-1-1-1s-1 .448-1 1v5.5c0 .276-.224.5-.5.5s-.5-.224-.5-.5v-4.5c0-.552-.448-1-1-1s-1 .448-1 1c0 0 0 7.331 0 7.5 0 3.037 2.462 5.5 5.5 5.5 1.343 0 2.573-.483 3.528-1.283 0 0 4.299-3.714 5.679-5.01.403-.378.391-1.024 0-1.414z"
    class="iconic-property-fill" />
  </g>
</svg>