<svg xmlns="http://www.w3.org/2000/svg" class="iconic iconic-hard-drive" width="128" height="128" viewBox="0 0 128 128">
  <g class="iconic-metadata">
    <title>Hard Drive</title>
  </g>
  <defs>
    <clipPath id="iconic-size-lg-hard-drive-clip-0">
      <path d="M0 0v96c0 2.206 1.794 4 4 4h90c2.206 0 4-1.794 4-4v-96h-98zm50 86c-6.362 0-12.335-1.657-17.522-4.553-1.53 2.52-2.847 4.479-3.7 5.331-2.077 2.078-4.84 3.222-7.778 3.222s-5.701-1.144-7.778-3.222c-4.289-4.289-4.289-11.267 0-15.556.853-.853 2.811-2.17 5.331-3.7-2.896-5.187-4.553-11.159-4.553-17.522 0-19.882 16.118-36 36-36s36 16.118 36 36-16.118 36-36 36z"
      />
    </clipPath>
    <clipPath id="iconic-size-lg-hard-drive-clip-1">
      <path d="M94 104h-90c-1.458 0-2.822-.398-4-1.083v25.082h98v-25.082c-1.178.684-2.542 1.082-4 1.082zm-80 18h-2v-12h2v12zm4 0h-2v-12h2v12zm4 0h-2v-12h2v12zm4 0h-2v-12h2v12zm4 0h-2v-12h2v12zm4 0h-2v-12h2v12zm4 0h-2v-12h2v12zm50-4c-1.105 0-2-.895-2-2s.895-2 2-2 2 .895 2 2-.895 2-2 2z"
      />
    </clipPath>
    <clipPath id="iconic-size-md-hard-drive-clip-0">
      <path d="M0 0v23c0 .551.449 1 1 1h22c.551 0 1-.449 1-1v-23h-24zm12 20c-1.452 0-2.81-.393-3.984-1.069-.845 1.165-1.549 2.107-1.779 2.337-.472.472-1.1.732-1.768.732-.668 0-1.296-.26-1.768-.732s-.732-1.1-.732-1.768.26-1.296.732-1.768c.231-.231 1.179-.934 2.352-1.776-.667-1.168-1.053-2.516-1.053-3.957 0-4.418 3.582-8 8-8s8 3.582 8 8-3.582 8-8 8z"
      />
    </clipPath>
    <clipPath id="iconic-size-md-hard-drive-clip-1">
      <path d="M23 26h-22c-.352 0-.686-.072-1-.184v6.184h24v-6.184c-.314.112-.648.184-1 .184zm-19 5h-1v-4h1v4zm2 0h-1v-4h1v4zm2 0h-1v-4h1v4zm2 0h-1v-4h1v4zm10-1c-.552 0-1-.448-1-1s.448-1 1-1 1 .448 1 1-.448 1-1 1z" />
    </clipPath>
    <clipPath id="iconic-size-sm-hard-drive-clip-0">
      <path d="M0 0v10.5c0 .276.224.5.5.5h12c.276 0 .5-.224.5-.5v-10.5h-13zm6.5 9c-.251 0-.494-.029-.73-.079-.126.212-.246.384-.355.493-.378.378-.88.586-1.414.586-.534 0-1.036-.208-1.414-.586s-.586-.88-.586-1.414.208-1.036.586-1.414c.109-.109.281-.23.493-.355-.05-.236-.079-.48-.079-.73 0-1.933 1.567-3.5 3.5-3.5s3.5 1.567 3.5 3.5-1.567 3.5-3.5 3.5z"
      />
    </clipPath>
    <clipPath id="iconic-size-sm-hard-drive-clip-1">
      <path d="M12.5 12h-12c-.176 0-.343-.036-.5-.092v4.092h13v-4.092c-.157.056-.324.092-.5.092zm-9.5 3h-1v-2h1v2zm2 0h-1v-2h1v2zm5 0c-.552 0-1-.448-1-1s.448-1 1-1 1 .448 1 1-.448 1-1 1z" />
    </clipPath>
  </defs>
  <g class="iconic-hard-drive-lg iconic-container iconic-lg" data-width="98" data-height="128" display="inline" transform="translate(15)">
    <path clip-path="url(#iconic-size-lg-hard-drive-clip-0)" d="M0 8v112c0 4.418 3.582 8 8 8h82c4.418 0 8-3.582 8-8v-112c0-4.418-3.582-8-8-8h-82c-4.418 0-8 3.582-8 8z" class="iconic-hard-drive-casing iconic-hard-drive-casing-top iconic-property-fill" />
    <path clip-path="url(#iconic-size-lg-hard-drive-clip-1)" d="M0 8v112c0 4.418 3.582 8 8 8h82c4.418 0 8-3.582 8-8v-112c0-4.418-3.582-8-8-8h-82c-4.418 0-8 3.582-8 8z" class="iconic-hard-drive-casing iconic-hard-drive-casing-bottom iconic-property-fill"
    />
    <path stroke="#000" stroke-width="2" d="M43.541 61.272c1.904 1.094 4.105 1.728 6.459 1.728 7.18 0 13-5.82 13-13s-5.82-13-13-13-13 5.82-13 13c0 2.353.635 4.554 1.728 6.459" class="iconic-hard-drive-plate iconic-hard-drive-plate-inner-rim iconic-property-accent iconic-property-stroke"
    fill="none" />
    <circle cx="50" cy="50" r="4" class="iconic-hard-drive-plate iconic-hard-drive-plate-axis iconic-property-fill" />
    <path d="M14.636 72.636c-3.515 3.515-3.515 9.213 0 12.728s9.213 3.515 12.728 0 16.636-29.364 16.636-29.364-25.849 13.121-29.364 16.636zm6.364 8.364c-1.105 0-2-.895-2-2s.895-2 2-2 2 .895 2 2-.895 2-2 2z" class="iconic-hard-drive-plate iconic-hard-drive-plate-needle iconic-property-accent iconic-property-fill"
    />
    <path stroke="#000" stroke-width="2" stroke-linecap="round" d="M28.08 28.08c5.61-5.61 13.36-9.08 21.92-9.08" class="iconic-hard-drive-plate iconic-hard-drive-plate-reflection iconic-property-accent iconic-property-stroke" fill="none" />
  </g>
  <g class="iconic-hard-drive-md iconic-container iconic-md" data-width="24" data-height="32" display="none" transform="scale(4) translate(4)">
    <path clip-path="url(#iconic-size-md-hard-drive-clip-0)" d="M0 1v30c0 .552.448 1 1 1h22c.552 0 1-.448 1-1v-30c0-.552-.448-1-1-1h-22c-.552 0-1 .448-1 1z" class="iconic-hard-drive-casing iconic-hard-drive-casing-top iconic-property-fill" />
    <path clip-path="url(#iconic-size-md-hard-drive-clip-1)" d="M0 1v30c0 .552.448 1 1 1h22c.552 0 1-.448 1-1v-30c0-.552-.448-1-1-1h-22c-.552 0-1 .448-1 1z" class="iconic-hard-drive-casing iconic-hard-drive-casing-bottom iconic-property-fill" />
    <path d="M5.529 20.561c-.586.586-1.536.586-2.121 0-.586-.586-.586-1.536 0-2.121.586-.586 7.592-5.439 7.592-5.439s-4.885 6.975-5.471 7.561z" class="iconic-hard-drive-plate iconic-hard-drive-plate-needle iconic-property-accent iconic-property-fill"
    />
    <path stroke="#000" d="M11.257 14.375c.236.074.482.125.743.125 1.381 0 2.5-1.119 2.5-2.5s-1.119-2.5-2.5-2.5-2.5 1.119-2.5 2.5c0 .259.051.503.123.738" class="iconic-hard-drive-plate iconic-hard-drive-plate-inner-rim iconic-property-accent iconic-property-stroke"
    fill="none" />
  </g>
  <g class="iconic-hard-drive-sm iconic-container iconic-sm" data-width="13" data-height="16" display="none" transform="scale(8) translate(1)">
    <path clip-path="url(#iconic-size-sm-hard-drive-clip-0)" d="M0 .5v15c0 .276.224.5.5.5h12c.276 0 .5-.224.5-.5v-15c0-.276-.224-.5-.5-.5h-12c-.276 0-.5.224-.5.5z" class="iconic-hard-drive-casing iconic-hard-drive-casing-top iconic-property-fill" />
    <path clip-path="url(#iconic-size-sm-hard-drive-clip-1)" d="M0 .5v15c0 .276.224.5.5.5h12c.276 0 .5-.224.5-.5v-15c0-.276-.224-.5-.5-.5h-12c-.276 0-.5.224-.5.5z" class="iconic-hard-drive-casing iconic-hard-drive-casing-bottom iconic-property-fill" />
    <path d="M4.707 8.707c-.391.391-1.024.391-1.414 0s-.391-1.024 0-1.414 2.707-1.293 2.707-1.293-.902 2.317-1.293 2.707z" class="iconic-hard-drive-plate iconic-hard-drive-plate-needle iconic-property-accent iconic-property-fill" />
    <path d="M6.5 5c-.276 0-.5.224-.5.5s.224.5.5.5.5-.224.5-.5-.224-.5-.5-.5z" class="iconic-hard-drive-plate iconic-hard-drive-plate-axis iconic-property-accent iconic-property-fill" />
  </g>
</svg>