<svg xmlns="http://www.w3.org/2000/svg" class="iconic iconic-heart" width="128" height="128" viewBox="0 0 128 128">
  <g class="iconic-metadata">
    <title>Heart</title>
  </g>
  <g class="iconic-heart-lg iconic-container iconic-lg" data-width="128" data-height="112" display="inline" transform="translate(0 8)">
    <path d="M118.041 9.959c-6.152-6.153-14.652-9.959-24.041-9.959-9.389 0-17.889 3.805-24.041 9.959-2.361 2.36-4.372 5.068-5.959 8.037-1.587-2.969-3.597-5.677-5.959-8.037-6.152-6.153-14.652-9.959-24.041-9.959-9.389 0-17.889 3.805-24.041 9.959-6.154 6.152-9.959 14.652-9.959 24.041 0 9.389 3.805 17.889 9.959 24.041l54.041 53.959 54.041-53.959c6.154-6.152 9.959-14.652 9.959-24.041 0-9.389-3.805-17.889-9.959-24.041z"
    class="iconic-property-fill" />
  </g>
  <g class="iconic-heart-md iconic-container iconic-md" data-width="32" data-height="28" display="none" transform="scale(4) translate(0 2)">
    <path d="M16 5s-.516-1.531-1.49-2.51c-1.534-1.542-3.663-2.49-6.01-2.49s-4.472.951-6.01 2.49c-1.539 1.538-2.49 3.663-2.49 6.01s.951 4.472 2.49 6.01l13.51 13.49 13.51-13.49c1.539-1.538 2.49-3.663 2.49-6.01s-.951-4.472-2.49-6.01c-1.538-1.538-3.663-2.49-6.01-2.49s-4.476.948-6.01 2.49c-.974.979-1.49 2.51-1.49 2.51z"
    class="iconic-property-fill" />
  </g>
  <g class="iconic-heart-sm iconic-container iconic-sm" data-width="16" data-height="14" display="none" transform="scale(8) translate(0 1)">
    <path d="M14.828 1.171c-.724-.724-1.724-1.171-2.828-1.171s-2.105.448-2.828 1.171c-.724.724-1.056 1.552-1.172 1.829-.12-.277-.448-1.105-1.172-1.829s-1.724-1.171-2.828-1.171-2.105.448-2.828 1.171c-.724.724-1.172 1.724-1.172 2.829 0 1.105.448 2.104 1.172 2.828l6.828 6.828 6.829-6.828c.724-.724 1.172-1.724 1.172-2.828 0-1.105-.448-2.105-1.172-2.829z"
    class="iconic-property-fill" />
  </g>
</svg>