<svg version="1.1" xmlns="http://www.w3.org/2000/svg" data-icon="image" width="128" height="128" viewBox="0 0 128 128" class="iconic iconic-image iconic-orientation-square">
  <title>Image</title>
  <defs>
    <clipPath id="iconic-size-lg-image-portrait-clip-0">
      <path d="M90 68h4v-32h-66l62 77.5z"/>
    </clipPath>
    <clipPath id="iconic-size-lg-image-portrait-clip-1">
      <path d="M6 36h84v86h-84z"/>
    </clipPath>
    <clipPath id="iconic-size-md-image-portrait-clip-0">
      <path d="M23 27.2l-14.6-18.2h14.6z"/>
    </clipPath>
    <clipPath id="iconic-size-md-image-portrait-clip-1">
      <path d="M1 9h22v23h-22z"/>
    </clipPath>
    <clipPath id="iconic-size-sm-image-portrait-clip-0">
      <path d="M5.2 4l6.3 7.9v-7.9z"/>
    </clipPath>
    <clipPath id="iconic-size-sm-image-portrait-clip-1">
      <path d="M.5 4h11v11.5h-11z"/>
    </clipPath>
    <clipPath id="iconic-size-lg-image-landscape-clip-0">
      <path d="M64 34l48 60h6v-60z"/>
    </clipPath>
    <clipPath id="iconic-size-lg-image-landscape-clip-1">
      <path d="M110 90v-56h-80l44.8 56z"/>
    </clipPath>
    <clipPath id="iconic-size-lg-image-landscape-clip-2">
      <path d="M6 34h68v56h-68z"/>
    </clipPath>
    <clipPath id="iconic-size-md-image-landscape-clip-0">
      <path d="M17.5 7l12 15 .5-15z"/>
    </clipPath>
    <clipPath id="iconic-size-md-image-landscape-clip-1">
      <path d="M21 22l-12-15h19v15z"/>
    </clipPath>
    <clipPath id="iconic-size-md-image-landscape-clip-2">
      <path d="M1 7h18v15h-18z"/>
    </clipPath>
    <clipPath id="iconic-size-sm-image-landscape-clip-0">
      <path d="M13 11.5l-6-7.5h8.5v7.5z"/>
    </clipPath>
    <clipPath id="iconic-size-sm-image-landscape-clip-1">
      <path d="M.5 4h10.5v7.5h-10.5z"/>
    </clipPath>
  </defs>
  <g data-width="96" data-height="128" class="iconic-lg iconic-container" display="inline" transform="translate(16 0)">
    <g class="iconic-image-portrait">
      <path clip-path="url(#iconic-size-lg-image-portrait-clip-0)" d="M135.1 126.8l-62.2-77.6c-.5-.6-1.4-.6-1.9 0l-62.1 77.6c-.5.6-.3 1.2.6 1.2h125c.8 0 1.1-.5.6-1.2z" class="iconic-image-portrait-mountain iconic-image-portrait-mountain-back iconic-property-accent iconic-property-fill"/>
      <path clip-path="url(#iconic-size-lg-image-portrait-clip-1)" d="M93.5 122.8l-68.6-85.6c-.5-.6-1.4-.6-1.9 0l-68.5 85.7c-.5.6-.3 1.2.6 1.2h137.8c.8-.1 1.1-.6.6-1.3z" class="iconic-image-portrait-mountain iconic-image-portrait-mountain-front iconic-property-fill"/>
      <path stroke="#000" stroke-width="4" stroke-miterlimit="10" class="iconic-image-portrait-frame iconic-property-stroke" d="M2 2h92v124h-92z" fill="none"/>
    </g>
  </g>
  <g data-width="128" data-height="96" class="iconic-lg iconic-container" display="inline" transform="translate(0 16)">
    <g class="iconic-image-landscape" display="none">
      <circle clip-path="url(#iconic-size-lg-image-landscape-clip-0)" cx="92" cy="60" r="16" class="iconic-image-landscape-sun iconic-property-fill"/>
      <path clip-path="url(#iconic-size-lg-image-landscape-clip-1)" d="M113.1 100.8l-46.2-57.6c-.5-.6-1.4-.6-1.9 0l-46.1 57.7c-.5.6-.3 1.2.6 1.2h93c.8-.1 1.1-.6.6-1.3z" class="iconic-image-landscape-mountain iconic-image-landscape-mountain-back iconic-property-accent iconic-property-fill"/>
      <path clip-path="url(#iconic-size-lg-image-landscape-clip-2)" d="M73.1 92.8l-46.2-57.6c-.5-.6-1.4-.6-1.9 0l-46.1 57.7c-.5.6-.3 1.2.6 1.2h93c.8-.1 1.1-.6.6-1.3z" class="iconic-image-landscape-mountain iconic-image-landscape-mountain-front iconic-property-fill"/>
      <path stroke="#000" stroke-width="4" stroke-miterlimit="10" class="iconic-image-landscape-frame iconic-property-stroke" d="M2 2h124v92h-124z" fill="none"/>
    </g>
  </g>
  <g data-width="24" data-height="32" class="iconic-md iconic-container" display="none" transform="scale(4) translate(4)">
    <g class="iconic-image-portrait">
      <path clip-path="url(#iconic-size-md-image-portrait-clip-0)" d="M33.7 31.6l-15.4-19.2c-.2-.2-.5-.2-.6 0l-15.4 19.2c-.2.2-.1.4.2.4h31c.3 0 .4-.2.2-.4z" class="iconic-image-portrait-mountain iconic-image-portrait-mountain-back iconic-property-accent iconic-property-fill"/>
      <path clip-path="url(#iconic-size-md-image-portrait-clip-1)" d="M23.3 30.6l-17-21.2c-.2-.2-.5-.2-.6 0l-17 21.2c-.2.2-.1.4.2.4h34.2c.3 0 .4-.2.2-.4z" class="iconic-image-portrait-mountain iconic-image-portrait-mountain-front iconic-property-fill"/>
      <path stroke="#000" stroke-width="2" stroke-miterlimit="10" class="iconic-image-portrait-frame iconic-property-stroke" d="M1 1h22v30h-22z" fill="none"/>
    </g>
  </g>
  <g data-width="32" data-height="24" class="iconic-md iconic-container" display="none" transform="scale(4) translate(0 4)">
    <g class="iconic-image-landscape" display="none">
      <circle clip-path="url(#iconic-size-md-image-landscape-clip-0)" cx="24" cy="13" r="4" class="iconic-image-landscape-sun iconic-property-fill"/>
      <path clip-path="url(#iconic-size-md-image-landscape-clip-1)" d="M28.7 23.6l-11.4-14.2c-.2-.2-.5-.2-.6 0l-11.4 14.2c-.2.2-.1.4.2.4h23c.3 0 .4-.2.2-.4z" class="iconic-image-landscape-mountain iconic-image-landscape-mountain-back iconic-property-accent iconic-property-fill"/>
      <path clip-path="url(#iconic-size-md-image-landscape-clip-2)" d="M18.7 21.6l-11.4-14.2c-.2-.2-.5-.2-.6 0l-11.4 14.2c-.2.2-.1.4.2.4h23c.3 0 .4-.2.2-.4z" class="iconic-image-landscape-mountain iconic-image-landscape-mountain-front iconic-property-fill"/>
      <path stroke="#000" stroke-width="2" stroke-miterlimit="10" class="iconic-image-landscape-frame iconic-property-stroke" d="M1 1h30v22h-30z" fill="none"/>
    </g>
  </g>
  <g data-width="12" data-height="16" class="iconic-sm iconic-container" display="none" transform="scale(8) translate(2)">
    <g class="iconic-image-portrait">
      <path clip-path="url(#iconic-size-sm-image-portrait-clip-0)" class="iconic-image-portrait-mountain iconic-image-portrait-mountain-back iconic-property-accent iconic-property-fill" d="M17 16l-8-10-8 10z"/>
      <path clip-path="url(#iconic-size-sm-image-portrait-clip-1)" class="iconic-image-portrait-mountain iconic-image-portrait-mountain-front iconic-property-fill" d="M11.8 15l-8.8-11-8.8 11z"/>
      <path stroke="#000" stroke-miterlimit="10" class="iconic-image-portrait-frame iconic-property-stroke" d="M.5.5h11v15h-11z" fill="none"/>
    </g>
  </g>
  <g data-width="16" data-height="12" class="iconic-sm iconic-container" display="none" transform="scale(8) translate(0 2)">
    <g class="iconic-image-landscape" display="none">
      <path clip-path="url(#iconic-size-sm-image-landscape-clip-0)" class="iconic-image-landscape-mountain iconic-image-landscape-mountain-back iconic-property-accent iconic-property-fill" d="M16 12.5l-6-7.5-6 7.5z"/>
      <path clip-path="url(#iconic-size-sm-image-landscape-clip-1)" class="iconic-image-landscape-mountain iconic-image-landscape-mountain-front iconic-property-fill" d="M11 11.5l-6-7.5-6 7.5z"/>
      <path stroke="#000" stroke-miterlimit="10" class="iconic-image-landscape-frame iconic-property-stroke" d="M.5.5h15v11h-15z" fill="none"/>
    </g>
  </g>
<script class="iconic-api" type="application/ecmascript">
//<![CDATA[
var iconicApis=window._Iconic?window._Iconic.smartIconApis:{};iconicApis["image"]=iconicApis["image"]||function(t){var e=function(e){t.setAttribute("data-orientation",e);var i,r,a=t.querySelectorAll(".iconic-image-portrait"),n=t.querySelectorAll(".iconic-image-landscape");i=r="none","landscape"===e?r="inline":i="inline";for(var o=0;o<a.length;o++)a[o].setAttribute("display",i),n[o].setAttribute("display",r)},i=function(){var i=t.getAttribute("data-orientation");i&&e(i)};return{update:i,setOrientation:e}};
//]]>
</script>
</svg>
