<svg xmlns="http://www.w3.org/2000/svg" class="iconic iconic-info" width="128" height="128" viewBox="0 0 128 128">
  <g class="iconic-metadata">
    <title>Info</title>
  </g>
  <g class="iconic-info-lg iconic-container iconic-lg" data-width="32" data-height="128" display="inline" transform="translate(48)">
    <circle cx="24" cy="8" r="8" class="iconic-info-dot iconic-property-fill" />
    <path d="M0 116c0 6.627 5.373 12 12 12s12-5.373 12-12v-4h-2v4c0 2.209-1.791 4-4 4s-4-1.875-4-4 12-73.373 12-80-5.373-12-12-12-12 5.373-12 12v4h2v-4c0-2.209 1.791-4 4-4s4 1.875 4 4-12 73.373-12 80z" class="iconic-info-vertical-line iconic-property-fill"
    />
  </g>
  <g class="iconic-info-md iconic-container iconic-md" data-width="10" data-height="32" display="none" transform="scale(4) translate(11)">
    <circle cx="7.5" cy="2.5" r="2.5" class="iconic-info-dot iconic-property-fill" />
    <path d="M0 28c0 2.209 1.791 4 4 4s4-1.791 4-4v-1h-1v1c0 .828-.672 1.5-1.5 1.5s-1.5-.672-1.5-1.5 4-15 4-17-1.791-4-4-4-4 1.791-4 4v1h1v-1c0-.828.672-1.5 1.5-1.5s1.5.792 1.5 1.5-4 14.791-4 17z" class="iconic-info-vertical-line iconic-property-fill"
    />
  </g>
  <g class="iconic-info-sm iconic-container iconic-sm" data-width="6" data-height="16" display="none" transform="scale(8) translate(5)">
    <circle cx="4.5" cy="1.5" r="1.5" class="iconic-info-dot iconic-property-fill" />
    <path d="M1 13.5c0 1.328 1.119 2.5 2.5 2.5s2.5-1.119 2.5-2.5v-.5h-1v.5c0 .552-.448 1-1 1s-1-.438-1-1c0-1.156 2-5.625 2-7s-1.119-2.5-2.5-2.5-2.5 1.119-2.5 2.5v.5h1v-.5c0-.552.448-1 1-1s1 .5 1 1c0 1.25-2 5.672-2 7z" class="iconic-info-vertical-line iconic-property-fill"
    />
  </g>
</svg>