<svg version="1.1" xmlns="http://www.w3.org/2000/svg" data-icon="iphone" width="128" height="128" class="iconic iconic-iphone" viewBox="0 0 128 128">
  <g class="iconic-metadata">
    <title>iPhone</title>
  </g>
  <defs>
    <clipPath id="iconic-size-lg-iphone-clip-0">
      <path d="M0 0v128h62v-128h-62zm31 4.1c.5 0 .9.4.9.9s-.4.9-.9.9-.9-.4-.9-.9.4-.9.9-.9zm-4 5.9h8c.6 0 1 .4 1 1s-.4 1-1 1h-8c-.6 0-1-.4-1-1s.4-1 1-1zm-4.1.2c.5 0 .9.4.9.9s-.4.9-.9.9-.9-.4-.9-.9.4-.9.9-.9zm8.1 113.8c-2.8 0-5-2.2-5-5s2.2-5 5-5 5 2.2 5 5-2.2 5-5 5zm27-14h-54v-94h54v94z"/>
    </clipPath>
    <clipPath id="iconic-size-lg-iphone-clip-1">
      <rect x="4" y="16" width="54" height="94"/>
    </clipPath>
    <clipPath id="iconic-size-md-iphone-clip-0">
      <path d="M0 0v32h15v-32h-15zm5.5 2h4c.3 0 .5.2.5.5s-.2.5-.5.5h-4c-.3 0-.5-.2-.5-.5s.2-.5.5-.5zm2 29c-.8 0-1.5-.7-1.5-1.5s.7-1.5 1.5-1.5 1.5.7 1.5 1.5-.7 1.5-1.5 1.5zm6.5-4h-13v-23h13v23z"/>
    </clipPath>
    <clipPath id="iconic-size-md-iphone-clip-1">
      <rect x="1" y="4" width="13" height="23"/>
    </clipPath>
    <clipPath id="iconic-size-sm-iphone-clip-0">
      <path d="M0 0v16h9v-16h-9zm3.5 1h2c.3 0 .5.2.5.5s-.2.5-.5.5h-2c-.3 0-.5-.2-.5-.5s.2-.5.5-.5zm1 14c-.3 0-.5-.2-.5-.5s.2-.5.5-.5.5.2.5.5-.2.5-.5.5zm3.5-2h-7v-10h7v10z"/>
    </clipPath>
    <clipPath id="iconic-size-sm-iphone-clip-1">
      <rect x="1" y="3" width="7" height="10"/>
    </clipPath>
  </defs>
  <g data-width="62" data-height="128" class="iconic-container iconic-lg" display="inline" transform="translate(33)">
    <path clip-path="url(#iconic-size-lg-iphone-clip-0)" d="M53 0h-44c-5 0-9 4-9 9v110c0 5 4 9 9 9h44c5 0 9-4 9-9v-110c0-5-4-9-9-9z" class="iconic-iphone-body iconic-property-fill"/>
    <image class="iconic-iphone-screenshot-image" data-max-width="54" x="4" y="16" clip-path="url(#iconic-size-lg-iphone-clip-1)"/>
  </g>
  <g data-width="15" data-height="32" class="iconic-container iconic-md" display="none" transform="scale(4) translate(8)">
    <path clip-path="url(#iconic-size-md-iphone-clip-0)" d="M13 0h-11c-1.1 0-2 .9-2 2v28c0 1.1.9 2 2 2h11c1.1 0 2-.9 2-2v-28c0-1.1-.9-2-2-2z" class="iconic-iphone-body iconic-property-fill"/>
    <image class="iconic-iphone-screenshot-image" data-max-width="13" x="1" y="4" clip-path="url(#iconic-size-md-iphone-clip-1)"/>
  </g>
  <g data-width="9" data-height="16" class="iconic-container iconic-sm" display="none" transform="scale(8) translate(3)">
    <path clip-path="url(#iconic-size-sm-iphone-clip-0)" d="M8 0h-7c-.6 0-1 .4-1 1v14c0 .6.4 1 1 1h7c.6 0 1-.4 1-1v-14c0-.6-.4-1-1-1z" class="iconic-iphone-body iconic-property-fill"/>
    <image class="iconic-iphone-screenshot-image" data-max-width="7" x="1" y="3" clip-path="url(#iconic-size-sm-iphone-clip-1)"/>
  </g>
<script class="iconic-api" type="application/ecmascript">
//<![CDATA[
var iconicApis=window._Iconic?window._Iconic.smartIconApis:{};iconicApis["iphone"]=iconicApis["iphone"]||function(t){var e=function(e){t.setAttribute("data-screenshot",e);var i,r,a=t.querySelectorAll(".iconic-iphone-screenshot-image"),n=0,o=new Image;o.onload=function(){for(n=0;n<a.length;n++){a[n].setAttributeNS("http://www.w3.org/1999/xlink","xlink:href",e),a[n].setAttribute("display","inline");var t=o.width/o.height,c=parseInt(a[n].getAttribute("data-max-width"));r=c,i=c/t,a[n].setAttribute("height",i+"px"),a[n].setAttribute("width",r+"px")}};var c=/[-a-zA-Z0-9@:%_\+.~#?&//=]{2,256}\.[a-z]{2,4}\b(\/[-a-zA-Z0-9@:%_\+.~#?&//=]*)?/gi,s=new RegExp(c);if(e&&e.match(s))o.src=e;else for(n=0;n<a.length;n++)a[n].setAttribute("display","none"),a[n].setAttributeNS("http://www.w3.org/1999/xlink","xlink:href","")},i=function(){var i=t.getAttribute("data-screenshot")||"";e(i)};return{update:i,setScreenshot:e}};
//]]>
</script>
</svg>
