<svg xmlns="http://www.w3.org/2000/svg" class="iconic iconic-italic" width="128" height="128" viewBox="0 0 128 128">
  <g class="iconic-metadata">
    <title>Italic</title>
  </g>
  <g class="iconic-italic-lg iconic-container iconic-lg" data-width="90" data-height="128" display="inline" transform="translate(19)">
    <path d="M34 0l-2 8h14c3.3 0 5.301 2.608 4.448 5.796l-26.895 100.409c-.854 3.188-4.252 5.796-7.552 5.796h-14l-2 8h58l2-8h-16c-3.3 0-5.301-2.608-4.448-5.796l26.895-100.409c.854-3.188 4.252-5.796 7.552-5.796h14l2-8h-56z" class="iconic-property-fill" />
  </g>
  <g class="iconic-italic-md iconic-container iconic-md" data-width="22" data-height="32" display="none" transform="scale(4) translate(5)">
    <path d="M8 0v2h4c.55 0 .891.436.757.97l-6.515 26.06c-.133.534-.693.97-1.243.97h-5v2h14.938v-2h-3.938c-.55 0-.891-.437-.757-.97l6.515-26.06c.133-.534.692-.97 1.242-.97h4v-2h-14z" class="iconic-property-fill" />
  </g>
  <g class="iconic-italic-sm iconic-container iconic-sm" data-width="12" data-height="16" display="none" transform="scale(8) translate(2)">
    <path d="M4 0v1h2.5c.275 0 .438.216.363.481l-3.725 13.038c-.076.264-.362.481-.637.481h-2.5v1h8v-1h-2.5c-.275 0-.438-.216-.363-.481l3.725-13.038c.075-.265.362-.481.637-.481h2.5v-1h-8z" class="iconic-property-fill" />
  </g>
</svg>