<svg xmlns="http://www.w3.org/2000/svg" class="iconic iconic-keyboard" width="128" height="128" viewBox="0 0 128 128">
  <g class="iconic-metadata">
    <title>Keyboard</title>
  </g>
  <defs>
    <clipPath id="iconic-size-lg-keyboard-clip-0">
      <path d="M0 0v50h126v-50h-126zm102 6.5c0-.275.225-.5.5-.5h5c.275 0 .5.225.5.5v5c0 .275-.225.5-.5.5h-5c-.275 0-.5-.225-.5-.5v-5zm9.5 7.5c.275 0 .5.225.5.5v5c0 .275-.225.5-.5.5h-5c-.275 0-.5-.225-.5-.5v-5c0-.275.225-.5.5-.5h5zm-11.5 8.5c0-.275.225-.5.5-.5h5c.275 0 .5.225.5.5v5c0 .275-.225.5-.5.5h-5c-.275 0-.5-.225-.5-.5v-5zm-1.5-2.5c-.275 0-.5-.225-.5-.5v-5c0-.275.225-.5.5-.5h5c.275 0 .5.225.5.5v5c0 .275-.225.5-.5.5h-5zm-4.5-13.5c0-.275.225-.5.5-.5h5c.275 0 .5.225.5.5v5c0 .275-.225.5-.5.5h-5c-.275 0-.5-.225-.5-.5v-5zm-2 16c0-.275.225-.5.5-.5h5c.275 0 .5.225.5.5v5c0 .275-.225.5-.5.5h-5c-.275 0-.5-.225-.5-.5v-5zm-1.5-2.5c-.275 0-.5-.225-.5-.5v-5c0-.275.225-.5.5-.5h5c.275 0 .5.225.5.5v5c0 .275-.225.5-.5.5h-5zm-4.5-13.5c0-.275.225-.5.5-.5h5c.275 0 .5.225.5.5v5c0 .275-.225.5-.5.5h-5c-.275 0-.5-.225-.5-.5v-5zm-2 16c0-.275.225-.5.5-.5h5c.275 0 .5.225.5.5v5c0 .275-.225.5-.5.5h-5c-.275 0-.5-.225-.5-.5v-5zm-1.5-2.5c-.275 0-.5-.225-.5-.5v-5c0-.275.225-.5.5-.5h5c.275 0 .5.225.5.5v5c0 .275-.225.5-.5.5h-5zm-4.5-13.5c0-.275.225-.5.5-.5h5c.275 0 .5.225.5.5v5c0 .275-.225.5-.5.5h-5c-.275 0-.5-.225-.5-.5v-5zm-42 16c0-.275.225-.5.5-.5h5c.275 0 .5.225.5.5v5c0 .275-.225.5-.5.5h-5c-.275 0-.5-.225-.5-.5v-5zm-1.5-2.5c-.275 0-.5-.225-.5-.5v-5c0-.275.225-.5.5-.5h5c.275 0 .5.225.5.5v5c0 .275-.225.5-.5.5h-5zm5.5 10.5c0-.275.225-.5.5-.5h5c.275 0 .5.225.5.5v5c0 .275-.225.5-.5.5h-5c-.275 0-.5-.225-.5-.5v-5zm2-11v-5c0-.275.225-.5.5-.5h5c.275 0 .5.225.5.5v5c0 .275-.225.5-.5.5h-5c-.275 0-.5-.225-.5-.5zm2.5 8.5c-.275 0-.5-.225-.5-.5v-5c0-.275.225-.5.5-.5h5c.275 0 .5.225.5.5v5c0 .275-.225.5-.5.5h-5zm3.5 2.5c0-.275.225-.5.5-.5h5c.275 0 .5.225.5.5v5c0 .275-.225.5-.5.5h-5c-.275 0-.5-.225-.5-.5v-5zm2-11v-5c0-.275.225-.5.5-.5h5c.275 0 .5.225.5.5v5c0 .275-.225.5-.5.5h-5c-.275 0-.5-.225-.5-.5zm2.5 8.5c-.275 0-.5-.225-.5-.5v-5c0-.275.225-.5.5-.5h5c.275 0 .5.225.5.5v5c0 .275-.225.5-.5.5h-5zm3.5 2.5c0-.275.225-.5.5-.5h5c.275 0 .5.225.5.5v5c0 .275-.225.5-.5.5h-5c-.275 0-.5-.225-.5-.5v-5zm2-11v-5c0-.275.225-.5.5-.5h5c.275 0 .5.225.5.5v5c0 .275-.225.5-.5.5h-5c-.275 0-.5-.225-.5-.5zm2.5 8.5c-.275 0-.5-.225-.5-.5v-5c0-.275.225-.5.5-.5h5c.275 0 .5.225.5.5v5c0 .275-.225.5-.5.5h-5zm3.5 2.5c0-.275.225-.5.5-.5h5c.275 0 .5.225.5.5v5c0 .275-.225.5-.5.5h-5c-.275 0-.5-.225-.5-.5v-5zm2-11v-5c0-.275.225-.5.5-.5h5c.275 0 .5.225.5.5v5c0 .275-.225.5-.5.5h-5c-.275 0-.5-.225-.5-.5zm2.5 8.5c-.275 0-.5-.225-.5-.5v-5c0-.275.225-.5.5-.5h5c.275 0 .5.225.5.5v5c0 .275-.225.5-.5.5h-5zm3.5 2.5c0-.275.225-.5.5-.5h5c.275 0 .5.225.5.5v5c0 .275-.225.5-.5.5h-5c-.275 0-.5-.225-.5-.5v-5zm2-11v-5c0-.275.225-.5.5-.5h5c.275 0 .5.225.5.5v5c0 .275-.225.5-.5.5h-5c-.275 0-.5-.225-.5-.5zm2.5 8.5c-.275 0-.5-.225-.5-.5v-5c0-.275.225-.5.5-.5h5c.275 0 .5.225.5.5v5c0 .275-.225.5-.5.5h-5zm-6.5-21.5c0-.275.225-.5.5-.5h5c.275 0 .5.225.5.5v5c0 .275-.225.5-.5.5h-5c-.275 0-.5-.225-.5-.5v-5zm-8 0c0-.275.225-.5.5-.5h5c.275 0 .5.225.5.5v5c0 .275-.225.5-.5.5h-5c-.275 0-.5-.225-.5-.5v-5zm-8 0c0-.275.225-.5.5-.5h5c.275 0 .5.225.5.5v5c0 .275-.225.5-.5.5h-5c-.275 0-.5-.225-.5-.5v-5zm-8 0c0-.275.225-.5.5-.5h5c.275 0 .5.225.5.5v5c0 .275-.225.5-.5.5h-5c-.275 0-.5-.225-.5-.5v-5zm-8 0c0-.275.225-.5.5-.5h5c.275 0 .5.225.5.5v5c0 .275-.225.5-.5.5h-5c-.275 0-.5-.225-.5-.5v-5zm-8 0c0-.275.225-.5.5-.5h5c.275 0 .5.225.5.5v5c0 .275-.225.5-.5.5h-5c-.275 0-.5-.225-.5-.5v-5zm-2 16c0-.275.225-.5.5-.5h5c.275 0 .5.225.5.5v5c0 .275-.225.5-.5.5h-5c-.275 0-.5-.225-.5-.5v-5zm-1.5-2.5c-.275 0-.5-.225-.5-.5v-5c0-.275.225-.5.5-.5h5c.275 0 .5.225.5.5v5c0 .275-.225.5-.5.5h-5zm-4.5-13.5c0-.275.225-.5.5-.5h5c.275 0 .5.225.5.5v5c0 .275-.225.5-.5.5h-5c-.275 0-.5-.225-.5-.5v-5zm-2 16c0-.275.225-.5.5-.5h5c.275 0 .5.225.5.5v5c0 .275-.225.5-.5.5h-5c-.275 0-.5-.225-.5-.5v-5zm-1.5-2.5c-.275 0-.5-.225-.5-.5v-5c0-.275.225-.5.5-.5h5c.275 0 .5.225.5.5v5c0 .275-.225.5-.5.5h-5zm-4.5-13.5c0-.275.225-.5.5-.5h5c.275 0 .5.225.5.5v5c0 .275-.225.5-.5.5h-5c-.275 0-.5-.225-.5-.5v-5zm-8 0c0-.275.225-.5.5-.5h5c.275 0 .5.225.5.5v5c0 .275-.225.5-.5.5h-5c-.275 0-.5-.225-.5-.5v-5zm0 8c0-.275.225-.5.5-.5h9c.275 0 .5.225.5.5v5c0 .275-.225.5-.5.5h-9c-.275 0-.5-.225-.5-.5v-5zm0 8c0-.275.225-.5.5-.5h11c.275 0 .5.225.5.5v5c0 .275-.225.5-.5.5h-11c-.275 0-.5-.225-.5-.5v-5zm6 21c0 .275-.225.5-.5.5h-5c-.275 0-.5-.225-.5-.5v-5c0-.275.225-.5.5-.5h5c.275 0 .5.225.5.5v5zm8 0c0 .275-.225.5-.5.5h-5c-.275 0-.5-.225-.5-.5v-5c0-.275.225-.5.5-.5h5c.275 0 .5.225.5.5v5zm1.5-7.5h-15c-.275 0-.5-.225-.5-.5v-5c0-.275.225-.5.5-.5h15c.275 0 .5.225.5.5v5c0 .275-.225.5-.5.5zm6.5 7.5c0 .275-.225.5-.5.5h-5c-.275 0-.5-.225-.5-.5v-5c0-.275.225-.5.5-.5h5c.275 0 .5.225.5.5v5zm1.5-7.5h-5c-.275 0-.5-.225-.5-.5v-5c0-.275.225-.5.5-.5h5c.275 0 .5.225.5.5v5c0 .275-.225.5-.5.5zm6.5 7.5c0 .275-.225.5-.5.5h-5c-.275 0-.5-.225-.5-.5v-5c0-.275.225-.5.5-.5h5c.275 0 .5.225.5.5v5zm1.5-7.5h-5c-.275 0-.5-.225-.5-.5v-5c0-.275.225-.5.5-.5h5c.275 0 .5.225.5.5v5c0 .275-.225.5-.5.5zm42.5 7.5c0 .275-.225.5-.5.5h-41c-.275 0-.5-.225-.5-.5v-5c0-.275.225-.5.5-.5h41c.275 0 .5.225.5.5v5zm0-8v-5c0-.275.225-.5.5-.5h5c.275 0 .5.225.5.5v5c0 .275-.225.5-.5.5h-5c-.275 0-.5-.225-.5-.5zm8 8c0 .275-.225.5-.5.5h-5c-.275 0-.5-.225-.5-.5v-5c0-.275.225-.5.5-.5h5c.275 0 .5.225.5.5v5zm0-8v-5c0-.275.225-.5.5-.5h5c.275 0 .5.225.5.5v5c0 .275-.225.5-.5.5h-5c-.275 0-.5-.225-.5-.5zm8 8c0 .275-.225.5-.5.5h-5c-.275 0-.5-.225-.5-.5v-5c0-.275.225-.5.5-.5h5c.275 0 .5.225.5.5v5zm0-8v-5c0-.275.225-.5.5-.5h5c.275 0 .5.225.5.5v5c0 .275-.225.5-.5.5h-5c-.275 0-.5-.225-.5-.5zm8 8.25c0 .138-.113.25-.25.25h-5.5c-.138 0-.25-.112-.25-.25v-1.5c0-.138.113-.25.25-.25h5.5c.138 0 .25.113.25.25v1.5zm8 0c0 .138-.113.25-.25.25h-5.5c-.138 0-.25-.113-.25-.25v-1.5c0-.138.113-.25.25-.25h5.5c.138 0 .25.113.25.25v1.5zm0-4c0 .138-.113.25-.25.25h-5.5c-.138 0-.25-.113-.25-.25v-1.5c0-.138.113-.25.25-.25h5.5c.138 0 .25.113.25.25v1.5zm8 4c0 .138-.113.25-.25.25h-5.5c-.138 0-.25-.113-.25-.25v-1.5c0-.138.113-.25.25-.25h5.5c.138 0 .25.113.25.25v1.5zm0-8.25c0 .275-.225.5-.5.5h-15c-.275 0-.5-.225-.5-.5v-5c0-.275.225-.5.5-.5h15c.275 0 .5.225.5.5v5zm0-8c0 .275-.225.5-.5.5h-11c-.275 0-.5-.225-.5-.5v-5c0-.275.225-.5.5-.5h11c.275 0 .5.225.5.5v5zm0-8c0 .275-.225.5-.5.5h-5c-.275 0-.5-.225-.5-.5v-5c0-.275.225-.5.5-.5h5c.275 0 .5.225.5.5v5zm0-8c0 .275-.225.5-.5.5h-9c-.275 0-.5-.225-.5-.5v-5c0-.275.225-.5.5-.5h9c.275 0 .5.225.5.5v5z"
      />
    </clipPath>
    <clipPath id="iconic-size-md-keyboard-clip-0">
      <path d="M0 0v15h31v-15h-31zm26 5.25v1.5c0 .138-.113.25-.25.25h-1.5c-.137 0-.25-.112-.25-.25v-1.5c0-.138.113-.25.25-.25h1.5c.137 0 .25.112.25.25zm-3-3c0-.138.113-.25.25-.25h1.5c.137 0 .25.112.25.25v1.5c0 .138-.113.25-.25.25h-1.5c-.137 0-.25-.112-.25-.25v-1.5zm0 3v1.5c0 .138-.113.25-.25.25h-1.5c-.137 0-.25-.112-.25-.25v-1.5c0-.138.113-.25.25-.25h1.5c.137 0 .25.112.25.25zm-3-3c0-.138.113-.25.25-.25h1.5c.137 0 .25.112.25.25v1.5c0 .138-.113.25-.25.25h-1.5c-.137 0-.25-.112-.25-.25v-1.5zm1 6v1.5c0 .137-.113.25-.25.25h-1.5c-.137 0-.25-.113-.25-.25v-1.5c0-.137.113-.25.25-.25h1.5c.137 0 .25.113.25.25zm-1-3v1.5c0 .138-.113.25-.25.25h-1.5c-.137 0-.25-.112-.25-.25v-1.5c0-.138.113-.25.25-.25h1.5c.137 0 .25.112.25.25zm-3-3c0-.138.113-.25.25-.25h1.5c.137 0 .25.112.25.25v1.5c0 .138-.113.25-.25.25h-1.5c-.137 0-.25-.112-.25-.25v-1.5zm1 6v1.5c0 .137-.113.25-.25.25h-1.5c-.137 0-.25-.113-.25-.25v-1.5c0-.137.113-.25.25-.25h1.5c.137 0 .25.113.25.25zm-1-3v1.5c0 .138-.113.25-.25.25h-1.5c-.137 0-.25-.112-.25-.25v-1.5c0-.138.113-.25.25-.25h1.5c.137 0 .25.112.25.25zm-3-3c0-.138.113-.25.25-.25h1.5c.137 0 .25.112.25.25v1.5c0 .138-.113.25-.25.25h-1.5c-.137 0-.25-.112-.25-.25v-1.5zm1 6v1.5c0 .137-.113.25-.25.25h-1.5c-.137 0-.25-.113-.25-.25v-1.5c0-.137.113-.25.25-.25h1.5c.137 0 .25.113.25.25zm-1-3v1.5c0 .138-.113.25-.25.25h-1.5c-.137 0-.25-.112-.25-.25v-1.5c0-.138.113-.25.25-.25h1.5c.137 0 .25.112.25.25zm-3-3c0-.138.113-.25.25-.25h1.5c.137 0 .25.112.25.25v1.5c0 .138-.113.25-.25.25h-1.5c-.137 0-.25-.112-.25-.25v-1.5zm1 6v1.5c0 .137-.113.25-.25.25h-1.5c-.137 0-.25-.113-.25-.25v-1.5c0-.137.113-.25.25-.25h1.5c.137 0 .25.113.25.25zm-1-3v1.5c0 .138-.113.25-.25.25h-1.5c-.137 0-.25-.112-.25-.25v-1.5c0-.138.113-.25.25-.25h1.5c.137 0 .25.112.25.25zm-3-3c0-.138.113-.25.25-.25h1.5c.137 0 .25.112.25.25v1.5c0 .138-.113.25-.25.25h-1.5c-.137 0-.25-.112-.25-.25v-1.5zm0 3v1.5c0 .138-.112.25-.25.25h-1.5c-.138 0-.25-.112-.25-.25v-1.5c0-.138.112-.25.25-.25h1.5c.138 0 .25.112.25.25zm-3-3c0-.138.112-.25.25-.25h1.5c.138 0 .25.112.25.25v1.5c0 .138-.112.25-.25.25h-1.5c-.138 0-.25-.112-.25-.25v-1.5zm-3 0c0-.138.112-.25.25-.25h1.5c.138 0 .25.112.25.25v1.5c0 .138-.112.25-.25.25h-1.5c-.138 0-.25-.112-.25-.25v-1.5zm0 3c0-.138.112-.25.25-.25h2.5c.138 0 .25.112.25.25v1.5c0 .138-.112.25-.25.25h-2.5c-.138 0-.25-.112-.25-.25v-1.5zm0 3c0-.137.112-.25.25-.25h3.5c.138 0 .25.113.25.25v1.5c0 .137-.112.25-.25.25h-3.5c-.138 0-.25-.113-.25-.25v-1.5zm2 4.5c0 .137-.112.25-.25.25h-1.5c-.138 0-.25-.113-.25-.25v-1.5c0-.137.112-.25.25-.25h1.5c.138 0 .25.113.25.25v1.5zm3 0c0 .137-.112.25-.25.25h-1.5c-.138 0-.25-.113-.25-.25v-1.5c0-.137.112-.25.25-.25h1.5c.138 0 .25.113.25.25v1.5zm0-3v-1.5c0-.137.112-.25.25-.25h1.5c.137 0 .25.113.25.25v1.5c0 .137-.113.25-.25.25h-1.5c-.138 0-.25-.113-.25-.25zm16 3c0 .138-.113.25-.25.25h-14.5c-.137 0-.25-.113-.25-.25v-1.5c0-.137.113-.25.25-.25h14.5c.138 0 .25.113.25.25v1.5zm.75-2.75h-1.5c-.137 0-.25-.113-.25-.25v-1.5c0-.137.113-.25.25-.25h1.5c.137 0 .25.113.25.25v1.5c0 .137-.113.25-.25.25zm2.25 2.75c0 .138-.113.25-.25.25h-1.5c-.137 0-.25-.113-.25-.25v-1.5c0-.138.113-.25.25-.25h1.5c.138 0 .25.113.25.25v1.5zm3 0c0 .138-.113.25-.25.25h-1.5c-.137 0-.25-.113-.25-.25v-1.5c0-.138.113-.25.25-.25h1.5c.138 0 .25.113.25.25v1.5zm0-3c0 .137-.113.25-.25.25h-3.5c-.137 0-.25-.113-.25-.25v-1.5c0-.137.113-.25.25-.25h3.5c.137 0 .25.113.25.25v1.5zm0-3c0 .138-.113.25-.25.25h-1.5c-.137 0-.25-.112-.25-.25v-1.5c0-.138.113-.25.25-.25h1.5c.137 0 .25.112.25.25v1.5zm0-3c0 .138-.113.25-.25.25h-2.5c-.137 0-.25-.112-.25-.25v-1.5c0-.138.113-.25.25-.25h2.5c.137 0 .25.112.25.25v1.5z"
      />
    </clipPath>
    <clipPath id="iconic-size-sm-keyboard-clip-0">
      <path d="M0 0v9h15v-9h-15zm10 2h1v1h-1v-1zm-2 0h1v1h-1v-1zm2 2v1h-1v-1h1zm-4-2h1v1h-1v-1zm2 2v1h-1v-1h1zm-4-2h1v1h-1v-1zm2 2v1h-1v-1h1zm-4-2h1v1h-1v-1zm0 2h2v1h-2v-1zm1 3h-1v-1h1v1zm8 0h-7v-1h7v1zm2 0h-1v-1h1v1zm0-2h-2v-1h2v1zm0-2h-1v-1h1v1z" />
    </clipPath>
  </defs>
  <g class="iconic-keyboard-lg iconic-container iconic-lg" data-width="126" data-height="50" display="inline" transform="translate(1 39)">
    <path clip-path="url(#iconic-size-lg-keyboard-clip-0)" d="M124.5 50h-123c-.828 0-1.5-.672-1.5-1.5v-47c0-.828.672-1.5 1.5-1.5h123c.828 0 1.5.672 1.5 1.5v47c0 .828-.672 1.5-1.5 1.5z" class="iconic-property-fill" />
  </g>
  <g class="iconic-keyboard-md iconic-container iconic-md" data-width="31" data-height="15" display="none" transform="scale(4) translate(0 8)">
    <path clip-path="url(#iconic-size-md-keyboard-clip-0)" d="M30.5 15h-30c-.276 0-.5-.224-.5-.5v-14c0-.276.224-.5.5-.5h30c.276 0 .5.224.5.5v14c0 .276-.224.5-.5.5z" class="iconic-property-fill" />
  </g>
  <g class="iconic-keyboard-sm iconic-container iconic-sm" data-width="15" data-height="9" display="none" transform="scale(8) translate(0 3)">
    <path d="M14.75 9h-14.5c-.138 0-.25-.112-.25-.25v-8.5c0-.138.112-.25.25-.25h14.5c.138 0 .25.112.25.25v8.5c0 .138-.112.25-.25.25z" clip-path="url(#iconic-size-sm-keyboard-clip-0)" class="iconic-property-fill" />
  </g>
</svg>