<svg xmlns="http://www.w3.org/2000/svg" class="iconic iconic-lightning" width="128" height="128" viewBox="0 0 128 128">
  <g class="iconic-metadata">
    <title>Lightning</title>
  </g>
  <defs>
    <clipPath id="iconic-size-lg-lightning-clip-0">
      <path d="M0 0v86h24.058l13.846-20h35.753l-16 16h17.391l-4.8 4h57.752v-86z" />
    </clipPath>
    <clipPath id="iconic-size-md-lightning-clip-0">
      <path d="M0 0v22h5.685l4.286-6h10.436l-3.5 4h4.266l-2.2 2h13.027v-22z" />
    </clipPath>
    <clipPath id="iconic-size-sm-lightning-clip-0">
      <path d="M0 0v12h1.75l.45-.6 3-4 .3-.4h5.914l-1.707 1.707-.293.293h2.289l-2.052 1.759-1.448 1.241h7.797v-12z" />
    </clipPath>
  </defs>
  <g class="iconic-lightning-lg iconic-container iconic-lg" data-width="128" data-height="126" display="inline" transform="translate(0 1)">
    <path class="iconic-lightning-lightning-bolt iconic-property-accent iconic-property-fill" d="M40 70l-18 26h15l-21 30 48-40h-16l16-16z" />
    <path d="M110 50c-.711 0-1.311-.081-2 0-.871-8.409-7.602-15.091-16-16-.986-18.976-16.783-34-36-34-18.8 0-34.415 14.604-36 33-11.578 3.042-20 13.481-20 26 0 14.552 11.575 26.471 26 27h84c9.925 0 18-8.075 18-18s-8.075-18-18-18z" clip-path="url(#iconic-size-lg-lightning-clip-0)"
    class="iconic-lightning-cloud iconic-property-fill" />
  </g>
  <g class="iconic-lightning-md iconic-container iconic-md" data-width="32" data-height="32" display="none" transform="scale(4)">
    <path class="iconic-lightning-lightning-bolt iconic-property-accent iconic-property-fill" d="M11 18l-5 7h3.5l-4.5 7 11-10h-3.5l3.5-4z" />
    <path d="M27 12c-.401-1.976-2.065-3.524-4.046-3.909-.457-4.537-4.298-8.091-8.954-8.091-4.721 0-8.634 3.371-9 8-2.906.852-5 3.822-5 7 0 3.527 2.603 6.521 6 7 4.323 0 20.923 0 21 0 2.76 0 5-2.24 5-5s-2.24-5-5-5z" clip-path="url(#iconic-size-md-lightning-clip-0)"
    class="iconic-lightning-cloud iconic-property-fill" />
  </g>
  <g class="iconic-lightning-sm iconic-container iconic-sm" data-width="16" data-height="16" display="none" transform="scale(8)">
    <path class="iconic-lightning-lightning-bolt iconic-property-accent iconic-property-fill" d="M6 8l-3 4h2l-3 4 7-6h-2l2-2z" />
    <path d="M13 6v-1c0-2.757-2.243-5-5-5-2.454 0-4.49 1.78-4.91 4.114-1.767.415-3.09 1.995-3.09 3.886 0 2.206 1.794 4 4 4h9c1.654 0 3-1.346 3-3s-1.346-3-3-3z" clip-path="url(#iconic-size-sm-lightning-clip-0)" class="iconic-lightning-cloud iconic-property-fill"
    />
  </g>
</svg>