<svg version="1.1" xmlns="http://www.w3.org/2000/svg" data-icon="link" width="128" height="128" class="iconic iconic-link" viewBox="0 0 128 128">
  <g><title>Link</title></g>
  <defs>
    <clipPath id="iconic-size-lg-link-clip-0">
      <path d="M59.9 56.1c0 3.2 1.2 6.2 3.5 8.5l-11.3 11.3c-5.3-5.3-8.2-12.3-8.2-19.8 0-2.8.4-5.5 1.2-8.1h-45.1v80h80v-80h-16.9c-2.1 2.2-3.2 5.1-3.2 8.1z"/>
    </clipPath>
    <clipPath id="iconic-size-lg-link-clip-1">
      <path d="M48 0v80h16.9c2-2.2 3.1-5.1 3.1-8.1 0-3.2-1.2-6.2-3.5-8.5l11.3-11.3c5.3 5.3 8.2 12.3 8.2 19.8 0 2.8-.4 5.5-1.2 8.1h45.2v-80h-80z"/>
    </clipPath>
  </defs>
  <g data-width="128" data-height="128" class="iconic-lg iconic-container" display="inline" stroke="#000" stroke-linejoin="round" stroke-miterlimit="10" fill="none">
    <g class="iconic-link-intact">
      <path stroke-width="8" clip-path="url(#iconic-size-lg-link-clip-0)" d="M38.1 118.1c-7.8 7.8-20.5 7.8-28.3 0s-7.8-20.4.1-28.2l32.1-32.1c7.8-7.8 20.5-7.8 28.3 0s7.8 20.5 0 28.3l-32.2 32z" class="iconic-link-link iconic-link-link-bottom iconic-property-stroke"/>
      <path stroke-width="8" clip-path="url(#iconic-size-lg-link-clip-1)" d="M86.1 70.2c-7.8 7.8-20.5 7.8-28.3 0s-7.8-20.5 0-28.3l32.1-32c7.8-7.8 20.5-7.8 28.3 0s7.8 20.5 0 28.3l-32.1 32z" class="iconic-link-link iconic-link-link-top iconic-property-stroke"/>
    </g>
    <g class="iconic-link-broken" display="none">
      <path stroke-width="8" d="M57.2 42.5l32.7-32.6c7.8-7.8 20.5-7.8 28.3 0s7.8 20.5 0 28.3l-32.7 32.6" class="iconic-link-broken-link iconic-link-broken-link-top iconic-property-stroke"/>
      <path stroke-width="8" d="M70.8 85.5l-32.6 32.6c-7.8 7.8-20.5 7.8-28.3 0s-7.9-20.4 0-28.2l32.6-32.6" class="iconic-link-broken-link iconic-link-broken-link-bottom iconic-property-stroke"/>
      <path stroke-width="2" stroke-linecap="round" class="iconic-link-broken-link-break iconic-link-broken-link-break-left iconic-link-broken-link-break-middle iconic-link-broken-link-break-left-middle iconic-property-accent iconic-property-stroke" d="M43 43l-12-12"/>
      <path stroke-width="2" stroke-linecap="round" class="iconic-link-broken-link-break iconic-link-broken-link-break-left iconic-link-broken-link-break-top iconic-link-broken-link-break-left-top iconic-property-accent iconic-property-stroke" d="M49 43v-14"/>
      <path stroke-width="2" stroke-linecap="round" class="iconic-link-broken-link-break iconic-link-broken-link-break-left iconic-link-broken-link-break-bottom iconic-link-broken-link-break-left-bottom iconic-property-accent iconic-property-stroke" d="M43 49h-14"/>
      <path stroke-width="2" stroke-linecap="round" class="iconic-link-broken-link-break iconic-link-broken-link-break-right iconic-link-broken-link-break-middle iconic-link-broken-link-break-right-middle iconic-property-accent iconic-property-stroke" d="M97 97l-12-12"/>
      <path stroke-width="2" stroke-linecap="round" class="iconic-link-broken-link-break iconic-link-broken-link-break-right iconic-link-broken-link-break-top iconic-link-broken-link-break-right-top iconic-property-accent iconic-property-stroke" d="M99 79h-14"/>
      <path stroke-width="2" stroke-linecap="round" class="iconic-link-broken-link-break iconic-link-broken-link-break-right iconic-link-broken-link-break-bottom iconic-link-broken-link-break-right-bottom iconic-property-accent iconic-property-stroke" d="M79 99v-14"/>
    </g>
  </g>
  <g data-width="32" data-height="32" class="iconic-md iconic-container" display="none" transform="scale(4)" stroke="#000" stroke-linejoin="round" stroke-miterlimit="10" fill="none">
    <g class="iconic-link-intact">
      <path d="M15.7 24.7l-4 4c-2.3 2.3-6.1 2.3-8.5 0s-2.3-6.1 0-8.5l7-7c2.3-2.3 6.1-2.3 8.5 0" class="iconic-link-link iconic-link-link-bottom iconic-property-stroke" stroke-width="3"/>
      <path d="M16.4 7.1l3.9-3.9c2.3-2.3 6.1-2.3 8.5 0s2.3 6.1 0 8.5l-7 7c-2.3 2.3-6.1 2.3-8.5 0" class="iconic-link-link iconic-link-link-top iconic-property-stroke" stroke-width="3"/>
    </g>
    <g class="iconic-link-broken" display="none">
      <path stroke-width="3" d="M13.4 10.1l6.9-6.9c2.3-2.3 6.1-2.3 8.5 0s2.3 6.1 0 8.5l-7 7" class="iconic-link-broken-link iconic-link-broken-link-top iconic-property-stroke"/>
      <path stroke-width="3" d="M18.7 21.7l-7 7c-2.3 2.3-6.1 2.3-8.5 0s-2.3-6.1 0-8.5l7-7" class="iconic-link-broken-link iconic-link-broken-link-bottom iconic-property-stroke"/>
      <path stroke-linecap="round" class="iconic-link-broken-link-break iconic-link-broken-link-break-right iconic-link-broken-link-break-top iconic-link-broken-link-break-right-top iconic-property-accent iconic-property-stroke" d="M23.5 21.5h4"/>
      <path stroke-linecap="round" class="iconic-link-broken-link-break iconic-link-broken-link-break-right iconic-link-broken-link-break-bottom iconic-link-broken-link-break-right-bottom iconic-property-accent iconic-property-stroke" d="M21.5 23.5v4"/>
      <path stroke-linecap="round" class="iconic-link-broken-link-break iconic-link-broken-link-break-left iconic-link-broken-link-break-bottom iconic-link-broken-link-break-left-bottom iconic-property-accent iconic-property-stroke" d="M4.5 10.5h4"/>
      <path stroke-linecap="round" class="iconic-link-broken-link-break iconic-link-broken-link-break-left iconic-link-broken-link-break-top iconic-link-broken-link-break-left-top iconic-property-accent iconic-property-stroke" d="M10.5 4.5v4"/>
      <path stroke-linecap="round" class="iconic-link-broken-link-break iconic-link-broken-link-break-left iconic-link-broken-link-break-middle iconic-link-broken-link-break-left-middle iconic-property-accent iconic-property-stroke" d="M8.5 8.5l-4-4"/>
      <path stroke-linecap="round" class="iconic-link-broken-link-break iconic-link-broken-link-break-right iconic-link-broken-link-break-middle iconic-link-broken-link-break-right-middle iconic-property-accent iconic-property-stroke" d="M27.5 27.5l-4-4"/>
    </g>
  </g>
  <g data-width="16" data-height="16" class="iconic-sm iconic-container" display="none" transform="scale(8)" stroke="#000" stroke-linejoin="round" stroke-miterlimit="10" fill="none">
    <g class="iconic-link-intact">
      <path stroke-width="2" d="M9.5 6.5c-.8-.8-2.1-1.1-3.1-.7-.4.1-1.7 1.2-2 1.6l-2.5 2.5c-1.2 1.2-1.2 3.1 0 4.2.8.9 2 1.1 3.1.7.4-.1.8-.4 1.1-.7l.9-.9" class="iconic-link-link iconic-link-link-bottom iconic-property-stroke"/>
      <path stroke-width="2" d="M6.5 9.5c.6.6 1.3.8 2 .9.8 0 1.6-.3 2.2-.9l3.3-3.3c1.2-1.2 1.2-3.1 0-4.2-.7-1-1.9-1.2-3-.8-.4.1-.8.4-1.1.7l-.9.9" class="iconic-link-link iconic-link-link-top iconic-property-stroke"/>
    </g>
    <g class="iconic-link-broken" display="none">
      <path stroke-width="2" stroke-linecap="square" d="M12.2 8l1.9-1.9c1.2-1.2 1.2-3.1 0-4.2-.8-.9-2-1.1-3.1-.7-.4.1-.8.4-1.1.7l-1.9 1.9" class="iconic-link-broken-link iconic-link-broken-link-top iconic-property-stroke"/>
      <path stroke-width="2" stroke-linecap="square" d="M3.9 7.9l-2 2c-1.2 1.2-1.2 3.1 0 4.2.8.9 2 1.1 3.1.7.4-.1.8-.4 1.1-.7l2-2" class="iconic-link-broken-link iconic-link-broken-link-bottom iconic-property-stroke"/>
      <path stroke-linecap="round" class="iconic-link-broken-link-break iconic-link-broken-link-break-left iconic-link-broken-link-break-top iconic-link-broken-link-break-left-top iconic-property-accent iconic-property-stroke" d="M5.5 1.5v2"/>
      <path stroke-linecap="round" class="iconic-link-broken-link-break iconic-link-broken-link-break-left iconic-link-broken-link-break-bottom iconic-link-broken-link-break-left-bottom iconic-property-accent iconic-property-stroke" d="M3.5 5.5h-2"/>
      <path stroke-linecap="round" class="iconic-link-broken-link-break iconic-link-broken-link-break-right iconic-link-broken-link-break-bottom iconic-link-broken-link-break-right-bottom iconic-property-accent iconic-property-stroke" d="M10.5 12.5v2"/>
      <path stroke-linecap="round" class="iconic-link-broken-link-break iconic-link-broken-link-break-right iconic-link-broken-link-break-top iconic-link-broken-link-break-right-top iconic-property-accent iconic-property-stroke" d="M14.5 10.5h-2"/>
      <path stroke-linecap="round" class="iconic-link-broken-link-break iconic-link-broken-link-break-right iconic-link-broken-link-break-middle iconic-link-broken-link-break-right-middle iconic-property-accent iconic-property-stroke" d="M12.5 12.5l2 2"/>
      <path stroke-linecap="round" class="iconic-link-broken-link-break iconic-link-broken-link-break-left iconic-link-broken-link-break-middle iconic-link-broken-link-break-left-middle iconic-property-accent iconic-property-stroke" d="M1.5 1.5l2 2"/>
    </g>
  </g>
<script class="iconic-api" type="application/ecmascript">
//<![CDATA[
var iconicApis=window._Iconic?window._Iconic.smartIconApis:{};iconicApis["link"]=iconicApis["link"]||function(t){var e=function(e){t.setAttribute("data-state",e);var i,r,n=t.querySelectorAll(".iconic-link-intact"),a=t.querySelectorAll(".iconic-link-broken");i=r="none","broken"===e?i="inline":r="inline";for(var o=0;o<n.length;o++)n[o].setAttribute("display",r),a[o].setAttribute("display",i)},i=function(){var i=t.getAttribute("data-state");i&&e(i)};return{update:i,setState:e}};
//]]>
</script>
</svg>
