<svg xmlns="http://www.w3.org/2000/svg" class="iconic iconic-list" width="128" height="128" viewBox="0 0 128 128">
  <g class="iconic-metadata">
    <title>List</title>
  </g>
  <g class="iconic-list-lg iconic-container iconic-lg" data-width="124" data-height="88" display="inline" transform="translate(2 20)">
    <path stroke="#000" stroke-width="8" stroke-linecap="square" class="iconic-list-line iconic-list-line-4 iconic-property-stroke" d="M20 84h96" fill="none" />
    <path d="M6.5 88h-5c-.828 0-1.5-.672-1.5-1.5v-5c0-.828.672-1.5 1.5-1.5h5c.828 0 1.5.672 1.5 1.5v5c0 .828-.672 1.5-1.5 1.5z" class="iconic-list-dot iconic-list-dot-4 iconic-property-accent iconic-property-fill" />
    <path stroke="#000" stroke-width="8" stroke-linecap="square" class="iconic-list-line iconic-list-line-3 iconic-property-stroke" d="M20 58h100" fill="none" />
    <path d="M6.5 62h-5c-.828 0-1.5-.672-1.5-1.5v-5c0-.828.672-1.5 1.5-1.5h5c.828 0 1.5.672 1.5 1.5v5c0 .828-.672 1.5-1.5 1.5z" class="iconic-list-dot iconic-list-dot-3 iconic-property-accent iconic-property-fill" />
    <path stroke="#000" stroke-width="8" stroke-linecap="square" class="iconic-list-line iconic-list-line-2 iconic-property-stroke" d="M20 30h80" fill="none" />
    <path d="M6.5 34h-5c-.828 0-1.5-.672-1.5-1.5v-5c0-.828.672-1.5 1.5-1.5h5c.828 0 1.5.672 1.5 1.5v5c0 .828-.672 1.5-1.5 1.5z" class="iconic-list-dot iconic-list-dot-2 iconic-property-accent iconic-property-fill" />
    <path stroke="#000" stroke-width="8" stroke-linecap="square" class="iconic-list-line iconic-list-line-1 iconic-property-stroke" d="M20 4h100" fill="none" />
    <path d="M6.5 8h-5c-.828 0-1.5-.672-1.5-1.5v-5c0-.828.672-1.5 1.5-1.5h5c.828 0 1.5.672 1.5 1.5v5c0 .828-.672 1.5-1.5 1.5z" class="iconic-list-dot iconic-list-dot-1 iconic-property-accent iconic-property-fill" />
  </g>
  <g class="iconic-list-md iconic-container iconic-md" data-width="32" data-height="24" display="none" transform="scale(4) translate(0 4)">
    <path stroke="#000" stroke-width="3" stroke-linecap="square" class="iconic-list-line iconic-list-line-4 iconic-property-stroke" d="M7.5 22.5h21" fill="none" />
    <path d="M2.5 24h-2c-.276 0-.5-.224-.5-.5v-2c0-.276.224-.5.5-.5h2c.276 0 .5.224.5.5v2c0 .276-.224.5-.5.5z" class="iconic-list-dot iconic-list-dot-4 iconic-property-accent iconic-property-fill" />
    <path stroke="#000" stroke-width="3" stroke-linecap="square" class="iconic-list-line iconic-list-line-3 iconic-property-stroke" d="M7.5 15.5h23" fill="none" />
    <path d="M2.5 17h-2c-.276 0-.5-.224-.5-.5v-2c0-.276.224-.5.5-.5h2c.276 0 .5.224.5.5v2c0 .276-.224.5-.5.5z" class="iconic-list-dot iconic-list-dot-3 iconic-property-accent iconic-property-fill" />
    <path stroke="#000" stroke-width="3" stroke-linecap="square" class="iconic-list-line iconic-list-line-2 iconic-property-stroke" d="M7.5 8.5h17" fill="none" />
    <path d="M2.5 10h-2c-.276 0-.5-.224-.5-.5v-2c0-.276.224-.5.5-.5h2c.276 0 .5.224.5.5v2c0 .276-.224.5-.5.5z" class="iconic-list-dot iconic-list-dot-2 iconic-property-accent iconic-property-fill" />
    <path stroke="#000" stroke-width="3" stroke-linecap="square" class="iconic-list-line iconic-list-line-1 iconic-property-stroke" d="M7.5 1.5h23" fill="none" />
    <path d="M2.5 3h-2c-.276 0-.5-.224-.5-.5v-2c0-.276.224-.5.5-.5h2c.276 0 .5.224.5.5v2c0 .276-.224.5-.5.5z" class="iconic-list-dot iconic-list-dot-1 iconic-property-accent iconic-property-fill" />
  </g>
  <g class="iconic-list-sm iconic-container iconic-sm" data-width="16" data-height="14" display="none" transform="scale(8) translate(0 1)">
    <path stroke="#000" stroke-width="2" stroke-linecap="square" class="iconic-list-line iconic-list-line-4 iconic-property-stroke" d="M5 13h9" fill="none" />
    <path class="iconic-list-dot iconic-list-dot-4 iconic-property-accent iconic-property-fill" d="M0 12h2v2h-2z" />
    <path stroke="#000" stroke-width="2" stroke-linecap="square" class="iconic-list-line iconic-list-line-3 iconic-property-stroke" d="M5 9h10" fill="none" />
    <path class="iconic-list-dot iconic-list-dot-3 iconic-property-accent iconic-property-fill" d="M0 8h2v2h-2z" />
    <path stroke="#000" stroke-width="2" stroke-linecap="square" class="iconic-list-line iconic-list-line-2 iconic-property-stroke" d="M5 5h7" fill="none" />
    <path class="iconic-list-dot iconic-list-dot-2 iconic-property-accent iconic-property-fill" d="M0 4h2v2h-2z" />
    <path stroke="#000" stroke-width="2" stroke-linecap="square" class="iconic-list-line iconic-list-line-1 iconic-property-stroke" d="M5 1h10" fill="none" />
    <path class="iconic-list-dot iconic-list-dot-1 iconic-property-accent iconic-property-fill" d="M0 0h2v2h-2z" />
  </g>
</svg>