<svg xmlns="http://www.w3.org/2000/svg" class="iconic iconic-location" width="128" height="128" viewBox="0 0 128 128">
  <g class="iconic-metadata">
    <title>Location</title>
  </g>
  <g class="iconic-location-lg iconic-container iconic-lg" data-width="128" data-height="128" display="inline">
    <path d="M126.658.671l-125.317 62.658c-.741.37-.73.949.024 1.292l41.269 18.759c.754.343 1.643 1.232 1.986 1.986l18.759 41.269c.343.754.921.765 1.292.024l62.658-125.317c.371-.741.07-1.041-.671-.671z" class="iconic-property-fill" />
  </g>
  <g class="iconic-location-md iconic-container iconic-md" data-width="32" data-height="32" display="none" transform="scale(4)">
    <path d="M10.545 20.793l-10.09-4.586c-.251-.114-.255-.307-.008-.43l31.106-15.553c.247-.123.347-.023.224.224l-15.553 31.106c-.123.247-.316.243-.43-.008l-4.586-10.09c-.114-.251-.411-.548-.662-.662z" class="iconic-property-fill" />
  </g>
  <g class="iconic-location-sm iconic-container iconic-sm" data-width="16" data-height="16" display="none" transform="scale(8)">
    <path class="iconic-property-fill" d="M16 0l-16 8 6 2 2 6z" />
  </g>
</svg>