<svg xmlns="http://www.w3.org/2000/svg" class="iconic iconic-loop-square" width="128" height="128" viewBox="0 0 128 128">
  <g class="iconic-metadata">
    <title>Loop Square</title>
  </g>
  <g class="iconic-loop-square-lg iconic-container iconic-lg" data-width="128" data-height="96" display="inline" transform="translate(0 16)">
    <path stroke="#000" stroke-width="8" d="M114 60v27.5c0 2.485-2.015 4.5-4.5 4.5h-91c-2.485 0-4.5-2.015-4.5-4.5v-27.5" class="iconic-loop-square-line iconic-loop-square-line-bottom iconic-property-stroke" fill="none" />
    <path d="M13.244 43.296l-12.488 21.409c-.417.716-.084 1.296.744 1.296h25c.828 0 1.162-.58.744-1.296l-12.488-21.409c-.417-.716-1.094-.716-1.512 0z" class="iconic-loop-square-arrowhead iconic-loop-square-arrowhead-bottom iconic-property-fill" />
    <path stroke="#000" stroke-width="8" d="M14 36v-27.5c0-2.485 2.015-4.5 4.5-4.5h91c2.485 0 4.5 2.015 4.5 4.5v27.5" class="iconic-loop-square-line iconic-loop-square-line-top iconic-property-stroke" fill="none" />
    <path d="M114.756 52.704l12.488-21.409c.417-.716.084-1.296-.744-1.296h-25c-.828 0-1.162.58-.744 1.296l12.488 21.409c.417.715 1.094.715 1.512 0z" class="iconic-loop-square-arrowhead iconic-loop-square-arrowhead-top iconic-property-fill" />
  </g>
  <g class="iconic-loop-square-md iconic-container iconic-md" data-width="32" data-height="24" display="none" transform="scale(4) translate(0 4)">
    <path stroke="#000" stroke-width="3" d="M27.5 16v5c0 .828-.672 1.5-1.5 1.5h-20c-.828 0-1.5-.672-1.5-1.5v-6" class="iconic-loop-square-line iconic-loop-square-line-bottom iconic-property-stroke" fill="none" />
    <path d="M4.8 10.4l3.9 5.2c.166.221.076.4-.2.4h-8c-.276 0-.366-.179-.2-.4l3.9-5.2c.166-.221.434-.221.6 0z" class="iconic-loop-square-arrowhead iconic-loop-square-arrowhead-bottom iconic-property-fill" />
    <path stroke="#000" stroke-width="3" d="M4.5 8v-5c0-.828.672-1.5 1.5-1.5h20c.828 0 1.5.672 1.5 1.5v6" class="iconic-loop-square-line iconic-loop-square-line-top iconic-property-stroke" fill="none" />
    <path d="M27.2 13.6l-3.9-5.2c-.166-.221-.076-.4.2-.4h8c.276 0 .366.179.2.4l-3.9 5.2c-.166.221-.434.221-.6 0z" class="iconic-loop-square-arrowhead iconic-loop-square-arrowhead-top iconic-property-fill" />
  </g>
  <g class="iconic-loop-square-sm iconic-container iconic-sm" data-width="16" data-height="12" display="none" transform="scale(8) translate(0 2)">
    <path stroke="#000" stroke-width="2" d="M13 8v2.5c0 .276-.224.5-.5.5h-9c-.276 0-.5-.224-.5-.5v-3.5" class="iconic-loop-square-line iconic-loop-square-line-top iconic-property-stroke" fill="none" />
    <path class="iconic-loop-square-arrowhead iconic-loop-square-arrowhead-bottom iconic-property-fill" d="M3 5l3 3h-6z" />
    <path stroke="#000" stroke-width="2" d="M3 4v-2.5c0-.276.224-.5.5-.5h9c.276 0 .5.224.5.5v3.5" class="iconic-loop-square-line iconic-loop-square-line-top iconic-property-stroke" fill="none" />
    <path class="iconic-loop-square-arrowhead iconic-loop-square-arrowhead-top iconic-property-fill" d="M13 7l-3-3h6z" />
  </g>
</svg>