<svg xmlns="http://www.w3.org/2000/svg" class="iconic iconic-map" width="128" height="128" viewBox="0 0 128 128">
  <g class="iconic-metadata">
    <title>Map</title>
  </g>
  <defs>
    <clipPath id="iconic-size-lg-map-clip-0">
      <path d="M10 10h108v108h-108z" />
    </clipPath>
  </defs>
  <g class="iconic-map-lg iconic-container iconic-lg" data-width="128" data-height="128" display="inline">
    <path clip-path="url(#iconic-size-lg-map-clip-0)" stroke="#000" stroke-width="4" class="iconic-map-street iconic-map-street-cross iconic-map-street-cross-2 iconic-property-stroke" d="M126 46l-79.196 79.196" fill="none" />
    <path clip-path="url(#iconic-size-lg-map-clip-0)" stroke="#000" stroke-width="4" stroke-linecap="round" class="iconic-map-street iconic-map-street-cross iconic-map-street-cross-1 iconic-property-stroke" d="M50 36l32-32" fill="none" />
    <path clip-path="url(#iconic-size-lg-map-clip-0)" stroke="#000" stroke-width="4" class="iconic-map-street iconic-map-street-main iconic-property-stroke" d="M40 4l84.381 84.381" fill="none" />
    <path d="M48 52c-8.836 0-16 7.163-16 16 0 12 16 32 16 32s16-20 16-32c0-8.837-7.163-16-16-16zm0 24c-4.418 0-8-3.582-8-8s3.582-8 8-8 8 3.582 8 8-3.582 8-8 8z" class="iconic-map-map-marker iconic-property-accent iconic-property-fill" />
    <path stroke="#000" stroke-width="8" d="M122.5 124h-117c-.828 0-1.5-.672-1.5-1.5v-117c0-.828.672-1.5 1.5-1.5h117c.828 0 1.5.672 1.5 1.5v117c0 .828-.672 1.5-1.5 1.5z" class="iconic-map-frame iconic-property-stroke" fill="none" />
  </g>
  <g class="iconic-map-md iconic-container iconic-md" data-width="32" data-height="32" display="none" transform="scale(4)">
    <path stroke="#000" class="iconic-map-street iconic-map-street-cross iconic-map-street-cross-2 iconic-property-stroke" d="M31 11l-20 20" fill="none" />
    <path stroke="#000" stroke-width="1.014" stroke-linecap="round" class="iconic-map-street iconic-map-street-cross iconic-map-street-cross-1 iconic-property-stroke" d="M12 9l8-8" fill="none" />
    <path stroke="#000" class="iconic-map-street iconic-map-street-main iconic-property-stroke" d="M10 1l21.095 21.095" fill="none" />
    <path d="M12 13c-2.209 0-4 1.791-4 4 0 3 4 8 4 8s4-5 4-8c0-2.209-1.791-4-4-4zm0 6c-1.105 0-2-.895-2-2s.895-2 2-2 2 .895 2 2-.895 2-2 2z" class="iconic-map-map-marker iconic-property-accent iconic-property-fill" />
    <path stroke="#000" stroke-width="3" d="M30 30.5h-28c-.276 0-.5-.224-.5-.5v-28c0-.276.224-.5.5-.5h28c.276 0 .5.224.5.5v28c0 .276-.224.5-.5.5z" class="iconic-map-frame iconic-property-stroke" fill="none" />
  </g>
  <g class="iconic-map-sm iconic-container iconic-sm" data-width="16" data-height="16" display="none" transform="scale(8)">
    <path stroke="#000" class="iconic-map-street iconic-map-street-cross iconic-property-stroke" d="M15 6l-9 9" fill="none" />
    <path stroke="#000" class="iconic-map-street iconic-map-street-main iconic-property-stroke" d="M5 1l10 10" fill="none" />
    <path d="M6 6c-1.105 0-2 .895-2 2 0 1.5 2 4 2 4s2-2.5 2-4c0-1.105-.895-2-2-2zm0 3c-.552 0-1-.448-1-1s.448-1 1-1 1 .448 1 1-.448 1-1 1z" class="iconic-map-map-marker iconic-property-accent iconic-property-fill" />
    <path stroke="#000" stroke-width="2" d="M14.75 15h-13.5c-.138 0-.25-.112-.25-.25v-13.5c0-.138.112-.25.25-.25h13.5c.138 0 .25.112.25.25v13.5c0 .138-.112.25-.25.25z" class="iconic-map-frame iconic-property-stroke" fill="none" />
  </g>
</svg>