<svg version="1.1" xmlns="http://www.w3.org/2000/svg" data-icon="media-skip" width="128" height="128" class="iconic iconic-media-skip" viewBox="0 0 128 128">
  <g><title>Media Skip</title></g>
  <g data-width="128" data-height="64" class="iconic-lg iconic-container" display="inline" transform="translate(0 32)">
    <g class="iconic-media-skip-forward">
      <path d="M126.7 32.7l-61.4 30.6c-.7.4-1.3 0-1.3-.8v-61c0-.8.6-1.2 1.3-.8l61.3 30.7c.8.3.8.9.1 1.3z" class="iconic-skip-forward-arrowhead iconic-skip-forward-arrowhead-front iconic-property-fill"/>
      <path d="M62.7 32.7l-61.4 30.6c-.7.4-1.3 0-1.3-.8v-61c0-.8.6-1.2 1.3-.8l61.3 30.7c.8.3.8.9.1 1.3z" class="iconic-skip-forward-arrowhead iconic-skip-forward-arrowhead-back iconic-property-fill"/>
    </g>
    <g class="iconic-media-skip-backward" display="none">
      <path d="M1.3 31.3l61.4-30.6c.7-.4 1.3 0 1.3.8v61c0 .8-.6 1.2-1.3.8l-61.4-30.6c-.7-.4-.7-1 0-1.4z" class="iconic-skip-backward-arrowhead iconic-skip-backward-arrowhead-front iconic-property-fill"/>
      <path d="M65.3 31.3l61.3-30.7c.7-.4 1.3 0 1.3.8v61c0 .8-.6 1.2-1.3.8l-61.3-30.5c-.7-.4-.7-1 0-1.4z" class="iconic-skip-backward-arrowhead iconic-skip-backward-arrowhead-back iconic-property-fill"/>
    </g>
  </g>
  <g data-width="32" data-height="16" class="iconic-md iconic-container" display="none" transform="scale(4) translate(0 8)">
    <g class="iconic-media-skip-forward">
      <path d="M31.6 8.2l-15.1 7.6c-.2.1-.4 0-.4-.3v-15c0-.3.2-.4.4-.3l15.1 7.6c.2.1.2.3 0 .4z" class="iconic-skip-forward-arrowhead iconic-skip-forward-arrowhead-front iconic-property-fill"/>
      <path d="M15.6 8.2l-15.2 7.6c-.2.1-.4 0-.4-.3v-15c0-.3.2-.4.4-.3l15.1 7.6c.3.1.3.3.1.4z" class="iconic-skip-forward-arrowhead iconic-skip-forward-arrowhead-back iconic-property-fill"/>
    </g>
    <g class="iconic-media-skip-backward" display="none">
      <path d="M.4 7.8l15.1-7.6c.2-.1.4 0 .4.3v15c0 .3-.2.4-.4.3l-15.1-7.6c-.2-.1-.2-.3 0-.4z" class="iconic-skip-backward-arrowhead iconic-skip-backward-arrowhead-front iconic-property-fill"/>
      <path d="M16.4 7.8l15.1-7.6c.2-.1.4 0 .4.3v15c0 .3-.2.4-.4.3l-15.1-7.6c-.2-.1-.2-.3 0-.4z" class="iconic-skip-backward-arrowhead iconic-skip-backward-arrowhead-back iconic-property-fill"/>
    </g>
  </g>
  <g data-width="16" data-height="8" class="iconic-sm iconic-container" display="none" transform="scale(8) translate(0 4)">
    <g class="iconic-media-skip-forward">
      <path class="iconic-skip-forward-arrowhead iconic-skip-forward-arrowhead-front iconic-property-fill" d="M16 4l-8 4v-8z"/>
      <path class="iconic-skip-forward-arrowhead iconic-skip-forward-arrowhead-back iconic-property-fill" d="M8 4l-8 4v-8z"/>
    </g>
    <g class="iconic-media-skip-backward" display="none">
      <path d="M.2 3.9l7.6-3.8c.1 0 .2 0 .2.1v7.5c0 .1-.1.2-.2.1l-7.6-3.7c-.1 0-.1-.2 0-.2z" class="iconic-skip-backward-arrowhead iconic-skip-backward-arrowhead-front iconic-property-fill"/>
      <path d="M8.2 3.9l7.6-3.8c.1-.1.2 0 .2.1v7.5c0 .1-.1.2-.2.1l-7.6-3.7c-.1 0-.1-.2 0-.2z" class="iconic-skip-backward-arrowhead iconic-skip-backward-arrowhead-back iconic-property-fill"/>
    </g>
  </g>
<script class="iconic-api" type="application/ecmascript">
//<![CDATA[
var iconicApis=window._Iconic?window._Iconic.smartIconApis:{};iconicApis["media-skip"]=iconicApis["media-skip"]||function(t){var e=function(e){t.setAttribute("data-direction",e);var i,r,n=t.querySelectorAll(".iconic-media-skip-forward"),a=t.querySelectorAll(".iconic-media-skip-backward");i=r="none","backward"===e?r="inline":i="inline";for(var c=0;c<n.length;c++)n[c].setAttribute("display",i),a[c].setAttribute("display",r)},i=function(){var i=t.getAttribute("data-direction");i&&e(i)};return{update:i,setDirection:e}};
//]]>
</script>
</svg>
