<svg xmlns="http://www.w3.org/2000/svg" class="iconic iconic-medical-cross" width="128" height="128" viewBox="0 0 128 128">
  <g class="iconic-metadata">
    <title>Medical Cross</title>
  </g>
  <g class="iconic-medical-cross-lg iconic-container iconic-lg" data-width="128" data-height="128" display="inline">
    <path d="M126.5 46h-43c-.828 0-1.5-.672-1.5-1.5v-43c0-.828-.672-1.5-1.5-1.5h-33c-.828 0-1.5.672-1.5 1.5v43c0 .828-.672 1.5-1.5 1.5h-43c-.828 0-1.5.672-1.5 1.5v33c0 .828.672 1.5 1.5 1.5h43c.828 0 1.5.672 1.5 1.5v43c0 .828.672 1.5 1.5 1.5h33c.828 0 1.5-.672 1.5-1.5v-43c0-.828.672-1.5 1.5-1.5h43c.828 0 1.5-.672 1.5-1.5v-33c0-.828-.672-1.5-1.5-1.5z"
    class="iconic-property-fill" />
  </g>
  <g class="iconic-medical-cross-md iconic-container iconic-md" data-width="32" data-height="32" display="none" transform="scale(4)">
    <path d="M31.5 11h-10c-.276 0-.5-.224-.5-.5v-10c0-.276-.224-.5-.5-.5h-9c-.276 0-.5.224-.5.5v10c0 .276-.224.5-.5.5h-10c-.276 0-.5.224-.5.5v9c0 .276.224.5.5.5h10c.276 0 .5.224.5.5v10c0 .276.224.5.5.5h9c.276 0 .5-.224.5-.5v-10c0-.276.224-.5.5-.5h10c.276 0 .5-.224.5-.5v-9c0-.276-.224-.5-.5-.5z"
    class="iconic-property-fill" />
  </g>
  <g class="iconic-medical-cross-sm iconic-container iconic-sm" data-width="16" data-height="16" display="none" transform="scale(8)">
    <path class="iconic-property-fill" d="M16 5h-5v-5h-6v5h-5v6h5v5h6v-5h5z" />
  </g>
</svg>