<svg version="1.1" xmlns="http://www.w3.org/2000/svg" data-icon="media-step" width="128" height="128" class="iconic iconic-media-step" viewBox="0 0 128 128">
  <g><title>Media Step</title></g>
  <g data-width="72" data-height="64" class="iconic-lg iconic-container" display="inline" transform="translate(26 32)">
    <g class="iconic-media-step-forward">
      <path d="M62.7 32.7l-61.4 30.6c-.7.4-1.3 0-1.3-.8v-61c0-.8.6-1.2 1.3-.8l61.3 30.7c.8.3.8.9.1 1.3z" class="iconic-step-forward-arrowhead iconic-property-fill"/>
      <path class="iconic-step-forward-line iconic-property-fill" d="M64 0h8v64h-8z"/>
    </g>
    <g class="iconic-media-step-backward" display="none">
      <path d="M9.3 31.3l61.4-30.6c.7-.4 1.3 0 1.3.8v61c0 .8-.6 1.2-1.3.8l-61.4-30.6c-.7-.4-.7-1 0-1.4z" class="iconic-step-backward-arrowhead iconic-property-fill"/>
      <path class="iconic-step-backward-line iconic-property-fill" d="M0 0h8v64h-8z"/>
    </g>
  </g>
  <g data-width="19" data-height="16" class="iconic-md iconic-container" display="none" transform="scale(4) translate(6 8)">
    <g class="iconic-media-step-forward">
      <path d="M15.6 8.2l-15.2 7.6c-.2.1-.4 0-.4-.3v-15c0-.3.2-.4.4-.3l15.1 7.6c.3.1.3.3.1.4z" class="iconic-step-forward-arrowhead iconic-property-fill"/>
      <path class="iconic-step-forward-line iconic-property-fill" d="M16 0h3v16h-3z"/>
    </g>
    <g class="iconic-media-step-backward" display="none">
      <path d="M3.4 7.8l15.1-7.6c.2-.1.4 0 .4.3v15c0 .3-.2.4-.4.3l-15.1-7.6c-.2-.1-.2-.3 0-.4z" class="iconic-step-backward-arrowhead iconic-property-fill"/>
      <path class="iconic-step-backward-line iconic-property-fill" d="M0 0h3v16h-3z"/>
    </g>
  </g>
  <g data-width="10" data-height="8" class="iconic-sm iconic-container" display="none" transform="scale(8) translate(3 4)">
    <g class="iconic-media-step-forward">
      <path class="iconic-step-forward-arrowhead iconic-property-fill" d="M8 4l-8 4v-8z"/>
      <path class="iconic-step-forward-line iconic-property-fill" d="M8 0h2v8h-2z"/>
    </g>
    <g class="iconic-media-step-backward" display="none">
      <path class="iconic-step-backward-arrowhead iconic-property-fill" d="M2 4l8-4v8z"/>
      <path class="iconic-step-backward-line iconic-property-fill" d="M0 0h2v8h-2z"/>
    </g>
  </g>
<script class="iconic-api" type="application/ecmascript">
//<![CDATA[
var iconicApis=window._Iconic?window._Iconic.smartIconApis:{};iconicApis["media-step"]=iconicApis["media-step"]||function(t){var e=function(e){t.setAttribute("data-direction",e);var i,r,n=t.querySelectorAll(".iconic-media-step-forward"),a=t.querySelectorAll(".iconic-media-step-backward");i=r="none","backward"===e?r="inline":i="inline";for(var c=0;c<n.length;c++)n[c].setAttribute("display",i),a[c].setAttribute("display",r)},i=function(){var i=t.getAttribute("data-direction");i&&e(i)};return{update:i,setDirection:e}};
//]]>
</script>
</svg>