<svg xmlns="http://www.w3.org/2000/svg" class="iconic iconic-microphone" width="128" height="128" viewBox="0 0 128 128">
  <g class="iconic-metadata">
    <title>Microphone</title>
  </g>
  <g class="iconic-microphone-lg iconic-container iconic-lg" data-width="62" data-height="128" display="inline" transform="translate(33)">
    <path d="M55 56h-1v-2h-4v2h-3c-.553 0-1 .447-1 1 0 .553.447 1 1 1h3v14.5c0 9.649-8.074 17.5-18 17.5h-2c-9.926 0-18-7.851-18-17.5v-14.5h3c.553 0 1-.447 1-1 0-.553-.447-1-1-1h-3v-2h-4v2h-1c-.552 0-1 .448-1 1s.448 1 1 1h1v2h2v12.5c0 10.752 8.973 19.5 20 19.5v4h2v-4c11.027 0 20-8.748 20-19.5v-12.5h2v-2h1c.552 0 1-.448 1-1s-.448-1-1-1z"
    class="iconic-microphone-hinge iconic-property-fill" />
    <path d="M34 94v28c0 1.105.895 2 2 2h22c2.209 0 4 1.791 4 4h-62c0-2.209 1.791-4 4-4h22c1.105 0 2-.895 2-2v-28h6z" class="iconic-microphone-base iconic-property-fill" />
    <path d="M47 60c-1.305 0-2.402-.838-2.817-2h-8.285c-.465 2.279-2.482 4-4.898 4s-4.434-1.721-4.899-4h-8.285c-.414 1.162-1.511 2-2.816 2h-1v11c0 9.35 7.65 17 17 17s17-7.65 17-17v-11h-1zm-16 22c-.553 0-1-.447-1-1 0-.553.447-1 1-1s1 .447 1 1c0 .553-.447 1-1 1z"
    class="iconic-microphone-head iconic-microphone-head-bottom iconic-property-fill" />
    <circle cx="31" cy="57" r="3" class="iconic-microphone-head iconic-microphone-head-button iconic-property-fill" />
    <path d="M31 0c-9.35 0-17 7.651-17 17v37h1c1.305 0 2.402.838 2.817 2h8.285c.465-2.279 2.483-4 4.899-4s4.433 1.721 4.898 4h8.285c.414-1.162 1.511-2 2.816-2h1v-37c0-9.35-7.65-17-17-17zm-12 50c-.553 0-1-.447-1-1 0-.553.447-1 1-1s1 .447 1 1c0 .553-.447 1-1 1zm0-4c-.553 0-1-.447-1-1 0-.553.447-1 1-1s1 .447 1 1c0 .553-.447 1-1 1zm0-4c-.553 0-1-.447-1-1 0-.553.447-1 1-1s1 .447 1 1c0 .553-.447 1-1 1zm0-4c-.553 0-1-.447-1-1 0-.553.447-1 1-1s1 .447 1 1c0 .553-.447 1-1 1zm0-4c-.553 0-1-.447-1-1 0-.553.447-1 1-1s1 .447 1 1c0 .553-.447 1-1 1zm0-4c-.553 0-1-.447-1-1 0-.553.447-1 1-1s1 .447 1 1c0 .553-.447 1-1 1zm0-4c-.553 0-1-.447-1-1 0-.553.447-1 1-1s1 .447 1 1c0 .553-.447 1-1 1zm0-4c-.553 0-1-.447-1-1 0-.553.447-1 1-1s1 .447 1 1c0 .553-.447 1-1 1zm0-4c-.553 0-1-.447-1-1 0-.553.447-1 1-1s1 .447 1 1c0 .553-.447 1-1 1zm0-4c-.553 0-1-.447-1-1 0-.553.447-1 1-1s1 .447 1 1c0 .553-.447 1-1 1zm4 36c-.553 0-1-.447-1-1 0-.553.447-1 1-1s1 .447 1 1c0 .553-.447 1-1 1zm0-4c-.553 0-1-.447-1-1 0-.553.447-1 1-1s1 .447 1 1c0 .553-.447 1-1 1zm0-4c-.553 0-1-.447-1-1 0-.553.447-1 1-1s1 .447 1 1c0 .553-.447 1-1 1zm0-4c-.553 0-1-.447-1-1 0-.553.447-1 1-1s1 .447 1 1c0 .553-.447 1-1 1zm0-4c-.553 0-1-.447-1-1 0-.553.447-1 1-1s1 .447 1 1c0 .553-.447 1-1 1zm0-4c-.553 0-1-.447-1-1 0-.553.447-1 1-1s1 .447 1 1c0 .553-.447 1-1 1zm0-4c-.553 0-1-.447-1-1 0-.553.447-1 1-1s1 .447 1 1c0 .553-.447 1-1 1zm0-4c-.553 0-1-.447-1-1 0-.553.447-1 1-1s1 .447 1 1c0 .553-.447 1-1 1zm0-4c-.553 0-1-.447-1-1 0-.553.447-1 1-1s1 .447 1 1c0 .553-.447 1-1 1zm0-4c-.553 0-1-.447-1-1 0-.553.447-1 1-1s1 .447 1 1c0 .553-.447 1-1 1zm0-4c-.553 0-1-.447-1-1 0-.553.447-1 1-1s1 .447 1 1c0 .553-.447 1-1 1zm4 40c-.553 0-1-.447-1-1 0-.553.447-1 1-1s1 .447 1 1c0 .553-.447 1-1 1zm0-4c-.553 0-1-.447-1-1 0-.553.447-1 1-1s1 .447 1 1c0 .553-.447 1-1 1zm0-4c-.553 0-1-.447-1-1 0-.553.447-1 1-1s1 .447 1 1c0 .553-.447 1-1 1zm0-4c-.553 0-1-.447-1-1 0-.553.447-1 1-1s1 .447 1 1c0 .553-.447 1-1 1zm0-4c-.553 0-1-.447-1-1 0-.553.447-1 1-1s1 .447 1 1c0 .553-.447 1-1 1zm0-4c-.553 0-1-.447-1-1 0-.553.447-1 1-1s1 .447 1 1c0 .553-.447 1-1 1zm0-4c-.553 0-1-.447-1-1 0-.553.447-1 1-1s1 .447 1 1c0 .553-.447 1-1 1zm0-4c-.553 0-1-.447-1-1 0-.553.447-1 1-1s1 .447 1 1c0 .553-.447 1-1 1zm0-4c-.553 0-1-.447-1-1 0-.553.447-1 1-1s1 .447 1 1c0 .553-.447 1-1 1zm0-4c-.553 0-1-.447-1-1 0-.553.447-1 1-1s1 .447 1 1c0 .553-.447 1-1 1zm0-4c-.553 0-1-.447-1-1 0-.553.447-1 1-1s1 .447 1 1c0 .553-.447 1-1 1zm0-4c-.553 0-1-.447-1-1 0-.553.447-1 1-1s1 .447 1 1c0 .553-.447 1-1 1zm4 44c-.553 0-1-.447-1-1 0-.553.447-1 1-1s1 .447 1 1c0 .553-.447 1-1 1zm0-4c-.553 0-1-.447-1-1 0-.553.447-1 1-1s1 .447 1 1c0 .553-.447 1-1 1zm0-4c-.553 0-1-.447-1-1 0-.553.447-1 1-1s1 .447 1 1c0 .553-.447 1-1 1zm0-4c-.553 0-1-.447-1-1 0-.553.447-1 1-1s1 .447 1 1c0 .553-.447 1-1 1zm0-4c-.553 0-1-.447-1-1 0-.553.447-1 1-1s1 .447 1 1c0 .553-.447 1-1 1zm0-4c-.553 0-1-.447-1-1 0-.553.447-1 1-1s1 .447 1 1c0 .553-.447 1-1 1zm0-4c-.553 0-1-.447-1-1 0-.553.447-1 1-1s1 .447 1 1c0 .553-.447 1-1 1zm0-4c-.553 0-1-.447-1-1 0-.553.447-1 1-1s1 .447 1 1c0 .553-.447 1-1 1zm0-4c-.553 0-1-.447-1-1 0-.553.447-1 1-1s1 .447 1 1c0 .553-.447 1-1 1zm0-4c-.553 0-1-.447-1-1 0-.553.447-1 1-1s1 .447 1 1c0 .553-.447 1-1 1zm0-4c-.553 0-1-.447-1-1 0-.553.447-1 1-1s1 .447 1 1c0 .553-.447 1-1 1zm0-4c-.553 0-1-.447-1-1 0-.553.447-1 1-1s1 .447 1 1c0 .553-.447 1-1 1zm4 44c-.553 0-1-.447-1-1 0-.553.447-1 1-1s1 .447 1 1c0 .553-.447 1-1 1zm0-4c-.553 0-1-.447-1-1 0-.553.447-1 1-1s1 .447 1 1c0 .553-.447 1-1 1zm0-4c-.553 0-1-.447-1-1 0-.553.447-1 1-1s1 .447 1 1c0 .553-.447 1-1 1zm0-4c-.553 0-1-.447-1-1 0-.553.447-1 1-1s1 .447 1 1c0 .553-.447 1-1 1zm0-4c-.553 0-1-.447-1-1 0-.553.447-1 1-1s1 .447 1 1c0 .553-.447 1-1 1zm0-4c-.553 0-1-.447-1-1 0-.553.447-1 1-1s1 .447 1 1c0 .553-.447 1-1 1zm0-4c-.553 0-1-.447-1-1 0-.553.447-1 1-1s1 .447 1 1c0 .553-.447 1-1 1zm0-4c-.553 0-1-.447-1-1 0-.553.447-1 1-1s1 .447 1 1c0 .553-.447 1-1 1zm0-4c-.553 0-1-.447-1-1 0-.553.447-1 1-1s1 .447 1 1c0 .553-.447 1-1 1zm0-4c-.553 0-1-.447-1-1 0-.553.447-1 1-1s1 .447 1 1c0 .553-.447 1-1 1zm0-4c-.553 0-1-.447-1-1 0-.553.447-1 1-1s1 .447 1 1c0 .553-.447 1-1 1zm0-4c-.553 0-1-.447-1-1 0-.553.447-1 1-1s1 .447 1 1c0 .553-.447 1-1 1zm4 44c-.553 0-1-.447-1-1 0-.553.447-1 1-1s1 .447 1 1c0 .553-.447 1-1 1zm0-4c-.553 0-1-.447-1-1 0-.553.447-1 1-1s1 .447 1 1c0 .553-.447 1-1 1zm0-4c-.553 0-1-.447-1-1 0-.553.447-1 1-1s1 .447 1 1c0 .553-.447 1-1 1zm0-4c-.553 0-1-.447-1-1 0-.553.447-1 1-1s1 .447 1 1c0 .553-.447 1-1 1zm0-4c-.553 0-1-.447-1-1 0-.553.447-1 1-1s1 .447 1 1c0 .553-.447 1-1 1zm0-4c-.553 0-1-.447-1-1 0-.553.447-1 1-1s1 .447 1 1c0 .553-.447 1-1 1zm0-4c-.553 0-1-.447-1-1 0-.553.447-1 1-1s1 .447 1 1c0 .553-.447 1-1 1zm0-4c-.553 0-1-.447-1-1 0-.553.447-1 1-1s1 .447 1 1c0 .553-.447 1-1 1zm0-4c-.553 0-1-.447-1-1 0-.553.447-1 1-1s1 .447 1 1c0 .553-.447 1-1 1zm0-4c-.553 0-1-.447-1-1 0-.553.447-1 1-1s1 .447 1 1c0 .553-.447 1-1 1zm0-4c-.553 0-1-.447-1-1 0-.553.447-1 1-1s1 .447 1 1c0 .553-.447 1-1 1zm4 40c-.553 0-1-.447-1-1 0-.553.447-1 1-1s1 .447 1 1c0 .553-.447 1-1 1zm0-4c-.553 0-1-.447-1-1 0-.553.447-1 1-1s1 .447 1 1c0 .553-.447 1-1 1zm0-4c-.553 0-1-.447-1-1 0-.553.447-1 1-1s1 .447 1 1c0 .553-.447 1-1 1zm0-4c-.553 0-1-.447-1-1 0-.553.447-1 1-1s1 .447 1 1c0 .553-.447 1-1 1zm0-4c-.553 0-1-.447-1-1 0-.553.447-1 1-1s1 .447 1 1c0 .553-.447 1-1 1zm0-4c-.553 0-1-.447-1-1 0-.553.447-1 1-1s1 .447 1 1c0 .553-.447 1-1 1zm0-4c-.553 0-1-.447-1-1 0-.553.447-1 1-1s1 .447 1 1c0 .553-.447 1-1 1zm0-4c-.553 0-1-.447-1-1 0-.553.447-1 1-1s1 .447 1 1c0 .553-.447 1-1 1zm0-4c-.553 0-1-.447-1-1 0-.553.447-1 1-1s1 .447 1 1c0 .553-.447 1-1 1zm0-4c-.553 0-1-.447-1-1 0-.553.447-1 1-1s1 .447 1 1c0 .553-.447 1-1 1z"
    class="iconic-microphone-head iconic-microphone-head-top iconic-property-fill" />
  </g>
  <g class="iconic-microphone-md iconic-container iconic-md" data-width="16" data-height="32" display="none" transform="scale(4) translate(8)">
    <path d="M13 30h-4v-5.63h-2v5.63h-4c-1.105 0-2 .895-2 2h14c0-1.105-.895-2-2-2z" class="iconic-microphone-base iconic-property-fill" />
    <path stroke="#000" stroke-linecap="round" d="M.5 15.37v1.63c0 4.142 3.358 7.5 7.5 7.5s7.5-3.358 7.5-7.5v-2.5" class="iconic-microphone-hinge iconic-property-stroke" fill="none" />
    <path d="M3 17c0 2.75 2.25 5 5 5s5-2.25 5-5v-1h-10v1z" class="iconic-microphone-head iconic-microphone-head-bottom iconic-property-fill" />
    <path d="M8 0c-2.75 0-5 2.25-5 5v10h10v-10c0-2.75-2.25-5-5-5zm-2 12c-.552 0-1-.448-1-1s.448-1 1-1 1 .448 1 1-.448 1-1 1zm0-4c-.552 0-1-.448-1-1s.448-1 1-1 1 .448 1 1-.448 1-1 1zm2-4c-.552 0-1-.448-1-1s.448-1 1-1 1 .448 1 1-.448 1-1 1zm2 8c-.552 0-1-.448-1-1s.448-1 1-1 1 .448 1 1-.448 1-1 1zm0-4c-.552 0-1-.448-1-1s.448-1 1-1 1 .448 1 1-.448 1-1 1z"
    class="iconic-microphone-head iconic-microphone-head-top iconic-property-fill" />
  </g>
  <g class="iconic-microphone-sm iconic-container iconic-sm" data-width="9" data-height="16" display="none" transform="scale(8) translate(3)">
    <path d="M4 11.5v3.5h-2c-.552 0-1 .448-1 1h7c0-.552-.448-1-1-1h-2v-3.5h-1z" class="iconic-microphone-base iconic-property-fill" />
    <path stroke="#000" stroke-linecap="round" d="M.5 6.7v.8c0 2.209 1.791 4 4 4s4-1.791 4-4v-.8" class="iconic-microphone-hinge iconic-property-stroke" fill="none" />
    <path d="M4.5 10c-1.381 0-2.5-1.119-2.5-2.5v-5c0-1.381 1.119-2.5 2.5-2.5s2.5 1.119 2.5 2.5v5c0 1.381-1.119 2.5-2.5 2.5z" class="iconic-microphone-head iconic-property-fill" />
  </g>
</svg>