<svg version="1.1" xmlns="http://www.w3.org/2000/svg" data-icon="nexus" width="128" height="128" class="iconic iconic-nexus" viewBox="0 0 128 128">
  <g class="iconic-metadata">
    <title>Nexus</title>
  </g>
  <defs>
    <clipPath id="iconic-size-lg-nexus-clip-0">
      <path d="M0 0v128h64v-128h-64zm32 4c1.1 0 2 .9 2 2s-.9 2-2 2-2-.9-2-2 .9-2 2-2zm-20.9 2c.6 0 1 .4 1 1s-.4 1-1 1-1-.4-1-1 .4-1 1-1zm48.9 106h-56v-100h56v100z"/>
    </clipPath>
    <clipPath id="iconic-size-lg-nexus-clip-1">
      <rect x="4" y="12" width="56" height="100"/>
    </clipPath>
    <clipPath id="iconic-size-md-nexus-clip-0">
      <path d="M0 0v32h16v-32h-16zm7.5 1h1c.3 0 .5.2.5.5s-.2.5-.5.5h-1c-.3 0-.5-.2-.5-.5s.2-.5.5-.5zm7.5 27h-14v-25h14v25z"/>
    </clipPath>
    <clipPath id="iconic-size-md-nexus-clip-1">
      <rect x="1" y="3" width="14" height="25"/>
    </clipPath>
    <clipPath id="iconic-size-sm-nexus-clip-0">
      <path d="M0 0v16h9v-16h-9zm8 14h-7v-12h7v12z"/>
    </clipPath>
    <clipPath id="iconic-size-sm-nexus-clip-1">
      <rect x="1" y="2" width="7" height="12"/>
    </clipPath>
  </defs>
  <g data-width="64" data-height="128" class="iconic-container iconic-lg" display="inline" transform="translate(32)">
    <path clip-path="url(#iconic-size-lg-nexus-clip-0)" d="M60.3 2.8c-.1 0-11.3-2.8-28.3-2.8s-28.2 2.8-28.3 2.8c-2.1.5-3.7 2.6-3.7 4.7v112.5c0 2.1 1.6 4.2 3.7 4.7 1.7.5 11.3 3.3 28.3 3.3s25.2-2.5 28.3-3.3c2.1-.5 3.7-2.6 3.7-4.7v-112.5c0-2.1-1.6-4.2-3.7-4.7z" class="iconic-nexus-body iconic-property-fill"/>
    <path d="M46.5 105v1h-1.5v3h6v-1.5h1v-2.5h-5.5zm3.5 3h-4v-1h4v1z" class="iconic-nexus-button iconic-nexus-button-context iconic-property-fill"/>
    <path stroke="#000" stroke-miterlimit="10" class="iconic-nexus-button iconic-nexus-button-home iconic-property-stroke" d="M32 105.4l-2.5 1.1v2h5v-2z" fill="none"/>
    <path fill="#0C0D07" d="M16.5 106h-2.8l.6-.6-.7-.7-1.9 1.9 1.9 1.9.7-.7-.6-.6h2.8c.3 0 .5.2.5.5s-.2.5-.5.5h-1.5v1h1.5c.8 0 1.5-.7 1.5-1.5s-.7-1.7-1.5-1.7z" class="iconic-nexus-button iconic-nexus-button-back iconic-property-fill"/>
    <image class="iconic-nexus-screenshot-image" data-max-width="56" x="4" y="12" clip-path="url(#iconic-size-lg-nexus-clip-1)"/>
  </g>
  <g data-width="16" data-height="32" class="iconic-container iconic-md" display="none" transform="scale(4) translate(8)">
    <path clip-path="url(#iconic-size-md-nexus-clip-0)" d="M15.4.8c-.1 0-3.2-.8-7.4-.8s-7.3.8-7.4.8c-.3.1-.6.4-.6.8v28.8c0 .4.3.7.6.8.2.1 3.2.8 7.4.8s7.2-.7 7.4-.8c.4-.1.6-.4.6-.8v-28.8c0-.4-.3-.7-.6-.8z" class="iconic-nexus-body iconic-property-fill"/>
    <path class="iconic-nexus-button iconic-nexus-button-context iconic-property-fill" d="M11 26h2v1h-2z"/>
    <path fill="#0C0D07" class="iconic-nexus-button iconic-nexus-button-back iconic-property-fill" d="M3 26.5l.5-.5h1.5v1h-1.5z"/>
    <path class="iconic-nexus-button iconic-nexus-button-home iconic-property-fill" d="M8 26l-1 .5v.5h2v-.5z"/>
    <image class="iconic-nexus-screenshot-image" data-max-width="14" x="1" y="3" clip-path="url(#iconic-size-md-nexus-clip-1)"/>
  </g>
  <g data-width="9" data-height="16" class="iconic-container iconic-sm" display="none" transform="scale(8) translate(3)">
    <path clip-path="url(#iconic-size-sm-nexus-clip-0)" d="M8.5.5c-.1 0-2-.5-4.1-.5-2.2 0-3.8.5-3.9.5-.3.1-.5.3-.5.6v13.7c0 .3.2.6.5.6.1 0 1.7.5 3.9.5s4-.5 4.1-.5c.3 0 .5-.2.5-.5v-13.8c0-.3-.2-.5-.5-.6z" class="iconic-nexus-body iconic-property-fill"/>
    <path class="iconic-nexus-button iconic-nexus-button-context iconic-property-fill" d="M6 12h1v1h-1z"/>
    <path fill="#0C0D07" class="iconic-nexus-button iconic-nexus-button-back iconic-property-fill" d="M2 12.5l.2-.5h.8v1h-.8z"/>
    <path class="iconic-nexus-button iconic-nexus-button-home iconic-property-fill" d="M4.5 12l-.5.5v.5h1v-.5z"/>
    <image class="iconic-nexus-screenshot-image" data-max-width="7" x="1" y="2" clip-path="url(#iconic-size-sm-nexus-clip-1)"/>
  </g>
<script class="iconic-api" type="application/ecmascript">
//<![CDATA[
var iconicApis=window._Iconic?window._Iconic.smartIconApis:{};iconicApis["nexus"]=iconicApis["nexus"]||function(t){var e=function(e){t.setAttribute("data-screenshot",e);var i,r,n=t.querySelectorAll(".iconic-nexus-screenshot-image"),a=0,c=new Image;c.onload=function(){for(a=0;a<n.length;a++){n[a].setAttributeNS("http://www.w3.org/1999/xlink","xlink:href",e),n[a].setAttribute("display","inline");var t=c.width/c.height,o=parseInt(n[a].getAttribute("data-max-width"));r=o,i=o/t,n[a].setAttribute("height",i+"px"),n[a].setAttribute("width",r+"px")}};var o=/[-a-zA-Z0-9@:%_\+.~#?&//=]{2,256}\.[a-z]{2,4}\b(\/[-a-zA-Z0-9@:%_\+.~#?&//=]*)?/gi,s=new RegExp(o);if(e&&e.match(s))c.src=e;else for(a=0;a<n.length;a++)n[a].setAttribute("display","none"),n[a].setAttributeNS("http://www.w3.org/1999/xlink","xlink:href","")},i=function(){var i=t.getAttribute("data-screenshot")||"";e(i)};return{update:i,setScreenshot:e}};
//]]>
</script>
</svg>
