<svg xmlns="http://www.w3.org/2000/svg" class="iconic iconic-print" width="128" height="128" viewBox="0 0 128 128">
  <g class="iconic-metadata">
    <title>Print</title>
  </g>
  <defs>
    <clipPath id="iconic-size-lg-print-clip-0">
      <path d="M0 30v50h26v-7c0-.552.448-1 1-1s1 .448 1 1v7h2v-20h68v20h2v-7c0-.552.448-1 1-1s1 .448 1 1v7h26v-50h-128zm117 24c-.552 0-1-.448-1-1s.448-1 1-1 1 .448 1 1-.448 1-1 1zm0-4c-.552 0-1-.448-1-1s.448-1 1-1 1 .448 1 1-.448 1-1 1zm0-4c-1.657 0-3-1.343-3-3s1.343-3 3-3 3 1.343 3 3-1.343 3-3 3z"
      />
    </clipPath>
    <clipPath id="iconic-size-lg-print-clip-1">
      <path d="M32 62v32h20v-6h22v6h22v-32z" />
    </clipPath>
    <clipPath id="iconic-size-md-print-clip-0">
      <path d="M0 9v14h7v-6h18v6h7v-14h-32zm29.5 5c-.276 0-.5-.224-.5-.5s.224-.5.5-.5.5.224.5.5-.224.5-.5.5zm0-2c-.276 0-.5-.224-.5-.5s.224-.5.5-.5.5.224.5.5-.224.5-.5.5z" />
    </clipPath>
    <clipPath id="iconic-size-sm-print-clip-0">
      <path d="M0 5v7h3v-3h10v3h3v-7h-16zm14.5 2c-.276 0-.5-.224-.5-.5s.224-.5.5-.5.5.224.5.5-.224.5-.5.5z" />
    </clipPath>
  </defs>
  <g class="iconic-print-lg iconic-container iconic-lg" data-width="128" data-height="98" display="inline" transform="translate(0 15)">
    <path class="iconic-print-tray iconic-print-tray-top iconic-print-tray-top-border-left iconic-property-fill" d="M28 10h2v32h-2z" />
    <path class="iconic-print-tray iconic-print-tray-top iconic-print-tray-top-border-right iconic-property-fill" d="M98 10h2v32h-2z" />
    <path class="iconic-print-tray iconic-print-tray-bottom iconic-print-tray-bottom-left iconic-property-fill" d="M28 76h2v21h-2z" />
    <path class="iconic-print-tray iconic-print-tray-bottom iconic-print-tray-bottom-right iconic-property-fill" d="M98 76h2v21h-2z" />
    <path class="iconic-print-tray iconic-print-tray-bottom iconic-print-tray-bottom-lip iconic-property-fill" d="M54 90h18v7h-18z" />
    <path class="iconic-print-tray iconic-print-tray-bottom-front iconic-property-fill" d="M28 96h72v2h-72z" />
    <path d="M125 80h-122c-1.657 0-3-1.343-3-3v-44c0-1.657 1.343-3 3-3h122c1.657 0 3 1.343 3 3v44c0 1.657-1.343 3-3 3z" clip-path="url(#iconic-size-lg-print-clip-0)" class="iconic-print-body iconic-property-fill" />
    <path clip-path="url(#iconic-size-lg-print-clip-1)" class="iconic-print-paper iconic-print-paper-bottom iconic-property-accent iconic-property-fill" d="M32 62h64v32h-64z" />
    <path class="iconic-print-paper iconic-print-paper-top iconic-property-accent iconic-property-fill" d="M32 0h64v28h-64z" />
  </g>
  <g class="iconic-print-md iconic-container iconic-md" data-width="32" data-height="27" display="none" transform="scale(4) translate(0 2)">
    <path class="iconic-print-tray iconic-print-tray-top iconic-print-tray-top-border-left iconic-property-fill" d="M6 3h1v8.083h-1z" />
    <path class="iconic-print-tray iconic-print-tray-top iconic-print-tray-top-border-right iconic-property-fill" d="M25 3h1v8.083h-1z" />
    <path d="M31.5 23h-31c-.276 0-.5-.224-.5-.5v-13c0-.276.224-.5.5-.5h31c.276 0 .5.224.5.5v13c0 .276-.224.5-.5.5z" clip-path="url(#iconic-size-md-print-clip-0)" class="iconic-print-body iconic-property-fill" />
    <path class="iconic-print-paper iconic-print-paper-bottom iconic-property-accent iconic-property-fill" d="M8 18h16v9h-16z" />
    <path class="iconic-print-paper iconic-print-paper-top iconic-property-accent iconic-property-fill" d="M8 0h16v8h-16z" />
  </g>
  <g class="iconic-print-sm iconic-container iconic-sm" data-width="16" data-height="14" display="none" transform="scale(8) translate(0 1)">
    <path class="iconic-print-tray iconic-print-tray-top iconic-print-tray-top-border-left iconic-property-fill" d="M2 2h1v4.042h-1z" />
    <path class="iconic-print-tray iconic-print-tray-top iconic-print-tray-top-border-right iconic-property-fill" d="M13 2h1v4.042h-1z" />
    <path d="M15.75 12h-15.5c-.138 0-.25-.112-.25-.25v-6.5c0-.138.112-.25.25-.25h15.5c.138 0 .25.112.25.25v6.5c0 .138-.112.25-.25.25z" clip-path="url(#iconic-size-sm-print-clip-0)" class="iconic-print-body iconic-property-fill" />
    <path class="iconic-print-paper iconic-print-paper-bottom iconic-property-accent iconic-property-fill" d="M4 10h8v4h-8z" />
    <path class="iconic-print-paper iconic-print-paper-top iconic-property-accent iconic-property-fill" d="M4 0h8v4h-8z" />
  </g>
</svg>