<svg xmlns="http://www.w3.org/2000/svg" class="iconic iconic-project" width="128" height="128" viewBox="0 0 128 128">
  <g class="iconic-metadata">
    <title>Project</title>
  </g>
  <g class="iconic-project-lg iconic-container iconic-lg" data-width="128" data-height="60" display="inline" transform="translate(0 34)">
    <path stroke="#000" stroke-width="2" stroke-linecap="square" class="iconic-project-edge iconic-project-edge-start iconic-property-stroke" d="M1 1v58" fill="none" />
    <path stroke="#000" stroke-width="2" stroke-linecap="square" class="iconic-project-edge iconic-project-edge-end iconic-property-stroke" d="M127 1v58" fill="none" />
    <path class="iconic-project-task iconic-project-task-1 iconic-property-fill" d="M6 8h36v8h-36z" />
    <path class="iconic-project-task iconic-project-task-2 iconic-property-accent iconic-property-fill" d="M28 20h54v8h-54z" />
    <path class="iconic-project-task iconic-project-task-3 iconic-property-fill" d="M74 32h18v8h-18z" />
    <path class="iconic-project-task iconic-project-task-4 iconic-property-fill" d="M84 44h38v8h-38z" />
  </g>
  <g class="iconic-project-md iconic-container iconic-md" data-width="32" data-height="17" display="none" transform="scale(4) translate(0 7)">
    <path stroke="#000" stroke-linecap="square" class="iconic-project-edge iconic-project-edge-start iconic-property-stroke" d="M.5.5v16" fill="none" />
    <path stroke="#000" stroke-linecap="square" class="iconic-project-edge iconic-project-edge-end iconic-property-stroke" d="M31.5.5v16" fill="none" />
    <path class="iconic-project-task iconic-project-task-1 iconic-property-fill" d="M3 2h9v3h-9z" />
    <path class="iconic-project-task iconic-project-task-2 iconic-property-accent iconic-property-fill" d="M8 7h14v3h-14z" />
    <path class="iconic-project-task iconic-project-task-3 iconic-property-fill" d="M18 12h11v3h-11z" />
  </g>
  <g class="iconic-project-sm iconic-container iconic-sm" data-width="16" data-height="10" display="none" transform="scale(8) translate(0 3)">
    <path stroke="#000" stroke-linecap="square" class="iconic-project-edge iconic-project-edge-start iconic-property-stroke" d="M.5.5v9" fill="none" />
    <path stroke="#000" stroke-linecap="square" class="iconic-project-edge iconic-project-edge-end iconic-property-stroke" d="M15.5.5v9" fill="none" />
    <path class="iconic-project-task iconic-project-task-1 iconic-property-fill" d="M2 1h4v2h-4z" />
    <path class="iconic-project-task iconic-project-task-2 iconic-property-accent iconic-property-fill" d="M4 4h7v2h-7z" />
    <path class="iconic-project-task iconic-project-task-3 iconic-property-fill" d="M9 7h5v2h-5z" />
  </g>
</svg>