<svg xmlns="http://www.w3.org/2000/svg" class="iconic iconic-puzzle-piece" width="128" height="128" viewBox="0 0 128 128">
  <g class="iconic-metadata">
    <title>Puzzle Piece</title>
  </g>
  <g class="iconic-puzzle-piece-lg iconic-container iconic-lg" data-width="128" data-height="128" display="inline">
    <path d="M116 70c-2.733 0-5.062 1.199-7.262 2.463-.095.055-7.052 4.461-7.052 4.461-.927.592-2.586 1.076-3.686 1.076-3.314 0-6-2.686-6-6v-35c0-.55-.45-1-1-1h-35c-3.314 0-6-2.686-6-6 0-1.1.484-2.759 1.075-3.686 0 0 4.415-6.969 4.467-7.059 1.276-2.19 2.458-4.525 2.458-7.255 0-6.627-5.373-12-12-12s-12 5.373-12 12c0 2.733 1.199 5.062 2.463 7.262.055.095 4.461 7.052 4.461 7.052.592.927 1.076 2.586 1.076 3.686 0 3.314-2.686 6-6 6h-35c-.55 0-1 .45-1 1v90c0 .55.45 1 1 1h35c3.314 0 6-2.686 6-6 0-1.1-.484-2.759-1.076-3.686 0 0-4.407-6.956-4.461-7.052-1.264-2.2-2.463-4.529-2.463-7.262 0-6.627 5.373-12 12-12s12 5.373 12 12c0 2.73-1.182 5.065-2.458 7.255-.052.09-4.467 7.059-4.467 7.059-.591.928-1.075 2.586-1.075 3.686 0 3.314 2.686 6 6 6h35c.55 0 1-.45 1-1v-35c0-3.314 2.686-6 6-6 1.1 0 2.759.484 3.686 1.075 0 0 6.969 4.415 7.058 4.467 2.19 1.276 4.525 2.458 7.255 2.458 6.627 0 12-5.373 12-12s-5.373-12-12-12z"
    class="iconic-property-fill" />
  </g>
  <g class="iconic-puzzle-piece-md iconic-container iconic-md" data-width="32" data-height="32" display="none" transform="scale(4)">
    <path class="iconic-property-fill" d="M18 19.979v4" />
    <path d="M29 17.979c-.684 0-1.26.311-1.813.624-.025.014-1.766 1.107-1.766 1.107-.232.148-.646.269-.921.269h-.5c-1.105 0-2-.895-2-2v-7.479c0-.275-.225-.5-.5-.5h-7.5c-1.105 0-2-.895-2-2v-.5c0-.275.121-.69.269-.922 0 0 1.096-1.744 1.109-1.769.315-.551.622-1.127.622-1.81 0-1.657-1.343-3-3-3s-3 1.343-3 3c0 .684.311 1.26.624 1.813.014.025 1.107 1.766 1.107 1.766.148.232.269.646.269.921v.5c0 1.105-.895 2-2 2h-7.5c-.275 0-.5.225-.5.5v21c0 .275.225.5.5.5h7.5c1.105 0 2-.895 2-2v-.5c0-.275-.121-.69-.269-.921 0 0-1.093-1.74-1.107-1.766-.313-.553-.624-1.128-.624-1.813 0-1.657 1.343-3 3-3s3 1.343 3 3c0 .683-.307 1.259-.622 1.81-.014.024-1.109 1.769-1.109 1.769-.148.232-.269.647-.269.922v.5c0 1.105.895 2 2 2h7.5c.275 0 .5-.225.5-.5v-7.521c0-1.105.895-2 2-2h.5c.275 0 .69.121.922.269 0 0 1.744 1.096 1.769 1.11.551.315 1.127.622 1.81.622 1.657 0 3-1.343 3-3s-1.343-3-3-3z"
    class="iconic-property-fill" />
  </g>
  <g class="iconic-puzzle-piece-sm iconic-container iconic-sm" data-width="16" data-height="16" display="none" transform="scale(8)">
    <path d="M14 8.99c-.529 0-.973.248-1.364.544-.013.01-.233.161-.233.161-.222.162-.628.295-.903.295h-.5c-.552 0-1-.448-1-1v-2.99h-3c-.552 0-1-.448-1-1v-.5c0-.275.133-.682.295-.903 0 0 .15-.219.16-.232.296-.391.545-.836.545-1.365 0-1.105-.895-2-2-2s-2 .895-2 2c0 .529.248.973.544 1.364.01.013.161.233.161.233.163.222.295.628.295.903v.5c0 .552-.448 1-1 1h-3v10h3c.552 0 1-.448 1-1v-.5c0-.275-.133-.682-.295-.903 0 0-.151-.22-.161-.233-.296-.391-.544-.835-.544-1.364 0-1.105.895-2 2-2s2 .895 2 2c0 .529-.249.974-.545 1.365-.009.013-.16.232-.16.232-.162.222-.295.629-.295.904v.5c0 .552.448 1 1 1h3v-3.01c0-.552.448-1 1-1h.5c.275 0 .682.133.903.295 0 0 .22.15.232.16.39.297.835.545 1.365.545 1.105 0 2-.895 2-2s-.895-2-2-2z"
    class="iconic-property-fill" />
  </g>
</svg>