<svg xmlns="http://www.w3.org/2000/svg" class="iconic iconic-random" width="128" height="128" viewBox="0 0 128 128">
  <g class="iconic-metadata">
    <title>Random</title>
  </g>
  <defs>
    <clipPath id="iconic-size-lg-random-clip-0">
      <path d="M0 0v98h128v-98h-128zm60 68l-22-22 14-14 21.75 21.875-13.75 14.125z" />
    </clipPath>
    <clipPath id="iconic-size-md-random-clip-0">
      <path d="M0 0v25h32v-25h-32zm15 18l-6-6 5-5 6 6-5 5z" />
    </clipPath>
    <clipPath id="iconic-size-sm-random-clip-0">
      <path d="M0 0v14h16v-14h-16zm5.5 10.5l-3-3 4.5-4.5 3 3-4.5 4.5z" />
    </clipPath>
  </defs>
  <g class="iconic-random-lg iconic-container iconic-lg" data-width="128" data-height="98" display="inline" transform="translate(0 15)">
    <path stroke="#000" stroke-width="8" stroke-linecap="square" d="M108 82h-17c-1.657 0-3.95-.95-5.121-2.121l-59.757-59.757c-1.172-1.172-3.464-2.121-5.121-2.121h-17" class="iconic-random-line iconic-random-line-bottom iconic-property-stroke" fill="none"
    />
    <path stroke="#000" stroke-width="8" stroke-linecap="square" d="M108 18h-17c-1.657 0-3.95.95-5.121 2.121l-59.757 59.757c-1.172 1.172-3.464 2.121-5.121 2.121h-17" clip-path="url(#iconic-size-lg-random-clip-0)" class="iconic-random-line iconic-random-line-top iconic-property-accent iconic-property-stroke"
    fill="none" />
    <path d="M126.704 81.244l-21.409-12.488c-.716-.417-1.296-.084-1.296.744v25c0 .828.58 1.162 1.296.744l21.409-12.488c.716-.417.716-1.094 0-1.512z" class="iconic-random-arrowhead iconic-random-arrowhead-bottom iconic-property-fill" />
    <path d="M126.704 17.244l-21.409-12.488c-.716-.417-1.296-.084-1.296.744v25c0 .828.58 1.162 1.296.744l21.409-12.488c.716-.417.716-1.094 0-1.512z" class="iconic-random-arrowhead iconic-random-arrowhead-top iconic-property-accent iconic-property-fill"
    />
  </g>
  <g class="iconic-random-md iconic-container iconic-md" data-width="32" data-height="25" display="none" transform="scale(4) translate(0 3)">
    <path stroke="#000" stroke-width="3" stroke-linecap="square" d="M27.5 20.5h-4c-.552 0-1.317-.317-1.707-.707l-14.586-14.586c-.391-.391-1.155-.707-1.707-.707h-4" class="iconic-random-line iconic-random-line-bottom iconic-property-stroke" fill="none" />
    <path clip-path="url(#iconic-size-md-random-clip-0)" stroke="#000" stroke-width="3" stroke-linecap="square" d="M27.5 4.5h-4c-.552 0-1.317.317-1.707.707l-14.586 14.586c-.391.39-1.155.707-1.707.707h-4" class="iconic-random-line iconic-random-line-top iconic-property-accent iconic-property-stroke"
    fill="none" />
    <path d="M31.6 20.8l-5.2 3.9c-.221.166-.4.076-.4-.2v-8c0-.276.179-.366.4-.2l5.2 3.9c.221.166.221.434 0 .6z" class="iconic-random-arrowhead iconic-random-arrowhead-bottom iconic-property-fill" />
    <path d="M31.6 4.8l-5.2 3.9c-.221.166-.4.076-.4-.2v-8c0-.276.179-.366.4-.2l5.2 3.9c.221.166.221.434 0 .6z" class="iconic-random-arrowhead iconic-random-arrowhead-top iconic-property-accent iconic-property-fill" />
  </g>
  <g class="iconic-random-sm iconic-container iconic-sm" data-width="16" data-height="14" display="none" transform="scale(8) translate(0 1)">
    <path stroke="#000" stroke-width="2" stroke-linecap="square" d="M14 11h-3c-.276 0-.658-.158-.854-.354l-7.293-7.293c-.195-.195-.578-.354-.854-.354h-1" class="iconic-random-line iconic-random-line-bottom iconic-property-stroke" fill="none" />
    <path clip-path="url(#iconic-size-sm-random-clip-0)" stroke="#000" stroke-width="2" stroke-linecap="square" d="M14 3h-3c-.276 0-.658.158-.854.354l-7.293 7.293c-.195.195-.577.354-.853.354h-1" class="iconic-random-line iconic-random-line-top iconic-property-accent iconic-property-stroke"
    fill="none" />
    <path class="iconic-random-arrowhead iconic-random-arrowhead-top iconic-property-accent iconic-property-fill" d="M16 3l-3-3v6z" />
    <path class="iconic-random-arrowhead iconic-random-arrowhead-bottom iconic-property-fill" d="M16 11l-3-3v6z" />
  </g>
</svg>