<svg xmlns="http://www.w3.org/2000/svg" class="iconic iconic-ratio" width="128" height="128" viewBox="0 0 128 128">
  <g class="iconic-metadata">
    <title>Ratio</title>
  </g>
  <g class="iconic-ratio-lg iconic-container iconic-lg" data-width="128" data-height="128" display="inline">
    <path d="M64 120c12 0 24-8 24-24s-13-23.54-24.267-32c-14.305-10.741-23.733-16-23.733-32s16-24 24-24c20.156 0 32.299 5.383 41.627 15.867 8.103 9.107 16.346 21.925 15.973 40.133-.344 16.806-5.186 25.552-11.306 34.411-8.689 12.577-22.294 21.589-46.294 21.589z"
    class="iconic-ratio-positive iconic-property-fill" />
    <circle stroke="#000" stroke-width="8" cx="64" cy="64" r="60" class="iconic-ratio-border iconic-property-accent iconic-property-stroke" fill="none" />
  </g>
  <g class="iconic-ratio-md iconic-container iconic-md" data-width="32" data-height="32" display="none" transform="scale(4)">
    <path d="M16 29c3 0 6-2.286 6-6s-3-5.092-5.714-7c-3.397-2.388-5.286-3.286-5.286-7s3.143-6 5-6c8.744 0 13.472 3.908 13.286 13-.193 9.441-4.248 13-13.286 13z" class="iconic-ratio-positive iconic-property-fill" />
    <circle stroke="#000" stroke-width="3" cx="16" cy="16" r="14.5" class="iconic-ratio-border iconic-property-accent iconic-property-stroke" fill="none" />
  </g>
  <g class="iconic-ratio-sm iconic-container iconic-sm" data-width="16" data-height="16" display="none" transform="scale(8)">
    <path d="M8 14c1.482 0 2.5-.786 2.5-2.5s-1.241-2.5-2.503-3.5c-1.502-1.19-2.497-1.786-2.497-3.5s1.64-2.5 2.497-2.5c4.036 0 6.086 1.804 6 6-.089 4.357-1.826 6-5.997 6z" class="iconic-ratio-positive iconic-property-fill" />
    <circle stroke="#000" stroke-width="2" cx="8" cy="8" r="7" class="iconic-ratio-border iconic-property-accent iconic-property-stroke" fill="none" />
  </g>
</svg>