<svg version="1.1" xmlns="http://www.w3.org/2000/svg" data-icon="resize" width="128" height="128" class="iconic iconic-resize" viewBox="0 0 128 128">
  <g><title>Resize</title></g>
  <g data-width="128" data-height="128" class="iconic-lg iconic-container" display="inline">
    <g class="iconic-resize-both">
      <path stroke="#000" stroke-width="8" stroke-linecap="square" stroke-miterlimit="10" class="iconic-resize-both-line iconic-property-stroke" d="M116 12l-102.5 102.5" fill="none"/>
      <path d="M126.5.3l-25.1 5.4c-.8.2-1 .8-.4 1.4l19.9 19.9c.6.6 1.2.4 1.4-.4l5.4-25.1c.2-.8-.4-1.4-1.2-1.2z" class="iconic-resize-both-arrowhead iconic-resize-both-arrowhead-top-right iconic-property-fill"/>
      <path d="M1.5 127.7l25.1-5.4c.8-.2 1-.8.4-1.4l-19.9-19.8c-.6-.6-1.2-.4-1.4.4l-5.4 25.1c-.2.7.4 1.3 1.2 1.1z" class="iconic-resize-both-arrowhead iconic-resize-both-arrowhead-bottom-left iconic-property-fill"/>
    </g>
  </g>
  <g data-width="128" data-height="28" class="iconic-lg iconic-container" display="inline" transform="translate(0 50)">
    <g class="iconic-resize-width" display="none">
      <path stroke="#000" stroke-width="8" stroke-linecap="square" stroke-miterlimit="10" class="iconic-resize-width-line iconic-property-stroke" d="M114 14h-100" fill="none"/>
      <path d="M126.7 13.2l-21.4-12.4c-.7-.4-1.3-.1-1.3.7v25c0 .8.6 1.2 1.3.7l21.4-12.5c.7-.4.7-1 0-1.5z" class="iconic-resize-width-arrowhead iconic-resize-width-arrowhead-right iconic-property-fill"/>
      <path d="M1.3 14.8l21.4 12.5c.7.4 1.3.1 1.3-.7v-25c0-.8-.6-1.2-1.3-.7l-21.4 12.3c-.7.5-.7 1.1 0 1.6z" class="iconic-resize-width-arrowhead iconic-resize-width-arrowhead-left iconic-property-fill"/>
    </g>
  </g>
  <g data-width="28" data-height="128" class="iconic-lg iconic-container" display="inline" transform="translate(50)">
    <g class="iconic-resize-height" display="none">
      <path stroke="#000" stroke-width="8" stroke-linecap="square" stroke-miterlimit="10" class="iconic-resize-height-line iconic-property-stroke" d="M14 14v100" fill="none"/>
      <path d="M13.2 1.3l-12.4 21.4c-.5.7-.1 1.3.7 1.3h25c.8 0 1.2-.6.7-1.3l-12.4-21.4c-.5-.7-1.1-.7-1.6 0z" class="iconic-resize-height-arrowhead iconic-resize-height-arrowhead-top iconic-property-fill"/>
      <path d="M14.8 126.7l12.5-21.4c.4-.7.1-1.3-.7-1.3h-25c-.8 0-1.2.6-.7 1.3l12.5 21.4c.3.7.9.7 1.4 0z" class="iconic-resize-height-arrowhead iconic-resize-height-arrowhead-bottom iconic-property-fill"/>
    </g>
  </g>
  <g data-width="32" data-height="32" class="iconic-md iconic-container" display="none" transform="scale(4)">
    <g class="iconic-resize-both">
      <path stroke="#000" stroke-width="3" stroke-linecap="square" stroke-miterlimit="10" class="iconic-resize-both-line iconic-property-stroke" d="M28 4l-24 24" fill="none"/>
      <path d="M31.9.5l-.9 6c0 .3-.2.3-.4.1l-5.3-5.3c-.2-.2-.1-.4.1-.4l6-.9c.4 0 .6.2.5.5z" class="iconic-resize-both-arrowhead iconic-resize-both-arrowhead-top-right iconic-property-fill"/>
      <path d="M.1 31.5l.9-6c0-.3.2-.3.4-.1l5.3 5.3c.2.2.1.4-.1.4l-6 .9c-.4 0-.6-.2-.5-.5z" class="iconic-resize-both-arrowhead iconic-resize-both-arrowhead-bottom-left iconic-property-fill"/>
    </g>
  </g>
  <g data-width="32" data-height="9" class="iconic-md iconic-container" display="none" transform="scale(4) translate(0 11)">
    <g class="iconic-resize-width" display="none">
      <path stroke="#000" stroke-width="3" stroke-linecap="square" stroke-miterlimit="10" class="iconic-resize-width-line iconic-property-stroke" d="M27 4.5h-22" fill="none"/>
      <path d="M31.6 4.8l-5.2 3.9c-.2.2-.4.1-.4-.2v-8c0-.3.2-.4.4-.2l5.2 3.9c.2.2.2.4 0 .6z" class="iconic-resize-width-arrowhead iconic-resize-width-arrowhead-right iconic-property-fill"/>
      <path d="M5.6.3l-5.2 3.9c-.2.2-.2.4 0 .6l5.2 3.9c.2.2.4.1.4-.2v-8c0-.3-.2-.4-.4-.2z" class="iconic-resize-width-arrowhead iconic-resize-width-arrowhead-left iconic-property-fill"/>
    </g>
  </g>
  <g data-width="9" data-height="32" class="iconic-md iconic-container" display="none" transform="scale(4) translate(11)">
    <g class="iconic-resize-height" display="none">
      <path stroke="#000" stroke-width="3" stroke-linecap="square" stroke-miterlimit="10" class="iconic-resize-height-line iconic-property-stroke" d="M4.5 5v22" fill="none"/>
      <path d="M4.8.4l3.9 5.2c.2.2.1.4-.2.4h-8c-.3 0-.4-.2-.2-.4l3.9-5.2c.2-.2.4-.2.6 0z" class="iconic-resize-height-arrowhead iconic-resize-height-arrowhead-top iconic-property-fill"/>
      <path d="M.3 26.4l3.9 5.2c.2.2.4.2.6 0l3.9-5.2c.2-.2.1-.4-.2-.4h-8c-.3 0-.4.2-.2.4z" class="iconic-resize-height-arrowhead iconic-resize-height-arrowhead-bottom iconic-property-fill"/>
    </g>
  </g>
  <g data-width="16" data-height="16" class="iconic-sm iconic-container" display="none" transform="scale(8)">
    <g class="iconic-resize-both">
      <path stroke="#000" stroke-width="2" stroke-linecap="square" stroke-miterlimit="10" class="iconic-resize-both-line iconic-property-stroke" d="M13 3l-10 10" fill="none"/>
      <path class="iconic-resize-both-arrowhead iconic-resize-both-arrowhead-top-right iconic-property-fill" d="M16 0v5l-5-5z"/>
      <path class="iconic-resize-both-arrowhead iconic-resize-both-arrowhead-bottom-left iconic-property-fill" d="M0 11v5h5z"/>
    </g>
  </g>
  <g data-width="16" data-height="6" class="iconic-sm iconic-container" display="none" transform="scale(8) translate(0 5)">
    <g class="iconic-resize-width" display="none">
      <path stroke="#000" stroke-width="2" stroke-linecap="square" stroke-miterlimit="10" class="iconic-resize-width-line iconic-property-stroke" d="M13 3h-10" fill="none"/>
      <path class="iconic-resize-width-arrowhead iconic-resize-width-arrowhead-right iconic-property-fill" d="M16 3l-3 3v-6z"/>
      <path class="iconic-resize-width-arrowhead iconic-resize-width-arrowhead-left iconic-property-fill" d="M3 0l-3 3 3 3z"/>
    </g>
  </g>
  <g data-width="6" data-height="16" class="iconic-sm iconic-container" display="none" transform="scale(8) translate(5)">
    <g class="iconic-resize-height" display="none">
      <path stroke="#000" stroke-width="2" stroke-linecap="square" stroke-miterlimit="10" class="iconic-resize-height-line iconic-property-stroke" d="M3 3v10" fill="none"/>
      <path class="iconic-resize-height-arrowhead iconic-resize-height-arrowhead-top iconic-property-fill" d="M3 0l3 3h-6z"/>
      <path class="iconic-resize-height-arrowhead iconic-resize-height-arrowhead-bottom iconic-property-fill" d="M0 13l3 3 3-3z"/>
    </g>
  </g>
<script class="iconic-api" type="application/ecmascript">
//<![CDATA[
var iconicApis=window._Iconic?window._Iconic.smartIconApis:{};iconicApis["resize"]=iconicApis["resize"]||function(t){var e=function(e){t.setAttribute("data-dimension",e);var i,r,n,a=t.querySelectorAll(".iconic-resize-both"),c=t.querySelectorAll(".iconic-resize-width"),o=t.querySelectorAll(".iconic-resize-height");switch(i=r=n="none",e){case"width":r="inline";break;case"height":n="inline";break;default:i="inline"}for(var s=0;s<a.length;s++)a[s].setAttribute("display",i),c[s].setAttribute("display",r),o[s].setAttribute("display",n)},i=function(){var i=t.getAttribute("data-dimension");i&&e(i)};return{update:i,setDimension:e}};
//]]>
</script>
</svg>
