<svg xmlns="http://www.w3.org/2000/svg" class="iconic iconic-rss" width="128" height="128" viewBox="0 0 128 128">
  <g class="iconic-metadata">
    <title>Rss</title>
  </g>
  <g class="iconic-rss-lg iconic-container iconic-lg" data-width="108" data-height="108" display="inline" transform="translate(10 10)">
    <path d="M24 96c0 6.633-5.372 12-12.003 12-6.625 0-11.997-5.367-11.997-12 0-6.632 5.372-12 11.997-12 6.631 0 12.003 5.368 12.003 12z" class="iconic-rss-center iconic-property-accent iconic-property-fill" />
    <path stroke="#000" stroke-width="8" d="M12 60c19.882 0 36 16.118 36 36" class="iconic-rss-wave iconic-rss-wave-inner iconic-property-stroke" fill="none" />
    <path stroke="#000" stroke-width="8" d="M12 32c35.346 0 64 28.654 64 64" class="iconic-rss-wave iconic-rss-wave-middle iconic-property-stroke" fill="none" />
    <path stroke="#000" stroke-width="8" d="M12 4c50.81 0 92 41.19 92 92" class="iconic-rss-wave iconic-rss-wave-outer iconic-property-stroke" fill="none" />
  </g>
  <g class="iconic-rss-md iconic-container iconic-md" data-width="32" data-height="32" display="none" transform="scale(4)">
    <circle cx="3" cy="29" r="3" class="iconic-rss-center iconic-property-accent iconic-property-fill" />
    <path stroke="#000" stroke-width="3" d="M4.001 19.5c4.694 0 8.5 3.806 8.5 8.5" class="iconic-rss-wave iconic-rss-wave-inner iconic-property-stroke" fill="none" />
    <path stroke="#000" stroke-width="3" d="M4 10.5c9.665 0 17.5 7.835 17.5 17.5" class="iconic-rss-wave iconic-rss-wave-middle iconic-property-stroke" fill="none" />
    <path stroke="#000" stroke-width="3" d="M4 1.5c14.636 0 26.5 11.864 26.5 26.5" class="iconic-rss-wave iconic-rss-wave-outer iconic-property-stroke" fill="none" />
  </g>
  <g class="iconic-rss-sm iconic-container iconic-sm" data-width="16" data-height="16" display="none" transform="scale(8)">
    <circle cx="2" cy="14" r="2" class="iconic-rss-center iconic-property-accent iconic-property-fill" />
    <path stroke="#000" stroke-width="2" d="M2.001 9c2.761 0 5 2.239 5 5" class="iconic-rss-wave iconic-rss-wave-inner iconic-property-stroke" fill="none" />
    <path stroke="#000" stroke-width="2" d="M2.001 5c4.971 0 9 4.029 9 9" class="iconic-rss-wave iconic-rss-wave-middle iconic-property-stroke" fill="none" />
    <path stroke="#000" stroke-width="2" d="M2.001 1c7.18 0 13 5.82 13 13" class="iconic-rss-wave iconic-rss-wave-outer iconic-property-stroke" fill="none" />
  </g>
</svg>