<svg xmlns="http://www.w3.org/2000/svg" class="iconic iconic-server" width="128" height="128" viewBox="0 0 128 128">
  <g class="iconic-metadata">
    <title>Server</title>
  </g>
  <defs>
    <clipPath id="iconic-size-lg-server-clip-0">
      <path d="M6 6v30h76v-30h-76zm3 28c-.552 0-1-.448-1-1s.448-1 1-1 1 .448 1 1-.448 1-1 1zm0-24c-.552 0-1-.448-1-1s.448-1 1-1 1 .448 1 1-.448 1-1 1zm7 19c0 .552-.448 1-1 1s-1-.448-1-1v-16c0-.552.448-1 1-1s1 .448 1 1v16zm6 0c0 .552-.448 1-1 1s-1-.448-1-1v-16c0-.552.448-1 1-1s1 .448 1 1v16zm6 0c0 .552-.448 1-1 1s-1-.448-1-1v-16c0-.552.448-1 1-1s1 .448 1 1v16zm6 0c0 .552-.448 1-1 1s-1-.448-1-1v-16c0-.552.448-1 1-1s1 .448 1 1v16zm6 0c0 .552-.448 1-1 1s-1-.448-1-1v-16c0-.552.448-1 1-1s1 .448 1 1v16zm6 0c0 .552-.448 1-1 1s-1-.448-1-1v-16c0-.552.448-1 1-1s1 .448 1 1v16zm6 0c0 .552-.448 1-1 1s-1-.448-1-1v-16c0-.552.448-1 1-1s1 .448 1 1v16zm13-1c-.552 0-1-.448-1-1s.448-1 1-1 1 .448 1 1-.448 1-1 1zm4 0c-.552 0-1-.448-1-1s.448-1 1-1 1 .448 1 1-.448 1-1 1zm4 0c-.552 0-1-.448-1-1s.448-1 1-1 1 .448 1 1-.448 1-1 1zm-4-4c-2.757 0-5-2.243-5-5s2.243-5 5-5 5 2.243 5 5-2.243 5-5 5zm10 10c-.552 0-1-.448-1-1s.448-1 1-1 1 .448 1 1-.448 1-1 1zm0-24c-.552 0-1-.448-1-1s.448-1 1-1 1 .448 1 1-.448 1-1 1z"
      />
    </clipPath>
    <clipPath id="iconic-size-lg-server-clip-1">
      <path d="M6 38v30h76v-30h-76zm3 28c-.552 0-1-.448-1-1s.448-1 1-1 1 .448 1 1-.448 1-1 1zm0-24c-.552 0-1-.448-1-1s.448-1 1-1 1 .448 1 1-.448 1-1 1zm7 19c0 .552-.448 1-1 1s-1-.448-1-1v-16c0-.552.448-1 1-1s1 .448 1 1v16zm6 0c0 .552-.448 1-1 1s-1-.448-1-1v-16c0-.552.448-1 1-1s1 .448 1 1v16zm6 0c0 .552-.448 1-1 1s-1-.448-1-1v-16c0-.552.448-1 1-1s1 .448 1 1v16zm6 0c0 .552-.448 1-1 1s-1-.448-1-1v-16c0-.552.448-1 1-1s1 .448 1 1v16zm6 0c0 .552-.448 1-1 1s-1-.448-1-1v-16c0-.552.448-1 1-1s1 .448 1 1v16zm6 0c0 .552-.448 1-1 1s-1-.448-1-1v-16c0-.552.448-1 1-1s1 .448 1 1v16zm6 0c0 .552-.448 1-1 1s-1-.448-1-1v-16c0-.552.448-1 1-1s1 .448 1 1v16zm13-1c-.552 0-1-.448-1-1s.448-1 1-1 1 .448 1 1-.448 1-1 1zm4 0c-.552 0-1-.448-1-1s.448-1 1-1 1 .448 1 1-.448 1-1 1zm4 0c-.552 0-1-.448-1-1s.448-1 1-1 1 .448 1 1-.448 1-1 1zm-4-4c-2.757 0-5-2.243-5-5s2.243-5 5-5 5 2.243 5 5-2.243 5-5 5zm10 10c-.552 0-1-.448-1-1s.448-1 1-1 1 .448 1 1-.448 1-1 1zm0-24c-.552 0-1-.448-1-1s.448-1 1-1 1 .448 1 1-.448 1-1 1z"
      />
    </clipPath>
    <clipPath id="iconic-size-lg-server-clip-2">
      <path d="M6 70v30h76v-30h-76zm3 28c-.552 0-1-.448-1-1s.448-1 1-1 1 .448 1 1-.448 1-1 1zm0-24c-.552 0-1-.448-1-1s.448-1 1-1 1 .448 1 1-.448 1-1 1zm7 19c0 .552-.448 1-1 1s-1-.448-1-1v-16c0-.552.448-1 1-1s1 .448 1 1v16zm6 0c0 .552-.448 1-1 1s-1-.448-1-1v-16c0-.552.448-1 1-1s1 .448 1 1v16zm6 0c0 .552-.448 1-1 1s-1-.448-1-1v-16c0-.552.448-1 1-1s1 .448 1 1v16zm6 0c0 .552-.448 1-1 1s-1-.448-1-1v-16c0-.552.448-1 1-1s1 .448 1 1v16zm6 0c0 .552-.448 1-1 1s-1-.448-1-1v-16c0-.552.448-1 1-1s1 .448 1 1v16zm6 0c0 .552-.448 1-1 1s-1-.448-1-1v-16c0-.552.448-1 1-1s1 .448 1 1v16zm6 0c0 .552-.448 1-1 1s-1-.448-1-1v-16c0-.552.448-1 1-1s1 .448 1 1v16zm13-1c-.552 0-1-.448-1-1s.448-1 1-1 1 .448 1 1-.448 1-1 1zm4 0c-.552 0-1-.448-1-1s.448-1 1-1 1 .448 1 1-.448 1-1 1zm4 0c-.552 0-1-.448-1-1s.448-1 1-1 1 .448 1 1-.448 1-1 1zm-4-4c-2.757 0-5-2.243-5-5s2.243-5 5-5 5 2.243 5 5-2.243 5-5 5zm10 10c-.552 0-1-.448-1-1s.448-1 1-1 1 .448 1 1-.448 1-1 1zm0-24c-.552 0-1-.448-1-1s.448-1 1-1 1 .448 1 1-.448 1-1 1z"
      />
    </clipPath>
    <clipPath id="iconic-size-lg-server-clip-3">
      <path d="M0 0v108h88v-108h-88zm84 104h-80v-100h80v100z" />
    </clipPath>
    <clipPath id="iconic-size-md-server-clip-0">
      <path d="M2 2v7h19v-7h-19zm3 5.458c0 .276-.224.5-.5.5s-.5-.224-.5-.5v-3.958c0-.276.224-.5.5-.5s.5.224.5.5v3.958zm2 0c0 .276-.224.5-.5.5s-.5-.224-.5-.5v-3.958c0-.276.224-.5.5-.5s.5.224.5.5v3.958zm2 0c0 .276-.224.5-.5.5s-.5-.224-.5-.5v-3.958c0-.276.224-.5.5-.5s.5.224.5.5v3.958zm2 0c0 .276-.224.5-.5.5s-.5-.224-.5-.5v-3.958c0-.276.224-.5.5-.5s.5.224.5.5v3.958zm2 0c0 .276-.224.5-.5.5s-.5-.224-.5-.5v-3.958c0-.276.224-.5.5-.5s.5.224.5.5v3.958zm5-1.458c-.552 0-1-.448-1-1s.448-1 1-1 1 .448 1 1-.448 1-1 1z"
      />
    </clipPath>
    <clipPath id="iconic-size-md-server-clip-1">
      <path d="M2 10v7h19v-7h-19zm3 5.459c0 .276-.224.5-.5.5s-.5-.224-.5-.5v-3.959c0-.276.224-.5.5-.5s.5.224.5.5v3.959zm2 0c0 .276-.224.5-.5.5s-.5-.224-.5-.5v-3.959c0-.276.224-.5.5-.5s.5.224.5.5v3.959zm2 0c0 .276-.224.5-.5.5s-.5-.224-.5-.5v-3.959c0-.276.224-.5.5-.5s.5.224.5.5v3.959zm2 0c0 .276-.224.5-.5.5s-.5-.224-.5-.5v-3.959c0-.276.224-.5.5-.5s.5.224.5.5v3.959zm2 0c0 .276-.224.5-.5.5s-.5-.224-.5-.5v-3.959c0-.276.224-.5.5-.5s.5.224.5.5v3.959zm5-1.459c-.552 0-1-.448-1-1s.448-1 1-1 1 .448 1 1-.448 1-1 1z"
      />
    </clipPath>
    <clipPath id="iconic-size-md-server-clip-2">
      <path d="M2 18v7h19v-7h-19zm3 5.459c0 .276-.224.5-.5.5s-.5-.224-.5-.5v-3.959c0-.276.224-.5.5-.5s.5.224.5.5v3.959zm2 0c0 .276-.224.5-.5.5s-.5-.224-.5-.5v-3.959c0-.276.224-.5.5-.5s.5.224.5.5v3.959zm2 0c0 .276-.224.5-.5.5s-.5-.224-.5-.5v-3.959c0-.276.224-.5.5-.5s.5.224.5.5v3.959zm2 0c0 .276-.224.5-.5.5s-.5-.224-.5-.5v-3.959c0-.276.224-.5.5-.5s.5.224.5.5v3.959zm2 0c0 .276-.224.5-.5.5s-.5-.224-.5-.5v-3.959c0-.276.224-.5.5-.5s.5.224.5.5v3.959zm5-1.459c-.552 0-1-.448-1-1s.448-1 1-1 1 .448 1 1-.448 1-1 1z"
      />
    </clipPath>
    <clipPath id="iconic-size-md-server-clip-3">
      <path d="M0 0v27h23v-27h-23zm22 26h-21v-25h21v25z" />
    </clipPath>
    <clipPath id="iconic-size-sm-server-clip-0">
      <path d="M0 0v15h12v-15h-12zm11 14h-10v-13h10v13z" />
    </clipPath>
  </defs>
  <g class="iconic-server-lg iconic-container iconic-lg" data-width="88" data-height="128" display="inline" transform="translate(20)">
    <path clip-path="url(#iconic-size-lg-server-clip-0)" d="M80.5 36h-73c-.828 0-1.5-.672-1.5-1.5v-27c0-.828.672-1.5 1.5-1.5h73c.828 0 1.5.672 1.5 1.5v27c0 .828-.672 1.5-1.5 1.5z" class="iconic-server-chasis iconic-server-chasis-top iconic-property-fill"
    />
    <circle cx="69" cy="19" r="3" class="iconic-server-chasis-light iconic-server-chasis-top-light iconic-property-accent iconic-property-fill" />
    <path clip-path="url(#iconic-size-lg-server-clip-1)" d="M80.5 68h-73c-.828 0-1.5-.672-1.5-1.5v-27c0-.828.672-1.5 1.5-1.5h73c.828 0 1.5.672 1.5 1.5v27c0 .828-.672 1.5-1.5 1.5z" class="iconic-server-chasis iconic-server-chasis-middle iconic-property-fill"
    />
    <circle cx="69" cy="51" r="3" class="iconic-server-chasis-light iconic-server-chasis-middle-light iconic-property-accent iconic-property-fill" />
    <path clip-path="url(#iconic-size-lg-server-clip-2)" d="M80.5 100h-73c-.828 0-1.5-.672-1.5-1.5v-27c0-.828.672-1.5 1.5-1.5h73c.828 0 1.5.672 1.5 1.5v27c0 .828-.672 1.5-1.5 1.5z" class="iconic-server-chasis iconic-server-chasis-bottom iconic-property-fill"
    />
    <circle cx="69" cy="83" r="3" class="iconic-server-chasis-light iconic-server-chasis-bottom-light iconic-property-accent iconic-property-fill" />
    <path clip-path="url(#iconic-size-lg-server-clip-3)" d="M86.5 108h-85c-.828 0-1.5-.672-1.5-1.5v-105c0-.828.672-1.5 1.5-1.5h85c.828 0 1.5.672 1.5 1.5v105c0 .828-.672 1.5-1.5 1.5z" class="iconic-server-rack iconic-server-rack-walls iconic-property-fill"
    />
    <path class="iconic-server-rack iconic-server-rack-base iconic-property-fill" d="M0 102h88v26h-88z" />
  </g>
  <g class="iconic-server-md iconic-container iconic-md" data-width="23" data-height="32" display="none" transform="scale(4) translate(4)">
    <path clip-path="url(#iconic-size-md-server-clip-0)" d="M20.5 9h-18c-.276 0-.5-.224-.5-.5v-6c0-.276.224-.5.5-.5h18c.276 0 .5.224.5.5v6c0 .276-.224.5-.5.5z" class="iconic-server-chasis iconic-server-chasis-top iconic-property-fill" />
    <path clip-path="url(#iconic-size-md-server-clip-1)" d="M20.5 17h-18c-.276 0-.5-.224-.5-.5v-6c0-.276.224-.5.5-.5h18c.276 0 .5.224.5.5v6c0 .276-.224.5-.5.5z" class="iconic-server-chasis iconic-server-chasis-middle iconic-property-fill" />
    <path clip-path="url(#iconic-size-md-server-clip-2)" d="M20.5 25h-18c-.276 0-.5-.224-.5-.5v-6c0-.276.224-.5.5-.5h18c.276 0 .5.224.5.5v6c0 .276-.224.5-.5.5z" class="iconic-server-chasis iconic-server-chasis-bottom iconic-property-fill" />
    <path clip-path="url(#iconic-size-md-server-clip-3)" d="M22.5 27h-22c-.276 0-.5-.224-.5-.5v-26c0-.276.224-.5.5-.5h22c.276 0 .5.224.5.5v26c0 .276-.224.5-.5.5z" class="iconic-server-rack iconic-server-rack-walls iconic-property-fill" />
    <path class="iconic-server-rack iconic-server-rack-base iconic-property-fill" d="M0 26h23v6h-23z" />
  </g>
  <g class="iconic-server-sm iconic-container iconic-sm" data-width="12" data-height="16" display="none" transform="scale(8) translate(2)">
    <path d="M2 2v3h8v-3h-8zm3.5 2h-2c-.276 0-.5-.224-.5-.5s.224-.5.5-.5h2c.276 0 .5.224.5.5s-.224.5-.5.5zm3 0c-.276 0-.5-.224-.5-.5s.224-.5.5-.5.5.224.5.5-.224.5-.5.5z" class="iconic-server-chasis iconic-server-chasis-bottom iconic-property-fill" />
    <path d="M2 6v3h8v-3h-8zm3.5 2h-2c-.276 0-.5-.224-.5-.5s.224-.5.5-.5h2c.276 0 .5.224.5.5s-.224.5-.5.5zm3 0c-.276 0-.5-.224-.5-.5s.224-.5.5-.5.5.224.5.5-.224.5-.5.5z" class="iconic-server-chasis iconic-server-chasis-middle iconic-property-fill" />
    <path d="M2 10v3h8v-3h-8zm3.5 2h-2c-.276 0-.5-.224-.5-.5s.224-.5.5-.5h2c.276 0 .5.224.5.5s-.224.5-.5.5zm3 0c-.276 0-.5-.224-.5-.5s.224-.5.5-.5.5.224.5.5-.224.5-.5.5z" class="iconic-server-chasis iconic-server-chasis-top iconic-property-fill" />
    <path clip-path="url(#iconic-size-sm-server-clip-0)" class="iconic-server-rack iconic-server-rack-walls iconic-property-fill" d="M0 0h12v15h-12z" />
    <path class="iconic-server-rack iconic-server-rack-base iconic-property-fill" d="M0 14h12v2h-12z" />
  </g>
</svg>