<svg xmlns="http://www.w3.org/2000/svg" class="iconic iconic-settings" width="128" height="128" viewBox="0 0 128 128">
  <g class="iconic-metadata">
    <title>Settings</title>
  </g>
  <defs>
    <clipPath id="iconic-size-lg-settings-clip-0">
      <path d="M94 58.25c-8.96 0-16.25-7.29-16.25-16.25s7.29-16.25 16.25-16.25c8.024 0 14.69 5.851 16 13.507v-39.257h-110v30.271c2.731-4.926 7.98-8.271 14-8.271 8.822 0 16 7.178 16 16s-7.178 16-16 16c-6.02 0-11.27-3.345-14-8.271v82.271h110v-83.257c-1.31 7.656-7.976 13.507-16 13.507zm-40 51.75c-8.822 0-16-7.178-16-16s7.178-16 16-16 16 7.178 16 16-7.178 16-16 16z"
      />
    </clipPath>
    <clipPath id="iconic-size-md-settings-clip-0">
      <path d="M23.5 14c-2.481 0-4.5-2.019-4.5-4.5s2.019-4.5 4.5-4.5c1.421 0 2.675.675 3.5 1.706v-6.707h-27v6.707c.825-1.032 2.079-1.707 3.5-1.707 2.481 0 4.5 2.019 4.5 4.5s-2.019 4.5-4.5 4.5c-1.421 0-2.675-.675-3.5-1.706v19.706h27v-19.706c-.825 1.032-2.079 1.706-3.5 1.706zm-10 14c-2.481 0-4.5-2.019-4.5-4.5s2.019-4.5 4.5-4.5 4.5 2.019 4.5 4.5-2.019 4.5-4.5 4.5z"
      />
    </clipPath>
    <clipPath id="iconic-size-sm-settings-clip-0">
      <path d="M14 8c-1.654 0-3-1.346-3-3s1.346-3 3-3c.771 0 1.468.3 2 .78v-2.78h-16v2.78c.532-.48 1.229-.78 2-.78 1.654 0 3 1.346 3 3s-1.346 3-3 3c-.771 0-1.468-.301-2-.78v8.78h16v-8.78c-.532.48-1.229.78-2 .78zm-6 6c-1.654 0-3-1.346-3-3s1.346-3 3-3 3 1.346 3 3-1.346 3-3 3z"
      />
    </clipPath>
  </defs>
  <g class="iconic-settings-lg iconic-container iconic-lg" data-width="110" data-height="128" display="inline" transform="translate(9)">
    <path stroke="#000" stroke-width="8" stroke-linecap="round" clip-path="url(#iconic-size-lg-settings-clip-0)" class="iconic-settings-line iconic-settings-line-1 iconic-property-accent iconic-property-stroke" d="M14 4v120" fill="none" />
    <path stroke="#000" stroke-width="8" stroke-linecap="round" clip-path="url(#iconic-size-lg-settings-clip-0)" class="iconic-settings-line iconic-settings-line-2 iconic-property-accent iconic-property-stroke" d="M54 4v120" fill="none" />
    <path stroke="#000" stroke-width="8" stroke-linecap="round" clip-path="url(#iconic-size-lg-settings-clip-0)" class="iconic-settings-line iconic-settings-line-3 iconic-property-accent iconic-property-stroke" d="M94 4v120" fill="none" />
    <path d="M94 28c-7.72 0-14 6.28-14 14s6.28 14 14 14 14-6.28 14-14-6.28-14-14-14z" class="iconic-settings-knob iconic-settings-knob-3 iconic-property-fill" />
    <path d="M54 80c-7.72 0-14 6.28-14 14s6.28 14 14 14 14-6.28 14-14-6.28-14-14-14z" class="iconic-settings-knob iconic-settings-knob-2 iconic-property-fill" />
    <path d="M14 24c-7.72 0-14 6.28-14 14s6.28 14 14 14 14-6.28 14-14-6.28-14-14-14z" class="iconic-settings-knob iconic-settings-knob-1 iconic-property-fill" />
  </g>
  <g class="iconic-settings-md iconic-container iconic-md" data-width="27" data-height="32" display="none" transform="scale(4) translate(2)">
    <path clip-path="url(#iconic-size-md-settings-clip-0)" stroke="#000" stroke-width="3" stroke-linecap="round" class="iconic-settings-line iconic-settings-line-1 iconic-property-accent iconic-property-stroke" d="M3.5 1.5v29" fill="none" />
    <path clip-path="url(#iconic-size-md-settings-clip-0)" stroke="#000" stroke-width="3" stroke-linecap="round" class="iconic-settings-line iconic-settings-line-2 iconic-property-accent iconic-property-stroke" d="M13.5 1.5v29" fill="none" />
    <path clip-path="url(#iconic-size-md-settings-clip-0)" stroke="#000" stroke-width="3" stroke-linecap="round" class="iconic-settings-line iconic-settings-line-3 iconic-property-accent iconic-property-stroke" d="M23.5 1.5v29" fill="none" />
    <path d="M23.5 6c-1.93 0-3.5 1.57-3.5 3.5s1.57 3.5 3.5 3.5 3.5-1.57 3.5-3.5-1.57-3.5-3.5-3.5z" class="iconic-settings-knob iconic-settings-knob-3 iconic-property-fill" />
    <path d="M13.5 20c-1.93 0-3.5 1.57-3.5 3.5s1.57 3.5 3.5 3.5 3.5-1.57 3.5-3.5-1.57-3.5-3.5-3.5z" class="iconic-settings-knob iconic-settings-knob-2 iconic-property-fill" />
    <path d="M3.5 6c-1.93 0-3.5 1.57-3.5 3.5s1.57 3.5 3.5 3.5 3.5-1.57 3.5-3.5-1.57-3.5-3.5-3.5z" class="iconic-settings-knob iconic-settings-knob-1 iconic-property-fill" />
  </g>
  <g class="iconic-settings-sm iconic-container iconic-sm" data-width="16" data-height="16" display="none" transform="scale(8)">
    <path clip-path="url(#iconic-size-sm-settings-clip-0)" stroke="#000" stroke-width="2" stroke-linecap="round" class="iconic-settings-line iconic-settings-line-1 iconic-property-accent iconic-property-stroke" d="M2 1v14" fill="none" />
    <path clip-path="url(#iconic-size-sm-settings-clip-0)" stroke="#000" stroke-width="2" stroke-linecap="round" class="iconic-settings-line iconic-settings-line-2 iconic-property-accent iconic-property-stroke" d="M8 1v14" fill="none" />
    <path clip-path="url(#iconic-size-sm-settings-clip-0)" stroke="#000" stroke-width="2" stroke-linecap="round" class="iconic-settings-line iconic-settings-line-3 iconic-property-accent iconic-property-stroke" d="M14 1v14" fill="none" />
    <circle cx="2" cy="5" r="2" class="iconic-settings-knob iconic-settings-knob-1 iconic-property-fill" />
    <circle cx="8" cy="11" r="2" class="iconic-settings-knob iconic-settings-knob-2 iconic-property-fill" />
    <circle cx="14" cy="5" r="2" class="iconic-settings-knob iconic-settings-knob-3 iconic-property-fill" />
  </g>
</svg>