<svg xmlns="http://www.w3.org/2000/svg" class="iconic iconic-share" width="128" height="128" viewBox="0 0 128 128">
  <g class="iconic-metadata">
    <title>Share</title>
  </g>
  <g class="iconic-share-lg iconic-container iconic-lg" data-width="128" data-height="80" display="inline" transform="translate(0 24)">
    <path d="M128 20l-32-20v8h-16c-64 0-80 24.872-80 72 8.25-31.75 28-48 68-48 16.44 0 24.955 0 28 0v8l32-20z" class="iconic-property-fill" />
  </g>
  <g class="iconic-share-md iconic-container iconic-md" data-width="32" data-height="21" display="none" transform="scale(4) translate(0 5)">
    <path d="M32 6.333l-8-6.333v3h-4c-16 0-20 6.218-20 18 2.063-7.938 8-12 16-12 5.333 0 8 0 8 0v3l8-5.667z" class="iconic-property-fill" />
  </g>
  <g class="iconic-share-sm iconic-container iconic-sm" data-width="16" data-height="13" display="none" transform="scale(8) translate(0 1)">
    <path d="M16 5.667l-5-5.667v3h-1c-8 0-10 4.109-10 10 1.031-3.969 4-5 8-5 1.481 0 2.433 0 3 0v3l5-5.333z" class="iconic-property-fill" />
  </g>
</svg>