<svg xmlns="http://www.w3.org/2000/svg" class="iconic iconic-shield" width="128" height="128" viewBox="0 0 128 128">
  <g class="iconic-metadata">
    <title>Shield</title>
  </g>
  <g class="iconic-shield-lg iconic-container iconic-lg" data-width="128" data-height="128" display="inline">
    <path d="M94.182 96.662c9.327-11.66 20.595-33.115 21.726-69.351l-51.908-14.831v103.68c5.044 0 17.843-4.075 30.182-19.497z" class="iconic-shield-shadow iconic-property-fill" />
    <path stroke="#000" stroke-width="8" d="M64 124.16c17.143 0 60-25.714 60-102.857l-60-17.143-60 17.111c0 77.175 42.857 102.889 60 102.889z" class="iconic-shield-rim iconic-property-stroke" fill="none" />
  </g>
  <g class="iconic-shield-md iconic-container iconic-md" data-width="32" data-height="32" display="none" transform="scale(4)">
    <path d="M16 30.556c4.143 0 14.5-6.357 14.5-25l-14.5-4v29z" class="iconic-shield-shadow iconic-property-fill" />
    <path stroke="#000" stroke-width="3" d="M16 30.556c4.143 0 14.5-6.357 14.5-25l-14.5-4-14.5 4c0 18.65 10.357 25 14.5 25z" class="iconic-shield-rim iconic-property-stroke" fill="none" />
  </g>
  <g class="iconic-shield-sm iconic-container iconic-sm" data-width="16" data-height="16" display="none" transform="scale(8)">
    <path d="M8 15.04c2 0 7-3 7-12l-7-2v14z" class="iconic-shield-shadow iconic-property-fill" />
    <path stroke="#000" stroke-width="2" d="M8 15.04c2 0 7-3 7-12l-7-2-7 1.996c0 9.004 5 12.004 7 12.004z" class="iconic-shield-rim iconic-property-stroke" fill="none" />
  </g>
</svg>