<svg version="1.1" xmlns="http://www.w3.org/2000/svg" data-icon="social" width="128" height="128" class="iconic iconic-social" viewBox="0 0 128 128">
  <g><title>Social</title></g>

  <!-- Dropbox -->
  <g data-width="128" data-height="120" class="iconic-lg iconic-container" display="inline" transform="translate(0 4)">
    <g class="iconic-social-dropbox" display="none">
      <path class="iconic-social-dropbox-flap iconic-social-dropbox-flap-left iconic-social-dropbox-flap-top iconic-social-dropbox-flap-top-left iconic-property-fill" d="M37.653 0l-37.653 24.584 26.035 20.849 37.964-23.442z"/>
      <path class="iconic-social-dropbox-flap iconic-social-dropbox-flap-left iconic-social-dropbox-flap-bottom iconic-social-dropbox-flap-bottom-left iconic-property-fill" d="M0 66.283l37.653 24.584 26.347-21.992-37.964-23.443z"/>
      <path class="iconic-social-dropbox-flap iconic-social-dropbox-flap-right iconic-social-dropbox-flap-bottom iconic-social-dropbox-flap-bottom-right iconic-property-fill" d="M63.999 68.876l26.348 21.992 37.653-24.584-26.035-20.85z"/>
      <path class="iconic-social-dropbox-flap iconic-social-dropbox-flap-right iconic-social-dropbox-flap-top iconic-social-dropbox-flap-top-right iconic-property-fill" d="M128 24.584l-37.653-24.584-26.348 21.991 37.965 23.442z"/>
      <path class="iconic-social-dropbox-base iconic-property-fill" d="M64.077 73.607l-26.425 21.927-11.307-7.382v8.276l37.732 22.627 37.732-22.627v-8.276l-11.307 7.382z"/>
    </g>
  </g>
  <!-- Facebook -->
  <g data-width="128" data-height="124" class="iconic-lg iconic-container" display="inline">
    <g class="iconic-social-facebook" display="none">
      <path d="M120.936 0h-113.871c-3.903 0-7.065 3.162-7.065 7.065v113.871c0 3.901 3.162 7.065 7.065 7.065h61.304v-49.568h-16.681v-19.318h16.681v-14.246c0-16.533 10.097-25.535 24.846-25.535 7.064 0 13.136.526 14.906.761v17.278l-10.229.005c-8.021 0-9.574 3.812-9.574 9.405v12.333h19.129l-2.491 19.318h-16.638v49.568h32.618c3.901 0 7.064-3.163 7.064-7.065v-113.871c0-3.902-3.163-7.065-7.064-7.065z" class="iconic-property-fill"/>
    </g>
  </g>
  <!-- Github -->
  <g data-width="128" data-height="126" class="iconic-lg iconic-container" display="inline">
    <g class="iconic-social-github" display="none">
      <path fill-rule="evenodd" clip-rule="evenodd" d="M63.996 0c-35.339 0-63.996 28.654-63.996 64.004 0 28.273 18.336 52.261 43.77 60.725 3.2.587 4.368-1.389 4.368-3.085 0-1.519-.055-5.544-.086-10.885-17.803 3.868-21.559-8.579-21.559-8.579-2.91-7.393-7.106-9.362-7.106-9.362-5.811-3.971.44-3.89.44-3.89 6.423.453 9.803 6.595 9.803 6.595 5.709 9.78 14.979 6.956 18.626 5.318.582-4.136 2.235-6.956 4.063-8.556-14.212-1.615-29.152-7.106-29.152-31.631 0-6.987 2.494-12.7 6.588-17.174-.658-1.619-2.854-8.126.627-16.938 0 0 5.374-1.721 17.599 6.561 5.105-1.419 10.58-2.13 16.022-2.154 5.435.025 10.91.735 16.022 2.154 12.219-8.282 17.582-6.561 17.582-6.561 3.492 8.811 1.295 15.318.637 16.938 4.102 4.474 6.579 10.187 6.579 17.174 0 24.586-14.964 29.996-29.221 31.581 2.298 1.976 4.345 5.882 4.345 11.852 0 8.556-.079 15.459-.079 17.557 0 1.711 1.153 3.703 4.401 3.078 25.409-8.48 43.73-32.452 43.73-60.718 0-35.35-28.657-64.004-64.004-64.004z" class="iconic-property-fill"/>
    </g>
  </g>
  <!-- Instagram -->
  <g data-width="128" data-height="128" class="iconic-lg iconic-container" display="inline">
    <g class="iconic-social-instagram" display="none">
      <path fill-rule="evenodd" clip-rule="evenodd" d="M16.429 0h95.142c9.036 0 16.429 7.393 16.429 16.429v95.142c0 9.036-7.393 16.429-16.429 16.429h-95.142c-9.036 0-16.429-7.393-16.429-16.429v-95.142c0-9.036 7.393-16.429 16.429-16.429zm76.814 14.222c-3.17 0-5.763 2.593-5.763 5.763v13.793c0 3.17 2.593 5.763 5.763 5.763h14.468c3.169 0 5.762-2.593 5.762-5.763v-13.793c0-3.17-2.593-5.763-5.762-5.763h-14.468zm20.29 39.909h-11.266c1.066 3.481 1.641 7.166 1.641 10.983 0 21.291-17.813 38.55-39.786 38.55-21.973 0-39.785-17.259-39.785-38.55 0-3.816.575-7.502 1.641-10.983h-11.756v54.069c0 2.799 2.29 5.088 5.088 5.088h89.134c2.799 0 5.088-2.29 5.088-5.088v-54.07zm-49.411-15.316c-14.197 0-25.707 11.152-25.707 24.908 0 13.757 11.51 24.909 25.707 24.909 14.198 0 25.707-11.152 25.707-24.909 0-13.756-11.509-24.908-25.707-24.908z" class="iconic-property-fill"/>
    </g>
  </g>
  <!-- LinkedIn -->
  <g data-width="128" data-height="128" class="iconic-lg iconic-container" display="inline">
    <g class="iconic-social-linkedin" display="none">
      <path d="M118.519 0h-109.071c-5.215 0-9.448 4.134-9.448 9.222v109.542c0 5.097 4.234 9.236 9.448 9.236h109.071c5.22 0 9.481-4.139 9.481-9.236v-109.542c0-5.088-4.261-9.222-9.481-9.222zm-80.557 109.074h-18.993v-61.083h18.993v61.083zm-9.495-69.435c-6.086 0-11.005-4.933-11.005-11.012 0-6.072 4.919-11.005 11.005-11.005 6.069 0 11.002 4.933 11.002 11.005 0 6.079-4.933 11.012-11.002 11.012zm80.6 69.435h-18.963v-29.704c0-7.088-.139-16.199-9.868-16.199-9.88 0-11.387 7.718-11.387 15.685v30.218h-18.979v-61.083h18.213v8.343h.259c2.535-4.801 8.729-9.866 17.965-9.866 19.211 0 22.759 12.648 22.759 29.102v33.505z" class="iconic-property-fill"/>
    </g>
  </g>
  <!-- Reddit -->
  <g data-width="94" data-height="128" class="iconic-lg iconic-container" display="inline" transform="translate(17)">
    <g class="iconic-social-reddit" display="none">
      <path d="M92.26 37.85c0-5.853-4.763-10.615-10.616-10.615-2.717 0-5.168 1.057-7.038 2.751-6.777-4.388-15.783-7.224-25.763-7.692l5.292-16.725 14.401 3.39c.101 4.751 3.982 8.59 8.759 8.59 4.836 0 8.77-3.936 8.77-8.774s-3.934-8.774-8.771-8.774c-3.556 0-6.609 2.133-7.987 5.179l-16.029-3.774c-.979-.235-1.974.334-2.28 1.296l-6.18 19.534c-10.581.191-20.168 3.05-27.324 7.618-1.851-1.614-4.241-2.617-6.886-2.617-5.85 0-10.61 4.762-10.61 10.615 0 3.758 1.985 7.03 4.942 8.911-.164.997-.263 2.007-.263 3.033 0 10.158 8.272 19.028 20.526 23.818-5.814 2.872-9.923 9.629-9.923 17.533 0 9.01 5.329 16.551 12.45 18.514.523 1.623 1.109 3.157 1.737 4.623-.193-.01-.381-.035-.577-.035-6.449 0-11.696 4.417-11.696 9.848 0 .816.144 1.657.442 2.574.259.793.999 1.331 1.834 1.331h53.064c.841 0 1.581-.564 1.836-1.365.288-.904.428-1.734.428-2.539 0-5.431-5.248-9.848-11.698-9.848-.235 0-.461.03-.692.044.625-1.46 1.21-2.986 1.732-4.601 7.192-1.903 12.592-9.478 12.592-18.545 0-7.928-4.133-14.709-9.977-17.566 12.21-4.798 20.448-13.65 20.448-23.786 0-.962-.076-1.913-.221-2.851 3.141-1.837 5.278-5.199 5.278-9.094zm-14.965-33.993c2.709 0 4.914 2.206 4.914 4.918s-2.204 4.918-4.914 4.918c-2.714 0-4.921-2.206-4.921-4.918s2.207-4.917 4.921-4.917zm-73.439 33.993c0-3.726 3.029-6.758 6.753-6.758 1.331 0 2.546.423 3.587 1.096-3.793 3.054-6.579 6.673-8.127 10.624-1.354-1.23-2.212-2.991-2.212-4.961zm58.922 37.111c.566 3.718.9 7.641.9 11.713 0 17.38-5.622 33-13.426 37.48h-8.625c-7.804-4.479-13.426-20.099-13.426-37.48 0-4.072.334-7.994.9-11.712 5.148 1.547 10.836 2.427 16.835 2.427 6.002 0 11.691-.881 16.84-2.428zm-43.641 16.185c0-5.336 2.252-10.002 5.62-12.709-.262 2.658-.411 5.404-.411 8.237 0 6.511.756 12.73 2.096 18.323-4.292-2.36-7.305-7.664-7.305-13.851zm1.915 32.998c0-.015 0-.033 0-.048 0-3.304 3.517-5.991 7.839-5.991.943 0 1.822.164 2.656.401 1.229 2.17 2.583 4.069 4.053 5.637h-14.548zm42.049-6.039c4.324 0 7.841 2.687 7.841 5.991 0 .015 0 .033 0 .048h-14.662c1.461-1.558 2.808-3.444 4.03-5.597.873-.26 1.797-.442 2.79-.442zm9.775-26.959c0 6.26-3.083 11.624-7.459 13.942 1.354-5.616 2.118-11.867 2.118-18.413 0-2.872-.155-5.653-.424-8.346 3.449 2.686 5.765 7.407 5.765 12.817zm-26.938-17.614c-20.624 0-37.403-10.649-37.403-23.738 0-13.092 16.779-23.741 37.403-23.741 20.628 0 37.408 10.65 37.408 23.741 0 13.089-16.78 23.738-37.408 23.738zm39.978-30.454c-1.502-3.996-4.269-7.658-8.061-10.751 1.081-.758 2.369-1.235 3.789-1.235 3.726 0 6.759 3.032 6.759 6.758 0 2.106-.971 3.988-2.487 5.228z" class="iconic-social-reddit-body iconic-property-fill"/>
      <path d="M32.286 38.77c-3.316 0-6.013 2.698-6.013 6.013 0 3.314 2.698 6.01 6.013 6.01 3.314 0 6.01-2.695 6.01-6.01 0-3.316-2.695-6.014-6.01-6.014z" class="iconic-social-reddit-eye iconic-social-reddit-eye-left iconic-property-fill"/>
      <path d="M59.998 38.77c-3.314 0-6.011 2.698-6.011 6.013 0 3.314 2.697 6.01 6.011 6.01s6.008-2.695 6.008-6.01c0-3.316-2.694-6.014-6.008-6.014z" class="iconic-social-reddit-eye iconic-social-reddit-eye-right iconic-property-fill"/>
      <path d="M61.081 60.246c-.753-.753-1.971-.753-2.727-.001-2.37 2.37-6.353 3.522-12.174 3.522-.018 0-.033.01-.05.01-.018-.001-.033-.01-.05-.01-5.821 0-9.804-1.151-12.173-3.52-.753-.753-1.974-.753-2.727 0-.753.753-.753 1.974 0 2.727 3.128 3.13 8.002 4.649 14.899 4.649.018 0 .033-.01.05-.01.018.001.033.01.05.01 6.894 0 11.767-1.519 14.901-4.648.753-.753.753-1.974 0-2.728z" class="iconic-social-reddit-mouth iconic-property-fill"/>
    </g>
  </g>
  <!-- Tumblr -->
  <g data-width="74" data-height="128" class="iconic-lg iconic-container" display="inline" transform="translate(27)">
    <g class="iconic-social-tumblr" display="none">
      <path d="M67.407 102.239c-2.38 1.133-6.933 2.123-10.327 2.211-10.246.275-12.231-7.196-12.319-12.62v-39.844h25.703v-19.378h-25.609v-32.608s-18.444 0-18.751 0c-.307 0-.845.272-.92.958-1.096 9.98-5.769 27.494-25.183 34.493v16.534h12.951v41.824c0 14.317 10.566 34.659 38.448 34.183 9.407-.163 19.853-4.103 22.165-7.497l-6.157-18.256z" class="iconic-property-fill"/>
    </g>
  </g>
  <!-- Twitter -->
  <g data-width="128" data-height="104" class="iconic-lg iconic-container" display="inline" transform="translate(0 12)">
    <g class="iconic-social-twitter">
      <path d="M40.255 104c-14.83 0-28.634-4.346-40.255-11.796 2.054.242 4.145.366 6.264.366 12.303 0 23.627-4.197 32.614-11.239-11.491-.212-21.19-7.803-24.531-18.234 1.603.307 3.248.471 4.94.471 2.395 0 4.715-.321 6.919-.921-12.014-2.412-21.065-13.023-21.065-25.744 0-.111 0-.221.002-.33 3.541 1.966 7.59 3.147 11.895 3.284-7.046-4.708-11.683-12.744-11.683-21.853 0-4.811 1.295-9.322 3.555-13.199 12.952 15.884 32.302 26.337 54.128 27.432-.448-1.921-.68-3.925-.68-5.983 0-14.499 11.758-26.254 26.262-26.254 7.553 0 14.378 3.189 19.168 8.291 5.982-1.178 11.602-3.363 16.676-6.371-1.961 6.131-6.125 11.276-11.547 14.525 5.312-.635 10.373-2.046 15.083-4.134-3.521 5.265-7.973 9.889-13.104 13.591.051 1.126.076 2.258.076 3.397 0 34.695-26.414 74.701-74.717 74.701" class="iconic-property-fill"/>
    </g>
  </g>



  <!-- Dropbox -->
  <g data-width="32" data-height="30" class="iconic-md iconic-container" display="none" transform="scale(4) translate(0 1)">
    <g class="iconic-social-dropbox" display="none">
      <path class="iconic-social-dropbox-flap iconic-social-dropbox-flap-left iconic-social-dropbox-flap-top iconic-social-dropbox-flap-top-left iconic-property-fill" d="M9.413 0l-9.413 6.146 6.509 5.212 9.491-5.861z"/>
      <path class="iconic-social-dropbox-flap iconic-social-dropbox-flap-left iconic-social-dropbox-flap-bottom iconic-social-dropbox-flap-bottom-left iconic-property-fill" d="M0 16.571l9.413 6.146 6.587-5.498-9.491-5.861z"/>
      <path class="iconic-social-dropbox-flap iconic-social-dropbox-flap-right iconic-social-dropbox-flap-bottom iconic-social-dropbox-flap-bottom-right iconic-property-fill" d="M16 17.219l6.587 5.498 9.413-6.146-6.509-5.212z"/>
      <path class="iconic-social-dropbox-flap iconic-social-dropbox-flap-right iconic-social-dropbox-flap-top iconic-social-dropbox-flap-top-right iconic-property-fill" d="M32 6.146l-9.413-6.146-6.587 5.498 9.491 5.861z"/>
      <path class="iconic-social-dropbox-base iconic-property-fill" d="M16.019 18.402l-6.606 5.482-2.827-1.846v2.069l9.433 5.657 9.433-5.657v-2.069l-2.827 1.846z"/>
    </g>
  </g>
  <!-- Facebook -->
  <g data-width="32" data-height="31" class="iconic-md iconic-container" display="none" transform="scale(4)">
    <g class="iconic-social-facebook" display="none">
      <path d="M30.234 0h-28.468c-.976 0-1.766.791-1.766 1.766v28.468c0 .975.79 1.766 1.766 1.766h15.326v-12.392h-4.17v-4.829h4.17v-3.562c0-4.133 2.524-6.384 6.212-6.384 1.766 0 3.284.132 3.727.19v4.319l-2.557.001c-2.005 0-2.393.953-2.393 2.351v3.083h4.782l-.623 4.829h-4.16v12.392h8.155c.975 0 1.766-.791 1.766-1.766v-28.468c0-.976-.791-1.766-1.766-1.766z" class="iconic-property-fill"/>
    </g>
  </g>
  <!-- Github -->
  <g data-width="32" data-height="32" class="iconic-md iconic-container" display="none" transform="scale(4)">
    <g class="iconic-social-github" display="none">
      <path fill-rule="evenodd" clip-rule="evenodd" d="M15.999 0c-8.835 0-15.999 7.163-15.999 16.001 0 7.068 4.584 13.065 10.943 15.181.8.147 1.092-.347 1.092-.771 0-.38-.014-1.386-.022-2.721-4.451.967-5.39-2.145-5.39-2.145-.728-1.848-1.776-2.34-1.776-2.34-1.453-.993.11-.973.11-.973 1.606.113 2.451 1.649 2.451 1.649 1.427 2.445 3.745 1.739 4.656 1.329.145-1.034.559-1.739 1.016-2.139-3.553-.404-7.288-1.776-7.288-7.908 0-1.747.623-3.175 1.647-4.293-.164-.405-.713-2.032.157-4.234 0 0 1.343-.43 4.4 1.64 1.276-.355 2.645-.532 4.006-.539 1.359.006 2.728.184 4.006.539 3.055-2.07 4.396-1.64 4.396-1.64.873 2.203.324 3.83.159 4.234 1.025 1.119 1.645 2.547 1.645 4.293 0 6.147-3.741 7.499-7.305 7.895.575.494 1.086 1.47 1.086 2.963 0 2.139-.02 3.865-.02 4.389 0 .428.288.926 1.1.769 6.352-2.12 10.933-8.113 10.933-15.18 0-8.838-7.164-16.001-16.001-16.001z" class="iconic-property-fill"/>
    </g>
  </g>
  <!-- Instagram -->
  <g data-width="32" data-height="32" class="iconic-md iconic-container" display="none" transform="scale(4)">
    <g class="iconic-social-instagram" display="none">
      <path fill-rule="evenodd" clip-rule="evenodd" d="M4.107 0h23.785c2.259 0 4.107 1.848 4.107 4.107v23.785c0 2.259-1.848 4.107-4.107 4.107h-23.785c-2.259 0-4.107-1.848-4.107-4.107v-23.785c0-2.259 1.848-4.107 4.107-4.107zm19.203 3.555c-.792 0-1.441.648-1.441 1.441v3.448c0 .792.648 1.441 1.441 1.441h3.617c.792 0 1.44-.648 1.44-1.441v-3.448c0-.792-.648-1.441-1.44-1.441h-3.617zm5.072 9.977h-2.817c.267.87.41 1.792.41 2.746 0 5.323-4.453 9.637-9.947 9.637-5.493 0-9.946-4.315-9.946-9.637 0-.954.144-1.875.41-2.746h-2.939v13.517c0 .7.572 1.272 1.272 1.272h22.284c.7 0 1.272-.572 1.272-1.272v-13.517zm-12.353-3.829c-3.549 0-6.427 2.788-6.427 6.227 0 3.439 2.877 6.227 6.427 6.227s6.427-2.788 6.427-6.227c0-3.439-2.877-6.227-6.427-6.227z" class="iconic-property-fill"/>
    </g>
  </g>
  <!-- LinkedIn -->
  <g data-width="32" data-height="32" class="iconic-md iconic-container" display="none" transform="scale(4)">
    <g class="iconic-social-linkedin" display="none">
      <path d="M29.63 0h-27.268c-1.304 0-2.362 1.034-2.362 2.306v27.385c0 1.274 1.058 2.309 2.362 2.309h27.268c1.305 0 2.37-1.035 2.37-2.309v-27.385c0-1.272-1.065-2.306-2.37-2.306zm-20.139 27.268h-4.748v-15.271h4.748v15.271zm-2.374-17.359c-1.521 0-2.751-1.233-2.751-2.753 0-1.518 1.23-2.751 2.751-2.751 1.517 0 2.751 1.233 2.751 2.751 0 1.52-1.233 2.753-2.751 2.753zm20.15 17.359h-4.741v-7.426c0-1.772-.035-4.05-2.467-4.05-2.47 0-2.847 1.929-2.847 3.921v7.554h-4.745v-15.271h4.553v2.086h.065c.634-1.2 2.182-2.466 4.491-2.466 4.803 0 5.69 3.162 5.69 7.276v8.376z" class="iconic-property-fill"/>
    </g>
  </g>
  <!-- Reddit -->
  <g data-width="24" data-height="32" class="iconic-md iconic-container" display="none" transform="scale(4) translate(4)">
    <g class="iconic-social-reddit" display="none">
      <path d="M23.065 9.463c0-1.463-1.191-2.654-2.654-2.654-.679 0-1.292.264-1.759.688-1.694-1.097-3.946-1.806-6.441-1.923l1.323-4.181 3.6.847c.025 1.188.995 2.147 2.19 2.147 1.209 0 2.193-.984 2.193-2.194s-.984-2.193-2.193-2.193c-.889 0-1.652.533-1.997 1.295l-4.007-.944c-.245-.059-.493.084-.57.324l-1.545 4.883c-2.645.048-5.042.762-6.831 1.904-.463-.404-1.06-.654-1.721-.654-1.463 0-2.652 1.191-2.652 2.654 0 .94.496 1.758 1.235 2.228-.041.249-.066.502-.066.758 0 2.539 2.068 4.757 5.131 5.955-1.454.718-2.481 2.407-2.481 4.383 0 2.252 1.332 4.138 3.113 4.628.131.406.277.789.434 1.156-.048-.003-.095-.009-.144-.009-1.612 0-2.924 1.104-2.924 2.462 0 .204.036.414.111.643.065.198.25.333.458.333h13.266c.21 0 .395-.141.459-.341.072-.226.107-.433.107-.635 0-1.358-1.312-2.462-2.925-2.462-.059 0-.115.007-.173.011.156-.365.303-.747.433-1.15 1.798-.476 3.148-2.369 3.148-4.636 0-1.982-1.033-3.677-2.494-4.391 3.053-1.199 5.112-3.413 5.112-5.946 0-.241-.019-.478-.055-.713.785-.459 1.319-1.3 1.319-2.273zm-3.741-8.498c.677 0 1.228.551 1.228 1.229s-.551 1.229-1.228 1.229c-.679 0-1.23-.551-1.23-1.229s.552-1.229 1.23-1.229zm-18.36 8.498c0-.931.757-1.69 1.688-1.69.333 0 .636.106.897.274-.948.764-1.645 1.668-2.032 2.656-.338-.307-.553-.748-.553-1.24zm14.731 9.278c.142.929.225 1.91.225 2.928 0 4.345-1.405 8.25-3.356 9.37h-2.156c-1.951-1.12-3.356-5.025-3.356-9.37 0-1.018.084-1.999.225-2.928 1.287.387 2.709.607 4.209.607 1.5 0 2.923-.22 4.21-.607zm-10.91 4.046c0-1.334.563-2.501 1.405-3.177-.065.665-.103 1.351-.103 2.059 0 1.628.189 3.182.524 4.581-1.073-.59-1.826-1.916-1.826-3.463zm.479 8.249c0-.004 0-.008 0-.012 0-.826.879-1.498 1.96-1.498.236 0 .456.041.664.1.307.542.646 1.017 1.013 1.409h-3.637zm10.512-1.51c1.081 0 1.96.672 1.96 1.498 0 .004 0 .008 0 .012h-3.665c.365-.39.702-.861 1.008-1.399.218-.065.449-.11.698-.11zm2.444-6.74c0 1.565-.771 2.906-1.865 3.485.339-1.404.53-2.967.53-4.603 0-.718-.039-1.413-.106-2.086.862.672 1.441 1.852 1.441 3.204zm-6.734-4.403c-5.156 0-9.351-2.662-9.351-5.934 0-3.273 4.195-5.935 9.351-5.935 5.157 0 9.352 2.663 9.352 5.935s-4.195 5.934-9.352 5.934zm9.994-7.613c-.376-.999-1.067-1.914-2.015-2.688.27-.189.592-.309.947-.309.931 0 1.69.758 1.69 1.69 0 .526-.243.997-.622 1.307z" class="iconic-social-reddit-body iconic-property-fill"/>
      <circle cx="8.072" cy="11.195" r="1.503" class="iconic-social-reddit-eye iconic-social-reddit-eye-left iconic-property-fill"/>
      <circle cx="15" cy="11.195" r="1.503" class="iconic-social-reddit-eye iconic-social-reddit-eye-right iconic-property-fill"/>
      <path d="M15.27 15.061c-.188-.188-.493-.188-.682 0-.593.593-1.588.88-3.043.88-.004 0-.008.002-.013.003-.004 0-.008-.003-.013-.003-1.455 0-2.451-.288-3.043-.88-.188-.188-.493-.188-.682 0-.188.188-.188.493 0 .682.782.782 2.001 1.162 3.725 1.162.004 0 .008-.002.013-.003.004 0 .008.003.013.003 1.723 0 2.942-.38 3.725-1.162.188-.188.188-.493 0-.682z" class="iconic-social-reddit-mouth iconic-property-fill"/>
    </g>
  </g>
  <!-- Tumblr -->
  <g data-width="19" data-height="32" class="iconic-md iconic-container" display="none" transform="scale(4) translate(6)">
    <g class="iconic-social-tumblr" display="none">
      <path d="M16.852 25.56c-.595.283-1.733.531-2.582.553-2.562.069-3.058-1.799-3.08-3.155v-9.961h6.426v-4.844h-6.402v-8.152s-4.611 0-4.688 0c-.077 0-.211.068-.23.239-.274 2.495-1.442 6.874-6.296 8.623v4.133h3.238v10.456c0 3.579 2.641 8.665 9.612 8.546 2.352-.041 4.963-1.026 5.541-1.874l-1.539-4.564z" class="iconic-property-fill"/>
    </g>
  </g>
  <!-- Twitter -->
  <g data-width="32" data-height="26" class="iconic-md iconic-container" display="none" transform="scale(4) translate(0 3)">
    <g class="iconic-social-twitter">
      <path d="M10.064 26c-3.708 0-7.159-1.087-10.064-2.949.514.061 1.036.092 1.566.092 3.076 0 5.907-1.049 8.153-2.81-2.873-.053-5.297-1.951-6.133-4.558.401.077.812.118 1.235.118.599 0 1.179-.08 1.73-.23-3.003-.603-5.266-3.256-5.266-6.436 0-.028 0-.055.001-.083.885.492 1.898.787 2.974.821-1.762-1.177-2.921-3.186-2.921-5.463 0-1.203.324-2.33.889-3.3 3.238 3.971 8.076 6.584 13.532 6.858-.112-.48-.17-.981-.17-1.496 0-3.625 2.94-6.564 6.565-6.564 1.888 0 3.595.797 4.792 2.073 1.495-.294 2.901-.841 4.169-1.593-.49 1.533-1.531 2.819-2.887 3.631 1.328-.159 2.593-.511 3.771-1.034-.88 1.316-1.993 2.472-3.276 3.398.013.281.019.565.019.849 0 8.674-6.603 18.675-18.679 18.675" class="iconic-property-fill"/>
    </g>
  </g>



  <!-- Dropbox -->
  <g data-width="16" data-height="15" class="iconic-sm iconic-container" display="none" transform="scale(8)">
    <g class="iconic-social-dropbox" display="none">
      <path class="iconic-social-dropbox-flap iconic-social-dropbox-flap-left iconic-social-dropbox-flap-top iconic-social-dropbox-flap-top-left iconic-property-fill" d="M4.707 0l-4.707 3.073 3.254 2.606 4.745-2.93z"/>
      <path class="iconic-social-dropbox-flap iconic-social-dropbox-flap-left iconic-social-dropbox-flap-bottom iconic-social-dropbox-flap-bottom-left iconic-property-fill" d="M0 8.285l4.707 3.073 3.293-2.749-4.745-2.93z"/>
      <path class="iconic-social-dropbox-flap iconic-social-dropbox-flap-right iconic-social-dropbox-flap-bottom iconic-social-dropbox-flap-bottom-right iconic-property-fill" d="M8 8.609l3.293 2.749 4.707-3.073-3.254-2.606z"/>
      <path class="iconic-social-dropbox-flap iconic-social-dropbox-flap-right iconic-social-dropbox-flap-top iconic-social-dropbox-flap-top-right iconic-property-fill" d="M16 3.073l-4.707-3.073-3.293 2.749 4.746 2.93z"/>
      <path class="iconic-social-dropbox-base iconic-property-fill" d="M8.01 9.201l-3.303 2.741-1.413-.923v1.034l4.716 2.828 4.716-2.828v-1.034l-1.413.923z"/>
    </g>
  </g>
  <!-- Facebook -->
  <g data-width="16" data-height="16" class="iconic-sm iconic-container" display="none" transform="scale(8)">
    <g class="iconic-social-facebook" display="none">
      <path d="M15.117 0h-14.234c-.488 0-.883.395-.883.883v14.234c0 .488.395.883.883.883h7.663v-6.196h-2.085v-2.415h2.085v-1.781c0-2.067 1.262-3.192 3.106-3.192.883 0 1.642.066 1.863.095v2.16l-1.279.001c-1.003 0-1.197.476-1.197 1.176v1.542h2.391l-.311 2.415h-2.08v6.196h4.077c.488 0 .883-.395.883-.883v-14.234c0-.488-.395-.883-.883-.883z" class="iconic-property-fill"/>
    </g>
  </g>
  <!-- Github -->
  <g data-width="16" data-height="16" class="iconic-sm iconic-container" display="none" transform="scale(8)">
    <g class="iconic-social-github" display="none">
      <path fill-rule="evenodd" clip-rule="evenodd" d="M8 0c-4.417 0-8 3.582-8 8.001 0 3.534 2.292 6.533 5.471 7.591.4.073.546-.174.546-.386 0-.19-.007-.693-.011-1.361-2.225.483-2.695-1.072-2.695-1.072-.364-.924-.888-1.17-.888-1.17-.726-.496.055-.486.055-.486.803.057 1.225.824 1.225.824.714 1.222 1.872.87 2.328.665.073-.517.279-.87.508-1.069-1.776-.202-3.644-.888-3.644-3.954 0-.873.312-1.587.823-2.147-.082-.203-.357-1.016.078-2.117 0 0 .672-.215 2.2.82.638-.177 1.323-.266 2.003-.269.679.003 1.364.092 2.003.269 1.527-1.035 2.198-.82 2.198-.82.436 1.101.162 1.915.08 2.117.513.559.822 1.273.822 2.147 0 3.073-1.871 3.749-3.653 3.948.287.247.543.735.543 1.482 0 1.069-.01 1.932-.01 2.195 0 .214.144.463.55.385 3.176-1.06 5.466-4.057 5.466-7.59 0-4.419-3.582-8.001-8-8.001z" class="iconic-property-fill"/>
    </g>
  </g>
  <!-- Instagram -->
  <g data-width="16" data-height="16" class="iconic-sm iconic-container" display="none" transform="scale(8)">
    <g class="iconic-social-instagram" display="none">
      <path fill-rule="evenodd" clip-rule="evenodd" d="M2.054 0h11.893c1.13 0 2.054.924 2.054 2.054v11.893c0 1.13-.924 2.054-2.054 2.054h-11.893c-1.129 0-2.054-.924-2.054-2.054v-11.893c0-1.129.924-2.054 2.054-2.054zm9.602 1.778c-.396 0-.72.324-.72.72v1.724c0 .396.324.72.72.72h1.808c.396 0 .72-.324.72-.72v-1.724c0-.396-.324-.72-.72-.72h-1.809zm2.536 4.989h-1.408c.133.435.205.896.205 1.373 0 2.661-2.227 4.819-4.973 4.819-2.747 0-4.973-2.157-4.973-4.819 0-.477.072-.938.205-1.373h-1.469v6.759c0 .35.286.636.636.636h11.142c.35 0 .636-.286.636-.636v-6.759zm-6.176-1.915c-1.775 0-3.213 1.394-3.213 3.114s1.439 3.114 3.213 3.114c1.775 0 3.213-1.394 3.213-3.114s-1.439-3.114-3.213-3.114z" class="iconic-property-fill"/>
    </g>
  </g>
  <!-- LinkedIn -->
  <g data-width="16" data-height="16" class="iconic-sm iconic-container" display="none" transform="scale(8)">
    <g class="iconic-social-linkedin" display="none">
      <path d="M14.815 0h-13.634c-.652 0-1.181.517-1.181 1.153v13.693c0 .637.529 1.154 1.181 1.154h13.634c.652 0 1.185-.517 1.185-1.155v-13.693c0-.636-.533-1.153-1.185-1.153zm-10.07 13.634h-2.374v-7.635h2.374v7.635zm-1.187-8.679c-.761 0-1.376-.617-1.376-1.376 0-.759.615-1.376 1.376-1.376.759 0 1.375.617 1.375 1.376 0 .76-.617 1.376-1.375 1.376zm10.075 8.679h-2.37v-3.713c0-.886-.017-2.025-1.234-2.025-1.235 0-1.423.965-1.423 1.961v3.777h-2.372v-7.635h2.277v1.043h.032c.317-.6 1.091-1.233 2.246-1.233 2.401 0 2.845 1.581 2.845 3.638v4.188z" class="iconic-property-fill"/>
    </g>
  </g>
  <!-- Reddit -->
  <g data-width="12" data-height="16" class="iconic-sm iconic-container" display="none" transform="scale(8) translate(2)">
    <g class="iconic-social-reddit" display="none">
      <path d="M11.533 4.731c0-.732-.595-1.327-1.327-1.327-.34 0-.646.132-.88.344-.847-.549-1.973-.903-3.22-.962l.661-2.091 1.8.424c.013.594.498 1.074 1.095 1.074.605 0 1.096-.492 1.096-1.097s-.492-1.097-1.096-1.097c-.445 0-.826.267-.998.647l-2.004-.472c-.122-.029-.247.042-.285.162l-.772 2.442c-1.323.024-2.521.381-3.416.952-.231-.202-.53-.327-.861-.327-.731 0-1.326.595-1.326 1.327 0 .47.248.879.618 1.114-.021.125-.033.251-.033.379 0 1.27 1.034 2.378 2.566 2.977-.727.359-1.24 1.204-1.24 2.192 0 1.126.666 2.069 1.556 2.314.065.203.139.395.217.578-.024-.001-.048-.004-.072-.004-.806 0-1.462.552-1.462 1.231 0 .102.018.207.055.322.032.099.125.166.229.166h6.633c.105 0 .198-.07.23-.171.036-.113.053-.217.053-.317 0-.679-.656-1.231-1.462-1.231-.029 0-.058.004-.086.006.078-.182.151-.373.216-.575.899-.238 1.574-1.185 1.574-2.318 0-.991-.517-1.839-1.247-2.196 1.526-.6 2.556-1.706 2.556-2.973 0-.12-.01-.239-.028-.356.393-.23.66-.65.66-1.137zm-1.87-4.249c.339 0 .614.276.614.615s-.276.615-.614.615c-.339 0-.615-.276-.615-.615s.276-.615.615-.615zm-9.18 4.249c0-.466.379-.845.844-.845.166 0 .318.053.448.137-.474.382-.822.834-1.016 1.328-.169-.154-.277-.374-.277-.62zm7.365 4.639c.071.465.113.955.113 1.464 0 2.172-.703 4.125-1.678 4.685h-1.078c-.976-.56-1.678-2.512-1.678-4.685 0-.509.042-.999.113-1.464.643.193 1.355.303 2.104.303.75 0 1.461-.11 2.105-.304zm-5.455 2.023c0-.667.281-1.25.703-1.589-.033.332-.051.675-.051 1.03 0 .814.095 1.591.262 2.29-.536-.295-.913-.958-.913-1.731zm.239 4.125c0-.002 0-.004 0-.006 0-.413.44-.749.98-.749.118 0 .228.021.332.05.154.271.323.509.507.705h-1.819zm5.256-.755c.54 0 .98.336.98.749 0 .002 0 .004 0 .006h-1.833c.183-.195.351-.43.504-.7.109-.033.225-.055.349-.055zm1.222-3.37c0 .782-.385 1.453-.932 1.743.169-.702.265-1.483.265-2.302 0-.359-.019-.707-.053-1.043.431.336.721.926.721 1.602zm-3.367-2.202c-2.578 0-4.675-1.331-4.675-2.967 0-1.637 2.097-2.968 4.675-2.968 2.579 0 4.676 1.331 4.676 2.968 0 1.636-2.098 2.967-4.676 2.967zm4.997-3.807c-.188-.499-.534-.957-1.008-1.344.135-.095.296-.154.474-.154.466 0 .845.379.845.845 0 .263-.121.498-.311.653z" class="iconic-social-reddit-body iconic-property-fill"/>
      <circle cx="4.036" cy="5.598" r=".751" class="iconic-social-reddit-eye iconic-social-reddit-eye-left iconic-property-fill"/>
      <circle cx="7.5" cy="5.598" r=".751" class="iconic-social-reddit-eye iconic-social-reddit-eye-right iconic-property-fill"/>
      <path d="M7.635 7.531c-.094-.094-.246-.094-.341 0-.296.296-.794.44-1.522.44-.002 0-.004.001-.006.001s-.004-.001-.006-.001c-.728 0-1.226-.144-1.522-.44-.094-.094-.247-.094-.341 0-.094.094-.094.247 0 .341.391.391 1 .581 1.862.581.002 0 .004-.001.006-.001s.004.001.006.001c.862 0 1.471-.19 1.863-.581.094-.094.094-.247 0-.341z" class="iconic-social-reddit-mouth iconic-property-fill"/>
    </g>
  </g>
  <!-- Tumblr -->
  <g data-width="10" data-height="16" class="iconic-sm iconic-container" display="none" transform="scale(8) translate(3)">
    <g class="iconic-social-tumblr" display="none">
      <path d="M8.426 12.78c-.297.142-.867.265-1.291.276-1.281.034-1.529-.899-1.54-1.577v-4.981h3.213v-2.422h-3.201v-4.076s-2.305 0-2.344 0c-.038 0-.106.034-.115.12-.137 1.248-.721 3.437-3.148 4.312v2.067h1.619v5.228c0 1.79 1.321 4.332 4.806 4.273 1.176-.02 2.482-.513 2.771-.937l-.77-2.282z" class="iconic-property-fill"/>
    </g>
  </g>
  <!-- Twitter -->
  <g data-width="16" data-height="13" class="iconic-sm iconic-container" display="none" transform="scale(8) translate(0 1)">
    <g class="iconic-social-twitter">
      <path d="M5.032 13c-1.854 0-3.579-.543-5.032-1.474.257.03.518.046.783.046 1.538 0 2.953-.525 4.077-1.405-1.437-.027-2.649-.975-3.067-2.279.2.038.406.059.618.059.299 0 .589-.04.865-.115-1.502-.301-2.633-1.628-2.633-3.218 0-.014 0-.028 0-.041.443.246.949.393 1.487.41-.881-.589-1.46-1.593-1.46-2.732 0-.601.162-1.165.444-1.65 1.619 1.986 4.038 3.292 6.766 3.429-.056-.24-.085-.491-.085-.748 0-1.812 1.47-3.282 3.283-3.282.944 0 1.797.399 2.396 1.036.748-.147 1.45-.42 2.084-.796-.245.766-.766 1.409-1.443 1.816.664-.079 1.297-.256 1.885-.517-.44.658-.997 1.236-1.638 1.699.006.141.009.282.009.425 0 4.337-3.302 9.338-9.34 9.338" class="iconic-property-fill"/>
    </g>
  </g>

<script class="iconic-api" type="application/ecmascript">
//<![CDATA[
var iconicApis=window._Iconic?window._Iconic.smartIconApis:{};iconicApis["social"]=iconicApis["social"]||function(t){var e=function(e){t.setAttribute("data-type",e);var i,r,n,a,c,o,s,l,u=t.querySelectorAll(".iconic-social-dropbox"),d=t.querySelectorAll(".iconic-social-facebook"),A=t.querySelectorAll(".iconic-social-github"),p=t.querySelectorAll(".iconic-social-instagram"),b=t.querySelectorAll(".iconic-social-linkedin"),f=t.querySelectorAll(".iconic-social-reddit"),w=t.querySelectorAll(".iconic-social-tumblr"),h=t.querySelectorAll(".iconic-social-twitter");switch(i=r=n=a=c=o=s=l="none",e){case"dropbox":i="inline";break;case"facebook":r="inline";break;case"github":n="inline";break;case"instagram":a="inline";break;case"linkedin":c="inline";break;case"reddit":o="inline";break;case"tumblr":s="inline";break;default:l="inline"}for(var g=0;g<u.length;g++)u[g].setAttribute("display",i),d[g].setAttribute("display",r),A[g].setAttribute("display",n),p[g].setAttribute("display",a),b[g].setAttribute("display",c),f[g].setAttribute("display",o),w[g].setAttribute("display",s),h[g].setAttribute("display",l)},i=function(){var i=t.getAttribute("data-type");i&&e(i)};return{update:i,setType:e}};
//]]>
</script>
</svg>
