<svg xmlns="http://www.w3.org/2000/svg" class="iconic iconic-thermometer" width="128" height="128" viewBox="0 0 128 128">
  <g class="iconic-metadata">
    <title>Thermometer</title>
  </g>
  <g class="iconic-thermometer-lg iconic-container iconic-lg" data-width="44" data-height="128" display="inline" transform="translate(42)">
    <path stroke="#000" stroke-width="2" stroke-linecap="round" class="iconic-thermometer-tick iconic-thermometer-tick-6 iconic-property-stroke" d="M28 75h2" fill="none" />
    <path stroke="#000" stroke-width="2" stroke-linecap="round" class="iconic-thermometer-tick iconic-thermometer-tick-5 iconic-property-stroke" d="M28 63h2" fill="none" />
    <path stroke="#000" stroke-width="2" stroke-linecap="round" class="iconic-thermometer-tick iconic-thermometer-tick-4 iconic-property-stroke" d="M28 51h2" fill="none" />
    <path stroke="#000" stroke-width="2" stroke-linecap="round" class="iconic-thermometer-tick iconic-thermometer-tick-3 iconic-property-stroke" d="M28 39h2" fill="none" />
    <path stroke="#000" stroke-width="2" stroke-linecap="round" class="iconic-thermometer-tick iconic-thermometer-tick-2 iconic-property-stroke" d="M28 27h2" fill="none" />
    <path stroke="#000" stroke-width="2" stroke-linecap="round" class="iconic-thermometer-tick iconic-thermometer-tick-1 iconic-property-stroke" d="M28 15h2" fill="none" />
    <path stroke="#000" stroke-width="2" stroke-linecap="round" d="M13.999 86.578c-7.629 3.146-12.999 10.657-12.999 19.422 0 11.598 9.402 21 21 21s21-9.402 21-21c0-8.766-5.372-16.278-13.003-19.424l.003-77.576c0-4.418-3.582-8-8-8s-8 3.582-8 8l-.001 77.578z"
    class="iconic-thermometer-body iconic-property-stroke" fill="none" />
    <path stroke="#000" stroke-width="6" stroke-linecap="round" class="iconic-thermometer-shaft iconic-property-stroke" d="M22 9v101" fill="none" />
    <circle cx="22" cy="106" r="16" class="iconic-thermometer-well iconic-property-fill" />
  </g>
  <g class="iconic-thermometer-md iconic-container iconic-md" data-width="14" data-height="32" display="none" transform="scale(4) translate(9)">
    <path stroke="#000" stroke-linecap="round" d="M10.5 19.53c1.798 1.156 3 3.174 3 5.47 0 3.59-2.91 6.5-6.5 6.5s-6.5-2.91-6.5-6.5c0-2.292 1.208-4.301 3-5.459v-15.541c0-1.933 1.567-3.5 3.5-3.5s3.5 1.567 3.5 3.5v15.53z" class="iconic-thermometer-body iconic-property-stroke"
    fill="none" />
    <path stroke="#000" stroke-width="2" stroke-linecap="round" class="iconic-thermometer-shaft iconic-property-stroke" d="M7 4v22" fill="none" />
    <circle cx="7" cy="25" r="4" class="iconic-thermometer-well iconic-property-fill" />
  </g>
  <g class="iconic-thermometer-sm iconic-container iconic-sm" data-width="8" data-height="16" display="none" transform="scale(8) translate(4)">
    <path stroke="#000" stroke-linecap="round" d="M1.5 9.556c-.617.631-1 1.492-1 2.444 0 1.933 1.567 3.5 3.5 3.5s3.5-1.567 3.5-3.5c0-.952-.383-1.813-1-2.444v-6.556c0-1.381-1.119-2.5-2.5-2.5s-2.5 1.119-2.5 2.5v6.556z" class="iconic-thermometer-body iconic-property-stroke"
    fill="none" />
    <path stroke="#000" stroke-width="2" stroke-linecap="round" class="iconic-thermometer-shaft iconic-property-stroke" d="M4 3v9" fill="none" />
    <circle cx="4" cy="12" r="2" class="iconic-thermometer-well iconic-property-fill" />
  </g>
</svg>