<svg xmlns="http://www.w3.org/2000/svg" class="iconic iconic-tint" width="128" height="128" viewBox="0 0 128 128">
  <g class="iconic-metadata">
    <title>Tint</title>
  </g>
  <defs>
    <clipPath id="iconic-size-lg-tint-clip-0">
      <path d="M0 0v128h96v-128h-96zm42.92 115.912c-.384 1.898-2.052 3.208-3.916 3.208-.263 0-.53-.026-.797-.081-3.568-.722-6.935-1.844-10.007-3.334-10.381-5.037-17.065-14.014-19.33-25.96-.411-2.17 1.015-4.264 3.185-4.675 2.169-.41 4.264 1.015 4.675 3.185 1.8 9.495 6.833 16.309 14.962 20.253 2.467 1.197 5.192 2.103 8.1 2.691 2.166.438 3.565 2.549 3.127 4.714z"
      />
    </clipPath>
    <clipPath id="iconic-size-md-tint-clip-0">
      <path d="M0 0v32h24v-32h-24zm11.982 27.614c-.116.739-.754 1.267-1.48 1.267-.078 0-.156-.006-.235-.018-4.005-.629-6.613-3.238-7.155-7.157-.113-.82.46-1.578 1.281-1.691.815-.12 1.578.46 1.691 1.281.363 2.627 1.927 4.176 4.649 4.604.818.129 1.378.896 1.249 1.715z"
      />
    </clipPath>
    <clipPath id="iconic-size-sm-tint-clip-0">
      <path d="M0 0v16h12v-16h-12zm6 14c-2.505 0-4-1.495-4-4 0-.552.448-1 1-1s1 .448 1 1c0 .931.228 2 2 2 .552 0 1 .448 1 1s-.448 1-1 1z" />
    </clipPath>
  </defs>
  <g class="iconic-tint-lg iconic-container iconic-lg" data-width="96" data-height="128" display="inline" transform="translate(16)">
    <path d="M96 80c0 32-22.753 48-48 48s-48-16-48-48c0-36.571 48-80 48-80s48 43.429 48 80z" clip-path="url(#iconic-size-lg-tint-clip-0)" class="iconic-tint-drop iconic-property-fill" />
  </g>
  <g class="iconic-tint-md iconic-container iconic-md" data-width="24" data-height="32" display="none" transform="scale(4) translate(4)">
    <path d="M24 20c0 8-5.688 12-12 12s-12-4-12-12c0-9.143 12-20 12-20s12 10.857 12 20z" clip-path="url(#iconic-size-md-tint-clip-0)" class="iconic-tint-drop iconic-property-fill" />
  </g>
  <g class="iconic-tint-sm iconic-container iconic-sm" data-width="12" data-height="16" display="none" transform="scale(8) translate(2)">
    <path d="M12 10c0 4-2.844 6-6 6s-6-2-6-6c0-4.571 6-10 6-10s6 5.429 6 10z" clip-path="url(#iconic-size-sm-tint-clip-0)" class="iconic-tint-drop iconic-property-fill" />
  </g>
</svg>