<?xml version="1.0" encoding="utf-8"?>
<!-- Generator: Adobe Illustrator 18.1.0, SVG Export Plug-In . SVG Version: 6.00 Build 0)  -->
<svg version="1.1" id="Layer_1" xmlns="http://www.w3.org/2000/svg" xmlns:xlink="http://www.w3.org/1999/xlink" x="0px" y="0px"
	 viewBox="-844 393.6 128 128" enable-background="new -844 393.6 128 128" xml:space="preserve">
<g>
	<path fill="#EBEBEC" d="M-716,510.3c0,6.2-5.1,11.3-11.3,11.3h-105.3c-6.2,0-11.3-5.1-11.3-11.3V404.9c0-6.2,5.1-11.3,11.3-11.3
		h105.3c6.2,0,11.3,5.1,11.3,11.3V510.3z"/>
</g>
<g>
	<title>Cog</title>
</g>
<g transform="scale(4)" display="none">
	<path display="inline" d="M-179,116.4v-4l-4-1.3c-0.3-1-0.7-2-1.2-2.9l1.8-3.7l-2.8-2.8l-3.7,1.9c-0.9-0.5-1.9-0.9-2.9-1.2l-1.3-4
		h-4l-1.3,4c-1,0.3-2,0.7-2.9,1.2l-3.7-1.8l-2.8,2.8l1.9,3.7c-0.5,0.9-0.9,1.9-1.2,2.9l-4,1.3v4l4,1.3c0.3,1,0.7,2,1.2,2.9l-1.8,3.7
		l2.8,2.8l3.7-1.9c0.9,0.5,1.9,0.9,2.9,1.2l1.3,4h4l1.3-4c1-0.3,2-0.7,2.9-1.2l3.7,1.8l2.8-2.8l-1.9-3.7c0.5-0.9,0.9-1.9,1.2-2.9
		L-179,116.4L-179,116.4z M-195,121.4c-3.9,0-7-3.1-7-7s3.1-7,7-7s7,3.1,7,7C-188,118.3-191.1,121.4-195,121.4z"/>
</g>
<g transform="scale(8)" display="none">
	<path display="inline" d="M-89.5,58.2v-2l-2-1c-0.1-0.3-0.2-0.6-0.4-0.9l0.8-2.1l-1.5-1.5l-2.1,0.8c-0.3-0.1-0.6-0.3-0.9-0.4l-1-2
		h-2l-1,2c-0.3,0.1-0.6,0.2-0.9,0.4l-2.1-0.8l-1.5,1.5l0.8,2.1c-0.1,0.3-0.3,0.6-0.4,0.9l-2,1v2l2,1c0.1,0.3,0.2,0.6,0.4,0.9
		l-0.8,2.1l1.5,1.5l2.1-0.8c0.3,0.1,0.6,0.3,0.9,0.4l1,2h2l1-2c0.3-0.1,0.6-0.2,0.9-0.4l2.1,0.8l1.5-1.5l-0.8-2.1
		c0.1-0.3,0.3-0.6,0.4-0.9L-89.5,58.2L-89.5,58.2z M-97.5,60.2c-1.7,0-3-1.3-3-3c0-1.7,1.3-3,3-3s3,1.3,3,3S-95.8,60.2-97.5,60.2z"
		/>
</g>
<g>
	<path fill="#9D9FA2" d="M-808.3,486.3c-0.3-0.2-0.5-0.6-0.5-1v-55.4c0-0.4,0.2-0.8,0.5-1c0.4-0.3,0.8-0.3,1.2-0.1l55.4,27.7
		c0.4,0.2,0.7,0.6,0.7,1.1c0,0.5-0.3,0.9-0.7,1.1l-55.4,27.7c-0.2,0.1-0.3,0.1-0.5,0.1C-807.9,486.5-808.1,486.4-808.3,486.3z"/>
</g>
</svg>
