<svg xmlns="http://www.w3.org/2000/svg" class="iconic iconic-video" width="128" height="128" viewBox="0 0 128 128">
  <g class="iconic-metadata">
    <title>Video</title>
  </g>
  <g class="iconic-video-lg iconic-container iconic-lg" data-width="128" data-height="58" display="inline" transform="translate(0 35)">
    <path class="iconic-video-lens iconic-video-lens-barrel iconic-property-fill" d="M90 16.083h18v28h-18z" />
    <path class="iconic-video-lens iconic-video-lens-hood iconic-property-fill" d="M110 16.083l6-4.083h12l-.083 36-12 .083-5.917-4z" />
    <path d="M85 58h-82c-1.657 0-3-1.343-3-3v-52c0-1.657 1.343-3 3-3h82c1.657 0 3 1.343 3 3v52c0 1.657-1.343 3-3 3z" class="iconic-video-body iconic-property-fill" />
  </g>
  <g class="iconic-video-md iconic-container iconic-md" data-width="32" data-height="18" display="none" transform="scale(4) translate(0 7)">
    <path d="M23 18h-22c-.552 0-1-.448-1-1v-16c0-.552.448-1 1-1h22c.552 0 1 .448 1 1v16c0 .552-.448 1-1 1z" class="iconic-video-body iconic-property-fill" />
    <path class="iconic-video-lens iconic-property-fill" d="M25 6l5-3h2v12h-2l-5-3z" />
  </g>
  <g class="iconic-video-sm iconic-container iconic-sm" data-width="16" data-height="10" display="none" transform="scale(8) translate(0 3)">
    <path d="M11.75 10h-11.5c-.138 0-.25-.112-.25-.25v-9.5c0-.138.112-.25.25-.25h11.5c.138 0 .25.112.25.25v9.5c0 .138-.112.25-.25.25z" class="iconic-video-body iconic-property-fill" />
    <path class="iconic-video-lens iconic-property-fill" d="M12 4l3-2h1v6h-1l-3-2z" />
  </g>
</svg>