<svg version="1.1" xmlns="http://www.w3.org/2000/svg" data-icon="volume" width="128" height="128" class="iconic iconic-volume" viewBox="0 0 128 128">
  <g><title>Volume</title></g>
  <g data-width="128" data-height="104" class="iconic-lg iconic-container" display="inline" transform="translate(0 12)">
    <g class="iconic-volume-high">
      <path d="M52.9 5l-31.8 28c-.6.5-1.8 1-2.6 1h-17c-.8 0-1.5.7-1.5 1.5v33c0 .8.7 1.5 1.5 1.5h17c.8 0 2 .4 2.6 1l31.8 28c.6.5 1.6 1 2.1 1s1-.7 1-1.5v-93c0-.8-.4-1.5-1-1.5s-1.5.4-2.1 1z" class="iconic-volume-high-speaker iconic-property-fill"/>
      <path stroke="#000" stroke-width="8" d="M70.1 37.9c3.7 3.6 5.9 8.6 5.9 14.1s-2.2 10.5-5.9 14.1" class="iconic-volume-high-wave iconic-volume-high-wave-inner iconic-property-accent iconic-property-stroke" fill="none"/>
      <path stroke="#000" stroke-width="8" d="M87.1 20.9c8 8 12.9 19 12.9 31.1s-4.9 23.2-12.9 31.1" class="iconic-volume-high-wave iconic-volume-high-wave-middle iconic-property-accent iconic-property-stroke" fill="none"/>
      <path stroke="#000" stroke-width="8" d="M104.1 3.9c12.3 12.3 19.9 29.3 19.9 48.1s-7.6 35.8-19.9 48.1" class="iconic-volume-high-wave iconic-volume-high-wave-outer iconic-property-accent iconic-property-stroke" fill="none"/>
    </g>
  </g>
  <g data-width="104" data-height="96" class="iconic-lg iconic-container" display="inline" transform="translate(12 16)">
    <g class="iconic-volume-medium" display="none">
      <path d="M52.9 1l-31.8 28c-.6.5-1.8 1-2.6 1h-17c-.8 0-1.5.7-1.5 1.5v33c0 .8.7 1.5 1.5 1.5h17c.8 0 2 .4 2.6 1l31.8 28c.6.5 1.6 1 2.1 1s1-.7 1-1.5v-93c0-.8-.4-1.5-1-1.5s-1.5.4-2.1 1z" class="iconic-volume-medium-speaker iconic-property-fill"/>
      <path stroke="#000" stroke-width="8" d="M70.1 33.9c3.7 3.6 5.9 8.6 5.9 14.1s-2.2 10.5-5.9 14.1" class="iconic-volume-medium-wave iconic-volume-medium-wave-inner iconic-property-accent iconic-property-stroke" fill="none"/>
      <path stroke="#000" stroke-width="8" d="M87.1 16.9c8 8 12.9 19 12.9 31.1s-4.9 23.2-12.9 31.1" class="iconic-volume-medium-wave iconic-volume-medium-wave-middle iconic-property-accent iconic-property-stroke" fill="none"/>
    </g>
  </g>
  <g data-width="80" data-height="96" class="iconic-lg iconic-container" display="inline" transform="translate(24 16)">
    <g class="iconic-volume-low" display="none">
      <path d="M52.9 1l-31.8 28c-.6.5-1.8 1-2.6 1h-17c-.8 0-1.5.7-1.5 1.5v33c0 .8.7 1.5 1.5 1.5h17c.8 0 2 .4 2.6 1l31.8 28c.6.5 1.6 1 2.1 1s1-.7 1-1.5v-93c0-.8-.4-1.5-1-1.5s-1.5.4-2.1 1z" class="iconic-volume-low-speaker iconic-property-fill"/>
      <path stroke="#000" stroke-width="8" d="M70.1 33.9c3.7 3.6 5.9 8.6 5.9 14.1s-2.2 10.5-5.9 14.1" class="iconic-volume-low-wave iconic-property-accent iconic-property-stroke" fill="none"/>
    </g>
  </g>
  <g data-width="104" data-height="96" class="iconic-lg iconic-container" display="inline" transform="translate(12 16)">
    <g class="iconic-volume-off" display="none">
      <path d="M52.9 1l-31.8 28c-.6.5-1.8 1-2.6 1h-17c-.8 0-1.5.7-1.5 1.5v33c0 .8.7 1.5 1.5 1.5h17c.8 0 2 .4 2.6 1l31.8 28c.6.5 1.6 1 2.1 1s1-.7 1-1.5v-93c0-.8-.4-1.5-1-1.5s-1.5.4-2.1 1z" class="iconic-volume-off-speaker iconic-property-fill"/>
      <path stroke="#000" stroke-width="8" stroke-linejoin="round" class="iconic-volume-off-mute iconic-property-accent iconic-property-stroke" d="M100 32l-32 32m32 0l-32-32" fill="none"/>
    </g>
  </g>
  <g data-width="32" data-height="26" class="iconic-md iconic-container" display="none" transform="scale(4) translate(0 3)">
    <g class="iconic-volume-high">
      <path d="M12.6 1.3l-7.2 6.4c-.2.2-.6.3-.9.3h-4c-.3 0-.5.2-.5.5v9c0 .3.2.5.5.5h4c.3 0 .7.1.9.3l7.2 6.3c.2.2.6.3.9.3.3 0 .5-.2.5-.5v-23c0-.2-.2-.4-.5-.4s-.7.1-.9.3z" class="iconic-volume-high-speaker iconic-property-fill"/>
      <path stroke="#000" stroke-width="2" d="M17.5 9.5c.9.9 1.5 2.2 1.5 3.5s-.6 2.6-1.5 3.5" class="iconic-volume-high-wave iconic-volume-high-wave-inner iconic-property-accent iconic-property-stroke" fill="none"/>
      <path stroke="#000" stroke-width="2" d="M21.8 5.2c2 2 3.2 4.7 3.2 7.8s-1.2 5.8-3.2 7.8" class="iconic-volume-high-wave iconic-volume-high-wave-middle iconic-property-accent iconic-property-stroke" fill="none"/>
      <path stroke="#000" stroke-width="2" d="M26 1c3.1 3.1 5 7.3 5 12s-1.9 8.9-5 12" class="iconic-volume-high-wave iconic-volume-high-wave-outer iconic-property-accent iconic-property-stroke" fill="none"/>
    </g>
  </g>
  <g data-width="26" data-height="24" class="iconic-md iconic-container" display="none" transform="scale(4) translate(3 4)">
    <g class="iconic-volume-medium" display="none">
      <path d="M12.6.3l-7.2 6.4c-.2.2-.6.3-.9.3h-4c-.3 0-.5.2-.5.5v9c0 .3.2.5.5.5h4c.3 0 .7.1.9.3l7.2 6.3c.2.2.6.3.9.3.3 0 .5-.2.5-.5v-23c0-.2-.2-.4-.5-.4s-.7.1-.9.3z" class="iconic-volume-medium-speaker iconic-property-fill"/>
      <path stroke="#000" stroke-width="2" d="M17.5 8.5c.9.9 1.5 2.1 1.5 3.5s-.6 2.6-1.5 3.5" class="iconic-volume-medium-wave iconic-volume-medium-wave-inner iconic-property-accent iconic-property-stroke" fill="none"/>
      <path stroke="#000" stroke-width="2" d="M21.8 4.2c2 2 3.2 4.7 3.2 7.8s-1.2 5.8-3.2 7.8" class="iconic-volume-medium-wave iconic-volume-medium-wave-middle iconic-property-accent iconic-property-stroke" fill="none"/>
    </g>
  </g>
  <g data-width="20" data-height="24" class="iconic-md iconic-container" display="none" transform="scale(4) translate(6 4)">
    <g class="iconic-volume-low" display="none">
      <path d="M12.6.3l-7.2 6.4c-.2.2-.6.3-.9.3h-4c-.3 0-.5.2-.5.5v9c0 .3.2.5.5.5h4c.3 0 .7.1.9.3l7.2 6.3c.2.2.6.3.9.3.3 0 .5-.2.5-.5v-23c0-.2-.2-.4-.5-.4s-.7.1-.9.3z" class="iconic-volume-low-speaker iconic-property-fill"/>
      <path stroke="#000" stroke-width="2" d="M17.5 8.5c.9.9 1.5 2.1 1.5 3.5s-.6 2.6-1.5 3.5" class="iconic-volume-low-wave iconic-property-accent iconic-property-stroke" fill="none"/>
    </g>
  </g>
  <g data-width="28" data-height="24" class="iconic-md iconic-container" display="none" transform="scale(4) translate(2 4)">
    <g class="iconic-volume-off" display="none">
      <path d="M12.6.3l-7.2 6.4c-.2.2-.6.3-.9.3h-4c-.3 0-.5.2-.5.5v9c0 .3.2.5.5.5h4c.3 0 .7.1.9.3l7.2 6.3c.2.2.6.3.9.3.3 0 .5-.2.5-.5v-23c0-.2-.2-.4-.5-.4s-.7.1-.9.3z" class="iconic-volume-off-speaker iconic-property-fill"/>
      <path stroke="#000" stroke-width="2" stroke-linejoin="round" class="iconic-volume-off-mute iconic-property-accent iconic-property-stroke" d="M26.5 7.5l-8 8m8 0l-8-8" fill="none"/>
    </g>
  </g>
  <g data-width="16" data-height="14" class="iconic-sm iconic-container" display="none" transform="scale(8) translate(0 1)">
    <g class="iconic-volume-high">
      <path class="iconic-volume-high-speaker iconic-property-fill" d="M6 1l-3 3h-3v6h3l3 3h1v-12z"/>
      <path stroke="#000" d="M8.8 5.2c.4.5.7 1.1.7 1.8s-.3 1.3-.7 1.8" class="iconic-volume-high-wave iconic-volume-high-wave-inner iconic-property-accent iconic-property-stroke" fill="none"/>
      <path stroke="#000" d="M10.9 3.1c1 1 1.6 2.4 1.6 3.9s-.6 2.9-1.6 3.9" class="iconic-volume-high-wave iconic-volume-high-wave-middle iconic-property-accent iconic-property-stroke" fill="none"/>
      <path stroke="#000" d="M13 1c1.5 1.5 2.5 3.7 2.5 6s-1 4.5-2.5 6" class="iconic-volume-high-wave iconic-volume-high-wave-outer iconic-property-accent iconic-property-stroke" fill="none"/>
    </g>
  </g>
  <g data-width="13" data-height="12" class="iconic-sm iconic-container" display="none" transform="scale(8) translate(1 2)">
    <g class="iconic-volume-medium" display="none">
      <path class="iconic-volume-medium-speaker iconic-property-fill" d="M6 0l-3 3h-3v6h3l3 3h1v-12z"/>
      <path stroke="#000" d="M8.8 4.2c.4.5.7 1.1.7 1.8s-.3 1.3-.7 1.8" class="iconic-volume-medium-wave iconic-volume-medium-wave-inner iconic-property-accent iconic-property-stroke" fill="none"/>
      <path stroke="#000" d="M10.9 2.1c1 1 1.6 2.4 1.6 3.9s-.6 2.9-1.6 3.9" class="iconic-volume-medium-wave iconic-volume-medium-wave-middle iconic-property-accent iconic-property-stroke" fill="none"/>
    </g>
  </g>
  <g data-width="10" data-height="12" class="iconic-sm iconic-container" display="none" transform="scale(8) translate(3 2)">
    <g class="iconic-volume-low" display="none">
      <path class="iconic-volume-low-speaker iconic-property-fill" d="M6 0l-3 3h-3v6h3l3 3h1v-12z"/>
      <path stroke="#000" d="M8.8 4.2c.4.5.7 1.1.7 1.8s-.3 1.3-.7 1.8" class="iconic-volume-low-wave iconic-property-accent iconic-property-stroke" fill="none"/>
    </g>
  </g>
  <g data-width="15" data-height="12" class="iconic-sm iconic-container" display="none" transform="scale(8) translate(0 2)">
    <g class="iconic-volume-off" display="none">
      <path class="iconic-volume-off-speaker iconic-property-fill" d="M6 0l-3 3h-3v6h3l3 3h1v-12z"/>
      <path stroke="#000" stroke-linejoin="round" class="iconic-volume-off-mute iconic-property-accent iconic-property-stroke" d="M14.5 3.5l-5 5m5 0l-5-5" fill="none"/>
    </g>
  </g>
<script class="iconic-api" type="application/ecmascript">
//<![CDATA[
var iconicApis=window._Iconic?window._Iconic.smartIconApis:{};iconicApis["volume"]=iconicApis["volume"]||function(t){var e=function(e){t.setAttribute("data-level",e);var i,r,n,a,c=t.querySelectorAll(".iconic-volume-high"),o=t.querySelectorAll(".iconic-volume-medium"),s=t.querySelectorAll(".iconic-volume-low"),l=t.querySelectorAll(".iconic-volume-off");switch(i=r=n=a="none",e){case"medium":r="inline";break;case"low":n="inline";break;case"off":a="inline";break;default:i="inline"}for(var u=0;u<c.length;u++)c[u].setAttribute("display",i),o[u].setAttribute("display",r),s[u].setAttribute("display",n),l[u].setAttribute("display",a)},i=function(){var i=t.getAttribute("data-level");i&&e(i)};return{update:i,setLevel:e}};
//]]>
</script>
</svg>