<svg xmlns="http://www.w3.org/2000/svg" class="iconic iconic-wrench" width="128" height="128" viewBox="0 0 128 128">
  <g class="iconic-metadata">
    <title>Wrench</title>
  </g>
  <g class="iconic-wrench-lg iconic-container iconic-lg" data-width="128" data-height="128" display="inline">
    <path d="M127.575 20.425l-9.575 9.575h-20v-20l9.575-9.575c-1.484-.275-3.011-.425-4.575-.425-13.48 0-24.487 10.646-25 24 0 8.836-3.582 16.837-9.373 22.627l-65.991 66.009c-3.515 3.515-3.515 9.213 0 12.727 1.757 1.757 4.061 2.636 6.364 2.636s4.606-.879 6.364-2.636l66.009-65.991c5.791-5.791 13.791-9.373 22.627-9.373 13.354-.513 24-11.52 24-25 0-1.563-.151-3.091-.425-4.575zm-118.575 103.575c-2.761 0-5-2.239-5-5s2.239-5 5-5 5 2.239 5 5-2.239 5-5 5z"
    class="iconic-property-fill" />
  </g>
  <g class="iconic-wrench-md iconic-container iconic-md" data-width="32" data-height="32" display="none" transform="scale(4)">
    <path d="M31.677 5.323l-3.677 3.677h-5v-5l3.677-3.677c-.689-.209-1.419-.323-2.177-.323-4.142 0-7.5 3.358-7.5 7.5 0 2.168-.879 4.079-2.3 5.5l-13.821 13.879c-1.172 1.171-1.172 3.071 0 4.242.586.586 1.354.879 2.121.879s1.536-.293 2.121-.879l13.879-13.825v.004c1.421-1.421 3.332-2.3 5.5-2.3 4.142 0 7.5-3.358 7.5-7.5 0-.757-.115-1.487-.323-2.177zm-28.677 25.177c-.828 0-1.5-.672-1.5-1.5s.672-1.5 1.5-1.5 1.5.672 1.5 1.5-.672 1.5-1.5 1.5z"
    class="iconic-property-fill" />
  </g>
  <g class="iconic-wrench-sm iconic-container iconic-sm" data-width="16" data-height="16" display="none" transform="scale(8)">
    <path d="M15.892 3.108l-1.892 1.892h-3v-3l1.892-1.892c-.288-.066-.584-.108-.892-.108-2.209 0-4 1.791-4 4 0 .764-.305 1.454-.794 1.966l-6.62 6.62c-.781.781-.781 2.047 0 2.828.39.391.902.586 1.414.586s1.024-.195 1.414-.586l6.62-6.62c.512-.489 1.202-.794 1.966-.794 2.209 0 4-1.791 4-4 0-.308-.042-.604-.108-.892zm-13.892 11.892c-.552 0-1-.448-1-1s.448-1 1-1 1 .448 1 1-.448 1-1 1z"
    class="iconic-property-fill" />
  </g>
</svg>