<svg xmlns="http://www.w3.org/2000/svg" width="452" height="315" viewBox="0 0 452 315">
  <path fill-rule="evenodd" clip-rule="evenodd" d="M107 153c2.102 1.525.944 8.21-2 8 .246-3.087 1.014-5.653 2-8zm77 12c-1.096 3.57-3.43 5.904-7 7 1.62-3.046 3.08-6.254 7-7zm-81 16c2.725.94 2.29 5.045 3 8-3.354-.313-2.802-4.53-3-8z"/>
  <path clip-rule="evenodd" fill="none" stroke="#585858" stroke-width="1.664" stroke-linecap="round" d="M3.5 81.5c7.452 50.858 26.26 92.074 55.776 133.218 29.963 41.767 70.85 79.145 122.715 92.43 45.1 11.55 92 5.095 136.66-8.5 44.39-13.514 89.86-34.09 118.62-70.357 18.84-23.75 13.6-50.51 3.6-77.29-19.01-50.88-62.68-114.31-107.83-138.02-21.37-11.23-62.32-13.07-99.37-9.97-28.57 2.4-65.34 9.32-101.01 14.65-36.48 5.44-69.69 6.84-99.13 15.31C16.83 37.77-3.11 54.11 3.5 81.5"/>
  <path clip-rule="evenodd" fill="none" stroke="#585858" stroke-width="2.699" stroke-linecap="round" d="M196.357 73.214c-12.802 6.167-22.783 16.374-34.857 24.72"/>
  <path clip-rule="evenodd" fill="none" stroke="#585858" stroke-width="1.506" stroke-linecap="round" d="M130.5 97.5c.43 3.043-1.94 5.437-3 8"/>
  <path clip-rule="evenodd" fill="none" stroke="#585858" stroke-width="2.978" stroke-linecap="round" d="M92.75 92.75C124.963 78.53 165.92 74.378 202.22 68"/>
  <path clip-rule="evenodd" fill="none" stroke="#585858" stroke-width="2.96" stroke-linecap="round" d="M96.75 90.5c18.853 6.792 41.037 3.588 61 7.435"/>
  <path clip-rule="evenodd" fill="none" stroke="#585858" stroke-width="2" stroke-linecap="round" d="M198.5 84.5c.417.916 1.048 1.618 2 2M183 74.25c.417.916 1.048 1.618 2 2"/>
  <path clip-rule="evenodd" fill="none" stroke="#585858" stroke-width="2.553" stroke-linecap="round" d="M302.5 117.5c-16.454 9.63-32.855 20.746-49.89 30.564"/>
  <path clip-rule="evenodd" fill="none" stroke="#585858" stroke-width="1.789" stroke-linecap="round" d="M214 125.333c.007-1.79.378-2.57.5-3.833"/>
  <path clip-rule="evenodd" fill="none" stroke="#585858" stroke-width="2.9" stroke-linecap="round" d="M193.75 129c37.242-4.315 74.67-10.368 111.75-16.25"/>
  <path clip-rule="evenodd" fill="none" stroke="#585858" stroke-width="1.537" stroke-linecap="round" d="M205.5 139.5c.938-1.65 1.063-4.27 3-5"/>
  <path clip-rule="evenodd" fill="none" stroke="#585858" stroke-width="2.839" stroke-linecap="round" d="M193.75 129c15.757 9.18 33.826 12.793 50.25 20.5"/>
  <path clip-rule="evenodd" fill="none" stroke="#585858" stroke-width="2" stroke-linecap="round" d="M209.5 97.5c-.357-.643-.78-1.22-1-2m6 12c-.072 1.405.463 2.204 1 3"/>
  <path clip-rule="evenodd" fill="none" stroke="#585858" stroke-width="1.414" stroke-linecap="round" d="M122 115c-.35.65-.382 1.618-.5 2.5"/>
  <path clip-rule="evenodd" fill="none" stroke="#585858" stroke-width="1.512" stroke-linecap="round" d="M115 131c.496-1.17 1.25-2.084 1.5-3.5m17.75-35.25c.496-1.17 1.25-2.084 1.5-3.5m2.75-4.25c.496-1.17 1.25-2.084 1.5-3.5"/>
  <path clip-rule="evenodd" fill="none" stroke="#585858" stroke-width="1.732" stroke-linecap="round" d="M111.5 141.5c-.426.792-.76 1.6-1 3"/>
  <path clip-rule="evenodd" fill="none" stroke="#585858" stroke-width="1.491" stroke-linecap="round" d="M200.5 145.5c-1.29 1.137-1.77 2.53-3 3"/>
  <path clip-rule="evenodd" fill="none" stroke="#585858" stroke-width="2.86" stroke-linecap="round" d="M134 169c42.65 17.842 88.387 31.846 132.5 47.75"/>
  <path clip-rule="evenodd" fill="none" stroke="#585858" stroke-width="1.658" stroke-linecap="round" d="M151 196c-1.358 1.066-2.26 2.04-3.5 2.5"/>
  <path clip-rule="evenodd" fill="none" stroke="#585858" stroke-width="2.458" stroke-linecap="round" d="M135 171.167c19.91 19.315 31.192 45.695 50.03 65.666"/>
  <path clip-rule="evenodd" fill="none" stroke="#585858" stroke-width="2.796" stroke-linecap="round" d="M186.75 238.402c26.568-7.64 53.05-15.944 79.75-22.89"/>
  <path clip-rule="evenodd" fill="none" stroke="#585858" stroke-width="1.369" stroke-linecap="round" d="M188.5 160.5c.497-.837.963-1.703 1.5-2.5"/>
  <path clip-rule="evenodd" fill="none" stroke="#585858" stroke-width="2.104" stroke-linecap="round" d="M104 172v-3"/>
  <path clip-rule="evenodd" fill="none" stroke="#585858" stroke-width="1.369" stroke-linecap="round" d="M159 189c.868-.466 1.48-1.187 2.5-1.5"/>
  <path clip-rule="evenodd" fill="none" stroke="#585858" stroke-width="1.342" stroke-linecap="round" d="M110 196c.465.868 1.187 1.48 1.5 2.5"/>
  <path clip-rule="evenodd" fill="none" stroke="#585858" stroke-width="1.871" stroke-linecap="round" d="M121.5 204c1.038.008 1.85.378 3 .5"/>
  <path clip-rule="evenodd" fill="none" stroke="#585858" stroke-width="1.647" stroke-linecap="round" d="M135 205c.674-.07 1.914-.49 3.5-.5"/>
  <path d="M312.314 60.43l-5.75-4.425c-.4-.31-.405-.82-.006-1.135l5.76-4.538-.13-2.05-7.635 3.04c-.473.19-.917-.07-.99-.573l-1.163-8.29c-.07-.51-.45-.92-.84-.92-.394 0-.772.41-.842.91l-1.168 8.28c-.07.5-.516.76-.987.57l-7.76-3.1c-.472-.19-1.018-.07-1.215.26-.195.33-.028.86.37 1.17l6.528 5.13c.4.31.4.82 0 1.14l-6.527 5.13c-.4.31-.57.87-.37 1.25.19.37.74.52 1.21.33l7.69-3.09c.47-.19.91.07.98.57l1.11 8.36c.06.5.5.91.97.91s.91-.42.97-.92l1.11-8.36c.06-.51.51-.76.98-.57l7.56 3.04m-21.38 0l7.56-3.04c.47-.19.91.07.98.57l1.11 8.35c.06.5.5.91.97.91s.91-.42.97-.92l1.11-8.36c.07-.5.51-.76.98-.57l7.69 3.09c.47.19 1.02.04 1.21-.34.2-.37.03-.93-.37-1.25l-6.53-5.13c-.4-.32-.4-.83 0-1.14L313 49.6c.4-.31.57-.842.37-1.18-.19-.33-.74-.45-1.21-.26l-7.76 3.09c-.48.19-.92-.07-.99-.57l-1.17-8.285c-.07-.5-.45-.917-.84-.917s-.77.41-.84.916l-1.17 8.29c-.07.506-.52.76-.99.576l-7.63-3.04-.13 2.05 5.76 4.54c.4.32.39.83-.01 1.14l-5.75 4.43M105.33 95.42l-5.73-4.4c-.4-.31-.406-.82-.007-1.134l5.76-4.54-.13-2.05-7.635 3.04c-.473.19-.917-.07-.99-.572l-1.165-8.29c-.07-.507-.45-.92-.84-.92-.394 0-.772.41-.842.913l-1.16 8.286c-.07.504-.51.763-.98.574l-7.76-3.09c-.47-.19-1.02-.07-1.21.26-.19.336-.03.866.37 1.18l6.53 5.128c.4.317.4.83 0 1.14L83 96.085c-.4.32-.567.88-.37 1.25.195.37.74.52 1.212.335l7.69-3.09c.474-.19.914.07.98.57l1.11 8.36c.066.5.507.913.978.913.47 0 .91-.41.977-.913l1.11-8.357c.066-.505.51-.763.98-.574l7.565 3.04m-21.377 0l7.563-3.04c.472-.19.912.07.98.57l1.11 8.36c.065.5.506.91.976.91s.91-.41.976-.92l1.11-8.36c.07-.51.51-.76.98-.58l7.69 3.09c.47.19 1.02.04 1.214-.33.195-.38.03-.94-.37-1.25l-6.53-5.13c-.398-.32-.398-.83 0-1.14l6.53-5.13c.4-.31.565-.85.37-1.18-.196-.33-.743-.45-1.215-.26l-7.77 3.09c-.47.19-.92-.07-.99-.57l-1.17-8.29c-.07-.51-.45-.92-.84-.92s-.78.41-.85.91l-1.17 8.29c-.07.5-.52.76-.99.57l-7.63-3.04-.14 2.05 5.76 4.53c.39.31.39.82-.01 1.13l-5.75 4.42m128.53-24.19l-6.73-2.71c-.47-.19-.61-.68-.31-1.09l4.32-5.93-.68-1.94-6.53 4.99c-.41.31-.9.18-1.11-.28l-3.36-7.67c-.21-.47-.68-.76-1.06-.66-.38.1-.64.6-.57 1.11l1.11 8.29c.06.5-.29.87-.8.81l-8.31-.89c-.51-.05-1 .21-1.1.58-.1.38.2.84.67 1.04l7.67 3.18c.47.19.61.69.31 1.1l-4.91 6.7c-.3.41-.31 1-.02 1.3.29.3.85.3 1.26-.01l6.57-5.05c.4-.31.9-.18 1.1.28l3.32 7.75c.2.47.73.75 1.18.62.45-.12.76-.64.69-1.14l-1.19-8.35c-.08-.5.28-.87.78-.81l8.11.89m-20.59 5.76l6.46-4.96c.4-.31.9-.18 1.1.29l3.33 7.75c.2.47.73.75 1.18.62.45-.12.77-.64.69-1.14l-1.18-8.35c-.07-.5.28-.87.79-.81l8.24.9c.5.06.99-.23 1.08-.64.08-.41-.23-.91-.7-1.1l-7.67-3.18c-.47-.2-.61-.69-.31-1.1l4.9-6.7c.3-.41.32-.96.04-1.23-.28-.26-.84-.23-1.24.08l-6.64 5.07c-.4.3-.9.18-1.1-.29l-3.36-7.67c-.21-.47-.68-.76-1.06-.66s-.63.6-.57 1.1l1.11 8.29c.07.51-.29.87-.8.82l-8.17-.87.42 2.01 6.77 2.82c.47.19.61.68.3 1.09l-4.32 5.82M172 98.35l-6.73-2.71c-.47-.19-.61-.68-.31-1.09l4.32-5.92-.68-1.94-6.53 4.99c-.402.31-.9.18-1.105-.28l-3.36-7.66c-.203-.465-.68-.76-1.056-.654-.38.1-.63.6-.56 1.11l1.11 8.29c.06.5-.3.87-.8.82l-8.31-.88c-.51-.05-1 .21-1.1.58-.1.37.2.84.67 1.03l7.66 3.18c.47.19.61.69.31 1.1l-4.91 6.7c-.3.41-.31 1-.02 1.3.29.31.86.3 1.26-.01l6.57-5.05c.4-.31.9-.18 1.1.29l3.32 7.75c.2.47.73.75 1.19.62.45-.13.77-.64.69-1.14l-1.18-8.35c-.08-.5.28-.87.78-.81l8.1.88m-20.58 5.76l6.47-4.96c.4-.304.89-.18 1.1.29l3.32 7.75c.2.47.73.747 1.18.62.45-.125.76-.64.69-1.143l-1.19-8.35c-.07-.5.28-.87.79-.81l8.24.9c.5.06.99-.24 1.08-.65.08-.41-.23-.9-.7-1.1l-7.67-3.18c-.47-.19-.61-.69-.31-1.1l4.91-6.7c.3-.41.32-.96.04-1.23s-.84-.23-1.24.08l-6.64 5.07c-.4.31-.9.18-1.11-.29l-3.36-7.66c-.2-.463-.68-.76-1.06-.653s-.63.6-.56 1.106L157 92.5c.068.5-.29.87-.796.815l-8.17-.87.425 2.01 6.77 2.815c.47.195.6.688.3 1.095l-4.34 5.81m210.96 28.09l-4.8-5.445c-.34-.382-.24-.884.21-1.116l6.52-3.35.26-2.037-8.08 1.52c-.5.095-.89-.244-.86-.75l.44-8.36c.03-.507-.27-.984-.65-1.06-.39-.075-.84.256-1 .737l-2.74 7.91c-.17.48-.65.646-1.08.37l-7.03-4.52c-.43-.276-.99-.264-1.25.024-.26.29-.19.842.14 1.226l5.42 6.288c.33.387.23.89-.22 1.12l-7.39 3.784c-.45.23-.72.75-.6 1.153.12.4.63.65 1.13.56l8.14-1.56c.5-.1.88.24.85.75l-.51 8.41c-.03.5.32.99.78 1.08.46.09.97-.23 1.13-.71l2.69-7.99c.16-.49.64-.65 1.07-.38l6.84 4.43m-20.98-4.1l8-1.53c.5-.1.88.24.85.75l-.51 8.41c-.03.51.32.99.78 1.08s.97-.23 1.13-.71l2.69-7.99c.16-.49.64-.65 1.07-.38l6.96 4.5c.42.28.99.23 1.25-.09.26-.33.2-.91-.13-1.3l-5.43-6.29c-.33-.39-.23-.89.22-1.12l7.39-3.78c.45-.23.72-.72.59-1.09-.13-.36-.64-.59-1.14-.49l-8.21 1.54c-.5.09-.89-.25-.86-.75l.44-8.36c.03-.51-.26-.99-.65-1.06-.38-.08-.83.26-1 .74l-2.73 7.91c-.17.48-.65.64-1.08.37l-6.91-4.45-.52 1.99 4.78 5.55c.33.38.23.88-.23 1.11l-6.49 3.24m31.26 77.32l-4.8-5.44c-.34-.38-.24-.88.21-1.12l6.52-3.35.26-2.04-8.07 1.52c-.5.09-.89-.25-.86-.75l.44-8.36c.03-.51-.26-.99-.65-1.06-.38-.08-.83.25-1 .73l-2.73 7.91c-.17.48-.65.65-1.08.37l-7.03-4.52c-.43-.28-.98-.27-1.24.02-.26.29-.19.84.14 1.23l5.42 6.28c.33.38.24.89-.22 1.12l-7.39 3.78c-.45.23-.72.75-.6 1.15s.63.66 1.12.56l8.14-1.56c.5-.1.89.24.85.75l-.52 8.42c-.03.51.33.99.79 1.08.46.09.97-.23 1.13-.71l2.7-7.99c.16-.48.65-.65 1.07-.38l6.84 4.43m-20.98-4.1l8.01-1.53c.5-.09.88.24.85.75l-.51 8.42c-.03.5.32.99.78 1.08s.97-.23 1.13-.71l2.69-7.99c.17-.48.65-.65 1.07-.37l6.96 4.51c.43.28.99.23 1.26-.09.265-.33.21-.91-.12-1.3l-5.43-6.29c-.33-.38-.23-.88.22-1.12l7.39-3.78c.45-.23.72-.72.59-1.08s-.64-.59-1.14-.49l-8.21 1.54c-.5.09-.89-.25-.86-.75l.44-8.36c.03-.51-.266-.99-.65-1.06-.38-.08-.83.25-1 .73l-2.73 7.91c-.17.48-.65.65-1.08.37l-6.91-4.45-.53 1.99 4.78 5.56c.33.38.23.88-.225 1.11l-6.49 3.24m-48.27 35.24l-7.24-.46c-.51-.03-.797-.45-.64-.93l2.244-6.98-1.254-1.63-4.64 6.783c-.29.42-.8.45-1.14.08l-5.6-6.23c-.34-.38-.884-.51-1.21-.29-.33.22-.412.77-.19 1.23l3.66 7.523c.22.457-.003.92-.5 1.026l-8.163 1.77c-.494.11-.88.51-.86.9.03.38.46.73.97.77l8.28.61c.51.03.8.46.64.94l-2.55 7.9c-.155.48.02 1.04.39 1.24.37.194.91.014 1.19-.406l4.66-6.86c.29-.42.8-.46 1.133-.072l5.59 6.31c.34.38.93.48 1.32.217s.522-.85.3-1.3l-3.748-7.56c-.23-.46-.01-.92.49-1.02l7.97-1.71m-17.7 12l4.58-6.743c.28-.42.79-.45 1.13-.07l5.59 6.31c.333.38.93.48 1.32.214s.522-.85.3-1.305l-3.75-7.55c-.226-.46-.005-.92.49-1.02l8.106-1.74c.495-.11.866-.54.82-.958-.046-.42-.496-.79-1.004-.83l-8.283-.61c-.51-.04-.79-.465-.64-.95l2.55-7.9c.16-.485 0-1.02-.35-1.19-.35-.16-.87.047-1.16.467l-4.71 6.9c-.29.42-.8.45-1.14.07l-5.6-6.23c-.34-.38-.89-.51-1.21-.29s-.41.77-.19 1.23l3.66 7.52c.22.46 0 .92-.5 1.03l-8 1.765 1.033 1.772 7.313.55c.504.04.79.466.63.95l-2.3 6.88m-95.54 1.02l-.99-7.19c-.07-.5.29-.87.79-.81l7.29.81 1.346-1.556-7.57-3.19c-.47-.2-.608-.697-.306-1.108l4.983-6.725c.3-.41.32-.97.04-1.24s-.84-.25-1.24.06l-6.645 5.08c-.406.31-.904.18-1.106-.29l-3.36-7.65c-.2-.47-.67-.77-1.05-.67-.37.1-.62.6-.56 1.1l1.06 8.23c.07.5-.29.87-.8.81l-8.25-.92c-.5-.06-1.02.22-1.14.63-.12.4.17.89.63 1.09l7.65 3.19c.47.19.61.69.3 1.09l-5.07 6.73c-.3.4-.28 1.01.06 1.34.34.33.94.34 1.34.03l6.66-5.18c.4-.31.9-.19 1.1.28l3.26 7.47m-15.24-15l7.52 3.14c.47.19.6.69.3 1.09l-5.07 6.74c-.3.4-.28 1.01.06 1.34.34.33.94.34 1.34.03l6.66-5.18c.41-.31.9-.19 1.1.28l3.32 7.6c.2.46.7.74 1.1.61.4-.13.68-.64.61-1.15l-1.05-8.23c-.07-.51.29-.87.8-.81l8.25.92c.5.06.99-.21 1.09-.58.09-.37-.21-.84-.68-1.04l-7.68-3.2c-.47-.2-.61-.7-.3-1.1l4.98-6.73c.3-.41.32-.97.04-1.24s-.84-.25-1.24.06l-6.65 5.08c-.4.31-.9.18-1.11-.29l-3.31-7.52-1.54 1.37.92 7.27c.06.5-.3.86-.8.8l-7.2-.87m103.8-14.71l-6.03-4.04c-.42-.28-.46-.79-.08-1.13l5.45-4.9-.27-2.04-7.42 3.53c-.46.22-.92-.01-1.02-.51l-1.71-8.19c-.1-.5-.51-.89-.9-.86-.39.024-.74.46-.78.97l-.62 8.34c-.04.51-.46.8-.95.64l-7.94-2.57c-.48-.16-1.02-.01-1.2.34-.17.34.03.86.45 1.15l6.85 4.69c.42.29.46.8.08 1.14l-6.18 5.54c-.38.34-.51.91-.29 1.27.22.36.78.47 1.24.25l7.47-3.59c.46-.22.92.01 1.02.51l1.66 8.27c.1.497.57.88 1.04.85.47-.03.88-.47.91-.98l.56-8.41c.03-.51.46-.794.94-.636l7.75 2.533m-21.33 1.4l7.35-3.53c.46-.215.91.01 1.01.51l1.66 8.27c.1.5.56.88 1.03.85s.89-.47.92-.98l.56-8.41c.04-.51.46-.795.94-.64l7.88 2.58c.49.16 1.02-.025 1.19-.41.17-.384-.03-.935-.45-1.22l-6.85-4.694c-.42-.28-.45-.79-.07-1.13l6.18-5.54c.38-.34.51-.88.29-1.2-.22-.32-.77-.404-1.23-.185l-7.544 3.59c-.45.22-.92-.01-1.02-.51l-1.7-8.19c-.11-.495-.51-.88-.9-.854-.39.03-.74.46-.78.97l-.62 8.35c-.04.51-.47.796-.95.638l-7.813-2.54v2.06l6.044 4.15c.42.29.45.8.07 1.13l-5.44 4.79m-111.97-53.5l-7.174-1.097c-.5-.08-.75-.524-.55-.99l2.853-6.76-1.1-1.73-5.22 6.35c-.32.398-.83.387-1.14-.02l-5.02-6.69c-.3-.41-.83-.583-1.18-.4-.34.19-.48.74-.29 1.21l2.98 7.82c.18.48-.08.92-.58.98l-8.29 1.04c-.5.066-.92.43-.94.82-.01.39.39.77.89.85l8.19 1.34c.51.08.75.53.55 1l-3.23 7.648c-.2.47-.07 1.04.28 1.27.36.23.9.1 1.23-.29l5.25-6.42c.33-.39.84-.38 1.14.03l5.01 6.78c.31.41.89.56 1.3.33.41-.22.6-.8.42-1.27l-3.06-7.85c-.19-.47.07-.91.58-.98l8.09-.99m-18.69 10.32l5.15-6.31c.32-.39.84-.38 1.14.03l5.01 6.78c.3.41.89.56 1.3.33.41-.22.6-.8.41-1.27l-3.06-7.85c-.18-.47.08-.91.58-.97l8.23-1.01c.5-.07.91-.46.9-.88-.01-.42-.42-.83-.93-.92l-8.19-1.34c-.5-.08-.75-.53-.55-1l3.24-7.65c.2-.46.09-1.01-.24-1.21-.33-.19-.87-.03-1.19.36l-5.3 6.45c-.32.4-.84.39-1.14-.02l-5.03-6.69c-.3-.41-.83-.59-1.18-.4-.34.19-.47.74-.29 1.21l2.98 7.82c.18.48-.08.92-.59.98l-8.15 1.03.88 1.86 7.235 1.19c.5.08.75.53.547 1l-2.9 6.65m169.12-58.31l6.92-2.18c.48-.15.9.14.93.65l.42 7.32 1.76 1.07 1.88-7.99c.11-.49.58-.71 1.04-.48l7.46 3.8c.45.23 1 .16 1.23-.16.22-.33.1-.87-.27-1.22l-6.12-5.71c-.38-.35-.33-.86.09-1.14l6.98-4.59c.43-.27.64-.79.487-1.14-.16-.35-.69-.52-1.18-.37l-7.94 2.41c-.49.14-.91-.15-.94-.66l-.46-8.29c-.03-.5-.4-.96-.81-1.02-.42-.05-.86.31-.97.81l-1.88 8.07c-.115.49-.58.71-1.03.47l-7.486-3.88c-.45-.23-1.04-.1-1.31.28s-.19.98.19 1.33l6.21 5.7c.38.34.34.85-.09 1.13l-6.82 4.46m12.25-17.52l-1.85 7.93c-.114.5-.58.71-1.03.48l-7.485-3.88c-.45-.23-1.04-.11-1.31.28s-.184.98.19 1.32l6.214 5.7c.37.35.33.86-.094 1.13l-6.94 4.54c-.43.28-.62.82-.43 1.19s.75.56 1.24.41l7.95-2.41c.48-.15.9.15.93.65l.46 8.29c.03.51.37.95.75.98.386.03.798-.35.91-.84l1.917-8.13c.12-.5.58-.71 1.04-.48l7.46 3.79c.45.23 1 .15 1.23-.17.22-.32.1-.87-.27-1.22l-6.13-5.7c-.37-.35-.33-.86.1-1.14l6.86-4.52-1.605-1.28-7.02 2.12c-.49.15-.906-.15-.93-.65l-.335-7.24m-106.4 33.47l-5.28-4.97c-.37-.35-.32-.86.11-1.13l6.18-3.94.07-2.05-7.89 2.27c-.49.14-.91-.16-.93-.67l-.33-8.36c-.02-.51-.36-.96-.75-1-.39-.04-.81.34-.93.83l-1.99 8.13c-.12.5-.59.71-1.04.47l-7.41-3.84c-.45-.24-1.003-.17-1.233.14-.23.31-.12.85.25 1.21l5.98 5.76c.37.36.31.87-.12 1.14l-7.01 4.46c-.43.27-.65.81-.49 1.2.16.39.69.59 1.17.45l7.96-2.31c.49-.14.9.16.92.67l.28 8.43c.016.51.41.96.88 1.01.467.04.946-.32 1.06-.82l1.94-8.21c.115-.5.58-.71 1.03-.472l7.23 3.777m-21.27-2.12l7.825-2.27c.49-.14.9.16.92.67l.273 8.43c.01.51.41.96.88 1.01.47.043.95-.32 1.06-.817l1.94-8.21c.12-.5.585-.71 1.03-.47l7.35 3.83c.45.23 1.01.14 1.24-.21.23-.35.13-.93-.24-1.28l-5.98-5.76c-.37-.35-.32-.863.11-1.136l7-4.45c.43-.27.65-.79.48-1.14-.165-.35-.7-.52-1.186-.38l-8.03 2.305c-.49.14-.91-.16-.93-.67l-.34-8.37c-.02-.51-.35-.96-.74-.996-.39-.04-.81.33-.93.83l-1.986 8.13c-.12.5-.59.71-1.04.476l-7.29-3.786-.34 2.03 5.28 5.09c.36.35.31.86-.12 1.13l-6.16 3.83m79.43 20.47l-5.6-4.62c-.39-.32-.38-.83.03-1.13l5.91-4.34-.06-2.05-7.73 2.78c-.48.17-.915-.1-.97-.602l-.884-8.33c-.06-.5-.42-.93-.81-.94-.4-.01-.79.38-.87.88l-1.45 8.25c-.09.5-.54.74-1.01.54l-7.65-3.354c-.468-.21-1.017-.11-1.227.22-.21.33-.06.86.33 1.19l6.35 5.35c.39.32.37.84-.04 1.14l-6.7 4.9c-.41.3-.6.86-.417 1.238.18.38.72.54 1.2.37l7.79-2.83c.48-.17.91.1.96.61l.83 8.39c.05.51.47.94.94.95.47.02.92-.38 1.01-.88l1.39-8.31c.09-.5.54-.74 1-.54l7.46 3.3m-21.36-.73l7.66-2.78c.48-.17.91.1.96.605l.83 8.39c.05.504.476.93.945.95s.93-.386 1.01-.886l1.39-8.32c.09-.5.535-.743 1-.54l7.58 3.35c.47.205 1.02.07 1.23-.29.203-.37.06-.934-.33-1.26l-6.35-5.35c-.39-.33-.37-.84.035-1.14l6.7-4.904c.41-.3.6-.826.41-1.17-.18-.34-.73-.47-1.208-.3l-7.86 2.83c-.48.175-.91-.1-.96-.6l-.89-8.32c-.06-.506-.42-.93-.81-.94-.39-.016-.79.384-.87.89l-1.45 8.24c-.09.5-.54.74-1.01.54l-7.528-3.3-.2 2.04 5.6 4.73c.39.325.37.835-.043 1.13l-5.9 4.23"/>
  <path fill="none" stroke="#585858" stroke-width="2" stroke-linecap="round" stroke-miterlimit="10" d="M142.333 76c.652-2.022 1.54-4.02 2.667-6m1.667-3.666c.296-1.92 3.09-3.092 5-3M156 61.667c2.232 0 5.57-.51 7.333.333m5.334 1.667c2.217-.172 5.587 2.63 6.667 4.333"/>
</svg>
