<svg width="69" height="77" viewBox="0 0 69 77" fill="none" xmlns="http://www.w3.org/2000/svg">
<path d="M1.30533 1.75641C0.486667 2.67374 0 4.05507 0 5.84041V71.6364C0 73.1431 0.354667 74.3497 0.950667 75.2471L37.4507 38.3231L1.30533 1.75641Z" fill="#333333"/>
<path d="M38.7529 37.0068L50.0222 25.6055L7.55952 1.48017C5.79019 0.474837 4.16886 0.266838 2.88086 0.714838L38.7529 37.0068Z" fill="#333333"/>
<path d="M38.7519 39.6388L2.31055 76.5041C3.67188 77.2535 5.51721 77.1588 7.55855 76.0001L50.5492 51.5721L38.7519 39.6388Z" fill="#333333"/>
<path d="M65.5774 34.4443L51.6894 26.5536L40.0547 38.323L52.216 50.627L65.5774 43.0336C69.7347 40.6723 69.7347 36.8056 65.5774 34.4443Z" fill="#333333"/>
</svg>
