<svg width="63" height="78" viewBox="0 0 63 78" fill="none" xmlns="http://www.w3.org/2000/svg">
<path d="M51.8519 41.4626C51.7626 31.8239 59.7453 27.1319 60.1093 26.9159C55.5933 20.3213 48.5839 19.4239 46.1226 19.3519C40.2399 18.7346 34.5333 22.8773 31.5413 22.8773C28.4853 22.8773 23.8586 19.4146 18.8919 19.5146C12.4906 19.6173 6.49859 23.3239 3.21726 29.0746C-3.55741 40.8092 1.4946 58.0506 7.98793 67.5412C11.2373 72.1839 15.0319 77.3719 19.9999 77.1866C24.8586 76.9852 26.6719 74.0906 32.5413 74.0906C38.3559 74.0906 40.0599 77.1866 45.1266 77.0706C50.3426 76.9852 53.6239 72.4039 56.7573 67.7146C60.5159 62.3919 62.0213 57.1506 62.0813 56.8799C61.9586 56.8386 51.9519 53.0213 51.8519 41.4626Z" fill="#333333"/>
<path d="M42.2797 13.1129C44.893 9.84493 46.6877 5.39293 46.1824 0.880928C42.401 1.04893 37.6717 3.49693 34.949 6.69693C32.537 9.51559 30.377 14.1356 30.937 18.4756C35.193 18.7916 39.5504 16.3289 42.2797 13.1129Z" fill="#333333"/>
</svg>
