<svg width="15" height="16" viewBox="0 0 15 16" fill="none" xmlns="http://www.w3.org/2000/svg">
<path fill-rule="evenodd" clip-rule="evenodd" d="M14.8178 1.38926C15.013 1.194 15.013 0.877414 14.8178 0.682152C14.6225 0.48689 14.3059 0.48689 14.1107 0.682152L7.49993 7.29288L0.889198 0.682152C0.693936 0.48689 0.377354 0.48689 0.182092 0.682152C-0.0131701 0.877414 -0.0131701 1.194 0.182092 1.38926L6.79282 7.99999L0.182091 14.6107C-0.013171 14.806 -0.013171 15.1226 0.182091 15.3178C0.377353 15.5131 0.693936 15.5131 0.889198 15.3178L7.49993 8.7071L14.1107 15.3178C14.3059 15.5131 14.6225 15.5131 14.8178 15.3178C15.013 15.1226 15.013 14.806 14.8178 14.6107L8.20704 7.99999L14.8178 1.38926Z"/>
</svg>
