<svg viewBox="0 0 16 16" xmlns="http://www.w3.org/2000/svg">
  <path d="M12.6549 9.07752l1.0654.61497c.1217.07022.1782.21545.1365.34961-.2768.8911-.7493 1.6961-1.3672 2.3647-.0463.05-.1082.0829-.1756.0931-.0674.0103-.1362-.0027-.1952-.0368l-1.0646-.6149c-.448.3838-.9629.6816-1.51902.8783v1.2295c0 .0682-.02321.1344-.06582.1876-.04261.0533-.10207.0904-.1686.1054-.8739.1962-1.81248.2064-2.73048.0002-.13725-.0309-.23507-.1524-.23507-.2931v-1.2296c-.5561-.1967-1.07106-.4945-1.51898-.8783l-1.0646.6149c-.05903.0341-.12789.0471-.19527.0368-.06739-.0102-.12928-.0431-.17553-.0931-.61795-.6686-1.09047-1.4736-1.36722-2.3647-.04168-.13414.0148-.27936.13647-.34961l1.06543-.61497a4.836673 4.836673 0 0 1 0-1.75498l-1.0654-.61498c-.12168-.07022-.17815-.21544-.13648-.34962.27675-.89105.74925-1.69605 1.36722-2.36465a.300412.300412 0 0 1 .3708-.05635l1.06461.61488a4.789212 4.789212 0 0 1 1.51897-.87825V2.44399c0-.06819.02321-.13436.06582-.1876a.300275.300275 0 0 1 .16861-.10535c.8739-.19625 1.81247-.2064 2.73047-.00017.13725.03082.23508.1524.23508.29307v1.2296a4.78871 4.78871 0 0 1 1.51899.87825l1.0646-.61487c.059-.03407.1279-.04705.1953-.03681.0673.01024.1292.04309.1755.09316.6179.6686 1.0905 1.4736 1.3672 2.36464.0417.13415-.0148.27938-.1365.34963l-1.0654.61498c.107.5801.107 1.17489 0 1.755zm-2.7197-.8775c0-1.1028-.89719-2-2-2-1.10279 0-1.99999.8972-1.99999 2 0 1.10279.8972 1.99998 1.99999 1.99998 1.10281 0 2-.89719 2-1.99998z" fill="#000"/>
</svg>
