<svg viewBox="0 0 16 16" xmlns="http://www.w3.org/2000/svg">
  <path d="M2 4.1v-.7c0-.333.268-.6.6-.6h2.8l.235-.467A.593.593 0 0 1 6.17 2h2.857a.6.6 0 0 1 .538.333L9.8 2.8h2.8c.332 0 .6.268.6.6v.7a.3.3 0 0 1-.3.3H2.3a.3.3 0 0 1-.3-.3zm10.4 1.4v8.1a1.2 1.2 0 0 1-1.2 1.2H4a1.2 1.2 0 0 1-1.2-1.2V5.5a.3.3 0 0 1 .3-.3h9a.3.3 0 0 1 .3.3zM5.6 7.2c0-.22-.18-.4-.4-.4-.22 0-.4.18-.4.4v5.6c0 .22.18.4.4.4.22 0 .4-.18.4-.4V7.2zm2.4 0c0-.22-.18-.4-.4-.4-.22 0-.4.18-.4.4v5.6c0 .22.18.4.4.4.22 0 .4-.18.4-.4V7.2zm2.4 0c0-.22-.18-.4-.4-.4-.22 0-.4.18-.4.4v5.6c0 .22.18.4.4.4.22 0 .4-.18.4-.4V7.2z" />
</svg>