<svg viewBox="0 0 16 16" xmlns="http://www.w3.org/2000/svg">
  <path d="M10.905 6.6h3.286a6.207 6.207 0 0 1 0 3.2h-3.286a13.575 13.575 0 0 0 0-3.2zm-4.475 4c.267 1.342.83 2.813 1.753 3.8h.034c.925-.989 1.486-2.46 1.753-3.8H6.43zm4.354-4.8h3.134a6.21 6.21 0 0 0-4.594-3.698c.756 1.078 1.22 2.408 1.46 3.698zm-.684.8H6.3a12.829 12.829 0 0 0 0 3.2h3.8c.133-1.048.133-2.15 0-3.2zm-4.484 4H2.482a6.21 6.21 0 0 0 4.594 3.698c-.756-1.078-1.22-2.409-1.46-3.698zm5.168 0c-.24 1.29-.705 2.62-1.46 3.698a6.21 6.21 0 0 0 4.594-3.698h-3.134zM9.97 5.8C9.703 4.458 9.14 2.987 8.217 2h-.034c-.925.989-1.486 2.46-1.753 3.8h3.54zm-7.761.8a6.207 6.207 0 0 0 0 3.2h3.286a13.573 13.573 0 0 1 0-3.2H2.209zm3.407-.8c.24-1.29.704-2.62 1.46-3.698A6.21 6.21 0 0 0 2.482 5.8h3.134z" />
</svg>
