<svg viewBox="0 0 16 16" xmlns="http://www.w3.org/2000/svg">
  <path d="M8 3c1.44975 0 2.625 1.17525 2.625 2.625S9.44975 8.25 8 8.25 5.375 7.07475 5.375 5.625 6.55025 3 8 3zm2.8366 5.43415l-.99958-.2499c-1.2292.88413-2.71914.68682-3.67402 0l-.99955.2499C4.36212 8.63448 3.8 9.35443 3.8 10.1804V11.7c0 .4971.40295.9.9.9h6.6c.4971 0 .9-.4029.9-.9v-1.5196c0-.82597-.5621-1.54592-1.3634-1.74625zM13.2 8.9c.9665 0 1.75-.7835 1.75-1.75S14.1665 5.4 13.2 5.4s-1.75.7835-1.75 1.75.7835 1.75 1.75 1.75zm-10.4 0c.9665 0 1.75-.7835 1.75-1.75S3.7665 5.4 2.8 5.4s-1.75.7835-1.75 1.75S1.8335 8.9 2.8 8.9zm.6 2.8v-1.5196c0-.41377.11483-.8051.31758-1.13997-.7497.368-1.5834.2177-2.14225-.18425l-.66638.1666C.37475 9.1563 0 9.6363 0 10.1869V11.2c0 .3314.268625.6.6.6h2.80423A1.303906 1.303906 0 0 1 3.4 11.7zm11.6911-2.67725l-.6664-.1666c-.6981.50215-1.5223.48082-2.1447.18045.2042.33572.32.72843.32 1.1438V11.7c0 .0337-.0017.067-.0042.1H15.4c.3314 0 .6-.2686.6-.6v-1.0131c0-.5506-.3747-1.0306-.9089-1.16415z" fill="#000"/>
</svg>
