<svg width="13" height="13" viewBox="0 0 13 13" fill="none" xmlns="http://www.w3.org/2000/svg">
<g opacity="0.6">
<path d="M9.87997 3.97852L12.136 1.72248L11.0635 0.649983L8.80747 2.90332L7.82701 1.9229C7.41803 1.51394 6.71663 1.80373 6.71663 2.38332L6.71663 5.41665C6.71663 5.77686 7.00636 6.06665 7.36663 6.06665L10.3999 6.06665C10.9795 6.06665 11.2693 5.36519 10.8604 4.95623L9.87997 3.97852Z" fill="#A4A4A4"/>
<path d="M2.90332 8.80484L0.649982 11.0609L1.71977 12.1334L3.97582 9.88003L4.95623 10.8604C5.36519 11.2694 6.06665 10.9796 6.06665 10.4L6.06665 7.36669C6.06665 7.00651 5.77686 6.71669 5.41665 6.71669L2.38332 6.71669C1.80373 6.71669 1.51394 7.41818 1.9229 7.82707L2.90332 8.80484Z" fill="#A4A4A4"/>
</g>
</svg>
