<svg width="10" height="10" viewBox="0 0 10 10" fill="none" xmlns="http://www.w3.org/2000/svg">
<g opacity="0.7">
<path d="M5 0C6.72589 0 8.125 1.39911 8.125 3.125C8.125 4.85089 6.72589 6.25 5 6.25C3.27411 6.25 1.875 4.85089 1.875 3.125C1.875 1.39911 3.27411 0 5 0ZM8.57975 6.51993L7.18692 6.17172C5.7236 7.22429 3.94985 6.98938 2.81308 6.17172L1.42024 6.51993C0.585558 6.72862 0 7.47857 0 8.33893V9.0625C0 9.58027 0.419732 10 0.9375 10H9.0625C9.58027 10 10 9.58027 10 9.0625V8.33893C10 7.47857 9.41446 6.72862 8.57975 6.51993Z" fill="#A4A4A4"/>
</g>
</svg>
