<svg width="12" height="12" viewBox="0 0 12 12" fill="none" xmlns="http://www.w3.org/2000/svg">
<g opacity="0.4">
<path d="M11.2102 5.96497C11.2102 7.45154 10.6197 8.87722 9.5685 9.92838C8.51734 10.9795 7.09166 11.5701 5.6051 11.5701C4.11853 11.5701 2.69285 10.9795 1.64169 9.92838C0.590535 8.87722 0 7.45154 0 5.96497C0 2.87072 2.50964 0.359879 5.6051 0.359879C8.70055 0.359879 11.2102 2.87072 11.2102 5.96497ZM5.75577 2.21318C4.52385 2.21318 3.73794 2.7315 3.12138 3.65363C3.0827 3.71115 3.06751 3.78131 3.07895 3.84968C3.09038 3.91806 3.12756 3.97946 3.18285 4.02127L3.96696 4.61613C4.02356 4.65901 4.09472 4.67797 4.16515 4.66896C4.23558 4.65994 4.29967 4.62367 4.34365 4.56792C4.74746 4.05623 5.0247 3.7591 5.63885 3.7591C6.10051 3.7591 6.67127 4.05623 6.67127 4.50403C6.67127 4.84275 6.39222 5.01633 5.93598 5.27187C5.4044 5.57021 4.70105 5.94087 4.70105 6.86902V6.95943C4.70105 7.1089 4.82219 7.23064 4.97226 7.23064H6.23793C6.30986 7.23064 6.37884 7.20207 6.42971 7.1512C6.48057 7.10034 6.50914 7.03136 6.50914 6.95943V6.92929C6.50914 6.28621 8.38956 6.25909 8.38956 4.5185C8.38956 3.20763 7.02927 2.21318 5.75577 2.21318ZM5.6051 7.81827C5.03193 7.81827 4.56544 8.28476 4.56544 8.85793C4.56544 9.43109 5.03193 9.89758 5.6051 9.89758C6.17826 9.89758 6.64475 9.43109 6.64475 8.85793C6.64475 8.28476 6.17826 7.81827 5.6051 7.81827Z" fill="#A4A4A4"/>
</g>
</svg>
