<svg viewBox="0 0 16 16" xmlns="http://www.w3.org/2000/svg">
  <path d="M5.6 2c1.933 0 3.5 1.567 3.5 3.5S7.533 9 5.6 9 2.1 7.433 2.1 5.5 3.667 2 5.6 2zm4.00932 7.30232l-1.55997-.38999c-1.63892 1.17887-3.62552.91577-4.8987 0l-1.55998.38999C.655825 9.53605 0 10.376 0 11.3396v.8104c0 .5799.4701 1.05 1.05 1.05h9.1c.5799 0 1.05-.4701 1.05-1.05v-.8104c0-.9636-.6558-1.80355-1.59068-2.03728zM15.7 6.82223h-1.7222V5.1c0-.16568-.1343-.3-.3-.3h-.9556c-.1656 0-.3.13432-.3.3v1.72218L10.7 6.82223c-.1657 0-.3.13432-.3.3v.95555c0 .16567.1343.29999.3.29999l1.7222.00006V10.1c0 .1657.1344.3.3.3h.9556c.1657 0 .3-.1343.3-.3V8.37783L15.7 8.37777c.1657 0 .3-.13432.3-.29999v-.95555c0-.16568-.1343-.3-.3-.3z" fill="#000"/>
</svg>
