<svg xmlns="http://www.w3.org/2000/svg" viewBox="0 0 17 20">
  <path d="M.992 20h15.016a.991.991 0 0 0 .992-.987v-9.46a.985.985 0 0 0-.992-.982h-.956V7.192c0-1.853-.717-3.91-1.886-5.152C12.002.8 10.333 0 8.504 0H8.5h-.004C6.667 0 4.998.8 3.834 2.036c-1.169 1.24-1.886 3.299-1.886 5.152V8.57H.992A.988.988 0 0 0 0 9.554v9.46c0 .544.443.986.992.986zM4.294 7.192c0-1.219.439-2.728 1.244-3.585v-.013c.78-.83 1.855-1.317 2.958-1.317h.008c1.103 0 2.179.486 2.958 1.317v.009l-.005.004c.81.857 1.244 2.366 1.244 3.585v1.38H4.295v-1.38z" />
</svg>
